<svg xmlns="http://www.w3.org/2000/svg" width="29" height="31" viewBox="0 0 29 31"><g><g><g><path fill="#fff" d="M11.608 3.2l-.562-1.46 3.17-.63 2.292.517-.18 1.416-2.9.652z"/></g><g><path fill="#fff" d="M19.655 28.576S7.54 35.454 1.405 25.789c-1.642-2.832-.585-6.878 1.37-9.732C4.978 12.82 8.26 10.91 8.26 10.91s.045 2.45 5.35 2.652c0 0-6.608 2.54-8.496 8.45-1.888 5.89 4.36 11.194 14.542 6.564z"/></g><g><path fill="#fff" d="M6.102 26.036s5.17 3.462 12.744-1.191c7.192-4.428 6.585-9.575 5.371-11.508 2.81 2.135 4.698 6.923-2.584 12.654-7.328 5.8-14.632 2.675-15.531.045z"/></g><g><path fill="#fff" d="M27.881 19.293s.832-4.81-3.506-6.495c-2.473-1.08-5.147-.697-5.147-.697s2.157-2.023 1.843-3.754c3.461.472 8.54 4.36 6.81 10.946z"/></g><g><path fill="#fff" d="M8.866 8.55s1.551 2.337 5.035 2.135c3.484-.202 5.394-1.73 5.731-4 .877.246 2.068 1.955-.562 4.427-.719.674-2.854 1.82-5.821 1.618-4.068-.27-5.53-2.81-4.383-4.18z"/></g><g><path fill="#fff" d="M18.036 8.46s-.944 1.214-3.618 1.326c-.18-1.461-.562-3.574-.562-3.574L18.688 5z"/></g><g><path fill="#fff" d="M13.204 6.437l.607 3.326s-1.416.225-3.012-.651C10.327 7.65 9.72 5.965 9.72 5.965z"/></g><g><path fill="#fff" d="M9.158 5.65l1.08 3.102-1.035-.72-2.067-4.18z"/></g><g><path fill="#fff" d="M9.383 1.56L7.585 3.605l1.798 1.618 1.686-1.865-.652-1.529z"/></g><g><path fill="#fff" d="M13.114 5.785l-2.99-.27 1.35-1.708 1.595.405z"/></g><g><path fill="#fff" d="M13.676 5.74l.023-1.506 2.607-.584 2.068.989z"/></g><g><path fill="#fff" d="M18.419 8.1l.719-3.326 1.168-1.371S19.363 6.976 18.42 8.1z"/></g><g><path fill="#fff" d="M20.06 3.11l-1.282-1.663-1.55.09-.383 1.708 2.023 1.147z"/></g><g><path fill="#fff" d="M16.553.728l-1.955-.09-.023.09s2.27.472 2.27.495l1.484-.09z"/></g><g><path fill="#fff" d="M12.395.66l-2.54.63.674.135 3.44-.72.246-.067z"/></g><g/></g></g></svg>