<svg width="90" height="22" viewBox="0 0 90 22" xmlns="http://www.w3.org/2000/svg"><g fill="none" fill-rule="evenodd"><path d="M33.54 4.79h-4.96a.69.69 0 00-.69.57l-2 12.44a.4.4 0 00.4.47h2.38c.34 0 .63-.24.68-.57l.54-3.36a.68.68 0 01.68-.57h1.57c3.27 0 5.16-1.54 5.65-4.6.22-1.35.01-2.4-.63-3.14-.7-.81-1.96-1.24-3.62-1.24zm.57 4.55c-.27 1.74-1.63 1.74-2.95 1.74h-.74l.52-3.26a.4.4 0 01.41-.34h.34c.9 0 1.75 0 2.18.5.26.3.34.74.24 1.36zm14.27-.06H46c-.2 0-.38.14-.4.34l-.11.65-.17-.24c-.51-.73-1.66-.97-2.8-.97a5.42 5.42 0 00-5.31 4.67c-.23 1.37.1 2.67.88 3.57.73.84 1.76 1.19 3 1.19 2.11 0 3.29-1.33 3.29-1.33l-.11.64a.4.4 0 00.4.47h2.15c.34 0 .63-.24.68-.57l1.29-7.95a.4.4 0 00-.41-.47zm-3.32 4.52a2.63 2.63 0 01-2.68 2.22c-.69 0-1.24-.21-1.6-.62-.34-.41-.48-1-.37-1.64a2.64 2.64 0 012.67-2.23c.67 0 1.22.21 1.58.63a2 2 0 01.4 1.64z" fill="#636363" fill-rule="nonzero"/><path d="M61.04 9.28h-2.4a.7.7 0 00-.56.3l-3.3 4.74-1.4-4.56a.69.69 0 00-.66-.48h-2.34a.4.4 0 00-.4.53l2.64 7.55-2.48 3.42a.4.4 0 00.34.64h2.39a.7.7 0 00.56-.3l7.95-11.2a.4.4 0 00-.34-.64z" fill="#636363"/><path d="M68.95 4.79h-4.97a.68.68 0 00-.68.57l-2 12.44a.4.4 0 00.4.47h2.55c.23 0 .44-.17.47-.4l.57-3.53a.68.68 0 01.69-.57h1.57c3.27 0 5.15-1.54 5.65-4.6.22-1.35 0-2.4-.64-3.14-.7-.81-1.95-1.24-3.61-1.24zm.57 4.55c-.27 1.74-1.63 1.74-2.95 1.74h-.75l.53-3.26a.4.4 0 01.4-.34h.35c.9 0 1.74 0 2.18.5.26.3.34.74.24 1.36zm14.26-.06h-2.37a.4.4 0 00-.41.34l-.1.65-.17-.24c-.52-.73-1.66-.97-2.81-.97a5.42 5.42 0 00-5.3 4.67 4.29 4.29 0 00.88 3.57c.72.84 1.76 1.19 3 1.19 2.1 0 3.28-1.33 3.28-1.33l-.1.64a.4.4 0 00.4.47h2.15c.34 0 .62-.24.68-.57l1.28-7.95a.4.4 0 00-.4-.47zm-3.31 4.52a2.63 2.63 0 01-2.68 2.22c-.7 0-1.24-.21-1.6-.62-.35-.41-.48-1-.37-1.64a2.64 2.64 0 012.66-2.23c.68 0 1.23.21 1.59.63a2 2 0 01.4 1.64z" fill="#A9A9A9" fill-rule="nonzero"/><path d="M86.59 5.13L84.55 17.8a.4.4 0 00.4.47H87a.7.7 0 00.69-.57l2-12.44a.4.4 0 00-.4-.47h-2.3a.4.4 0 00-.4.34z" fill="#A9A9A9"/><path d="M5.27 20.69l.38-2.36-.84-.02H.77L3.57.91A.23.23 0 013.8.74h6.81c2.26 0 3.82.46 4.64 1.36.38.43.62.88.74 1.36a4.8 4.8 0 010 1.88v.54l.38.2c.32.17.57.36.77.58.33.37.54.83.63 1.38a5.6 5.6 0 01-.1 2 6.93 6.93 0 01-.83 2.25 4.73 4.73 0 01-3.11 2.21 8.9 8.9 0 01-2.23.25h-.53c-.38 0-.74.13-1.03.37-.3.25-.48.58-.54.95l-.04.2-.67 4.16-.03.16a.2.2 0 01-.05.09.11.11 0 01-.07.02H5.27z" fill="#253B80"/><path d="M16.73 5.44l-.07.4c-.9 4.5-3.97 6.06-7.9 6.06h-2a.96.96 0 00-.95.8l-1.02 6.34-.3 1.8c-.04.3.2.58.51.58h3.54c.42 0 .78-.3.85-.7l.03-.18.67-4.14.04-.23c.07-.4.42-.7.84-.7h.53c3.44 0 6.12-1.37 6.9-5.3.34-1.66.17-3.03-.7-4-.26-.29-.6-.53-.97-.73z" fill="#A9A9A9"/><path d="M15.79 5.07a7.21 7.21 0 00-.87-.18c-.54-.09-1.13-.13-1.76-.13H7.82a.86.86 0 00-.37.08.83.83 0 00-.47.62L5.84 12.5l-.03.2c.07-.45.48-.8.96-.8h2c3.92 0 7-1.55 7.89-6.06l.07-.39a4.85 4.85 0 00-.94-.37z" fill="#636363"/><path d="M6.98 5.46c.04-.28.23-.5.47-.62a.87.87 0 01.37-.08h5.34a11.34 11.34 0 012.63.32l.2.06c.27.08.51.18.74.3.27-1.66 0-2.8-.92-3.83C14.79.48 12.96 0 10.6 0H3.8a.97.97 0 00-.97.8L.01 18.38c-.06.35.22.66.57.66h4.2l1.06-6.55 1.14-7.03z" fill="#636363"/></g></svg>