<svg width="50" height="22" viewBox="0 0 50 22" xmlns="http://www.w3.org/2000/svg"><g fill="none" fill-rule="evenodd"><path d="M20.37 11.66l-2.43 6.43-.26-1.3c-.6-1.6-1.92-3.29-3.45-3.97l2.23 8.26h2.63l3.92-9.42h-2.64zm4.58 9.43h-2.49l1.56-9.44h2.48zm9.02-9.21a6.26 6.26 0 00-2.23-.4c-2.46 0-4.19 1.29-4.2 3.12-.02 1.36 1.23 2.11 2.17 2.56.98.47 1.3.76 1.3 1.17-.01.64-.78.92-1.5.92-.99 0-1.52-.14-2.33-.49l-.33-.15-.34 2.11c.58.27 1.65.5 2.77.5 2.61 0 4.31-1.26 4.33-3.22.01-1.07-.65-1.89-2.1-2.56-.86-.44-1.4-.73-1.39-1.17 0-.4.45-.81 1.43-.81.81-.02 1.4.17 1.86.36l.22.1.34-2.04zm6.38-.22h-1.92c-.6 0-1.04.17-1.3.78l-3.7 8.65h2.61l.53-1.42h3.18l.3 1.42h2.32l-2.02-9.43zm-3.07 6.08l1-2.64.33-.9.16.82.58 2.72h-2.07z" fill="#636363"/><path d="M15.68 11.65h-4.01l-.03.17c3.12.78 5.18 2.7 6.04 4.97l-.87-4.34c-.15-.6-.59-.77-1.13-.8z" fill="#A9A9A9"/><path fill="#636363" d="M2.48 1l1.25 6.33 3.19-6.24H8.6L4.14 9.37H2.55L.72 1.3zm9.92 5.73H8.6c-.1 1.13.44 1.62 1.34 1.62a4 4 0 002.14-.72v1.12c-.7.43-1.52.7-2.47.7-1.65 0-2.74-.91-2.41-3 .3-1.87 1.62-3 3.16-3 1.77 0 2.35 1.3 2.1 2.94l-.07.34zm-2.24-2.3c-.58 0-1.13.46-1.39 1.4h2.35c.04-.89-.25-1.4-.96-1.4zm4.7 1.6l-.52 3.3h-1.47l.9-5.76h1.25v1.16c.5-.67 1.17-1.24 2.1-1.28v1.42c-.92.06-1.75.54-2.26 1.16zm2.24 3.31l.91-5.77h1.47l-.9 5.77H17.1zm1.81-6.74c-.49 0-.83-.34-.75-.81.08-.5.52-.84 1.01-.84.48 0 .81.35.73.84a1 1 0 01-.99.8zm4.62-.61c-.5 0-.8.21-.88.73l-.13.85h1.12v1.17h-1.3l-.73 4.6h-1.45l.72-4.6h-.85l.18-1.17h.85l.16-1c.2-1.27 1.1-1.75 2.31-1.75.26 0 .45.02.6.05v1.17a3.78 3.78 0 00-.6-.05zm.02 7.35l.9-5.77h1.47l-.9 5.77h-1.47zm1.8-6.74c-.48 0-.82-.34-.75-.81.08-.5.52-.84 1.01-.84.48 0 .81.35.74.84a1 1 0 01-1 .8zm6.25 4.13h-3.78c-.1 1.13.43 1.62 1.33 1.62a4 4 0 002.14-.72v1.12c-.71.43-1.52.7-2.47.7-1.65 0-2.74-.91-2.41-3 .3-1.87 1.62-3 3.15-3 1.77 0 2.36 1.3 2.1 2.94-.01.12-.05.26-.06.34zm-2.23-2.3c-.58 0-1.13.46-1.39 1.4h2.34c.05-.89-.24-1.4-.95-1.4zm6.57 4.91v-.8c-.5.49-1.13.92-1.95.92-1.23 0-2.08-.9-1.77-2.85.33-2.15 1.7-3.1 3.06-3.1.56 0 1 .1 1.33.21l.44-2.78 1.5-.23-1.36 8.63h-1.25zm.49-4.44a2.28 2.28 0 00-1.11-.25c-.77 0-1.43.61-1.63 1.88-.17 1.12.23 1.65.88 1.65.54 0 1-.31 1.47-.79l.39-2.49zm5.25 4.5c-.7 0-1.26-.12-1.78-.3l.96-6.13 1.13-.17-.41 2.65c.33-.29.8-.58 1.36-.58.94 0 1.57.7 1.34 2.16-.25 1.61-1.27 2.36-2.6 2.36zm.82-3.57c-.37 0-.74.25-1.07.58l-.31 1.98c.22.08.37.12.68.12.7 0 1.2-.42 1.35-1.42.13-.84-.15-1.26-.65-1.26zm4.4 3.74c-.57 1.08-1.14 1.42-2 1.42-.19 0-.3-.02-.4-.05v-.9c.14.04.3.07.5.07a.9.9 0 00.8-.46l.15-.3-.94-4.3 1.17-.15.55 3.12 1.48-3.05h1.1l-2.42 4.6z"/></g></svg>