<svg xmlns="http://www.w3.org/2000/svg" width="40" height="22" viewBox="0 0 40 22"><g fill="none" fill-rule="evenodd"><path d="M39.66.08H.1v21.86h39.57v-7.21a.59.59 0 00.24-.48.54.54 0 00-.24-.48" fill="#636363"/><path class="no-fill" d="M3.66 8.15l-.76-1.8-.76 1.8h1.52zm16.77-.71c-.16.09-.34.1-.55.1h-1.35v-1h1.37c.19 0 .4 0 .52.07.15.07.24.2.24.4s-.09.36-.23.43zm9.64.71l-.77-1.8-.77 1.8h1.54zM12.1 10.1h-1.14V6.57L9.33 10.1h-.98l-1.6-3.53v3.53H4.49l-.43-1H1.74l-.43 1H.11l1.98-4.5h1.66l1.89 4.26V5.59h1.81l1.46 3.06 1.34-3.06h1.85v4.5zm4.54 0h-3.71V5.6h3.71v.93h-2.6v.81h2.54v.93h-2.54v.9h2.6v.93zm5.24-3.3c0 .72-.5 1.1-.78 1.2.24.1.45.25.55.39.16.22.18.42.18.82v.89h-1.12v-.57c0-.27.02-.66-.18-.88-.16-.16-.41-.2-.81-.2h-1.2v1.65h-1.1V5.6h2.55c.57 0 .99 0 1.35.21.35.2.56.5.56 1zm1.78 3.3h-1.13V5.6h1.13v4.5zm13.17 0h-1.58l-2.1-3.38v3.38h-2.27l-.43-1h-2.32l-.42 1h-1.3c-.54 0-1.22-.12-1.6-.5-.4-.38-.6-.9-.6-1.72 0-.67.12-1.28.6-1.76.36-.36.92-.53 1.69-.53h1.07v.97h-1.05c-.4 0-.64.06-.86.27-.19.19-.32.54-.32 1.02s.1.83.3 1.05c.18.18.49.24.78.24h.5l1.57-3.55h1.67l1.88 4.26V5.6h1.7l1.95 3.14V5.59h1.14v4.5zm-36.74.88h1.9l.43-1h.96l.43 1h3.73v-.76l.34.76h1.94l.33-.77v.77h9.3V9.34h.17c.13 0 .16.01.16.22v1.42h4.8v-.38c.4.2 1 .38 1.8.38h2.02l.43-1h.96l.42 1h3.9v-.95l.59.95h3.12V4.7h-3.1v.74l-.42-.74h-3.17v.74l-.4-.74h-4.28c-.72 0-1.35.1-1.86.37V4.7h-2.96v.37c-.32-.28-.76-.37-1.25-.37H9.58l-.72 1.62L8.1 4.7H4.7v.74l-.37-.74h-2.9l-1.34 3V11zm39.57 3.32h-2.03c-.2 0-.33 0-.45.08a.37.37 0 00-.16.33c0 .17.1.28.24.33.12.04.25.05.43.05l.6.02c.61.01 1.02.12 1.27.36l.1.11V14.3zm0 2.97c-.27.38-.8.58-1.5.58H36v-.97h2.14c.22 0 .36-.03.45-.11a.39.39 0 00.13-.3.36.36 0 00-.13-.3c-.08-.06-.2-.1-.4-.1-1.04-.03-2.34.04-2.34-1.39 0-.65.43-1.34 1.6-1.34h2.21v-.9H37.6c-.62 0-1.07.15-1.39.38v-.37h-3.04c-.5 0-1.06.11-1.33.37v-.37H26.4v.37a2.97 2.97 0 00-1.5-.37h-3.59v.37c-.34-.33-1.1-.37-1.56-.37h-4.02l-.92.96-.86-.96h-6v6.28h5.9l.94-.98.89.98h3.63v-1.47h.35a3.9 3.9 0 001.55-.22v1.7h3v-1.65h.14c.18 0 .2.01.2.19v1.45h9.08c.58 0 1.18-.14 1.52-.4v.4h2.88c.6 0 1.19-.08 1.63-.29v-1.17zm-4.44-1.8c.22.22.34.5.34.96 0 .96-.63 1.42-1.75 1.42h-2.17v-.97h2.16c.21 0 .36-.03.46-.11a.4.4 0 000-.6.71.71 0 00-.4-.1c-1.05-.03-2.35.04-2.35-1.39 0-.65.43-1.34 1.6-1.34h2.22v.96H33.3c-.2 0-.33.01-.44.08-.13.08-.17.18-.17.33 0 .17.1.28.24.33.12.04.25.05.44.05l.6.02c.6.01 1.01.12 1.26.36zM25.2 15.2c-.15.09-.33.1-.55.1H23.3v-1.01h1.37c.2 0 .4 0 .53.08.14.07.23.2.23.4s-.09.35-.23.43zm.67.56c.25.1.45.25.54.38.16.22.18.43.19.82v.9h-1.12v-.57c0-.27.03-.67-.18-.88-.16-.16-.4-.2-.81-.2h-1.2v1.65h-1.11v-4.5h2.57c.56 0 .97.02 1.34.2.35.21.57.5.57 1 0 .73-.5 1.1-.79 1.2zm1.4-2.4h3.72v.93h-2.6v.81h2.53v.92h-2.54v.9h2.6v.94h-3.7v-4.5zm-7.5 2.07h-1.44v-1.14h1.45c.4 0 .68.15.68.55 0 .39-.26.6-.69.6zm-2.54 2.02L15.5 15.6l1.7-1.77v3.6zm-4.41-.53h-2.74V16h2.44v-.92h-2.44v-.81h2.79l1.22 1.3-1.27 1.33zm8.84-2.08c0 1.25-.97 1.5-1.94 1.5h-1.39v1.52h-2.16l-1.37-1.5-1.42 1.5h-4.4v-4.5h4.47l1.36 1.47 1.42-1.48h3.55c.89 0 1.88.24 1.88 1.49z" fill="#FFF" fill-rule="nonzero"/></g></svg>