<svg id="Слой_1" data-name="Слой 1" xmlns="http://www.w3.org/2000/svg" viewBox="0 0 141.73 141.73"><defs><style>.cls-1{fill:#e84155;}</style></defs><title>Icons GS </title><polygon class="cls-1" points="70.91 10.49 62.42 10.49 54.07 20.28 63.62 20.28 70.91 10.49"/><polygon class="cls-1" points="91.42 20.28 83.08 10.49 74.59 10.49 81.88 20.28 91.42 20.28"/><polygon class="cls-1" points="79.56 20.28 72.75 11.13 65.93 20.28 79.56 20.28"/><polygon class="cls-1" points="63.43 22.12 54.07 22.12 70.17 41.02 63.43 22.12"/><polygon class="cls-1" points="72.75 42.7 80.09 22.12 65.41 22.12 72.75 42.7"/><polygon class="cls-1" points="82.07 22.12 75.33 41.02 91.43 22.12 82.07 22.12"/><path class="cls-1" d="M94.73,50.28a34.56,34.56,0,0,1-1.39-3.6c-2.6-7.94-.36-16.29,6-22.35a1.29,1.29,0,0,0-1.27-2.17,2.65,2.65,0,0,0-.42.12c-8.88,3.8-13.34,14.06-11.07,24.6a47,47,0,0,0-27.64,0c2.27-10.54-2.19-20.8-11.07-24.59a1.61,1.61,0,0,0-.44-.13,1.29,1.29,0,0,0-1.25,2.17c6.35,6.06,8.59,14.41,6,22.35a34.56,34.56,0,0,1-1.39,3.6,46.88,46.88,0,1,0,44,0Zm-22,78a36.57,36.57,0,1,1,36.57-36.57A36.61,36.61,0,0,1,72.75,128.24Z"/></svg>