<svg id="Слой_1" data-name="Слой 1" xmlns="http://www.w3.org/2000/svg" viewBox="0 0 75 57"><defs><style>.cls-1{fill:#e84157;opacity:0.9;}</style></defs><title>Icons GS </title><path class="cls-1" d="M60.22,10.71A4.54,4.54,0,0,0,57.33,9.5s-36.6-.1-39.89.15a4.38,4.38,0,0,0-3.36,1.43A5.61,5.61,0,0,0,13,14.41S12.7,29.53,12.7,35c0,4.26,3.61,4.47,3.61,4.47H42.83s5,7.82,6.63,9.59,1.24-.33,1.24-.33L51,39.9l6.6-.2a3.45,3.45,0,0,0,2.72-1.07,5.35,5.35,0,0,0,1.23-2.94l.13-21.93A5,5,0,0,0,60.22,10.71ZM23.49,17.18a1.57,1.57,0,0,1-1.61,1.53H19.23a1.58,1.58,0,0,1-1.61-1.53V15.75a1.58,1.58,0,0,1,1.61-1.53h2.65a1.57,1.57,0,0,1,1.61,1.53Z"/></svg>