<svg id="Слой_1" data-name="Слой 1" xmlns="http://www.w3.org/2000/svg" viewBox="0 0 141.73 141.73"><defs><style>.cls-1{fill:#636462;}</style></defs><title>Icons GS </title><path class="cls-1" d="M125.6,43.06l-9.09,9.1L91.15,26.81l9.11-9.1c2.86-2.87,7.17-3.22,9.61-.79l16.52,16.53c2.44,2.44,2.08,6.74-.79,9.61ZM86.93,31l25.35,25.36L51.83,116.84a4.87,4.87,0,0,1-2.13,1.32l-.37.15L17.78,128.36A2.17,2.17,0,0,1,15,125.54L25,94c.05-.13.1-.25.16-.37a4.81,4.81,0,0,1,1.32-2.14ZM44,114.89,28.42,99.28l-4.18,13.14,6.66,6.65ZM86,41.11a2.29,2.29,0,0,0-3.25,0L35.58,88.24a2.29,2.29,0,0,0,3.25,3.24L86,44.36a2.31,2.31,0,0,0,0-3.25Z"/></svg>