<?xml version="1.0" encoding="utf-8"?>
<!-- Generator: Adobe Illustrator 22.1.0, SVG Export Plug-In . SVG Version: 6.00 Build 0)  -->
<svg version="1.1" id="Слой_1" xmlns="http://www.w3.org/2000/svg" xmlns:xlink="http://www.w3.org/1999/xlink" x="0px" y="0px"
	 viewBox="0 0 137.8 137.8" style="enable-background:new 0 0 137.8 137.8;" xml:space="preserve">
<style type="text/css">
	.st0{fill:#636462;}
</style>
<title>Icons GS</title>
<path class="st0" d="M68.9,0C30.8,0,0,30.8,0,68.9c0,38,30.8,68.9,68.9,68.9c38,0,68.9-30.8,68.9-68.9C137.7,30.9,106.9,0.1,68.9,0z
	 M109.8,55.9l-49.4,49.4c-4.1,4.1-10.9,4.1-15,0L26.6,86.4c-4-4.2-3.9-11,0.4-15c4.1-3.9,10.5-3.9,14.6,0l11.4,11.4l41.9-41.9
	c4.2-4,11-3.9,15,0.4C113.7,45.4,113.7,51.8,109.8,55.9z"/>
</svg>
