<svg id="Слой_1" data-name="Слой 1" xmlns="http://www.w3.org/2000/svg" viewBox="0 0 141.73 141.73"><defs><style>.cls-1{fill:#636462;}.cls-2{fill:#fff;}</style></defs><title>Icons GS </title><path class="cls-1" d="M21.87,21.43H132.61a8.77,8.77,0,0,1,8.75,8.75v5.89H13.13V30.18A8.76,8.76,0,0,1,21.87,21.43ZM132.61,103H21.87a8.75,8.75,0,0,1-8.74-8.74V56.41H141.36V94.29A8.76,8.76,0,0,1,132.61,103Z"/><path class="cls-2" d="M62.67,73.89h-35a2.92,2.92,0,0,0,0,5.83h35a2.92,2.92,0,1,0,0-5.83Z"/><path class="cls-2" d="M62.67,85.55h-35a2.92,2.92,0,0,0,0,5.83h35a2.92,2.92,0,1,0,0-5.83Z"/><path class="cls-2" d="M121,68.06h-5.83a8.75,8.75,0,0,0-8.74,8.74v5.83a8.76,8.76,0,0,0,8.74,8.75H121a8.76,8.76,0,0,0,8.74-8.75V76.8A8.75,8.75,0,0,0,121,68.06Zm2.91,14.57A2.91,2.91,0,0,1,121,85.55h-5.83a2.91,2.91,0,0,1-2.91-2.92V76.8a2.91,2.91,0,0,1,2.91-2.91H121a2.91,2.91,0,0,1,2.91,2.91Z"/><circle class="cls-2" cx="19.48" cy="95.47" r="17.92"/><path class="cls-1" d="M19.48,115.11A19.64,19.64,0,1,1,39.1,95.47,19.65,19.65,0,0,1,19.48,115.11Zm0-35.48A15.84,15.84,0,1,0,35.3,95.47,15.85,15.85,0,0,0,19.48,79.63Z"/><path class="cls-1" d="M19.49,100.94A2.5,2.5,0,0,0,17,103.47a2.52,2.52,0,1,0,2.53-2.53Zm0,0"/><path class="cls-1" d="M17.42,98.26c0,1,.79,1.63,2,1.63a1.82,1.82,0,0,0,2-1.63c0-1.62.1-3.64.19-5.59s.19-4,.19-5.64a2.16,2.16,0,0,0-2.39-2.09A2.18,2.18,0,0,0,17,87c0,1.65.1,3.68.19,5.64s.19,4,.19,5.59Zm0,0"/></svg>