<svg id="Слой_1" data-name="Слой 1" xmlns="http://www.w3.org/2000/svg" xmlns:xlink="http://www.w3.org/1999/xlink" viewBox="0 0 75.28 77.35"><defs><style>.cls-1{opacity:0.91;fill:url(#Безымянный_градиент_41);}.cls-2{opacity:0.8;fill:url(#Безымянный_градиент_41-2);}.cls-3{fill:#fdfdfd;}</style><linearGradient id="Безымянный_градиент_41" x1="26.47" y1="-527.09" x2="86.24" y2="-527.09" gradientTransform="translate(-19.2 566.97)" gradientUnits="userSpaceOnUse"><stop offset="0" stop-color="#d7bd6e"/><stop offset="0.01" stop-color="#d7be70"/><stop offset="0.12" stop-color="#ddc886"/><stop offset="0.23" stop-color="#e2cf96"/><stop offset="0.36" stop-color="#e4d4a0"/><stop offset="0.54" stop-color="#e5d5a3"/><stop offset="1" stop-color="#d7bd6e"/></linearGradient><linearGradient id="Безымянный_градиент_41-2" x1="27.6" y1="-527.74" x2="87.37" y2="-527.74" gradientTransform="translate(-19.03 567.61)" xlink:href="#Безымянный_градиент_41"/></defs><title>Icons GS </title><rect class="cls-1" x="7.27" y="9.99" width="59.77" height="59.77" rx="29.88" ry="29.88" transform="translate(24.92 -13.24) rotate(30)"/><rect class="cls-2" x="8.57" y="9.99" width="59.77" height="59.77" rx="29.88" ry="29.88" transform="translate(25.09 -13.89) rotate(30)"/><path class="cls-3" d="M27.44,33.82h-.06L24,35.66l-.52-2,4.3-2.3H30V51H27.44Z"/><path class="cls-3" d="M45.41,51V45.64H36.27V43.89L45,31.34h2.88V43.56h2.75v2.08H47.92V51Zm0-7.44V37q0-1.55.09-3.09h-.09c-.61,1.15-1.09,2-1.64,2.9L39,43.5v.06Z"/></svg>