<svg id="Слой_1" data-name="Слой 1" xmlns="http://www.w3.org/2000/svg" viewBox="0 0 138.42 93.49"><defs><style>.cls-1{fill:none;stroke:#010101;stroke-miterlimit:10;stroke-width:0.5px;}</style></defs><title>Icons GS </title><path class="cls-1" d="M124.46,13.36s.42,1-3.28,3.88S104,29.19,70.7,44.4C40.53,58.2,18.92,65.72,14.28,64.88a1.75,1.75,0,0,1-1.5-1C12.2,61.71,11.5,75.44,20,79.94,29.71,85.12,50.1,76.05,79,63.4c28.09-12.3,46.55-24.65,50.77-31.9C136.51,20,124.46,13.36,124.46,13.36Z"/><path class="cls-1" d="M71.29,44.28C56.57,51,42.5,56.81,31.66,60.64,14.23,66.78,13.38,64.94,13,64.06s-1.26-2.72,14.77-11.88c10-5.7,23.92-11.71,38.64-18.44s28.43-13.37,39.27-17.19c17.43-6.14,18.28-4.31,18.69-3.42S125.6,15.85,109.57,25C99.6,30.7,86,37.55,71.29,44.28ZM14.4,63.4c.73.18,4,.28,17.78-4.64C42.83,55,56.48,49.29,70.62,42.83S98,29.74,107.8,24.18c12.7-7.18,14.77-9.73,15.11-10.4-.73-.18-4-.27-17.78,4.65-10.65,3.81-23.95,10.3-38.08,16.76S39.35,47.45,29.51,53C16.8,60.19,14.73,62.74,14.4,63.4Z"/><path class="cls-1" d="M58.06,46s.85-5.86,22.19-13"/><path class="cls-1" d="M12.86,69c.24.87,4.44,7.27,59.19-18.18S128.5,16.77,128.5,16.77A16.41,16.41,0,0,1,131,20.32a7.55,7.55,0,0,1,.93,3.8S125.37,36.54,76,58.89C26.41,81.34,16.59,77.12,16.59,77.12A14.36,14.36,0,0,1,14.13,73,25,25,0,0,1,12.86,69Z"/><path class="cls-1" d="M129.8,18.64s2.64,5.41-.49,8.32-10.13-1.06-15.54,2.39-2.92,11.89-9.48,15.25-13.06-2.69-21,1.18c-7.78,3.78-6.22,12.45-15,16.24s-11.45-3.8-20.06-.49-7.64,11.6-15.1,13.38S23.68,70,17.92,70.57c-2.47,0-2.84,4.29-2.84,4.29"/></svg>