<svg id="Слой_1" data-name="Слой 1" xmlns="http://www.w3.org/2000/svg" viewBox="0 0 62.67 60"><defs><style>.cls-1{fill:#e84157;}</style></defs><title>Icons GS </title><path class="cls-1" d="M32.28,33.27a6.38,6.38,0,1,0-6.22-6.38A6.32,6.32,0,0,0,32.28,33.27Z"/><path class="cls-1" d="M31.18,12.16H29.66l2.56,2.74-1-2.75Z"/><path class="cls-1" d="M31.09,11.72h.1l.37-1H30.48l-.88,1.06h1.49Z"/><polygon class="cls-1" points="33.46 10.67 32.02 10.68 31.65 11.72 33.87 11.72 33.46 10.67"/><polygon class="cls-1" points="29.44 11.93 29.44 11.92 29.44 11.93 29.44 11.93"/><path class="cls-1" d="M19.87,27.23h.23v0h1a.54.54,0,1,1,0,1.07H19.87c-1,0-2.41,1.35-3,2.89-.44,1.15-.87,2.31-1.29,3.44-.56,1.5-1.14,3.06-1.72,4.58l-.72,2H52.37l-.75-2c-1-2.55-2-5.16-3-7.69l-.12-.32c-.61-1.57-2-2.89-3-2.89h-2a.54.54,0,1,1,0-1.07h1.72l.23,0c1,0,2.41-1.8,3-3.86.35-1.21,3.7-14.19,4.09-15.59a3.33,3.33,0,0,0-.26-2.89A1.68,1.68,0,0,0,51,4.21L14.35,4.15A1.67,1.67,0,0,0,13,4.83a3.39,3.39,0,0,0-.31,2.89c.76,3,3.5,12.93,4.25,15.65C17.53,25.65,19,27.23,19.87,27.23ZM30.16,10l5.23,0,1.71,2L32.67,16.3l-4.13-4.4Zm2.12,7.25a9.67,9.67,0,0,1,5,17.94H39a.72.72,0,1,1,0,1.43H25a.72.72,0,0,1,0-1.43h2.22a9.67,9.67,0,0,1,5-17.94Z"/><path class="cls-1" d="M12.81,49A1.33,1.33,0,0,0,14,50.4H51.4A1.33,1.33,0,0,0,52.66,49V42.26H12.81Z"/><polygon class="cls-1" points="35.98 11.73 35.08 10.66 33.92 10.67 34.34 11.72 35.98 11.73"/><polygon class="cls-1" points="31.65 12.15 32.7 14.93 33.85 12.15 31.65 12.15"/><polygon class="cls-1" points="33.16 14.94 36.01 12.16 34.32 12.15 33.16 14.94"/><path class="cls-1" d="M29.81,35.15h4.94a8.63,8.63,0,1,0-4.94,0Zm2.47-15.61a7.36,7.36,0,1,1-7.2,7.35A7.29,7.29,0,0,1,32.28,19.54Z"/></svg>