<?xml version="1.0" encoding="utf-8"?>
<!-- Generator: Adobe Illustrator 22.1.0, SVG Export Plug-In . SVG Version: 6.00 Build 0)  -->
<svg version="1.1" id="Слой_1" xmlns="http://www.w3.org/2000/svg" xmlns:xlink="http://www.w3.org/1999/xlink" x="0px" y="0px"
	 viewBox="0 0 137.6 137.6" style="enable-background:new 0 0 137.6 137.6;" xml:space="preserve">
<style type="text/css">
	.st0{fill:#636462;}
</style>
<title>Icons GS</title>
<path class="st0" d="M117.8,86.5c-13.8-4.9-24.3-0.1-26.7,2.3l-15.5,11.7C68,96.5,61,91.6,54.8,85.8C47.9,79.3,42.3,71.7,37.2,62
	l11.7-15.5c2.4-2.3,7.2-12.9,2.3-26.7C46.8,7.7,36.3,0,30.2,0H11C4.9,0,0,4.9,0,11c0,39,18,75.9,48.9,99.8l0.3,0.2l0.5,0.4l2.3,1.7
	l0.6,0.5c0.9,0.7,1.8,1.3,2.7,1.9l0.1,0.1c21,14.3,45.8,22,71.1,21.9c6.1,0,11-4.9,11-11v-19.2C137.6,101.3,129.9,90.8,117.8,86.5z"
	/>
</svg>
