<svg id="Слой_1" data-name="Слой 1" xmlns="http://www.w3.org/2000/svg" viewBox="0 0 141.73 141.73"><defs><style>.cls-1{fill:#e84155;}</style></defs><title>Icons GS </title><path class="cls-1" d="M100.29,25.5c-1.4-9.22-7-17.27-14.61-21a29,29,0,0,0-13.11-2.6A29,29,0,0,0,59,4.09c-7.7,3.49-13.48,11.36-15.1,20.54a31.72,31.72,0,0,0-.43,6.68c-.56,10.38,3.92,20.06,13.07,28.3,2.07,2.29,3.54,4,4.56,5.21a4.24,4.24,0,0,0-1.67,4.89,4.3,4.3,0,0,0,3,2.91,3.92,3.92,0,0,0,2.09-.07,65.3,65.3,0,0,0,7-2.85,65.72,65.72,0,0,0,7,3.08,3.75,3.75,0,0,0,2.09.13,4.35,4.35,0,0,0,1.54-7.75c1.08-1.23,2.65-2.95,4.89-5.3,9.19-7.92,13.82-17.39,13.53-27.69A31.61,31.61,0,0,0,100.29,25.5Z"/><path class="cls-1" d="M123.45,96.54c-5.12-6-30-22.15-30-22.15L77.8,120.17V103.58a5,5,0,0,0-5-5h0a5,5,0,0,0-5,5V122L52.46,74.39S32.43,85,21.64,96.68c-8.33,9-9.29,26.55-9.29,26.55v16.55H131.51l0-16.55S133.67,108.47,123.45,96.54ZM114,118.6a4.65,4.65,0,0,1-4.64,4.63H97.47a4.65,4.65,0,0,1-4.64-4.63v-.72a4.66,4.66,0,0,1,4.64-4.64h11.86a4.66,4.66,0,0,1,4.64,4.64Z"/></svg>