<svg id="Слой_1" data-name="Слой 1" xmlns="http://www.w3.org/2000/svg" viewBox="0 0 141.73 141.73"><defs><style>.cls-1{fill:#e84155;}</style></defs><title>Icons GS </title><polygon class="cls-1" points="121.45 44.05 95.96 44.05 95.96 62.79 126.13 62.79 121.45 44.05"/><path class="cls-1" d="M114.51,99.13a12.43,12.43,0,1,0,12.43,12.43A12.44,12.44,0,0,0,114.51,99.13Zm0,18.36a5.93,5.93,0,1,1,5.93-5.93A5.94,5.94,0,0,1,114.51,117.49Z"/><path class="cls-1" d="M123.88,38.12a6.32,6.32,0,0,0-6.31-6.31H96v6.51h27.92Z"/><path class="cls-1" d="M35.81,99.13a12.43,12.43,0,1,0,12.43,12.43A12.45,12.45,0,0,0,35.81,99.13Zm0,18.36a5.93,5.93,0,1,1,5.93-5.93A5.94,5.94,0,0,1,35.81,117.49Z"/><path class="cls-1" d="M126.94,84V77.9A2.87,2.87,0,0,1,129.81,75h8.92a9.4,9.4,0,0,0-8.92-6.5H96v3.25a2.87,2.87,0,1,1-5.74,0v-52a.18.18,0,0,0-.19-.19H2.15a.19.19,0,0,0-.19.19V93.39H14.39a2.87,2.87,0,1,1,0,5.74H2v6.31a.19.19,0,0,0,.19.19H18.64a18.16,18.16,0,0,1,34.34,0H90.22V84A2.87,2.87,0,0,1,96,84v21.61h1.38a18.16,18.16,0,0,1,34.34,0h7.5V93h-3.25A9,9,0,0,1,126.94,84ZM80.85,99.13H60.29a2.87,2.87,0,1,1,0-5.74H80.85a2.87,2.87,0,1,1,0,5.74Z"/><path class="cls-1" d="M132.67,84a3.26,3.26,0,0,0,3.26,3.25h3.25v-6.5h-6.51Z"/></svg>