<svg id="Слой_1" data-name="Слой 1" xmlns="http://www.w3.org/2000/svg" viewBox="0 0 141.73 141.73"><defs><style>.cls-1{fill:#636462;}</style></defs><title>Icons GS </title><path class="cls-1" d="M127.49,76.42c-.07-.8-.14-1.67-.21-2.63-.23-3.19-1.31-9.12-5.92-13.08-3.33-2.87-7.88-4.17-13.51-3.88a10.39,10.39,0,0,0-1.67-2c-3.2-3-8.62-4.51-16.1-4.62V11.87l-.06-.2c-.69-2.39-3.88-6.9-11-6.9A10.53,10.53,0,0,0,68.31,13l0,.14v3.74A12.46,12.46,0,0,0,59.77,14c-7.23,0-9.65,6.17-9.93,9.44v.05l-.07,39c-6.06.16-10.6,1.7-13.5,4.59a10,10,0,0,0-3.05,6.55c0,.08,0,8.28,0,11.63a20.84,20.84,0,0,0,1.34,7.86l0,.08,20.3,35.15v10.53a1.45,1.45,0,0,0,2.89,0v-11.3L37.18,92a18.79,18.79,0,0,1-1.07-6.64c0-3.36,0-11.57,0-11.65a7.19,7.19,0,0,1,2.21-4.51c2.3-2.3,6.25-3.59,11.45-3.74l0,25a1.44,1.44,0,0,0,1.44,1.45h0a1.46,1.46,0,0,0,1.45-1.44l.11-66.82c.07-.67.86-6.75,7-6.75,5.93,0,8,3.6,8.41,4.5l.22,61.17h2.89l-.11-69.1A7.59,7.59,0,0,1,79,7.65c6.06,0,7.85,3.81,8.18,4.66V83.24a1.45,1.45,0,0,0,2.89,0V53.11c11,.16,16.58,3.47,16.58,9.83,0,5.5.22,19.73.23,19.87a1.44,1.44,0,0,0,1.44,1.42h0a1.44,1.44,0,0,0,1.42-1.47c0-.14-.22-14.34-.22-19.82a12.3,12.3,0,0,0-.43-3.27c4.34,0,7.82,1,10.36,3.22,3.81,3.28,4.72,8.37,4.92,11.11.07,1,.14,1.84.2,2.65a112.38,112.38,0,0,1,.28,15.79c-.56,18-7.2,36.13-7.27,36.31l-.09.25v9.16a1.45,1.45,0,0,0,2.89,0v-8.65c.85-2.33,6.81-19.4,7.36-37A117.18,117.18,0,0,0,127.49,76.42Z"/><path class="cls-1" d="M129.62,23.62,119.07,12.38v7.07H99.91a4.08,4.08,0,1,0,0,8.15h19.16v7.07Z"/><path class="cls-1" d="M11.58,21,22.13,9.74v7.07H41.29a4.08,4.08,0,1,1,0,8.15H22.13V32Z"/></svg>