<svg id="Слой_1" data-name="Слой 1" xmlns="http://www.w3.org/2000/svg" viewBox="0 0 73.33 54"><defs><style>.cls-1{fill:#e84157;}</style></defs><title>Icons GS </title><path class="cls-1" d="M63.52,13.71a5.1,5.1,0,0,0-5.1-5.1H13.51a5.1,5.1,0,0,0-5.1,5.1v4.47H63.52Zm0,0"/><path class="cls-1" d="M59.12,33.1h-.21v-1a3.33,3.33,0,0,0-3.23-3.35h-.2a3.33,3.33,0,0,0-3.23,3.35v1H52a.67.67,0,0,0-.58.74v4.91a.68.68,0,0,0,.58.75h7.08a.68.68,0,0,0,.58-.75V33.84a.67.67,0,0,0-.58-.74Zm-2.88,3.19v1.48a.32.32,0,0,1-.31.32h-.7a.32.32,0,0,1-.31-.32V36.29a.85.85,0,0,1-.27-.63.88.88,0,0,1,.83-.89.67.67,0,0,1,.2,0,.87.87,0,0,1,.82.89.84.84,0,0,1-.26.63Zm1.29-3.19h-3.9v-1a2,2,0,1,1,3.9,0Zm0,0"/><path class="cls-1" d="M55.58,21.89a12.57,12.57,0,0,0-6.35,1.71H8.41V39.08a5.1,5.1,0,0,0,5.1,5.1H47.39a12.65,12.65,0,1,0,8.19-22.29ZM27.25,37.19a.65.65,0,0,1-.65.65H16.51a.65.65,0,0,1-.66-.65v-2a.66.66,0,0,1,.66-.66H26.6a.66.66,0,0,1,.65.66Zm28.33,5.37a8,8,0,1,1,8-8,8,8,0,0,1-8,8Zm0,0"/></svg>