<svg id="Слой_1" data-name="Слой 1" xmlns="http://www.w3.org/2000/svg" viewBox="0 0 56 72"><defs><style>.cls-1{fill:none;stroke:#e84157;stroke-miterlimit:10;}.cls-2{fill:#e84157;}</style></defs><title>Icons GS </title><path class="cls-1" d="M40.56,10.75H16.1a2.35,2.35,0,0,0-2.35,2.35v5.54H42.91V13.1A2.35,2.35,0,0,0,40.56,10.75Z"/><path class="cls-2" d="M32.77,16.91H24.16a1.5,1.5,0,0,1,0-3h8.61a1.5,1.5,0,0,1,0,3Z"/><rect class="cls-1" x="13.64" y="21.91" width="29.16" height="27.8"/><path class="cls-1" d="M13.75,52.7v6.06A2.35,2.35,0,0,0,16.1,61.1H40.56a2.35,2.35,0,0,0,2.35-2.34V52.7Z"/><path class="cls-2" d="M27.79,57.71a1.81,1.81,0,1,1,0-3.54,1.81,1.81,0,1,1,0,3.54Z"/></svg>