<svg id="Слой_1" data-name="Слой 1" xmlns="http://www.w3.org/2000/svg" viewBox="0 0 77.33 67.33"><defs><style>.cls-1{fill:#e84157;}</style></defs><title>Icons GS </title><path class="cls-1" d="M67.32,27.46H10v-5.6a6.24,6.24,0,0,1,6.23-6.23H61.09a6.24,6.24,0,0,1,6.23,6.23ZM12.21,25.2H65.06V21.86a4,4,0,0,0-4-4H16.18a4,4,0,0,0-4,4Z"/><path class="cls-1" d="M61.78,41.25h-.21v-1a3.34,3.34,0,0,0-3.23-3.36h-.19a3.34,3.34,0,0,0-3.23,3.36v1h-.21a.69.69,0,0,0-.59.75v4.9a.69.69,0,0,0,.59.75h7.07a.69.69,0,0,0,.59-.75V42a.69.69,0,0,0-.59-.75Zm-2.87,3.19v1.49a.31.31,0,0,1-.31.31h-.71a.31.31,0,0,1-.31-.31V44.44a.89.89,0,0,1,.57-1.52h.19a.89.89,0,0,1,.57,1.52Zm1.29-3.19H56.29v-1a2,2,0,1,1,3.91,0Zm0,0"/><path class="cls-1" d="M58.24,56.48a13.77,13.77,0,0,1-8.59-3H16.18A6.23,6.23,0,0,1,10,47.23V30.62H51.6a13.78,13.78,0,1,1,6.64,25.86Zm-46-23.6V47.23a4,4,0,0,0,4,4H50.47l.32.26a11.52,11.52,0,1,0,1.68-18.74l-.27.15Zm46,19a9.15,9.15,0,1,1,9.15-9.15A9.16,9.16,0,0,1,58.24,51.84Zm0-16a6.89,6.89,0,1,0,6.89,6.88A6.89,6.89,0,0,0,58.24,35.81Z"/><path class="cls-1" d="M29.92,45a.65.65,0,0,1-.65.65H19.17a.65.65,0,0,1-.65-.65V43a.66.66,0,0,1,.65-.66h10.1a.66.66,0,0,1,.65.66Zm28.32,5.37"/></svg>