<svg id="Слой_1" data-name="Слой 1" xmlns="http://www.w3.org/2000/svg" viewBox="0 0 120.2 95.92"><defs><style>.cls-1{fill:none;}.cls-1,.cls-2,.cls-3{stroke:#010101;stroke-miterlimit:10;}.cls-1,.cls-3{stroke-width:0.5px;}.cls-2,.cls-3{fill:#fff;}.cls-4{fill:#010101;}</style></defs><title>Icons GS </title><path class="cls-1" d="M111.23,25.5l-.06,1.1C109.85,29.26,88,37.77,61.42,46.41S11.33,61.05,9.7,59.6l-.6-1c0-1.14-1.48,6,3.11,8,7.92,3.52,25.85-3.49,52.12-11.77,25.54-8,40-12.29,46.55-17.88C119,30.12,111.23,25.5,111.23,25.5Z"/><path class="cls-1" d="M61.44,46.63C48,51,35.24,54.69,25.49,57,9.82,60.79,9.34,59.31,9.1,58.61s-.72-2.18,14.16-8.36c9.25-3.84,21.94-7.69,35.37-12.06s26-8.73,35.76-11.06c15.67-3.76,16.15-2.29,16.39-1.58s.72,2.18-14.16,8.35C87.37,37.74,74.87,42.26,61.44,46.63Zm-51,11.55c.6.18,3.39.44,15.77-2.58,9.59-2.34,22-5.93,34.88-10.13s25-8.57,34.16-12.31C107,28.32,109.1,26.47,109.47,26c-.6-.18-3.39-.44-15.77,2.58C84.11,30.89,71.92,35.16,59,39.35S33.78,47.25,24.66,51C12.88,55.83,10.78,57.68,10.41,58.18Z"/><path class="cls-1" d="M58.05,47.15s2.08-8,32.7-14.46"/><path class="cls-1" d="M64.23,46.61S57.48,41.2,24,53.91"/><ellipse class="cls-2" cx="62.87" cy="52.31" rx="25.34" ry="23.9" transform="translate(-10.68 16.54) rotate(-13.82)"/><ellipse class="cls-2" cx="42.7" cy="43.61" rx="4.27" ry="3.95" transform="translate(-13.14 68.24) rotate(-69.41)"/><ellipse class="cls-2" cx="73.17" cy="32.87" rx="3.95" ry="4.27" transform="translate(15.17 88.28) rotate(-67.89)"/><ellipse class="cls-2" cx="64.62" cy="31.05" rx="3.95" ry="4.27" transform="translate(31.77 94.77) rotate(-88.39)"/><ellipse class="cls-2" cx="55.76" cy="32.41" rx="4.27" ry="3.95" transform="translate(-6.03 13.93) rotate(-13.52)"/><ellipse class="cls-2" cx="48.05" cy="36.92" rx="4.27" ry="3.95" transform="translate(-12.25 42.91) rotate(-43.21)"/><ellipse class="cls-2" cx="79.92" cy="38.09" rx="3.95" ry="4.27" transform="translate(-6.53 57.19) rotate(-37.94)"/><ellipse class="cls-2" cx="84.35" cy="45.24" rx="3.79" ry="4.09" transform="translate(-8.64 22.55) rotate(-14.5)"/><ellipse class="cls-2" cx="85.31" cy="53.46" rx="4.09" ry="3.79" transform="translate(24.84 133.95) rotate(-85.16)"/><ellipse class="cls-2" cx="82.58" cy="61.27" rx="4.09" ry="3.79" transform="translate(-12.97 99.27) rotate(-58.26)"/><ellipse class="cls-2" cx="77.5" cy="68.05" rx="4.09" ry="3.79" transform="translate(-25.61 65.82) rotate(-40.05)"/><ellipse class="cls-2" cx="70.49" cy="72.06" rx="4.09" ry="3.79" transform="translate(-22.58 33.34) rotate(-23.04)"/><ellipse class="cls-2" cx="62.34" cy="73.76" rx="4.27" ry="3.95" transform="translate(-9.33 9.02) rotate(-7.71)"/><ellipse class="cls-2" cx="54.03" cy="72.47" rx="4.27" ry="3.95"/><ellipse class="cls-2" cx="46.86" cy="67.69" rx="3.95" ry="4.27" transform="translate(-34.95 58.46) rotate(-48.87)"/><ellipse class="cls-2" cx="41.72" cy="60.62" rx="3.95" ry="4.27" transform="translate(-21.61 23.14) rotate(-24.84)"/><ellipse class="cls-2" cx="40.15" cy="52.04" rx="4.27" ry="3.95" transform="translate(-13.93 89.39) rotate(-86.98)"/><ellipse class="cls-3" cx="62.94" cy="52.15" rx="16.01" ry="14.67" transform="translate(-12.29 20.18) rotate(-16.62)"/><path class="cls-4" d="M50.32,62c5.26,6,15.3,6.84,22.2,1.77l.23-.18h0l.24-.18c4.9-3.87,7.06-10.1,5.41-15.64,0,0,0,0,0,0a14.39,14.39,0,0,0-9.57-9.39A17.53,17.53,0,0,0,53.43,41l-.24.18h0l-.24.18C46.27,46.61,45.05,56,50.32,62Zm-3-10.63.73,0,2.65.19-1.15,1.9-1.87,3.11A13.27,13.27,0,0,1,47.35,51.39Zm23.2,9.35.33-2.43.28-2,3.78-2.89,1.64,5.5Zm-3.46,5.43-2.17-1-3.26-1.57,3.79-2.89,2.82.2L70.2,61l-1.87,3.1ZM47.84,56.9l1.25-2.07L51,51.73l2.93,3.37-.16,1.13-.45,3.28L50,57.94Zm5.67,2.69.39-2.8.2-1.44,2,2.28,2,2.28-1.15-.08Zm.82-7.82-.41,3-2.81-3.22,3.63-2.77ZM54.14,55l.44-3.24L55,48.55l5.54-4.22,3.47.25,3.48.24,4.28,4.92-.88,6.47-5.54,4.22-3.48-.25-3.47-.24-1.29-1.48Zm9.94-10.68-3.23-.23,3.64-2.77,2.81,3.23ZM72,50l2.82,3.22L71.2,56ZM61.87,60.42l3.22.23-3.63,2.77-2.81-3.23Zm8-13.29-2-2.28,4.55.32-.58,4.24ZM55.07,48.22,55.66,44l4.55.32ZM65.73,60.46l5.14-3.92-.58,4.24h-.18ZM53.3,59.9l1.59,5.34A14.23,14.23,0,0,1,50.6,62Zm.24-.07,3.49.25,1.26.08,2.93,3.37-6,1.8ZM72.07,49.66l.61-4.41,5.42,2.61L75,53Zm.58-4.8-1.59-5.34a14.35,14.35,0,0,1,4.28,3.29Zm-.25.07-4.74-.33-2.93-3.36,6-1.81ZM64.28,41.2,60.5,44.09,58.88,44l-3.13-.22,3.11-5.16,2.17,1Zm-9.36,6.32-.13.92L51,51.32l-1.64-5.5,6-1.8ZM51.14,58.76l2,1-2.69,2.06a13.15,13.15,0,0,1-2.57-4.6Zm10.14,5-.43,3.14a15.65,15.65,0,0,1-5.42-1.39Zm-.17,3.16.43-3.14,2,1,3.26,1.58A17.15,17.15,0,0,1,61.11,66.91Zm11.25-3.3a17.07,17.07,0,0,1-5,2.52L69.27,63l1.15-1.9,2.08,2.39Zm.47-.36-.13.11L70.62,61l5.85-1.75A15.83,15.83,0,0,1,72.83,63.25Zm2.36-9.88,3.38.24a14.27,14.27,0,0,1-1.79,5.1Zm3.41,0-3.38-.24,3-5A13.28,13.28,0,0,1,78.6,53.37ZM72.8,45l2.7-2a13.18,13.18,0,0,1,2.57,4.59Zm-8.14-4,.43-3.14a16.17,16.17,0,0,1,5.43,1.39Zm.18-3.16L64.41,41l-2-1-3.27-1.58A17.21,17.21,0,0,1,64.84,37.85Zm-11.26,3.3a17.2,17.2,0,0,1,5-2.52l-3,5-2.08-2.39Zm-.47.36.14-.11,2.08,2.4-5.86,1.74A16,16,0,0,1,53.11,41.51Zm-2.35,9.88-3.38-.24a14.27,14.27,0,0,1,1.79-5.1Z"/></svg>