<svg id="Слой_1" data-name="Слой 1" xmlns="http://www.w3.org/2000/svg" viewBox="0 0 68.33 59"><defs><style>.cls-1{fill:none;stroke:#e84157;stroke-miterlimit:10;}.cls-2{fill:#e84157;}</style></defs><title>Icons GS </title><rect class="cls-1" x="7.73" y="11.64" width="54.4" height="40.26" rx="6.18" ry="6.18"/><path class="cls-2" d="M55.61,21.6h0a1.51,1.51,0,0,0-2.1-.3L35.91,34.5a1.5,1.5,0,0,1-1.84,0C29.55,30.82,19.88,23,16.37,20.25a1.49,1.49,0,0,0-1.86,2.34c2,1.55,6.18,4.95,10.69,8.58l-9.54,9.91a1.5,1.5,0,0,0,2.16,2.08l9.72-10.1L34,38.27l.91.73L43,33l9.82,10.2a1.5,1.5,0,0,0,2.16-2.08l-9.56-9.93,9.93-7.46A1.48,1.48,0,0,0,55.61,21.6Z"/></svg>