<svg id="Слой_1" data-name="Слой 1" xmlns="http://www.w3.org/2000/svg" viewBox="0 0 141.73 141.73"><defs><style>.cls-1{fill:#636462;}</style></defs><title>Icons GS </title><path class="cls-1" d="M69,116.39c-23.21,0-41.53-14-50.72-33.45a6.51,6.51,0,0,0,0,.75c2,23.19,23.77,42.89,53,42.89s52.48-20.49,53-42.89c0-.26-2.49,5.59-2.49,5.35C112.55,108.53,92.23,116.39,69,116.39Z"/><path class="cls-1" d="M71.39.64C32.44.64,1,32.26.59,66.9.12,108,32.29,141.49,71.24,141.49S141.89,108,141.89,66.9C141.89,29.71,110.35.64,71.39.64ZM71.24,134c-32.55,0-58-22.12-58-50.35s25.48-50.35,58-50.35,58,22.12,58,50.35S103.79,134,71.24,134Z"/></svg>