<svg id="Слой_1" data-name="Слой 1" xmlns="http://www.w3.org/2000/svg" xmlns:xlink="http://www.w3.org/1999/xlink" viewBox="0 0 74.07 70.42"><defs><style>.cls-1,.cls-2{opacity:0.68;}.cls-1{fill:url(#Безымянный_градиент_82);}.cls-2{fill:url(#Безымянный_градиент_82-2);}.cls-3{fill:#fdfdfd;}</style><linearGradient id="Безымянный_градиент_82" x1="-24.61" y1="-695.13" x2="35.16" y2="-695.13" gradientTransform="translate(32.36 730.12)" gradientUnits="userSpaceOnUse"><stop offset="0.01" stop-color="#a8a8a8"/><stop offset="0.05" stop-color="#afafaf"/><stop offset="0.18" stop-color="#bfbfbf"/><stop offset="0.33" stop-color="#c9c9c8"/><stop offset="0.53" stop-color="#cccccb"/><stop offset="1" stop-color="#a8a8a8"/></linearGradient><linearGradient id="Безымянный_градиент_82-2" x1="-23.54" y1="-696.01" x2="36.23" y2="-696.01" gradientTransform="translate(32.67 730.99)" xlink:href="#Безымянный_градиент_82"/></defs><title>Icons GS </title><rect class="cls-1" x="7.75" y="5.1" width="59.77" height="59.77" rx="29.88" ry="29.88" transform="translate(30.36 -15.88) rotate(38.95)"/><rect class="cls-2" x="9.13" y="5.1" width="59.77" height="59.77" rx="29.88" ry="29.88" transform="translate(30.67 -16.75) rotate(38.95)"/><path class="cls-3" d="M28.83,27.74h-.06l-3.42,1.85-.51-2,4.29-2.3H31.4V44.92H28.83Z"/><path class="cls-3" d="M46.79,44.92V39.57H37.66V37.81l8.77-12.55H49.3V37.48h2.75v2.09H49.3v5.35Zm0-7.44V30.92q0-1.55.09-3.09h-.09c-.61,1.15-1.09,2-1.63,2.91l-4.81,6.68v.06Z"/></svg>