<svg id="Слой_1" data-name="Слой 1" xmlns="http://www.w3.org/2000/svg" viewBox="0 0 141.73 141.73"><defs><style>.cls-1{fill:#e84155;}</style></defs><title>Icons GS </title><path class="cls-1" d="M52.52,80.52a3,3,0,0,0-3.12-2.8H38.51a3,3,0,0,0-3.12,2.8v9.79a3,3,0,0,0,3.12,2.81H49.4a3,3,0,0,0,3.12-2.81Zm0,0"/><path class="cls-1" d="M79.73,80.52a3,3,0,0,0-3.11-2.8H65.73a3,3,0,0,0-3.12,2.8v9.79a3,3,0,0,0,3.12,2.81H76.62a3,3,0,0,0,3.11-2.81Zm0,0"/><path class="cls-1" d="M107,80.52a3,3,0,0,0-3.12-2.8H92.94a3,3,0,0,0-3.12,2.8v9.79a3,3,0,0,0,3.12,2.81h10.89A3,3,0,0,0,107,90.31Zm0,0"/><path class="cls-1" d="M52.52,105a3,3,0,0,0-3.12-2.8H38.51a3,3,0,0,0-3.12,2.8v9.79a3,3,0,0,0,3.12,2.81H49.4a3,3,0,0,0,3.12-2.81Zm0,0"/><path class="cls-1" d="M79.73,105a3,3,0,0,0-3.11-2.8H65.73a3,3,0,0,0-3.12,2.8v9.79a3,3,0,0,0,3.12,2.81H76.62a3,3,0,0,0,3.11-2.81Zm0,0"/><path class="cls-1" d="M107,105a3,3,0,0,0-3.12-2.8H92.94a3,3,0,0,0-3.12,2.8v9.79a3,3,0,0,0,3.12,2.81h10.89a3,3,0,0,0,3.12-2.81Zm0,0"/><path class="cls-1" d="M126.42,26.07V41c0,6.76-6.09,12.21-13.61,12.21h-8.59c-7.52,0-13.7-5.45-13.7-12.21V26H51.82V41c0,6.76-6.18,12.21-13.7,12.21H29.53C22,53.24,15.92,47.79,15.92,41v-15c-6.57.18-12,5.07-12,11.08v87.66C4,130.93,9.47,136,16.27,136h109.8c6.79,0,12.32-5,12.32-11.15V37.15c0-6-5.4-10.9-12-11.08Zm-4,93.28a5.08,5.08,0,0,1-5.32,4.79H25a5.09,5.09,0,0,1-5.33-4.79V74.07A5.08,5.08,0,0,1,25,69.28h92.11a5.07,5.07,0,0,1,5.32,4.79Zm0,0"/><path class="cls-1" d="M29.5,45.22H38A4.46,4.46,0,0,0,42.67,41V16.5A4.45,4.45,0,0,0,38,12.31H29.5a4.45,4.45,0,0,0-4.67,4.19V41a4.45,4.45,0,0,0,4.67,4.19Zm0,0"/><path class="cls-1" d="M104.11,45.22h8.5A4.46,4.46,0,0,0,117.28,41V16.5a4.45,4.45,0,0,0-4.67-4.19h-8.5a4.45,4.45,0,0,0-4.67,4.19V41a4.45,4.45,0,0,0,4.67,4.19Zm0,0"/></svg>