<svg id="Слой_1" data-name="Слой 1" xmlns="http://www.w3.org/2000/svg" viewBox="0 0 138.42 83.78"><defs><style>.cls-1{fill:none;stroke-width:0.5px;}.cls-1,.cls-2{stroke:#010101;stroke-miterlimit:10;}.cls-2{fill:#fff;}.cls-3{fill:#010101;}</style></defs><title>Icons GS </title><path class="cls-1" d="M126,20.87l-.29,1.27c-1.35,3.54-25.76,13.48-56.18,23.44S12,62.1,10,60l-.43-.54C9.47,57.89,7,66,13.46,69.8c9.47,5.54,29.94-3,60-12.44,29.25-9.21,47-15.5,54.77-22.22C136.55,27.93,126,20.87,126,20.87Z"/><path class="cls-1" d="M69.57,46.15c-15.38,5-30,9.17-41.27,11.65-18,4-18.74,1.86-19.08.84S8.19,55.5,25.1,48C35.63,43.38,50.17,39,65.55,34s29.75-10.13,41-12.61c18-4,18.75-1.86,19.08-.84s1,3.14-15.88,10.61C99.21,35.78,84.94,41.11,69.57,46.15Zm-58.85,12c.71.31,4,.92,18.27-2.31,11-2.49,25.26-6.53,40-11.37s28.62-10,39-14.51c13.4-5.84,15.7-8.28,16.09-8.95-.71-.31-4-.92-18.27,2.3-11,2.5-25,7.5-39.74,12.33s-28.91,9-39.28,13.56C13.41,55,11.11,57.48,10.72,58.15Z"/><path class="cls-1" d="M64.77,45.4s2.18-9.92,37.33-17"/><path class="cls-1" d="M74.71,43.67s-7.26-7.1-40.55,6.23"/><ellipse class="cls-2" cx="70.76" cy="49.4" rx="26.09" ry="24.06" transform="translate(-11.17 22.3) rotate(-16.62)"/><path class="cls-3" d="M50.16,65.26c8.57,9.85,24.93,11.15,36.19,2.89l.38-.29h0l.39-.3c8-6.31,11.5-16.47,8.82-25.5a.08.08,0,0,0,0-.08,23.46,23.46,0,0,0-15.6-15.31,28.6,28.6,0,0,0-25.1,4.27l-.39.29h0l-.38.3C43.55,40.14,41.55,55.42,50.16,65.26ZM45.31,47.93,46.5,48l4.32.31L49,51.42,45.9,56.49A21.48,21.48,0,0,1,45.31,47.93ZM83.14,63.18l.54-4L84.13,56l6.17-4.7,2.67,9ZM77.5,72,74,70.33l-5.3-2.56,6.17-4.7,4.6.33,3.14.22-3,5.05ZM46.11,56.91l2-3.37,3-5L56,54l-.26,1.86L55,61.17l-5.3-2.55Zm9.25,4.39L56,56.74l.33-2.35,3.24,3.72,3.24,3.72-1.88-.14Zm1.33-12.76L56,53.43l-4.58-5.26,5.93-4.51Zm-.31,5.3.73-5.27.72-5.27,9-6.88,5.67.4,5.67.41,7,8L83.74,55.79l-9,6.88L69,62.27l-5.67-.4-2.1-2.41Zm16.2-17.4-5.25-.37,5.92-4.52,4.59,5.26Zm13,9.22,4.58,5.26L84.2,55.44ZM69,62.65l5.26.38-5.93,4.51-4.58-5.26ZM82,41l-3.24-3.72,7.43.53-.95,6.91ZM57.9,42.76l1-6.91,7.43.53Zm17.38,20,8.38-6.39-1,6.91-.29,0ZM55,61.81l2.59,8.7a23.58,23.58,0,0,1-7-5.35Zm.4-.12,5.69.4,2,.15,4.77,5.48-9.84,2.94ZM85.62,45.12l1-7.2,8.85,4.26L90.39,50.6Zm.94-7.84L84,28.58a23.19,23.19,0,0,1,7,5.36Zm-.4.12-7.74-.55-4.78-5.48,9.84-2.93ZM72.92,31.32,66.75,36l-2.65-.18L59,35.47l5.06-8.41,3.54,1.7ZM57.64,41.63l-.2,1.48-6.17,4.71-2.68-9,9.84-2.94ZM51.5,60l3.25,1.57-4.39,3.34a21.45,21.45,0,0,1-4.19-7.48ZM68,68.08l-.7,5.13a25.93,25.93,0,0,1-8.85-2.28Zm-.29,5.16.7-5.13,3.26,1.58L77,72.25A27.61,27.61,0,0,1,67.74,73.24ZM86.1,67.86A28.1,28.1,0,0,1,78,72l3-5.07,1.87-3.1,3.39,3.9Zm.76-.59-.22.17-3.39-3.9,9.54-2.84A25.87,25.87,0,0,1,86.86,67.27ZM90.7,51.16l5.51.39a23.47,23.47,0,0,1-2.92,8.31Zm5.56,0-5.51-.4,4.91-8.17A21.7,21.7,0,0,1,96.26,51.17ZM86.81,37.58l4.4-3.35a21.73,21.73,0,0,1,4.19,7.49ZM73.54,31l.7-5.13a25.87,25.87,0,0,1,8.84,2.28Zm.29-5.16L73.12,31l-3.26-1.57-5.32-2.57A28.13,28.13,0,0,1,73.83,25.85ZM55.47,31.23a27.92,27.92,0,0,1,8.09-4.1L58.65,35.3l-3.4-3.9Zm-.77.59.22-.17,3.4,3.9L48.77,38.4A25.93,25.93,0,0,1,54.7,31.82ZM50.87,47.94l-5.51-.4a23.32,23.32,0,0,1,2.91-8.31Z"/><ellipse class="cls-2" cx="100.6" cy="41.84" rx="4.56" ry="4.22" transform="translate(-8.33 39.54) rotate(-21.37)"/><ellipse class="cls-2" cx="108.94" cy="38.39" rx="4.33" ry="4.22" transform="translate(-6.26 46.86) rotate(-23.62)"/><ellipse class="cls-2" cx="116.16" cy="35.27" rx="3.15" ry="3.92" transform="translate(-3.79 53.94) rotate(-25.74)"/><ellipse class="cls-2" cx="121.59" cy="32.32" rx="2.8" ry="3.53" transform="translate(0.33 65.86) rotate(-30.35)"/><ellipse class="cls-2" cx="125.72" cy="29.17" rx="2.27" ry="3.12" transform="translate(6.39 78.33) rotate(-35.45)"/><ellipse class="cls-2" cx="128.77" cy="26.42" rx="1.55" ry="2.95" transform="translate(4.65 69.69) rotate(-30.81)"/><ellipse class="cls-2" cx="42.07" cy="60.9" rx="4.44" ry="4.11" transform="matrix(0.95, -0.31, 0.31, 0.95, -16.93, 16.21)"/><ellipse class="cls-2" cx="33.49" cy="63.04" rx="4.22" ry="4.11" transform="translate(-14.43 10.13) rotate(-14.19)"/><ellipse class="cls-2" cx="26.14" cy="64.9" rx="3.07" ry="3.82" transform="translate(-13.91 7.53) rotate(-12.98)"/><ellipse class="cls-2" cx="19.95" cy="65.66" rx="2.73" ry="3.44" transform="translate(-2.97 0.98) rotate(-2.61)"/><ellipse class="cls-2" cx="14.85" cy="65.42" rx="2.21" ry="3.04" transform="translate(-3.99 1.04) rotate(-3.52)"/><ellipse class="cls-2" cx="10.74" cy="64.49" rx="1.51" ry="2.87" transform="matrix(0.99, -0.14, 0.14, 0.99, -9.2, 2.23)"/></svg>