<svg id="Слой_1" data-name="Слой 1" xmlns="http://www.w3.org/2000/svg" viewBox="0 0 141.73 141.73"><defs><style>.cls-1{fill:#e84155;}</style></defs><title>Icons GS </title><path class="cls-1" d="M60,75.37a40.46,40.46,0,1,0,40.46-40.46A40.36,40.36,0,0,0,60,75.37ZM97.72,44.19a2.7,2.7,0,0,1,5.4,0V73.85H122a2.7,2.7,0,0,1,0,5.4H100.42a2.7,2.7,0,0,1-2.7-2.7Z"/><path class="cls-1" d="M15.24,39.94a84.36,84.36,0,0,0,11.48,3.14,44.27,44.27,0,0,0,9.53.94,23.28,23.28,0,0,0,7.58-1.72A115.56,115.56,0,0,0,56.6,36.36c2.55-1.32,5.13-2.62,7.76-3.78a39.21,39.21,0,0,1,11.61-3,24.67,24.67,0,0,1,11.18,1.09,21.88,21.88,0,0,1,2.52,1.16A43.69,43.69,0,0,0,54.32,71.92a42.85,42.85,0,0,0,7.33,27.32,43.69,43.69,0,0,0,22.29,17.13,10.83,10.83,0,0,1-1.38.17c-2.45,0-4.9.16-7.34,0a84.8,84.8,0,0,1-8.72-.94,50.07,50.07,0,0,1-7.24-1.8c-4-1.3-7.92-2.83-11.9-4.2a51.3,51.3,0,0,0-12.64-2.94,46.22,46.22,0,0,0-11.8.64,60.59,60.59,0,0,0-10.66,2.87l-.25,0c0-.91,0-1.8,0-2.68a27.21,27.21,0,0,1,2.71-10.71,13.24,13.24,0,0,1,5.44-5.93,13.53,13.53,0,0,1,5.07-1.51c2.41-.26,4.84-.39,7.25-.63a18.84,18.84,0,0,0,3.34-.59c1.93-.54,2.64-1.85,2.28-3.85a5.84,5.84,0,0,0-4.38-4.72A16,16,0,0,0,27.44,79a50.18,50.18,0,0,0-20.21,5.8c-1.86,1-3.61,2.17-5.46,3.29.07-.89.1-1.84.22-2.78a36.66,36.66,0,0,1,2.5-9.66,24.35,24.35,0,0,1,5.07-7.86,22.36,22.36,0,0,1,11.86-6.2,21.59,21.59,0,0,1,14.06,2c2.41,1.18,4.69,2.64,7,4a17.9,17.9,0,0,0,2.27,1.15c1.09.43,1.64.11,1.86-1.07a8.5,8.5,0,0,0-.08-3.82A2.39,2.39,0,0,0,44.34,62c-1.22-.14-2.46-.21-3.69-.25a24.62,24.62,0,0,1-13.84-4.66,29.85,29.85,0,0,1-11.4-16.43C15.35,40.44,15.31,40.23,15.24,39.94Z"/></svg>