<?xml version="1.0" encoding="utf-8"?>
<!-- Generator: Adobe Illustrator 22.1.0, SVG Export Plug-In . SVG Version: 6.00 Build 0)  -->
<svg version="1.1" id="Слой_1" xmlns="http://www.w3.org/2000/svg" xmlns:xlink="http://www.w3.org/1999/xlink" x="0px" y="0px"
	 viewBox="0 0 89.5 89.5" style="enable-background:new 0 0 89.5 89.5;" xml:space="preserve">
<style type="text/css">
	.st0{fill:#AA9157;}
</style>
<title>Icons GS</title>
<path class="st0" d="M83.5,36.8H52.8V6c0-3.3-3.6-6-8-6c-4.4,0-8,2.7-8,6v30.8H6c-3.3,0-6,3.6-6,8c0,4.4,2.7,8,6,8h30.8v30.7
	c0,3.3,3.6,6,8,6c4.4,0,8-2.7,8-6V52.8h30.7c3.3,0,6-3.6,6-8C89.5,40.4,86.8,36.8,83.5,36.8z"/>
</svg>
