<svg id="Слой_1" data-name="Слой 1" xmlns="http://www.w3.org/2000/svg" viewBox="0 0 44 61"><defs><style>.cls-1{fill:#e84157;opacity:0.9;}</style></defs><title>Icons GS </title><path class="cls-1" d="M33.78,5.27H10.88A3.15,3.15,0,0,0,7.77,8.45V53.91a3.15,3.15,0,0,0,3.11,3.17h22.9a3.15,3.15,0,0,0,3.11-3.17V8.45A3.15,3.15,0,0,0,33.78,5.27ZM23.13,54.64a2.28,2.28,0,1,1,2.19-2.28A2.24,2.24,0,0,1,23.13,54.64ZM9.43,48.73v-.95H35v.95Zm8.09-21.62V31.9h-6V27.11Zm-6-1.39V20.93h6v4.79Zm6,7.57v4.79h-6V33.29Zm0,6.17v4.79h-6V39.46Zm8-12.35V31.9h-6V27.11Zm-6-1.39V20.93h6v4.79Zm6,7.57v4.79h-6V33.29Zm0,6.17v4.79h-6V39.46Zm8-12.35V31.9h-6V27.11Zm-6-1.39V20.93h6v4.79Zm6,7.57v4.79h-6V33.29Zm0,6.17v4.79h-6V39.46ZM9.1,11V10H35.31v1Zm8.73-2.48v-1h9.54v1Z"/></svg>