<svg id="Слой_1" data-name="Слой 1" xmlns="http://www.w3.org/2000/svg" viewBox="0 0 141.73 141.73"><defs><style>.cls-1{fill:#e84155;}</style></defs><title>Icons GS </title><polygon class="cls-1" points="53.93 2.24 88.37 2.24 96.47 15.52 72.2 44.18 46.34 15.72 53.93 2.24"/><path class="cls-1" d="M93.2,29.72,82.62,42.45A47.1,47.1,0,0,1,112.72,69c.13.29.26.58.38.87A50,50,0,0,1,117,89.16c0,26.72-20.79,48.37-46.42,48.37S24.13,115.88,24.13,89.16a50.25,50.25,0,0,1,2.4-15.37,37.46,37.46,0,0,1,5.34-11.38A46.59,46.59,0,0,1,59.45,42.19L47.87,29.72a58.32,58.32,0,1,0,45.33,0Z"/></svg>