<svg id="Слой_1" data-name="Слой 1" xmlns="http://www.w3.org/2000/svg" viewBox="0 0 75.33 56.32"><defs><style>.cls-1{fill:#e84157;}</style></defs><title>Icons GS </title><path class="cls-1" d="M66.86,17a5.11,5.11,0,0,0-5.11-5.11H16.85A5.11,5.11,0,0,0,11.74,17v4.46H66.86Zm0,0"/><path class="cls-1" d="M58.91,25.14a12.6,12.6,0,0,0-6.34,1.7H11.74V42.33a5.11,5.11,0,0,0,5.11,5.1H50.73a12.65,12.65,0,1,0,8.18-22.29ZM30.59,40.43a.66.66,0,0,1-.66.66H19.84a.66.66,0,0,1-.66-.66v-2a.66.66,0,0,1,.66-.65H29.93a.65.65,0,0,1,.66.65Zm28.32,5.38a8,8,0,1,1,8-8,8,8,0,0,1-8,8Zm0,0"/><path class="cls-1" d="M62.45,36.35h-.21v-1A3.33,3.33,0,0,0,59,32h-.2a3.31,3.31,0,0,0-3.19,3H57a1.95,1.95,0,0,1,3.86.39v1H55.37a.67.67,0,0,0-.58.74V42a.67.67,0,0,0,.58.74h7.08A.67.67,0,0,0,63,42V37.09A.67.67,0,0,0,62.45,36.35Zm-2.88,3.19V41a.31.31,0,0,1-.31.31h-.7a.31.31,0,0,1-.31-.31V39.54A.87.87,0,0,1,58,38.9a.88.88,0,0,1,.82-.89H59a.88.88,0,0,1,.82.89A.87.87,0,0,1,59.57,39.54Z"/></svg>