<?xml version="1.0" encoding="utf-8"?>
<!-- Generator: Adobe Illustrator 22.1.0, SVG Export Plug-In . SVG Version: 6.00 Build 0)  -->
<svg version="1.1" id="Слой_1" xmlns="http://www.w3.org/2000/svg" xmlns:xlink="http://www.w3.org/1999/xlink" x="0px" y="0px"
	 viewBox="0 0 103 134" style="enable-background:new 0 0 103 134;" xml:space="preserve">
<style type="text/css">
	.st0{fill:#636462;}
</style>
<title>Icons GS</title>
<path class="st0" d="M95.7,54.1h-2.6V41.9C93.1,19.3,75.1,0.4,52.7,0h-2.4C27.9,0.4,9.9,19.3,9.9,41.9v12.2H7.3
	c-4,0-7.3,4.1-7.3,9.3v61.3c0,5.1,3.3,9.3,7.3,9.3h88.4c4,0,7.3-4.2,7.3-9.3V63.4C103,58.2,99.7,54.1,95.7,54.1z M63,87
	c-0.2,2.6-1.4,5.1-3.2,7v18.5c0,2.1-1.8,3.9-3.9,3.9h-8.8c-2.1-0.1-3.9-1.8-3.9-3.9V94c-4.4-4.4-4.3-11.5,0.1-15.9
	c1.9-1.9,4.3-3,7-3.2c0.6,0,1.8,0,2.4,0C58.9,75.4,63.5,80.8,63,87z M75.9,54.1H27.1V41.9c0-13.5,10.9-24.4,24.4-24.4
	s24.4,10.9,24.4,24.4V54.1z"/>
</svg>
