<svg id="Слой_1" data-name="Слой 1" xmlns="http://www.w3.org/2000/svg" viewBox="0 0 76.67 66.67"><defs><style>.cls-1{fill:#e84157;}</style></defs><title>Icons GS </title><path class="cls-1" d="M71.17,50a8.62,8.62,0,0,1-.4,2,9.07,9.07,0,0,1-8.6,6.44c-2.54,0-5.08,0-7.62,0a1.56,1.56,0,0,1-1.68-1.53,1.57,1.57,0,0,1,1.68-1.52c2.51,0,5,0,7.51,0a6.09,6.09,0,0,0,5.7-4,6,6,0,0,0-5.35-8c-2.33-.1-4.67,0-7-.05a2.11,2.11,0,0,0-.27.07L56.89,45a1.59,1.59,0,0,1,.55,1.41,1.51,1.51,0,0,1-2.54.92c-1.58-1.51-3.11-3.06-4.63-4.63a1.44,1.44,0,0,1,0-2.13q2.25-2.3,4.55-4.55A1.48,1.48,0,0,1,57,36,1.46,1.46,0,0,1,57,38.16c-.58.63-1.24,1.2-1.87,1.79l.07.14a3.57,3.57,0,0,0,.46,0h6.1A9.13,9.13,0,0,1,71.07,48,8.11,8.11,0,0,1,71.17,50Z"/><path class="cls-1" d="M43.73,20.37H60.17c1.32,0,1.86.53,1.86,1.84V36.58c0,.16,0,.33,0,.49a.78.78,0,0,1-.19.06c-.38,0-.83.13-1.11,0s-.25-.62-.33-1a4.54,4.54,0,0,0-7.68-2.21c-1.51,1.47-3,3-4.47,4.47a4.52,4.52,0,0,0,0,6.57c1.26,1.29,2.56,2.56,3.83,3.83l.44.47c-.26,0-.44,0-.61,0q-18.3,0-36.6,0a1.75,1.75,0,0,1-2-2c0-12.93,0-12.16,0-25.1,0-1.31.54-1.85,1.84-1.85H31.61V21c0,3.26,0,6.52,0,9.77a1.59,1.59,0,0,0,.78,1.57,1.61,1.61,0,0,0,1.8-.2c1-.68,2-1.29,2.94-2a.81.81,0,0,1,1.13,0c1,.7,2,1.34,3,2a1.58,1.58,0,0,0,1.7.18,1.53,1.53,0,0,0,.8-1.5c0-3.24,0-6.48,0-9.72Z"/><path class="cls-1" d="M34.63,28.2V20.4h6.08v7.8l-2-1.3a1.59,1.59,0,0,0-2.17,0Z"/><rect class="cls-1" x="10.51" y="6.73" width="54.44" height="10.52" rx="1.81" ry="1.81"/></svg>