<svg id="Слой_1" data-name="Слой 1" xmlns="http://www.w3.org/2000/svg" viewBox="0 0 72 65"><defs><style>.cls-1{fill:none;stroke:#e84157;stroke-miterlimit:10;stroke-width:2px;}.cls-2{fill:#e84157;}</style></defs><title>Icons GS </title><path class="cls-1" d="M54,48.21l-.28,12s-1.43.29-3.14-1.71-7.13-10.83-7.13-10.83H14.92s-3.88-.23-3.88-5c0-6.13.28-23.21.28-23.21a6.63,6.63,0,0,1,1.2-3.77A4.63,4.63,0,0,1,16.14,14c3.54-.29,41.76,0,41.76,0A4.73,4.73,0,0,1,61,15.36a5.8,5.8,0,0,1,1.56,3.45l-.14,24.77a4.88,4.88,0,0,1-1.17,3.05,4.72,4.72,0,0,1-3.08,1.49Z"/><rect class="cls-2" x="22.92" y="33.5" width="9.83" height="3" rx="1.5" ry="1.5"/><rect class="cls-2" x="36.22" y="33.5" width="14.48" height="3" rx="1.5" ry="1.5"/><rect class="cls-2" x="40.86" y="24.61" width="9.83" height="3" rx="1.5" ry="1.5"/><rect class="cls-2" x="22.92" y="24.61" width="14.48" height="3" rx="1.5" ry="1.5"/></svg>