<svg id="Слой_1" data-name="Слой 1" xmlns="http://www.w3.org/2000/svg" viewBox="0 0 141.73 141.73"><defs><style>.cls-1{fill:#aa9157;}</style></defs><title>Icons GS </title><path class="cls-1" d="M81.37,92.77A9.75,9.75,0,1,1,71.63,83a9.76,9.76,0,0,1,9.74,9.77Zm0,0"/><path class="cls-1" d="M95,69.25a4.57,4.57,0,0,0-.45-.43l-.43-.41a1.28,1.28,0,0,0-.26-.2,31.83,31.83,0,0,0-44,1l-1.41,1.44-2,1.94a6.12,6.12,0,0,0,8.66,8.66l3.38-3.36a19.68,19.68,0,0,1,27.78,0l2.43,2.36a6.07,6.07,0,0,0,8.59-8.58Zm0,0"/><path class="cls-1" d="M111.57,57.17l-2-2a0,0,0,0,0,0,0l-1.62-1.61a5.23,5.23,0,0,0-.9-.73,53.16,53.16,0,0,0-71.79,1.65,3.47,3.47,0,0,1-.29.25l-3.65,3.66a5.59,5.59,0,0,0,7.9,7.9l3.65-3.66s.06-.06.08-.08a41.94,41.94,0,0,1,57.89-.31l2.87,2.88a5.59,5.59,0,0,0,7.9-7.91Zm0,0"/><path class="cls-1" d="M71.43,10.29a60.8,60.8,0,1,1-60.8,60.8,60.87,60.87,0,0,1,60.8-60.8m0-8.79A69.59,69.59,0,1,0,141,71.09,69.59,69.59,0,0,0,71.43,1.5Z"/></svg>