<svg id="Слой_1" data-name="Слой 1" xmlns="http://www.w3.org/2000/svg" xmlns:xlink="http://www.w3.org/1999/xlink" viewBox="0 0 81.35 71.07"><defs><style>.cls-1{fill:#d7bd6e;}.cls-2{fill:url(#Безымянный_градиент_41);}.cls-3{opacity:0.8;fill:url(#Безымянный_градиент_41-2);}.cls-4{fill:#fff;}</style><linearGradient id="Безымянный_градиент_41" x1="32.52" y1="-528.14" x2="92.29" y2="-528.14" gradientTransform="translate(-19.42 567.02)" gradientUnits="userSpaceOnUse"><stop offset="0" stop-color="#d7bd6e"/><stop offset="0.01" stop-color="#d7be70"/><stop offset="0.12" stop-color="#ddc886"/><stop offset="0.23" stop-color="#e2cf96"/><stop offset="0.36" stop-color="#e4d4a0"/><stop offset="0.54" stop-color="#e5d5a3"/><stop offset="1" stop-color="#d7bd6e"/></linearGradient><linearGradient id="Безымянный_градиент_41-2" x1="33.9" y1="-528.94" x2="93.67" y2="-528.94" gradientTransform="translate(-19.2 567.82)" xlink:href="#Безымянный_градиент_41"/></defs><title>Icons GS </title><rect class="cls-1" x="13.51" y="9" width="59.77" height="59.77" rx="29.88" ry="29.88"/><rect class="cls-2" x="13.1" y="9" width="59.77" height="59.77" rx="29.88" ry="29.88" transform="matrix(0.87, 0.5, -0.5, 0.87, 25.2, -16.28)"/><rect class="cls-3" x="14.7" y="9" width="59.77" height="59.77" rx="29.88" ry="29.88" transform="translate(25.42 -17.08) rotate(30)"/><path class="cls-4" d="M33.37,32.91h-.06l-3.42,1.84-.52-2,4.3-2.3h2.27V50.08H33.37Z"/><path class="cls-4" d="M42.86,45.09c0-2.48,1.48-4.23,3.9-5.26l0-.09a4.86,4.86,0,0,1-3.11-4.41c0-3.12,2.63-5.24,6.08-5.24,3.81,0,5.71,2.39,5.71,4.84a5,5,0,0,1-3.23,4.6v.09c2.44,1,4,2.69,4,5.08,0,3.42-2.94,5.72-6.69,5.72C45.34,50.42,42.86,48,42.86,45.09ZM53.45,45c0-2.39-1.67-3.53-4.33-4.29-2.3.66-3.54,2.18-3.54,4a3.63,3.63,0,0,0,3.93,3.75C51.9,48.48,53.45,47,53.45,45Zm-7.32-9.83c0,2,1.48,3,3.75,3.63,1.69-.57,3-1.78,3-3.56A3.06,3.06,0,0,0,49.54,32,3.12,3.12,0,0,0,46.13,35.14Z"/></svg>