<svg id="Слой_1" data-name="Слой 1" xmlns="http://www.w3.org/2000/svg" viewBox="0 0 63 68"><defs><style>.cls-1{fill:#e84157;}</style></defs><title>Icons GS </title><rect class="cls-1" x="19.64" y="18.91" width="29.16" height="27.8"/><path class="cls-1" d="M46.56,8H22.1a2.35,2.35,0,0,0-2.35,2.35v5.54H48.91V10.37A2.35,2.35,0,0,0,46.56,8Zm-7.79,6.16H30.16a1.5,1.5,0,0,1,0-3h8.61a1.5,1.5,0,0,1,0,3Z"/><path class="cls-1" d="M19.75,49.7v6.06a2.35,2.35,0,0,0,2.35,2.35H46.56a2.35,2.35,0,0,0,2.35-2.35V49.7Zm14,5a1.81,1.81,0,1,1,0-3.55,1.81,1.81,0,1,1,0,3.55Z"/></svg>