<svg id="Слой_1" data-name="Слой 1" xmlns="http://www.w3.org/2000/svg" viewBox="0 0 73.33 64"><defs><style>.cls-1{fill:#e84157;}</style></defs><title>Icons GS </title><path class="cls-1" d="M67.76,21.46v-.05s0-.06,0-.09l0-.05s0,0,0-.05v0a.21.21,0,0,0,0-.06l0-.06s0,0,0,0l-12-10h0l0,0-.07,0h0l-.08,0H22L22,11h0l-.07,0,0,0h0l-12,10,0,0-.06.06,0,.05,0,0a.43.43,0,0,0,0,.05.08.08,0,0,0,0,.05.25.25,0,0,0,0,.08v.06a.29.29,0,0,0,0,.09v0h0a.21.21,0,0,0,.06.1v0h0L38.33,58.28h0l0,0h0l0,0H39l0,0h0l0,0h0L67.66,21.72h0l0,0,0-.1h0s0,0,0,0A.29.29,0,0,0,67.76,21.46ZM36.71,53.4,19.22,21.9l6.43-.08h.78l1.66,5.09ZM50,21.81,39.19,55V21.76l9.67,0ZM38.23,55,27.44,21.81l10.79,0ZM51,21.82l7.21.08L40.7,53.4Zm7.33-.88-6.93-.08,3.88-8.16Zm-9.66-.1-9,0,5.76-8.42,4.47,8.46Zm-10.86,0-10.22,0,4.47-8.47Zm-18.7.13,3-8.24L26,20.86Zm24-7-4.44,6.5-5.8-8.49h11.6Zm16.19,7L56.4,13,66,21Zm-4.78-9-2.93,6.18-1,2.13-4.41-8.32Zm-23.35,0L26.8,20.26,26.7,20l-3.85-8.1ZM21,13,18.2,20.6l-.13.35H11.46Zm-9.9,8.93h7l17.19,31Zm31,31,17.19-31h7Z"/><path class="cls-1" d="M38.73,59h-.17l-.1,0-.12,0-.11-.06,0,0h0l0,0,0,0h0l0,0s0,0,0,0h0L38,58.59h0L9.36,22a.43.43,0,0,1,0-.07l0,0a.84.84,0,0,1-.08-.15l0-.14a1.09,1.09,0,0,1,0-.15v-.11a1.11,1.11,0,0,1,0-.17.38.38,0,0,0,0-.1s0-.06,0-.12a.28.28,0,0,1,.06-.09.8.8,0,0,1,.15-.18l12-10,.1-.06.14-.08.12,0a.38.38,0,0,1,.16,0H55.36l.12,0,.13,0,.14.06.1.06,0,0,0,0,12,10a.38.38,0,0,1,.09.09l.06.07.07.1a1,1,0,0,1,.08.18l0,.1c0,.05,0,.1,0,.16v.11h0s0,.16,0,.19a.23.23,0,0,1,0,.09h0a1.11,1.11,0,0,1-.11.2L39.48,58.58l-.08.09-.08.07-.09.07-.1,0-.11,0-.15,0Zm-.39-.68-.18.14Zm.38-.32h0l3.68-4.71a.51.51,0,0,1-.59,0,.5.5,0,0,1-.22-.47l-.46.82a.5.5,0,0,1-.64.22.5.5,0,0,1-.3-.41l-.54,1.66a.49.49,0,0,1-.55.34.5.5,0,0,1-.4-.35.51.51,0,0,1-.4.35.5.5,0,0,1-.56-.34l-.54-1.66a.5.5,0,0,1-.3.41.49.49,0,0,1-.63-.22l-.46-.82a.5.5,0,0,1-.22.47.54.54,0,0,1-.52,0ZM28.13,22.3l9.6,29.51V22.26Zm11.56,0V51.81l9.6-29.5Zm11.66.05L42.78,48.63,57.36,22.39Zm-31.29.07L34.63,48.63,26.07,22.32Zm-7.92,0L31.79,47.54l-14-25.13Zm47.45,0-14,25.13L65.27,22.41Zm6.57-1h.14a.5.5,0,0,1,.45.28.53.53,0,0,1,0,.35l.47-.6-.83-.68a.5.5,0,0,1,0,.36A.51.51,0,0,1,66.16,21.41Zm-56,0,.47.6a.51.51,0,0,1,0-.34.5.5,0,0,1,.45-.28h.14a.55.55,0,0,1-.27-.29.51.51,0,0,1,0-.4Zm48.23,0a.45.45,0,0,1,.24.21.46.46,0,0,1,.07.3l.16-.28a.45.45,0,0,1,.32-.25.47.47,0,0,1-.3-.3L58.82,21a.62.62,0,0,1-.09.26A.54.54,0,0,1,58.39,21.44Zm-40.15,0a.49.49,0,0,1,.32.24l.16.29a.45.45,0,0,1,.07-.3.51.51,0,0,1,.24-.22.47.47,0,0,1-.34-.2A.62.62,0,0,1,18.6,21l-.06.15A.5.5,0,0,1,18.24,21.42ZM50,21.31a.54.54,0,0,1,.36.21.5.5,0,0,1,.09.24l0-.1a.53.53,0,0,1,.48-.34h.2a.5.5,0,0,1-.25-.67h0a.47.47,0,0,1-.32.12.57.57,0,0,1-.33-.11.5.5,0,0,1,0,.46A.52.52,0,0,1,50,21.31Zm-23.6,0a.5.5,0,0,1,.48.35l0,.1a.58.58,0,0,1,.09-.25.53.53,0,0,1,.36-.2.49.49,0,0,1-.27-.66.62.62,0,0,1-.33.11.53.53,0,0,1-.32-.12h0a.49.49,0,0,1,0,.47.47.47,0,0,1-.22.2Zm11.8,0a.51.51,0,0,1,.35.15.45.45,0,0,1,.13.22.5.5,0,0,1,.13-.22.51.51,0,0,1,.35-.15h.22a.52.52,0,0,1-.29-.56h0a.51.51,0,0,1-.82,0h0a.5.5,0,0,1,0,.34.47.47,0,0,1-.24.22Zm29.5.33h0Zm-8-1.14h4.89l-7.07-5.88Zm-46.85,0,4.89,0,2.17-5.86Zm39.34-.08,5.42.06L55.21,14ZM22.21,14l-2.39,6.44,5.42-.06Zm18.35,6.32,8.1,0H49l-3.7-7Zm-8.45-7-3.7,7,8.45,0Zm1.75-.91,4.85,7.1,4.85-7.1Zm13.18,0,3.55,6.71,3.18-6.7Zm-23.39,0,3.18,6.71,3.54-6.71Zm19.5,1.49h0ZM55.27,12.2h0a.51.51,0,0,1,.45.33l.16.43a.47.47,0,0,1,.21-.38.49.49,0,0,1,.42-.08l-1.19-1,0,0h-.55a.55.55,0,0,1,.23.2.51.51,0,0,1,0,.48l-.08.16A.53.53,0,0,1,55.27,12.2ZM21,12.48a.45.45,0,0,1,.29.1.47.47,0,0,1,.21.38l.16-.43a.51.51,0,0,1,.45-.33.48.48,0,0,1,.35.12l-.08-.16a.51.51,0,0,1,0-.48.48.48,0,0,1,.23-.19H22.1l-1.23,1Zm23.69-1a.45.45,0,0,1,.24.23.49.49,0,0,1,0,.34.48.48,0,0,1,.39-.16.45.45,0,0,1,.33.15.51.51,0,0,1,.07-.36.45.45,0,0,1,.23-.2Zm-12.66.4a.48.48,0,0,1,.37.17.53.53,0,0,1,0-.35.47.47,0,0,1,.24-.22H31.4a.45.45,0,0,1,.23.2.49.49,0,0,1,.07.35.48.48,0,0,1,.33-.14Z"/></svg>