<svg id="Слой_1" data-name="Слой 1" xmlns="http://www.w3.org/2000/svg" viewBox="0 0 53.33 64"><defs><style>.cls-1{fill:#e84157;}</style></defs><title>Icons GS </title><path class="cls-1" d="M24.51,27.87c.81,1.91,2.34,3,3.37,3s2.41-1,3.22-2.9a8.58,8.58,0,0,0,.49-1.62,6.1,6.1,0,0,0,.21-1.78,3.94,3.94,0,0,0-7.85,0A8.42,8.42,0,0,0,24,25.86,8.22,8.22,0,0,0,24.51,27.87Z"/><path class="cls-1" d="M35.85,34.63A40.09,40.09,0,0,0,31.2,31.2l-2.43,7.1V35.72a.78.78,0,0,0-1.55,0v2.87L24.84,31.2a21.88,21.88,0,0,0-4.78,3.45c-1.29,1.4-1.44,4.12-1.44,4.12v2.57H37.1V38.77A5.65,5.65,0,0,0,35.85,34.63Zm-1.47,3.42a.72.72,0,0,1-.72.72H31.82a.72.72,0,0,1-.72-.72v-.11a.72.72,0,0,1,.72-.72h1.84a.72.72,0,0,1,.72.72Z"/><path class="cls-1" d="M27.88,59.61a2.17,2.17,0,0,1-1-.24c-17-8.58-19.8-12.83-19.8-30.32V15.94a2.21,2.21,0,0,1,1.48-2.09L27.14,7.29a2.21,2.21,0,0,1,1.48,0l18.57,6.56a2.21,2.21,0,0,1,1.48,2.09V29.05c0,17.49-2.77,21.74-19.79,30.32A2.2,2.2,0,0,1,27.88,59.61Zm0-50.19L9.31,16l0,13.07c0,16.65,2.25,20.09,18.55,28.3,16.27-8.21,18.52-11.65,18.52-28.3V16Z"/></svg>