<svg id="Слой_1" data-name="Слой 1" xmlns="http://www.w3.org/2000/svg" viewBox="0 0 141.73 141.73"><defs><style>.cls-1{fill:#aa9157;}</style></defs><title>Icons GS </title><path class="cls-1" d="M70.94,10.18A60.8,60.8,0,1,1,10.14,71a60.87,60.87,0,0,1,60.8-60.79m0-8.8A69.59,69.59,0,1,0,140.53,71,69.59,69.59,0,0,0,70.94,1.38Z"/><path class="cls-1" d="M105,66a1.85,1.85,0,0,0-1.41-.67H96.71c-1.7-4.49-3.92-8.89-6.44-10.55-4.67-3.08-13.48-4.51-22-4.29,0,.39,0,.73,0,1a18.75,18.75,0,0,1-.53,4.47c7.61-.27,15.67.85,19.51,3.39,1.36.88,3.09,4.47,4.68,8.86H48.62V73a5.9,5.9,0,0,1-5.9,5.9h-5.9a12.62,12.62,0,0,0-.37,3,12,12,0,0,0,3.79,9l.08.06v6.93a2.73,2.73,0,0,0,2.73,2.73h6.36a2.74,2.74,0,0,0,2.73-2.73V95.15H87.81v2.78a2.72,2.72,0,0,0,2.72,2.73H96.9a2.73,2.73,0,0,0,2.72-2.73v-6.8a12.12,12.12,0,0,0,3.88-9,12.28,12.28,0,0,0-3.09-8.27h2.18a1.81,1.81,0,0,0,1.78-1.44l1-4.95A1.84,1.84,0,0,0,105,66ZM49.87,88a5.36,5.36,0,1,1,5.37-5.37A5.37,5.37,0,0,1,49.87,88Zm40.26,0A5.36,5.36,0,1,1,95.5,82.6,5.37,5.37,0,0,1,90.13,88Z"/><path class="cls-1" d="M59.54,44.16c-1.91-1.91-4.12-2.87-8.88-2.87H37V73h5.72V61.29h7.94c4.76,0,7-.94,8.88-2.52s2.85-4.14,2.85-7.31C62.39,48.59,61.76,46.05,59.54,44.16ZM54.78,55.59a5.8,5.8,0,0,1-4.45,1.58H42.72V45.74H50c2.22,0,3.8.64,4.76,1.91a5.84,5.84,0,0,1,1.58,3.81A6.1,6.1,0,0,1,54.78,55.59Z"/></svg>