<svg id="Слой_1" data-name="Слой 1" xmlns="http://www.w3.org/2000/svg" viewBox="0 0 141.73 141.73"><defs><style>.cls-1{fill:#636462;}</style></defs><title>Icons GS </title><polygon class="cls-1" points="122.16 44.05 96.67 44.05 96.67 62.79 126.85 62.79 122.16 44.05"/><path class="cls-1" d="M115.22,99.13a12.43,12.43,0,1,0,12.43,12.43A12.45,12.45,0,0,0,115.22,99.13Zm0,18.36a5.93,5.93,0,1,1,5.93-5.93A5.94,5.94,0,0,1,115.22,117.49Z"/><path class="cls-1" d="M124.59,38.12a6.32,6.32,0,0,0-6.31-6.31H96.67v6.51h27.92Z"/><path class="cls-1" d="M36.52,99.13A12.43,12.43,0,1,0,49,111.56,12.45,12.45,0,0,0,36.52,99.13Zm0,18.36a5.93,5.93,0,1,1,5.93-5.93A5.93,5.93,0,0,1,36.52,117.49Z"/><path class="cls-1" d="M127.65,84V77.9A2.88,2.88,0,0,1,130.52,75h8.92a9.38,9.38,0,0,0-8.91-6.5H96.67v3.25a2.87,2.87,0,0,1-5.74,0v-52a.18.18,0,0,0-.19-.19H2.87a.18.18,0,0,0-.19.19V93.39H15.11a2.87,2.87,0,0,1,0,5.74H2.68v6.31a.18.18,0,0,0,.19.19H19.36a18.16,18.16,0,0,1,34.33,0H90.93V84a2.87,2.87,0,0,1,5.74,0v21.61h1.38a18.16,18.16,0,0,1,34.34,0h7.5V93h-3.25A9,9,0,0,1,127.65,84ZM81.56,99.13H61a2.87,2.87,0,1,1,0-5.74H81.56a2.87,2.87,0,0,1,0,5.74Z"/><path class="cls-1" d="M133.39,84a3.26,3.26,0,0,0,3.25,3.25h3.25v-6.5h-6.5Z"/></svg>