<svg id="Слой_1" data-name="Слой 1" xmlns="http://www.w3.org/2000/svg" viewBox="0 0 141.73 141.73"><defs><style>.cls-1{fill:#aa9157;}</style></defs><title>Icons GS </title><path class="cls-1" d="M33.26,72.19c0,4.43,2.69,8,6,8h63.49c3.31,0,6-3.59,6-8s-2.68-8-6-8H39.26C36,64.17,33.26,67.76,33.26,72.19Z"/><path class="cls-1" d="M71,12.07c33.62,0,61,27,61,60.12s-27.35,60.12-61,60.12-61-27-61-60.12S37.38,12.07,71,12.07m0-10c-39.2,0-71,31.4-71,70.12s31.77,70.12,71,70.12,71-31.4,71-70.12S110.2,2.07,71,2.07Z"/></svg>