<?xml version="1.0" encoding="utf-8"?>
<!-- Generator: Adobe Illustrator 22.1.0, SVG Export Plug-In . SVG Version: 6.00 Build 0)  -->
<svg version="1.1" id="Слой_1" xmlns="http://www.w3.org/2000/svg" xmlns:xlink="http://www.w3.org/1999/xlink" x="0px" y="0px"
	 viewBox="0 0 141 94" style="enable-background:new 0 0 141 94;" xml:space="preserve">
<style type="text/css">
	.st0{fill:#AA9157;}
</style>
<title>Icons GS</title>
<g>
	<path class="st0" d="M126.3,0H14.7c0,0,0,0,0,0C6.6,0,0,6.6,0,14.7v5.9v17.6v41.1C0,87.4,6.6,94,14.7,94h111.6
		c8.1,0,14.7-6.6,14.7-14.7V38.2V20.6v-5.9C141,6.6,134.4,0,126.3,0z M14.7,5.9h111.6c4.9,0,8.8,3.9,8.8,8.8v2.9H5.9v-2.9
		C5.9,9.9,9.8,5.9,14.7,5.9z M126.3,88.2H14.7c-4.9,0-8.8-3.9-8.8-8.8V41.2h129.3v38.2C135.1,84.2,131.2,88.2,126.3,88.2z"/>
	<path class="st0" d="M55.8,58.8H20.6c-0.1,0-0.2,0-0.3,0c-1.6,0.1-2.9,1.5-2.8,3.1c0.1,1.6,1.5,2.9,3.1,2.8h35.3c0.1,0,0.2,0,0.3,0
		c1.6-0.1,2.9-1.5,2.8-3.1C58.8,59.9,57.4,58.7,55.8,58.8z"/>
	<path class="st0" d="M55.8,70.5H20.6c-0.1,0-0.2,0-0.3,0c-1.6,0.1-2.9,1.5-2.8,3.1c0.1,1.6,1.5,2.9,3.1,2.8h35.3c0.1,0,0.2,0,0.3,0
		c1.6-0.1,2.9-1.5,2.8-3.1C58.8,71.7,57.4,70.4,55.8,70.5z"/>
	<path class="st0" d="M114.6,52.9h-5.9c-4.9,0-8.8,3.9-8.8,8.8v5.9c0,4.9,4,8.8,8.8,8.8h5.9c4.9,0,8.8-3.9,8.8-8.8v-5.9
		C123.4,56.9,119.4,52.9,114.6,52.9z M117.5,67.6c0,1.6-1.3,2.9-2.9,2.9h-5.9c-1.6,0-2.9-1.3-2.9-2.9v-5.9c0-1.6,1.3-2.9,2.9-2.9
		h5.9c1.6,0,2.9,1.3,2.9,2.9V67.6z"/>
</g>
</svg>
