<?xml version="1.0" encoding="utf-8"?>
<!-- Generator: Adobe Illustrator 22.1.0, SVG Export Plug-In . SVG Version: 6.00 Build 0)  -->
<svg version="1.1" id="Слой_1" xmlns="http://www.w3.org/2000/svg" xmlns:xlink="http://www.w3.org/1999/xlink" x="0px" y="0px"
	 viewBox="0 0 132.9 132.8" style="enable-background:new 0 0 132.9 132.8;" xml:space="preserve">
<style type="text/css">
	.st0{fill:#636462;}
</style>
<title>Icons GS</title>
<path class="st0" d="M128.5,42.8C118.7,17.1,94.1,0,66.5,0c-17,0.1-33.4,6.7-45.7,18.4v-5.9c0-4-3.3-7.2-7.3-7.2H7.3
	c-4,0-7.3,3.2-7.3,7.2v36.2c0,4,3.3,7.3,7.3,7.3h36.3c4,0,7.3-3.3,7.3-7.3c0,0,0,0,0,0v-6.1c0-4-3.2-7.2-7.2-7.3c0,0,0,0,0,0H33.1
	c17.2-18.4,46.1-19.4,64.5-2.3C116,50.2,117,79.1,99.8,97.6C82.6,116,53.8,117,35.3,99.8c-5.1-4.8-9.1-10.6-11.5-17.2
	c-2.2-5.3-8.2-7.8-13.5-5.7c-5.1,2.1-7.7,7.8-5.9,13c13,34.3,51.4,51.5,85.7,38.5C124.3,115.5,141.6,77.1,128.5,42.8z"/>
</svg>
