<svg id="Слой_1" data-name="Слой 1" xmlns="http://www.w3.org/2000/svg" xmlns:xlink="http://www.w3.org/1999/xlink" viewBox="0 0 77.56 71.64"><defs><style>.cls-1{fill:url(#Безымянный_градиент_75);}.cls-2{opacity:0.8;fill:url(#Безымянный_градиент_75-2);}.cls-3{fill:#fdfdfd;}</style><linearGradient id="Безымянный_градиент_75" x1="-49.16" y1="-753.57" x2="10.61" y2="-753.57" gradientTransform="translate(59.24 791.17)" gradientUnits="userSpaceOnUse"><stop offset="0.01" stop-color="#bfbebf"/><stop offset="0.02" stop-color="#c0bfc0"/><stop offset="0.16" stop-color="#d0cfd0"/><stop offset="0.33" stop-color="#d9d9d9"/><stop offset="0.54" stop-color="#dcdcdc"/><stop offset="1" stop-color="#bfbebf"/></linearGradient><linearGradient id="Безымянный_градиент_75-2" x1="-48.28" y1="-754.38" x2="11.49" y2="-754.38" gradientTransform="translate(59.55 791.98)" xlink:href="#Безымянный_градиент_75"/></defs><title>Icons GS </title><rect class="cls-1" x="10.08" y="7.71" width="59.77" height="59.77" rx="29.88" ry="29.88" transform="translate(35.85 -17.12) rotate(42.44)"/><rect class="cls-2" x="11.27" y="7.71" width="59.77" height="59.77" rx="29.88" ry="29.88" transform="translate(36.16 -17.92) rotate(42.44)"/><path class="cls-3" d="M27.72,28.49a30.63,30.63,0,0,1,5.05-.4c2.6,0,4.51.61,5.72,1.7a5.47,5.47,0,0,1,1.78,4.26,6,6,0,0,1-1.57,4.36,8.45,8.45,0,0,1-6.23,2.23,9.16,9.16,0,0,1-2.12-.18v8.17H27.72Zm2.63,9.83a8.93,8.93,0,0,0,2.18.21c3.18,0,5.11-1.54,5.11-4.36s-1.9-4-4.81-4a11.17,11.17,0,0,0-2.48.21Z"/><path class="cls-3" d="M47.68,30.48h-6.2V28.24H56.57v2.24H50.34V48.63H47.68Z"/></svg>