<svg id="Слой_1" data-name="Слой 1" xmlns="http://www.w3.org/2000/svg" viewBox="0 0 133.56 83.78"><defs><style>.cls-1,.cls-2{fill:none;stroke:#010101;stroke-miterlimit:10;}.cls-1{stroke-width:0.5px;}</style></defs><title>Icons GS </title><path class="cls-1" d="M125.28,15.06s.27,1.06-3.79,3.38-18.76,9.37-53.83,19.69C35.83,47.51,13.37,51.87,8.9,50.39a1.8,1.8,0,0,1-1.34-1.26c-.27-2.18-2.92,11.31,4.82,17,8.91,6.51,30.39.44,60.8-8C102.75,50,122.77,40.35,128,33.78,136.27,23.34,125.28,15.06,125.28,15.06Z"/><path class="cls-1" d="M68.26,38.1C52.73,42.67,38,46.41,26.7,48.65,8.58,52.26,8,50.32,7.71,49.38S6.85,46.51,24,39.73C34.7,35.51,49.37,31.54,64.89,27s30.05-9.19,41.32-11.43c18.13-3.6,18.71-1.66,19-.73s.86,2.88-16.31,9.66C98.21,28.69,83.78,33.53,68.26,38.1Zm-59,10.84c.69.28,3.93.84,18.25-2.07C38.57,44.61,52.89,41,67.8,36.57S96.72,27.5,107.25,23.4c13.6-5.3,16-7.53,16.44-8.14-.7-.28-3.94-.85-18.26,2.07C94.34,19.58,80.26,24.12,65.35,28.5S36.19,36.69,25.66,40.8C12.06,46.1,9.65,48.33,9.23,48.94Z"/><path class="cls-1" d="M54.91,37.94s1.68-5.68,23.82-9.7"/><ellipse class="cls-2" cx="94.9" cy="39.74" rx="5.4" ry="4.99" transform="translate(-7.84 34.21) rotate(-19.64)"/><ellipse class="cls-2" cx="105.97" cy="36.12" rx="5.4" ry="4.99" transform="translate(-5.97 37.72) rotate(-19.64)"/><ellipse class="cls-2" cx="84.84" cy="43.35" rx="5.4" ry="4.8" transform="translate(-9.11 27.52) rotate(-17.5)"/><ellipse class="cls-2" cx="74.31" cy="46.54" rx="5.4" ry="4.8" transform="translate(-11.39 27.99) rotate(-19.84)"/><ellipse class="cls-2" cx="63.64" cy="49.71" rx="5.4" ry="4.8" transform="translate(-10.49 17.68) rotate(-14.62)"/><ellipse class="cls-2" cx="53.66" cy="52.44" rx="5" ry="4.75" transform="translate(-13.92 19.84) rotate(-18.59)"/><ellipse class="cls-2" cx="115.54" cy="31.12" rx="4.81" ry="4.99" transform="translate(-1.69 55.12) rotate(-26.64)"/><ellipse class="cls-2" cx="123.26" cy="26.28" rx="3.73" ry="4.65" transform="translate(-2.21 38.14) rotate(-17.44)"/><ellipse class="cls-2" cx="127.72" cy="21.78" rx="1.96" ry="3.72" transform="translate(0.7 47.34) rotate(-21.06)"/><ellipse class="cls-2" cx="44.02" cy="54.84" rx="5.24" ry="4.98" transform="translate(-12.8 13.41) rotate(-15.15)"/><ellipse class="cls-2" cx="33.15" cy="57.32" rx="5.24" ry="4.98" transform="translate(-13.03 9.86) rotate(-14.17)"/><ellipse class="cls-2" cx="23.21" cy="58.61" rx="3.99" ry="4.92" transform="translate(-17.4 10.4) rotate(-18.5)"/><ellipse class="cls-2" cx="15.23" cy="58.41" rx="3.58" ry="4.57" transform="translate(-14.73 6.01) rotate(-15.15)"/><ellipse class="cls-2" cx="9.18" cy="57" rx="1.74" ry="3.84" transform="translate(-14.58 4.38) rotate(-15.15)"/></svg>