<svg id="Слой_1" data-name="Слой 1" xmlns="http://www.w3.org/2000/svg" viewBox="0 0 141.73 141.73"><defs><style>.cls-1{fill:#aa9157;}</style></defs><title>Icons GS </title><path class="cls-1" d="M66.27,35.58a3.08,3.08,0,0,0-4.35,0c-1.68,1.68-4,4-4,8.33s2.3,6.66,4,8.34c1.51,1.51,2.17,2.25,2.17,4a3.08,3.08,0,0,0,6.16,0c0-4.36-2.3-6.66-4-8.34-1.51-1.51-2.18-2.25-2.18-4s.67-2.47,2.18-4A3.08,3.08,0,0,0,66.27,35.58Z"/><path class="cls-1" d="M80.64,35.58a3.08,3.08,0,0,0-4.35,0c-1.68,1.68-4,4-4,8.33s2.3,6.66,4,8.34c1.51,1.51,2.17,2.25,2.17,4a3.08,3.08,0,1,0,6.16,0c0-4.36-2.3-6.66-4-8.34-1.51-1.51-2.18-2.25-2.18-4s.67-2.47,2.18-4A3.08,3.08,0,0,0,80.64,35.58Z"/><path class="cls-1" d="M95.91,65.47H50.75a3.07,3.07,0,0,0-3.08,3.07V78.81A23.52,23.52,0,0,0,55.4,96.25H48.7a3.08,3.08,0,0,0,0,6.16H93.86a3.08,3.08,0,0,0,0-6.16h-6.7A23.65,23.65,0,0,0,93,88h2.92a11.29,11.29,0,0,0,0-22.57Zm0,16.42H94.68a24.14,24.14,0,0,0,.2-3.08V71.62h1a5.14,5.14,0,0,1,0,10.27Z"/><path class="cls-1" d="M70.92,10.32a60.8,60.8,0,1,1-60.8,60.79,60.86,60.86,0,0,1,60.8-60.79m0-8.8a69.59,69.59,0,1,0,69.59,69.59A69.59,69.59,0,0,0,70.92,1.52Z"/></svg>