<svg id="Слой_1" data-name="Слой 1" xmlns="http://www.w3.org/2000/svg" viewBox="0 0 141.73 141.73"><defs><style>.cls-1{fill:#636462;}</style></defs><title>Icons GS </title><polygon class="cls-1" points="55.52 77.1 46.3 74.14 46.3 102.26 55.52 99.26 55.52 77.1"/><polygon class="cls-1" points="47.37 107.08 68.68 126.89 68.68 114.4 57.32 103.85 47.37 107.08"/><path class="cls-1" d="M74,36.44H68.52A3.43,3.43,0,0,0,65,39.82v5.45a3.43,3.43,0,0,0,3.49,3.38H74a3.43,3.43,0,0,0,3.49-3.38V39.82A3.43,3.43,0,0,0,74,36.44Z"/><polygon class="cls-1" points="81.85 76.44 71.14 66.65 60.44 76.44 60.44 100.02 71.14 109.97 81.85 100.02 81.85 76.44"/><path class="cls-1" d="M68.68,62.23V52H66.32L47.39,69.32l10,3.22Z"/><path class="cls-1" d="M75.81,52H73.6V62.23L84.91,72.58l10-3.26L81,56.57l0,0L76,52Z"/><polygon class="cls-1" points="84.81 103.99 73.6 114.4 73.6 126.89 89.46 112.15 94.9 107.09 84.93 103.88 84.81 103.99"/><polygon class="cls-1" points="86.77 99.3 95.98 102.27 95.98 74.15 86.77 77.15 86.77 99.3"/><rect class="cls-1" x="0.82" y="23.37" width="63.64" height="5.49" rx="2.28" ry="2.28" transform="translate(17.43 -12.82) rotate(30)"/><rect class="cls-1" x="78.2" y="23.37" width="63.64" height="5.49" rx="2.28" ry="2.28" transform="translate(218.36 -6.29) rotate(150)"/></svg>