<svg id="Слой_1" data-name="Слой 1" xmlns="http://www.w3.org/2000/svg" viewBox="0 0 141.73 141.73"><defs><style>.cls-1{fill:#636462;}</style></defs><title>Icons GS </title><polygon class="cls-1" points="68.9 44.21 64.53 34.27 24.02 63.05 35.35 67.42 68.9 44.21"/><polygon class="cls-1" points="17.95 69.26 8.73 110.55 27.63 97.48 30.49 74.17 17.95 69.26"/><polygon class="cls-1" points="100.31 71.92 102.77 50.12 75.58 48.83 39.88 73.53 37.18 95.49 64.61 96.61 100.31 71.92"/><path class="cls-1" d="M106.62,42.84,122.1,32.13l3-2.19c-.06-.05-5.63-.31-5.68-.37l-46.29.82L78,41.48Z"/><path class="cls-1" d="M130.79,35.24l-3,2.2-15.47,10.7-2.6,23,16.46,7.37,3.2-28.39s0,0,0-.06L130.53,40C130.46,39.93,130.85,35.29,130.79,35.24Z"/><polygon class="cls-1" points="62.03 103.96 33.31 102.78 14.41 115.86 55.05 117.52 68.99 118.09 62.33 103.97 62.03 103.96"/><polygon class="cls-1" points="126.52 94.36 124.95 87.7 78.08 119.65 80.72 126.22 126.52 94.36"/><polygon class="cls-1" points="137.25 57.73 135.23 43.37 131.04 81.84 132.78 89.24 137.25 57.73"/><polygon class="cls-1" points="17.01 126.63 11.77 119.92 70.92 122.32 73.18 128.77 17.01 126.63"/><polygon class="cls-1" points="71.38 101.17 77.53 114.2 120.11 84.75 104.93 77.96 71.38 101.17"/></svg>