<svg id="Слой_1" data-name="Слой 1" xmlns="http://www.w3.org/2000/svg" viewBox="0 0 52 62.67"><defs><style>.cls-1{fill:#e84157;}</style></defs><title>Icons GS </title><path class="cls-1" d="M45.88,11.42,27.3,4.87a1.14,1.14,0,0,0-.73,0L8,11.42a1.1,1.1,0,0,0-.73,1V25.57c0,17,2.52,20.91,19.18,29.31a1.15,1.15,0,0,0,1,0C44.09,46.48,46.6,42.53,46.6,25.57V12.46A1.11,1.11,0,0,0,45.88,11.42ZM27,16.17a3.81,3.81,0,0,1,3.93,3.62,6.56,6.56,0,0,1-.21,1.78,8.82,8.82,0,0,1-.49,1.62C29.38,25.08,28,26.08,27,26.08s-2.55-1-3.36-2.95a7.78,7.78,0,0,1-.47-2,8.42,8.42,0,0,1-.09-1.33A3.81,3.81,0,0,1,27,16.17ZM36.2,34V36.6H17.71V34s.15-2.73,1.45-4.12a22.07,22.07,0,0,1,4.78-3.46l2.38,7.39V31a.76.76,0,0,1,.77-.77.77.77,0,0,1,.78.77v2.57l2.43-7.1A40.09,40.09,0,0,1,35,29.89,5.67,5.67,0,0,1,36.2,34Z"/><rect class="cls-1" x="30.2" y="32.48" width="3.28" height="1.55" rx="0.72" ry="0.72"/></svg>