<svg id="Слой_1" data-name="Слой 1" xmlns="http://www.w3.org/2000/svg" viewBox="0 0 78 64"><defs><style>.cls-1{fill:#e84157;}.cls-2{fill:#fff;}</style></defs><title>Icons GS </title><path class="cls-1" d="M55.36,42.21l-.28,12s-1.43.28-3.14-1.71-7.13-10.84-7.13-10.84H16.3s-3.88-.23-3.88-5c0-6.13.28-23.21.28-23.21a6.63,6.63,0,0,1,1.2-3.77A4.63,4.63,0,0,1,17.52,8c3.54-.29,41.76,0,41.76,0a4.81,4.81,0,0,1,3.11,1.36A5.87,5.87,0,0,1,64,12.81l-.14,24.78a4.87,4.87,0,0,1-1.17,3,4.74,4.74,0,0,1-3.08,1.49Z"/><rect class="cls-2" x="24.3" y="27.5" width="9.83" height="3" rx="1.5" ry="1.5"/><rect class="cls-2" x="37.59" y="27.5" width="14.48" height="3" rx="1.5" ry="1.5"/><rect class="cls-2" x="42.24" y="18.61" width="9.83" height="3" rx="1.5" ry="1.5"/><rect class="cls-2" x="24.3" y="18.61" width="14.48" height="3" rx="1.5" ry="1.5"/></svg>