<svg id="Слой_1" data-name="Слой 1" xmlns="http://www.w3.org/2000/svg" viewBox="0 0 141.73 141.73"><defs><style>.cls-1{fill:#e84155;}</style></defs><title>Icons GS </title><path class="cls-1" d="M2.33,3.89v101H59.09c-.06-4,.09-8.59.09-10.52a34,34,0,1,1,68,0c0,2.06.08,6.47,0,10.52h11V3.89ZM19.11,20.81v-.06l.41,0,.16,0H46.22a5.91,5.91,0,1,1,0,11.81H19.68a5.89,5.89,0,0,1-.57-11.75ZM48.75,77.16H20.31a5.91,5.91,0,0,1,0-11.82H48.75a5.91,5.91,0,0,1,0,11.82Zm27.09-28A5.92,5.92,0,0,1,69.94,55H20.42a5.92,5.92,0,0,1-5.9-5.91h0a5.92,5.92,0,0,1,4.81-5.79h.09a5.56,5.56,0,0,1,1-.1H69.94a5.91,5.91,0,0,1,5.9,5.9ZM121.1,32.35H64a5.89,5.89,0,0,1-.37-11.77v0h58.13v.07a5.89,5.89,0,0,1-.62,11.75Z"/><path class="cls-1" d="M93.17,71.72a22.58,22.58,0,0,0-11.25,42.15v25.41l11.16-5.49,11.51,5.49V113.77a22.57,22.57,0,0,0-11.42-42Z"/></svg>