<svg id="Слой_1" data-name="Слой 1" xmlns="http://www.w3.org/2000/svg" viewBox="0 0 141.73 141.73"><defs><style>.cls-1{fill:#636462;}</style></defs><title>Icons GS </title><path class="cls-1" d="M98.51,119.41S41,152.05,11.71,106.11C4,92.72,8.93,73.54,18.24,59.93,28.75,44.55,44.35,35.51,44.35,35.51s.24,11.6,25.39,12.57c0,0-31.43,12.09-40.38,40.14S50.15,141.41,98.51,119.41Z"/><path class="cls-1" d="M34.12,107.38s24.58,16.46,60.53-5.67c34.18-21,32.56-42.45,26.73-51.6,13.35,10.1,17,33.6-13.48,57.14C75.59,132.19,38.31,119.87,34.12,107.38Z"/><path class="cls-1" d="M93.36,18.29C88.78,15.83,81.69,14.53,72,15.72a40,40,0,0,0-19.41,8c-1-.31-1.41-1.77-2-2.67,2.7-3.45,9.66-8.08,21-9.65,5.14-.72,16.09-1.13,22.81,2.77C94.43,15.55,93.77,16.75,93.36,18.29Z"/><path class="cls-1" d="M137.59,75.34s4-22.89-16.63-30.84c-11.8-5.18-24.45-3.38-24.45-3.38s10.24-9.63,8.79-17.83C121.68,25.58,145.78,44,137.59,75.34Z"/><path class="cls-1" d="M47.23,24.3s7.35,11.08,24,10.12,25.67-8.2,27.23-19c4.22,1.21,9.88,9.28-2.65,21.09-3.41,3.21-13.61,8.67-27.71,7.71C48.71,42.85,41.81,30.8,47.23,24.3Z"/></svg>