<?xml version="1.0" encoding="utf-8"?>
<!-- Generator: Adobe Illustrator 22.1.0, SVG Export Plug-In . SVG Version: 6.00 Build 0)  -->
<svg version="1.1" id="Слой_1" xmlns="http://www.w3.org/2000/svg" xmlns:xlink="http://www.w3.org/1999/xlink" x="0px" y="0px"
	 viewBox="0 0 109.8 139.9" style="enable-background:new 0 0 109.8 139.9;" xml:space="preserve">
<style type="text/css">
	.st0{fill:#AA9157;}
</style>
<title>Icons GS</title>
<g>
	<path class="st0" d="M56.3,72.6c-0.8,0-2.1,0-2.8,0c-3.1,0.2-6,1.3-8.5,3.2C38,81,36.6,91,41.9,98v16c0,4.9,3.9,8.8,8.8,8.8h8.5
		c4.8,0,8.8-3.9,8.8-8.8V98c1.8-2.5,2.9-5.4,3.2-8.5C71.7,80.8,65.1,73.2,56.3,72.6z M59.5,92.5L57.9,94v18.8h-6V94l-1.5-1.5
		c-0.9-0.9-1.5-2.2-1.6-3.5c-0.4-3.2,2-6.1,5.2-6.5c0.5,0,1.5,0,2,0c1.3,0.1,2.5,0.7,3.4,1.6C61.7,86.5,61.8,90.2,59.5,92.5z"/>
	<path class="st0" d="M100.2,52.8v-7.1c0-24.7-19.7-45.2-44-45.6c-0.6,0-1.9,0-2.5,0c-24.3,0.4-44,20.9-44,45.6v7.1
		C4.1,54.1,0,59.7,0,66.5v59.4c0,7.7,5.4,14,12.1,14h85.7c6.7,0,12.1-6.3,12-14V66.5C109.8,59.8,105.7,54.1,100.2,52.8z M99.8,125.9
		c0,2.4-1.4,4-2.1,4H12.1c-0.7,0-2.1-1.5-2.1-4V66.5c0-2.5,1.3-4,2.1-4h7.5V45.6C19.6,26.3,35,10.3,53.8,10H56
		c18.9,0.3,34.2,16.3,34.2,35.6v16.8h7.5c0.7,0,2.1,1.5,2.1,4V125.9z"/>
	<path class="st0" d="M54.4,16.4C38.6,16.7,26,29.8,26.3,45.6v16.8h57.3V45.6c0-0.4,0-0.7,0-1.1C83.3,28.7,70.2,16.2,54.4,16.4z
		 M73.5,52.5H36.3v-6.8c0-0.3,0-0.6,0-0.9c0.2-10.3,8.8-18.4,19.1-18.2s18.4,8.8,18.2,19.1V52.5z"/>
</g>
</svg>
