<svg id="Слой_1" data-name="Слой 1" xmlns="http://www.w3.org/2000/svg" viewBox="0 0 127.49 91.06"><defs><style>.cls-1{fill:none;}.cls-1,.cls-2,.cls-3{stroke:#010101;stroke-miterlimit:10;}.cls-1,.cls-3{stroke-width:0.5px;}.cls-2,.cls-3{fill:#fff;}.cls-4{fill:#010101;}</style></defs><title>Icons GS </title><path class="cls-1" d="M118.05,25.53,118,26.72c-1.48,2.88-25.79,12.21-55.34,21.7S6.93,64.52,5.13,63l-.66-1.07c0-1.22-1.68,6.49,3.4,8.66,8.78,3.77,28.72-3.92,57.94-13C94.21,48.7,110.23,44,117.6,37.94,126.64,30.48,118.05,25.53,118.05,25.53Z"/><path class="cls-1" d="M62.65,48.65c-14.94,4.8-29.14,8.86-40,11.44-17.42,4.15-18,2.56-18.2,1.79s-.79-2.35,15.76-9.11c10.3-4.2,24.41-8.44,39.35-13.24S88.5,30,99.34,27.37c17.42-4.14,18-2.55,18.21-1.79s.78,2.36-15.77,9.11C91.49,38.9,77.59,43.86,62.65,48.65ZM5.92,61.42c.66.19,3.77.46,17.53-2.87C34.11,56,47.88,52,62.23,47.4s27.85-9.41,38-13.5c13.1-5.3,15.44-7.31,15.86-7.85-.66-.2-3.76-.47-17.53,2.87C87.91,31.5,74.35,36.18,60,40.79S31.94,49.47,21.79,53.57C8.68,58.86,6.34,60.88,5.92,61.42Z"/><path class="cls-1" d="M69.43,45.17S72.11,37,107.08,29.23"/><path class="cls-1" d="M54.73,45.32S48.37,45.23,14.9,58"/><ellipse class="cls-2" cx="63.03" cy="51.87" rx="20.02" ry="19.42" transform="translate(10.99 114.77) rotate(-89.84)"/><ellipse class="cls-3" cx="93.99" cy="41.97" rx="13.58" ry="13.41" transform="matrix(0.94, -0.33, 0.33, 0.94, -8.61, 33.66)"/><path class="cls-4" d="M84,51A13.89,13.89,0,0,0,103.08,52l.19-.17h0l.19-.17a13.54,13.54,0,0,0,3.64-14.32.08.08,0,0,0,0,0A13.44,13.44,0,0,0,98.33,29a14,14,0,0,0-13,2.74l-.19.17h0l-.19.17A13.48,13.48,0,0,0,84,51Zm-3.2-9.58.63,0,2.27.11-.86,1.75-1.4,2.87A12.82,12.82,0,0,1,80.82,41.37Zm20.39,7.94.13-2.21.11-1.81,3-2.71,1.74,5Zm-2.61,5-1.93-.9L93.8,52.07l3-2.7,2.42.11,1.65.08-1.39,2.85Zm-17-8,.93-1.91,1.39-2.85,2.71,3-.06,1-.18,3-2.87-1.34Zm5,2.31.15-2.55.08-1.31,1.83,2,1.84,2-1-.05Zm.2-7.12-.16,2.73L84,41.42,87,38.82Zm0,3L87,41.56l.17-2.94,4.47-4,3,.14,3,.14,4,4.36-.35,5.89-4.47,4-3-.14-3-.14-1.19-1.31Zm7.81-9.91-2.76-.14,2.93-2.59,2.6,2.86Zm7.14,4.94,2.6,2.86L101.47,45Zm-8,9.69,2.76.13L93.61,52,91,49.09Zm6-12.24-1.84-2,3.91.18L101.6,39ZM87.21,38.32l.23-3.86,3.91.18Zm9.87,10.84,4.14-3.67L101,49.35h-.16ZM86.43,49l1.7,4.8a13.08,13.08,0,0,1-3.87-2.88Zm.21-.08,3,.14,1.08.06,2.71,3-5,1.77Zm15.17-9.66.24-4,4.79,2.25-2.32,4.75Zm.19-4.37-1.69-4.8a13.17,13.17,0,0,1,3.86,2.88Zm-.2.07-4.08-.19-2.71-3,5-1.78Zm-7.17-3.19-3,2.71-1.39-.07-2.68-.12,2.33-4.76,1.92.9Zm-7.6,6,0,.83-3,2.71-1.74-5,5-1.77ZM84.52,48l1.77.83-2.17,1.92a12.85,12.85,0,0,1-2.49-4.1Zm9,4.29-.17,2.86A13.28,13.28,0,0,1,88.6,54Zm0,2.87.17-2.86,1.77.82,2.89,1.36A13.89,13.89,0,0,1,93.53,55.13Zm9.41-3.26a13.88,13.88,0,0,1-4.08,2.4l1.4-2.87.86-1.75L103,51.77Zm.37-.34-.1.1-1.93-2.12,4.89-1.72A13.69,13.69,0,0,1,103.31,51.53Zm1.39-9,2.9.14a13.32,13.32,0,0,1-1.2,4.66Zm2.91-.08-2.9-.13L107,37.68A12.79,12.79,0,0,1,107.61,42.43ZM102.14,35l2.18-1.93a13.17,13.17,0,0,1,2.48,4.11Zm-7.2-3.46.17-2.86a13.28,13.28,0,0,1,4.72,1.14Zm0-2.87-.17,2.86L93,30.71l-2.89-1.35A13.43,13.43,0,0,1,94.9,28.68Zm-9.41,3.26a13.75,13.75,0,0,1,4.08-2.4l-2.26,4.61L85.39,32Zm-.37.33.1-.09,1.93,2.12L82.27,36A13.36,13.36,0,0,1,85.12,32.27Zm-1.39,9-2.9-.14A13.31,13.31,0,0,1,82,36.49Z"/><ellipse class="cls-3" cx="32.25" cy="62.14" rx="13.58" ry="13.41" transform="translate(-18.83 14.27) rotate(-19.43)"/><path class="cls-4" d="M22.29,71.11a13.88,13.88,0,0,0,19.05,1.08l.19-.17h0l.19-.17a13.53,13.53,0,0,0,3.64-14.31.06.06,0,0,0,0,0,13.44,13.44,0,0,0-8.75-8.29,14,14,0,0,0-13,2.74l-.19.17h0l-.19.17A13.47,13.47,0,0,0,22.29,71.11Zm-3.21-9.57.63,0,2.27.1-.86,1.76-1.4,2.86A13,13,0,0,1,19.08,61.54Zm20.39,7.93.13-2.21.11-1.81,3-2.71,1.74,4.95Zm-2.61,5-1.92-.9-2.88-1.34,3-2.71,2.42.12,1.65.07-1.39,2.86Zm-17-8,.93-1.9,1.39-2.85,2.71,3-.06,1-.18,3-2.87-1.35Zm5,2.31L25,66.29,25.09,65l1.84,2,1.84,2-1,0Zm.2-7.12-.16,2.73-2.6-2.86L25.23,59Zm.05,3,.17-3,.18-2.94,4.46-4,3,.14,3,.14,4,4.37-.35,5.88-4.47,4-3-.14-3-.14-1.19-1.31Zm7.8-9.92-2.76-.13L33.08,52l2.6,2.86Zm7.14,4.94,2.6,2.86-2.92,2.6Zm-8,9.69,2.76.14-2.92,2.59-2.6-2.86Zm6-12.24-1.84-2,3.91.18-.23,3.86ZM25.47,58.48l.24-3.86,3.9.19Zm9.87,10.85,4.14-3.68-.23,3.86H39.1Zm-10.65-.21,1.7,4.8A13.08,13.08,0,0,1,22.52,71Zm.21-.07,3,.14,1.08,0,2.71,3-5,1.77Zm15.17-9.66.24-4,4.8,2.24-2.33,4.76ZM40.26,55l-1.69-4.8a12.91,12.91,0,0,1,3.86,2.88Zm-.2.08L36,54.89l-2.71-3,5-1.77ZM32.89,51.9l-3.05,2.7-1.39-.06-2.68-.13,2.33-4.76,1.92.9Zm-7.59,6-.05.83L22.2,61.39l-1.75-5,5-1.78ZM22.78,68.13l1.77.83-2.17,1.93a13,13,0,0,1-2.49-4.11Zm9,4.29-.17,2.86a13.28,13.28,0,0,1-4.72-1.14Zm.05,2.87L32,72.43l1.76.83,2.89,1.35A13.38,13.38,0,0,1,31.8,75.29ZM41.2,72a13.42,13.42,0,0,1-4.08,2.4l1.4-2.86.86-1.75,1.92,2.12Zm.38-.33-.11.09-1.93-2.12L44.43,68A13.55,13.55,0,0,1,41.58,71.7Zm1.38-9,2.9.14a13.1,13.1,0,0,1-1.2,4.67Zm2.91-.07L43,62.46l2.25-4.62A12.82,12.82,0,0,1,45.87,62.6Zm-5.46-7.43,2.17-1.92a12.83,12.83,0,0,1,2.48,4.1ZM33.2,51.71l.18-2.86A13.28,13.28,0,0,1,38.09,50Zm0-2.87L33,51.7l-1.77-.82-2.89-1.36A13.92,13.92,0,0,1,33.16,48.84Zm-9.4,3.26a13.71,13.71,0,0,1,4.07-2.4l-2.25,4.62L23.65,52.2Zm-.38.34.11-.1,1.92,2.12-4.88,1.72A13.17,13.17,0,0,1,23.38,52.44Zm-1.39,9-2.9-.14a13.06,13.06,0,0,1,1.21-4.66Z"/><path class="cls-4" d="M48.75,65.06c7.07,8.06,19.38,9,27.22,2l.27-.24h0l.26-.25a20.27,20.27,0,0,0,4.86-21.18.11.11,0,0,0,0-.07A20.43,20.43,0,0,0,68.65,32.85,19,19,0,0,0,50.2,36.62l-.27.24h0l-.27.25C42.11,44.34,41.66,57,48.75,65.06ZM44,50.76l.9.06,3.24.22-1.18,2.58L45,57.84A20.34,20.34,0,0,1,44,50.76ZM73.23,63l.14-3.28.11-2.69,4.29-4,2.61,7.4Zm-3.6,7.38L66.86,69,62.73,67,67,63l3.45.22,2.36.16-1.92,4.2ZM45.17,58.19l1.28-2.81,1.92-4.2,3.94,4.49-.06,1.53-.19,4.43-4.13-2.06Zm7.2,3.54L52.52,58l.09-2,2.67,3L58,62.1,56.54,62Zm.13-10.56-.17,4-3.78-4.31,4.11-3.79Zm.12,4.39.19-4.37L53,46.82,59.26,41l4.26.28,4.26.28,5.76,6.58-.36,8.73L66.9,62.69l-4.26-.28-4.25-.28-1.73-2ZM63.53,41l-3.94-.26L63.7,37l3.78,4.31Zm10.31,7.5,3.78,4.31L73.5,56.61ZM62.63,62.73l3.95.26-4.12,3.79-3.78-4.31Zm8.26-18-2.67-3L73.8,42l-.24,5.73ZM53,46.37l.23-5.72,5.59.36ZM67.34,62.72l5.82-5.36-.24,5.73-.22,0Zm-15.2-.56,2.53,7.17A19.51,19.51,0,0,1,49.09,65Zm.29-.11,4.28.29,1.54.1,3.93,4.49L55,69.45Zm21.43-14,.24-6L81,45.54l-3.21,7ZM74,41.57,71.49,34.4a19.73,19.73,0,0,1,5.59,4.36Zm-.29.11-5.82-.39L64,36.81l7.15-2.53Zm-10.3-4.91-4.29,3.95-2-.13-3.83-.26,3.21-7L59.3,34.7ZM52.73,45.44l0,1.23L48.4,50.62l-2.61-7.4,7.14-2.52ZM49.39,60.65l2.54,1.27-3,2.81a20.15,20.15,0,0,1-3.64-6.16Zm12.9,6.58-.18,4.25a19,19,0,0,1-6.76-1.81Zm.13,4.27.18-4.25,2.54,1.27,4.15,2.07A18.39,18.39,0,0,1,62.42,71.5Zm13.34-4.63A18.24,18.24,0,0,1,70,70.34l1.93-4.22,1.18-2.58,2.8,3.19Zm.53-.49-.15.14-2.8-3.19,6.93-2.45A18.76,18.76,0,0,1,76.29,66.38ZM78.06,53l4.14.28a19.66,19.66,0,0,1-1.61,6.9Zm4.15,0-4.14-.27,3.12-6.81A20.1,20.1,0,0,1,82.21,53Zm-8-11.16L77.29,39a20.26,20.26,0,0,1,3.64,6.16ZM63.88,36.5l.17-4.24a18.7,18.7,0,0,1,6.76,1.8Zm-.14-4.26-.17,4.24L61,35.21l-4.16-2.07A18.39,18.39,0,0,1,63.74,32.24ZM50.4,36.86a18.47,18.47,0,0,1,5.77-3.47l-3.12,6.8L50.25,37Zm-.53.49.15-.14,2.8,3.19-6.93,2.45A19,19,0,0,1,49.87,37.35ZM48.11,50.72,44,50.45a19.87,19.87,0,0,1,1.6-6.91Z"/></svg>