<svg id="Слой_1" data-name="Слой 1" xmlns="http://www.w3.org/2000/svg" viewBox="0 0 60 44.67"><defs><style>.cls-1{fill:#e84157;}.cls-2{fill:#fff;}</style></defs><title>Icons GS </title><path class="cls-1" d="M11.9,37.51a1.33,1.33,0,0,0,1.22,1.39H50.49a1.33,1.33,0,0,0,1.26-1.39V30.76H11.9Z"/><path class="cls-1" d="M47.76,14l-.13-.32c-.51-1.31-1.52-2.58-2.49-2.78-6.53-1.35-20.13-1.17-26.7,0-1,.17-2,1.49-2.46,2.77l-1.29,3.45c-.56,1.5-1.14,3.06-1.72,4.57l-.72,2H51.46l-.74-2C49.7,19.1,48.71,16.49,47.76,14Z"/><polygon class="cls-1" points="51.48 29.43 11.9 29.43 12.15 25.01 51.31 25.01 51.48 29.43"/><path class="cls-2" d="M31.91,18.78c2.41,0,4.44-1.3,4.44-2.94s-2-2.94-4.35-3-4.53,1.3-4.54,3,2,3,4.45,3m0,.34c-2.71,0-5-1.47-4.95-3.31S29.23,12.5,32,12.54c2.63,0,4.85,1.46,4.84,3.3s-2.24,3.28-5,3.28"/><path class="cls-2" d="M31.66,15.38h-.1l0,0c-.06-.11-.11-.22-.18-.33a.76.76,0,0,0-.25-.29.81.81,0,0,0-.52-.13,1.12,1.12,0,0,0-.32,0,.69.69,0,0,0-.42.28,1,1,0,0,0-.15.35,2.67,2.67,0,0,0,0,.69,1.5,1.5,0,0,0,.1.59.66.66,0,0,0,.21.3.81.81,0,0,0,.43.14,1.24,1.24,0,0,0,.43,0,.51.51,0,0,0,.33-.19.17.17,0,0,0,0-.1v-.64h-.57V16H32V16h-.23v.84s0,0,0,0a3,3,0,0,1-.67.15l-.46,0a2.22,2.22,0,0,1-.94-.18,1.14,1.14,0,0,1-.53-.48A1.27,1.27,0,0,1,29,15.9a1.12,1.12,0,0,1,.17-.68,1.45,1.45,0,0,1,.86-.6,2.34,2.34,0,0,1,.59-.09,3.17,3.17,0,0,1,.88.1l.16,0,0,0v.68h0"/><path class="cls-2" d="M34.43,15.38h-.1l0,0L34.13,15a.57.57,0,0,0-.23-.26.84.84,0,0,0-.39-.11,1.38,1.38,0,0,0-.54.06.54.54,0,0,0-.38.33c0,.15,0,.27.22.36a2.25,2.25,0,0,0,.46.15c.26.07.51.13.76.21a1.1,1.1,0,0,1,.45.21.41.41,0,0,1,.16.28.5.5,0,0,1,0,.34A.92.92,0,0,1,34,17a2.09,2.09,0,0,1-.67.11,2.79,2.79,0,0,1-1.05-.18s0,0,0,0v-.77h.1l0,0c.05.13.09.26.15.38a.87.87,0,0,0,.26.35.74.74,0,0,0,.45.15,1.35,1.35,0,0,0,.61-.1c.29-.13.41-.38.28-.59a.62.62,0,0,0-.3-.21,3.2,3.2,0,0,0-.55-.17,4,4,0,0,1-.62-.18.75.75,0,0,1-.41-.31c-.15-.29,0-.65.49-.82a2.13,2.13,0,0,1,.57-.1,3.48,3.48,0,0,1,1.08.13l0,0v.69h0"/></svg>