<?xml version="1.0" encoding="utf-8"?>
<!-- Generator: Adobe Illustrator 22.1.0, SVG Export Plug-In . SVG Version: 6.00 Build 0)  -->
<svg version="1.1" id="Слой_1" xmlns="http://www.w3.org/2000/svg" xmlns:xlink="http://www.w3.org/1999/xlink" x="0px" y="0px"
	 viewBox="0 0 54.4 40.3" style="enable-background:new 0 0 54.4 40.3;" xml:space="preserve">
<style type="text/css">
	.st0{fill:#E84157;}
	.st1{fill:#FFFFFF;}
</style>
<title>Icons GS</title>
<path class="st0" d="M48.2,0h-42C2.8,0,0,2.8,0,6.2v27.9c0,3.4,2.8,6.2,6.2,6.2h42c3.4,0,6.2-2.8,6.2-6.2V6.2
	C54.4,2.8,51.6,0,48.2,0z"/>
<path class="st1" d="M47.9,9.9c-0.5-0.7-1.4-0.8-2.1-0.3L28.2,22.9c-0.5,0.4-1.3,0.4-1.8,0C21.8,19.2,12.1,11.4,8.6,8.6
	C7.9,8.1,7,8.3,6.5,8.9c-0.5,0.6-0.4,1.5,0.2,2c2,1.5,6.2,4.9,10.7,8.6l-9.5,9.9c-0.6,0.6-0.6,1.5,0,2.1c0.6,0.6,1.5,0.5,2.1-0.1
	l9.7-10.1l6.5,5.2l0.9,0.7l8.1-6L45,31.6c0.6,0.6,1.5,0.6,2.1,0c0.6-0.6,0.6-1.5,0-2.1l-9.5-10l10-7.5C48.3,11.5,48.4,10.6,47.9,9.9
	z"/>
</svg>
