<svg id="Слой_1" data-name="Слой 1" xmlns="http://www.w3.org/2000/svg" xmlns:xlink="http://www.w3.org/1999/xlink" viewBox="0 0 72.85 72.71"><defs><style>.cls-1{fill:url(#Безымянный_градиент_82);}.cls-2{opacity:0.8;fill:url(#Безымянный_градиент_82-2);}.cls-3{fill:#fdfdfd;}</style><linearGradient id="Безымянный_градиент_82" x1="15.75" y1="-568.45" x2="75.52" y2="-568.45" gradientTransform="translate(-9.49 605.8)" gradientUnits="userSpaceOnUse"><stop offset="0.01" stop-color="#a8a8a8"/><stop offset="0.05" stop-color="#afafaf"/><stop offset="0.18" stop-color="#bfbfbf"/><stop offset="0.33" stop-color="#c9c9c8"/><stop offset="0.53" stop-color="#cccccb"/><stop offset="1" stop-color="#a8a8a8"/></linearGradient><linearGradient id="Безымянный_градиент_82-2" x1="16.94" y1="-569.19" x2="76.71" y2="-569.19" gradientTransform="translate(-9.27 606.54)" xlink:href="#Безымянный_градиент_82"/></defs><title>Icons GS </title><rect class="cls-1" x="6.26" y="7.46" width="59.77" height="59.77" rx="29.88" ry="29.88" transform="translate(25.37 -13.5) rotate(32.09)"/><rect class="cls-2" x="7.67" y="7.46" width="59.77" height="59.77" rx="29.88" ry="29.88" transform="translate(25.58 -14.24) rotate(32.09)"/><path class="cls-3" d="M23.59,32.12h-.06L20.11,34l-.51-2,4.29-2.3h2.27V49.3H23.59Z"/><path class="cls-3" d="M33.08,44.31c0-2.48,1.49-4.24,3.9-5.26L37,39a4.89,4.89,0,0,1-3.11-4.42c0-3.11,2.63-5.23,6.08-5.23,3.81,0,5.71,2.39,5.71,4.84a5,5,0,0,1-3.23,4.59v.09c2.45,1,4,2.7,4,5.09,0,3.41-2.93,5.71-6.68,5.71C35.56,49.63,33.08,47.18,33.08,44.31Zm10.59-.12c0-2.39-1.67-3.54-4.33-4.3-2.29.67-3.54,2.18-3.54,4.06a3.65,3.65,0,0,0,3.94,3.75C42.13,47.7,43.67,46.21,43.67,44.19Zm-7.32-9.83c0,2,1.48,3,3.75,3.63,1.69-.58,3-1.79,3-3.57a3.05,3.05,0,0,0-3.32-3.21A3.13,3.13,0,0,0,36.35,34.36Z"/></svg>