<svg id="Слой_1" data-name="Слой 1" xmlns="http://www.w3.org/2000/svg" viewBox="0 0 135.99 93.49"><defs><style>.cls-1,.cls-2{fill:none;stroke:#010101;stroke-miterlimit:10;}.cls-1{stroke-width:0.5px;}</style></defs><title>Icons GS </title><path class="cls-1" d="M124.14,19.91s.27,1.06-3.8,3.38S101.59,32.67,66.52,43C34.69,52.36,12.23,56.73,7.76,55.24,6.54,54.84,6.42,54,6.42,54,6.14,51.81,3.5,65.3,11.24,71c8.9,6.51,30.38.44,60.8-8,29.56-8.18,49.59-17.79,54.8-24.36C135.12,28.19,124.14,19.91,124.14,19.91Z"/><path class="cls-1" d="M67.11,43c-15.52,4.56-30.28,8.31-41.55,10.55-18.13,3.6-18.71,1.66-19,.73s-.86-2.87,16.31-9.66c10.68-4.22,25.35-8.18,40.87-12.75s30-9.19,41.32-11.43c18.12-3.6,18.71-1.66,19-.73s.86,2.87-16.31,9.66C97.06,33.55,82.63,38.39,67.11,43ZM8.08,53.8c.7.28,3.94.84,18.26-2.07,11.08-2.26,25.4-5.92,40.31-10.3s28.93-9.07,39.46-13.17c13.6-5.31,16-7.53,16.43-8.14-.69-.29-3.93-.85-18.25,2.06C93.2,24.44,79.12,29,64.21,33.36s-29.16,8.19-39.69,12.3C10.92,51,8.51,53.18,8.08,53.8Z"/><path class="cls-1" d="M53.77,42.79s1.68-5.68,23.82-9.7"/><ellipse class="cls-2" cx="83.7" cy="48.21" rx="5.4" ry="4.8" transform="translate(-10.62 27.4) rotate(-17.5)"/><ellipse class="cls-2" cx="73.17" cy="51.4" rx="5.4" ry="4.8" transform="translate(-13.1 27.89) rotate(-19.84)"/><ellipse class="cls-2" cx="62.5" cy="54.56" rx="5.4" ry="4.8" transform="translate(-11.75 17.54) rotate(-14.62)"/><ellipse class="cls-2" cx="52.52" cy="57.29" rx="5" ry="4.75" transform="translate(-15.52 19.73) rotate(-18.59)"/></svg>