<svg id="Слой_1" data-name="Слой 1" xmlns="http://www.w3.org/2000/svg" viewBox="0 0 64.67 52"><defs><style>.cls-1{fill:#e84157;}</style></defs><title>Icons GS </title><path class="cls-1" d="M32.73,27.17V19.38h6.08v7.79l-2-1.3a1.59,1.59,0,0,0-2.17,0Z"/><rect class="cls-1" x="8.56" y="5.89" width="54.44" height="10.52" rx="1.81" ry="1.81"/><path class="cls-1" d="M60.15,35.58V21.21c0-1.25-.51-1.78-1.73-1.82H41.84V20c0,3.26,0,6.52,0,9.77a1.6,1.6,0,0,1-.79,1.57,1.35,1.35,0,0,1-.46.17h-.1a1.22,1.22,0,0,1-.33,0,1.34,1.34,0,0,1-.27-.07l-.14,0a2.24,2.24,0,0,1-.4-.22c-1-.68-2-1.32-3-2A1.37,1.37,0,0,0,36,29L36,29a.63.63,0,0,0-.19,0,.57.57,0,0,0-.18,0l-.07,0a1.37,1.37,0,0,0-.33.18c-1,.7-2,1.34-3,2a2.24,2.24,0,0,1-.4.22l-.14,0a1.34,1.34,0,0,1-.27.07,1.22,1.22,0,0,1-.33,0H31a1.48,1.48,0,0,1-.47-.17,1.61,1.61,0,0,1-.78-1.57c0-3.25,0-6.51,0-9.77v-.63H13.15c-1.22,0-1.73.57-1.73,1.82V35.58c0,.14,0,.27,0,.39,0,2.48,0,5.42,0,10.37a1.75,1.75,0,0,0,2,2q11.19,0,22.39,0t22.4,0a1.75,1.75,0,0,0,2-2c0-5,0-7.89,0-10.36C60.14,35.85,60.15,35.72,60.15,35.58Zm-8.58,6.1H49.05c-4.56,0-22.36,0-24.67,0a1.3,1.3,0,0,0-.29.07L26,43.61a1.72,1.72,0,0,1,.59,1.54,1.63,1.63,0,0,1-2.75,1c-1.71-1.63-3.37-3.32-5-5a1.55,1.55,0,0,1,0-2.3q2.44-2.49,4.94-4.94a1.61,1.61,0,0,1,2.31,0,1.59,1.59,0,0,1,.07,2.3c-.64.68-1.36,1.3-2,1.94l.08.15a4.21,4.21,0,0,0,.5,0c2.2,0,22.94,0,25.15,0h1.72a1.69,1.69,0,0,1,0,3.38Z"/></svg>