<svg id="Слой_1" data-name="Слой 1" xmlns="http://www.w3.org/2000/svg" viewBox="0 0 141.73 141.73"><defs><style>.cls-1{fill:#ac915f;}.cls-2{fill:#aa9157;}</style></defs><title>Icons GS </title><path class="cls-1" d="M114.59,60.07,93.94,26.44a7.78,7.78,0,0,0-6.67-3.6,8,8,0,0,0-3.81,1,7,7,0,0,0-2.81,9.86l20.64,33.62a8,8,0,0,0,10.49,2.64A7,7,0,0,0,114.59,60.07Z"/><path class="cls-1" d="M58,23.8h0a8,8,0,0,0-3.81-1,7.78,7.78,0,0,0-6.67,3.6L26.85,60.07a7,7,0,0,0,2.81,9.85,7.88,7.88,0,0,0,3.81,1,7.79,7.79,0,0,0,6.67-3.61L60.79,33.66A7,7,0,0,0,58,23.8Z"/><path class="cls-2" d="M101.29,67.28a8,8,0,0,0,10.49,2.64,7.09,7.09,0,0,0,3.7-7.59H98.25Z"/><path class="cls-2" d="M29.66,69.92a7.88,7.88,0,0,0,3.81,1,7.79,7.79,0,0,0,6.67-3.61l3-5H26A7.08,7.08,0,0,0,29.66,69.92Z"/><path class="cls-2" d="M123.18,62.33a14.3,14.3,0,0,1-.42,5.07,15,15,0,0,1-7.33,9.24A15.76,15.76,0,0,1,108,78.52a15.49,15.49,0,0,1-13.18-7.24l-5.5-9H52.15l-5.5,9a15.49,15.49,0,0,1-13.18,7.24A15.76,15.76,0,0,1,26,76.64a15,15,0,0,1-7.33-9.24,14.3,14.3,0,0,1-.42-5.07H2.1L35,127.89h74.91l29.68-65.56Z"/></svg>