<svg id="Слой_1" data-name="Слой 1" xmlns="http://www.w3.org/2000/svg" viewBox="0 0 129.92 93.49"><defs><style>.cls-1,.cls-2{fill:none;}.cls-1,.cls-2,.cls-3{stroke:#010101;stroke-miterlimit:10;}.cls-1{stroke-width:0.5px;}.cls-3{fill:#fff;}.cls-4{fill:#010101;}</style></defs><title>Icons GS </title><path class="cls-1" d="M120.46,40s.23.79-3.33,2.82-16.41,8.35-47,18.44C42.35,70.44,22.78,75.18,18.91,74.33c-1.06-.23-1.15-.88-1.15-.88-.22-1.65-2.66,8.83,4,12.68,7.68,4.42,26.42-1.57,53-9.91,25.79-8.11,43.3-16.71,47.9-22.06C129.94,45.65,120.46,40,120.46,40Z"/><path class="cls-1" d="M70.64,61.21C57.1,65.67,44.23,69.47,34.4,71.89c-15.79,3.89-16.28,2.44-16.52,1.75s-.72-2.15,14.28-8.41c9.33-3.9,22.13-7.85,35.67-12.32S94.05,44,103.88,41.57c15.79-3.89,16.28-2.44,16.51-1.74s.72,2.14-14.27,8.4C96.78,52.13,84.19,56.74,70.64,61.21ZM19.2,73.2c.6.17,3.42.4,15.9-2.73,9.66-2.42,22.15-6.11,35.16-10.4S95.5,51.32,104.7,47.52c11.88-4.91,14-6.76,14.37-7.26-.6-.17-3.41-.4-15.89,2.73-9.66,2.42-22,6.77-35,11.06S42.78,62.14,33.58,65.94C21.7,70.85,19.58,72.71,19.2,73.2Z"/><ellipse class="cls-2" cx="93.83" cy="60.88" rx="4.76" ry="4.4" transform="translate(-15.78 38.61) rotate(-21.49)"/><ellipse class="cls-2" cx="103.47" cy="57.37" rx="4.76" ry="4.4" transform="translate(-13.82 41.9) rotate(-21.49)"/><ellipse class="cls-2" cx="85.07" cy="64.34" rx="4.76" ry="4.23" transform="translate(-16.51 31.82) rotate(-19.35)"/><ellipse class="cls-2" cx="75.89" cy="67.46" rx="4.76" ry="4.23" transform="translate(-19.56 32.83) rotate(-21.69)"/><ellipse class="cls-2" cx="66.57" cy="70.55" rx="4.76" ry="4.23" transform="translate(-17.27 21.77) rotate(-16.47)"/><ellipse class="cls-2" cx="57.86" cy="73.23" rx="4.41" ry="4.19" transform="translate(-21.93 24.82) rotate(-20.44)"/><ellipse class="cls-2" cx="111.77" cy="52.7" rx="4.24" ry="4.4" transform="translate(-11.6 59.7) rotate(-28.49)"/><ellipse class="cls-2" cx="49.44" cy="75.63" rx="4.62" ry="4.39" transform="translate(-19.95 17.76) rotate(-17)"/><ellipse class="cls-2" cx="39.93" cy="78.12" rx="4.62" ry="4.39" transform="matrix(0.96, -0.28, 0.28, 0.96, -20.01, 14.06)"/><ellipse class="cls-2" cx="31.21" cy="79.54" rx="3.52" ry="4.34" transform="translate(-25.72 15.82) rotate(-20.36)"/><path class="cls-1" d="M112.62,16s.22.79-3.33,2.82-16.41,8.35-47,18.44C34.51,46.47,14.94,51.21,11.06,50.36c-1.05-.23-1.15-.88-1.15-.88-.22-1.65-2.65,8.84,4,12.68,7.68,4.42,26.42-1.57,53-9.91,25.79-8.11,43.29-16.71,47.89-22.06C122.09,21.68,112.62,16,112.62,16Z"/><path class="cls-1" d="M62.8,37.24C49.26,41.7,36.39,45.5,26.56,47.92,10.76,51.81,10.27,50.36,10,49.67s-.72-2.15,14.28-8.41c9.33-3.9,22.12-7.85,35.66-12.32S86.2,20,96,17.6c15.8-3.89,16.28-2.44,16.52-1.74s.72,2.14-14.28,8.41C88.94,28.16,76.34,32.77,62.8,37.24Zm-51.44,12c.6.17,3.42.4,15.9-2.73,9.66-2.42,22.14-6.11,35.16-10.4s25.24-8.75,34.44-12.55c11.88-4.91,14-6.76,14.37-7.26-.6-.17-3.42-.4-15.9,2.73-9.66,2.42-22,6.77-35,11.06S34.93,38.17,25.73,42C13.85,46.88,11.73,48.74,11.36,49.23Z"/><ellipse class="cls-2" cx="90.08" cy="35.76" rx="4.76" ry="4.4" transform="translate(-6.84 35.49) rotate(-21.49)"/><ellipse class="cls-2" cx="99.43" cy="31.69" rx="4.76" ry="4.4" transform="translate(-4.7 38.63) rotate(-21.49)"/><ellipse class="cls-2" cx="80.83" cy="39.4" rx="4.76" ry="4.23" transform="translate(-8.49 29.01) rotate(-19.35)"/><ellipse class="cls-3" cx="68.04" cy="43.49" rx="4.76" ry="4.23" transform="translate(-11.26 28.23) rotate(-21.69)"/><ellipse class="cls-3" cx="58.73" cy="46.58" rx="4.76" ry="4.23" transform="translate(-10.8 18.57) rotate(-16.47)"/><ellipse class="cls-2" cx="43.37" cy="51.57" rx="4.41" ry="4.19" transform="translate(-15.28 18.39) rotate(-20.44)"/><ellipse class="cls-2" cx="107.91" cy="27.21" rx="4.24" ry="4.4" transform="translate(0.09 54.78) rotate(-28.49)"/><ellipse class="cls-2" cx="34.4" cy="53.94" rx="4.62" ry="4.39" transform="translate(-14.27 12.41) rotate(-17)"/><ellipse class="cls-2" cx="24.98" cy="55.33" rx="4.62" ry="4.39" transform="translate(-14.3 9.05) rotate(-16.03)"/><ellipse class="cls-2" cx="16.75" cy="56.62" rx="3.52" ry="4.34" transform="translate(-18.65 9.36) rotate(-20.36)"/><ellipse class="cls-3" cx="62.15" cy="45.92" rx="14.47" ry="13.34" transform="translate(-10.99 20.98) rotate(-17.63)"/><path class="cls-4" d="M50.89,54.92c4.85,5.37,13.93,5.94,20.09,1.25l.21-.17h0l.21-.17A13.38,13.38,0,0,0,76,41.61s0,0,0,0a13,13,0,0,0-8.8-8.34,15.87,15.87,0,0,0-13.87,2.61l-.21.17h0l-.21.17C47,41.06,46,49.55,50.89,54.92ZM48,45.36l.66,0,2.4.13-1,1.74L48.44,50.1A12,12,0,0,1,48,45.36Zm21.12,8.08.26-2.2.22-1.8L73,46.77l1.57,4.95Zm-3,5-2-.91-3-1.37,3.38-2.67,2.55.14,1.75.09L67.2,56.52ZM48.57,50.33l1.09-1.89,1.63-2.83,2.7,3-.12,1-.36,3-3-1.37Zm5.17,2.34.3-2.53.15-1.31,1.84,2,1.83,2-1-.06Zm.61-7.08L54,48.3l-2.6-2.87,3.24-2.56Zm-.12,2.94.35-2.93.35-2.93,4.94-3.9,3.14.16,3.15.17,4,4.38-.7,5.86-4.94,3.9-3.14-.16-3.15-.17L57,51.59ZM63,38.72l-2.92-.15L63.36,36,66,38.88Zm7.27,5,2.6,2.87-3.24,2.56Zm-9,9.58,2.92.16L61,56l-2.6-2.88Zm7-12.14-1.83-2,4.13.22-.46,3.84ZM55,42.37l.46-3.84,4.13.22Zm9.83,10.89,4.59-3.62-.46,3.84h-.16ZM53.54,53l1.53,4.8a13.24,13.24,0,0,1-3.93-2.9Zm.22-.07,3.16.16,1.14.07,2.7,3-5.42,1.72ZM70.35,43.4l.48-4,4.94,2.28L73.05,46.4Zm.45-4.35-1.53-4.8a13.24,13.24,0,0,1,3.93,2.9Zm-.22.07-4.3-.23-2.7-3L69,34.18Zm-7.4-3.24L59.8,38.55l-1.47-.08-2.83-.15,2.73-4.72,2,.91Zm-8.37,5.86-.1.83-3.37,2.67-1.58-5,5.43-1.72ZM51.58,52l1.82.84L51,54.7a11.92,11.92,0,0,1-2.4-4.11Zm9.24,4.35-.34,2.85A14.42,14.42,0,0,1,55.56,58Zm-.11,2.86.34-2.85,1.83.84,3,1.37A15.23,15.23,0,0,1,60.71,59.17ZM70.84,56a15.31,15.31,0,0,1-4.45,2.35L68,55.52l1-1.73L71,55.91Zm.42-.33-.12.09-1.92-2.13L74.48,52A14.57,14.57,0,0,1,71.26,55.68Zm2-9,3,.17a12.84,12.84,0,0,1-1.53,4.63Zm3.08-.05-3.06-.16,2.65-4.58A12,12,0,0,1,76.31,46.65Zm-5.37-7.44,2.4-1.9a11.92,11.92,0,0,1,2.4,4.11ZM63.52,35.7l.34-2.85A14.48,14.48,0,0,1,68.78,34Zm.11-2.86-.34,2.85-1.83-.84-3-1.37A15.48,15.48,0,0,1,63.63,32.84ZM53.5,36A15.31,15.31,0,0,1,58,33.65L55.3,38.22,53.38,36.1Zm-.42.33.12-.09,1.92,2.13L49.86,40A14.57,14.57,0,0,1,53.08,36.33Zm-2,9-3-.17a12.77,12.77,0,0,1,1.53-4.63Z"/></svg>