<svg id="Слой_1" data-name="Слой 1" xmlns="http://www.w3.org/2000/svg" viewBox="0 0 141.73 141.73"><defs><style>.cls-1{fill:#e84155;}</style></defs><title>Icons GS </title><path class="cls-1" d="M103.25,39.46c.77-.52,2.7-1,3.82.27l2.08,2.62c1,1.7-.21,3.28-1,3.93q-5.62,4.66-8.17,7.21A39.88,39.88,0,0,0,92.55,64c-.37.8.58,1.31,1.07,1.47q18.43,6,18.44,21.3,0,9-6,14.61a21,21,0,0,1-15,5.62q-8,0-14.19-7.31-6-6.87-6-14.89,0-23.46,32.35-45.35Z"/><path class="cls-1" d="M56.48,39.46c.77-.52,2.69-1,3.82.27l2.08,2.62c1,1.7-.21,3.28-1,3.93q-5.62,4.66-8.18,7.21A39.83,39.83,0,0,0,45.78,64c-.37.8.58,1.31,1.07,1.47q18.43,6,18.43,21.3,0,9-6,14.61a21,21,0,0,1-15,5.62q-8,0-14.19-7.31-6-6.87-6-14.89,0-23.46,32.35-45.35Z"/></svg>