<?xml version="1.0" encoding="utf-8"?>
<!-- Generator: Adobe Illustrator 22.1.0, SVG Export Plug-In . SVG Version: 6.00 Build 0)  -->
<svg version="1.1" id="Слой_1" xmlns="http://www.w3.org/2000/svg" xmlns:xlink="http://www.w3.org/1999/xlink" x="0px" y="0px"
	 viewBox="0 0 69.7 69.6" style="enable-background:new 0 0 69.7 69.6;" xml:space="preserve">
<style type="text/css">
	.st0{fill:#636462;}
</style>
<title>Icons GS</title>
<path class="st0" d="M68.2,56l-22-21.4l21.4-22c2.3-2.4,1.6-6.8-1.6-9.9s-7.6-3.7-9.9-1.3l-21.4,22L12.6,2c-2.4-2.3-6.8-1.6-9.9,1.6
	s-3.7,7.6-1.3,9.9l22.1,21.4l-21.4,22c-2.3,2.4-1.6,6.8,1.6,9.9c3.2,3.1,7.6,3.6,9.9,1.3l21.4-22l22,21.4c2.4,2.3,6.8,1.6,9.9-1.6
	C70,62.7,70.6,58.3,68.2,56z"/>
</svg>
