<svg id="Слой_1" data-name="Слой 1" xmlns="http://www.w3.org/2000/svg" viewBox="0 0 141.73 141.73"><defs><style>.cls-1{fill:#636462;}</style></defs><title>Icons GS </title><path class="cls-1" d="M114.17,62.07a19.61,19.61,0,0,0-12.51,4.63C100.25,51.17,89,39.07,75.4,39.07c-12,0-22.2,9.45-25.38,22.36a14.16,14.16,0,0,0-7.09-1.91c-9,0-16.23,8.52-16.23,19v.34a12.8,12.8,0,0,0-2.91-.34C15.62,78.54,9,86.3,9,95.86s6.61,17.32,14.78,17.32h90.38c12,0,21.81-11.44,21.81-25.55S126.21,62.07,114.17,62.07ZM75.23,100.72,57,85.6h12.3s0,0,0,0V68.67a5.85,5.85,0,1,1,11.69,0V85.6h12.3Z"/></svg>