<svg id="Слой_1" data-name="Слой 1" xmlns="http://www.w3.org/2000/svg" viewBox="0 0 141.73 141.73"><defs><style>.cls-1{fill:#636462;}</style></defs><title>Icons GS </title><path class="cls-1" d="M31.6,15.73a4.48,4.48,0,0,0-4.47,4.47v91a4.72,4.72,0,0,0,4.73,4.72H45.67V40.42a7.84,7.84,0,0,1,7.84-7.84h57.86V20.2a4.48,4.48,0,0,0-4.46-4.47Zm0,0"/><path class="cls-1" d="M50.09,40.93v86.15a4.48,4.48,0,0,0,4.47,4.47H124.8a4.48,4.48,0,0,0,4.48-4.47V70.83h-.05l.05-29.9a4.47,4.47,0,0,0-4.47-4.47H54.56A4.47,4.47,0,0,0,50.09,40.93Z"/></svg>