<svg id="Слой_1" data-name="Слой 1" xmlns="http://www.w3.org/2000/svg" viewBox="0 0 133.56 100.64"><defs><style>.cls-1,.cls-2{fill:none;stroke:#010101;stroke-miterlimit:10;}.cls-1{stroke-width:0.5px;}</style></defs><title>Icons GS </title><path class="cls-1" d="M124.21,23.56s.27,1.06-3.79,3.38-18.76,9.37-53.83,19.69C34.76,56,12.3,60.37,7.83,58.89c-1.22-.41-1.34-1.26-1.34-1.26-.28-2.18-2.92,11.31,4.82,17,8.9,6.51,30.38.44,60.8-8,29.56-8.18,49.59-17.79,54.8-24.35C135.2,31.84,124.21,23.56,124.21,23.56Z"/><path class="cls-1" d="M67.18,46.6C51.66,51.16,36.9,54.91,25.63,57.15c-18.13,3.6-18.71,1.66-19,.73S5.78,55,23,48.23C33.63,44,48.3,40,63.82,35.47s30-9.19,41.32-11.43c18.13-3.6,18.71-1.66,19-.73S125,26.19,107.82,33C97.14,37.19,82.7,42,67.18,46.6Zm-59,10.84c.7.28,3.94.84,18.26-2.07,11.09-2.26,25.4-5.91,40.31-10.3S95.65,36,106.18,31.9c13.6-5.3,16-7.53,16.43-8.14-.69-.28-3.93-.85-18.25,2.07C93.27,28.08,79.19,32.62,64.28,37S35.12,45.19,24.59,49.3C11,54.6,8.58,56.83,8.15,57.44Z"/><path class="cls-1" d="M53.84,46.44s1.68-5.68,23.82-9.71"/><ellipse class="cls-2" cx="100.75" cy="42.78" rx="4.58" ry="4.24" transform="translate(-8.52 36.36) rotate(-19.64)"/><ellipse class="cls-2" cx="70.95" cy="60.1" rx="4.58" ry="4.08" transform="translate(-12.87 19.86) rotate(-14.62)"/><ellipse class="cls-2" cx="39.1" cy="60.1" rx="4.45" ry="4.23" transform="translate(-13.53 11.4) rotate(-14.17)"/></svg>