<svg id="Слой_1" data-name="Слой 1" xmlns="http://www.w3.org/2000/svg" viewBox="0 0 63.33 59.33"><defs><style>.cls-1{fill:#e84157;}.cls-2{fill:#fff;}</style></defs><title>Icons GS </title><path class="cls-1" d="M52.57,13.41,34,6.86a1.14,1.14,0,0,0-.73,0L14.7,13.41a1.1,1.1,0,0,0-.73,1V27.56c0,17,2.52,20.91,19.17,29.31a1.17,1.17,0,0,0,1,0C50.79,48.47,53.3,44.52,53.3,27.56V14.45A1.1,1.1,0,0,0,52.57,13.41Z"/><path class="cls-2" d="M39.51,29.18h-.35V27.55A5.54,5.54,0,0,0,33.8,22h-.33a5.54,5.54,0,0,0-5.36,5.57v1.63h-.35a1.13,1.13,0,0,0-1,1.23v8.15a1.14,1.14,0,0,0,1,1.24H39.51a1.13,1.13,0,0,0,1-1.24V30.41a1.12,1.12,0,0,0-1-1.23Zm-4.77,5.3v2.46a.53.53,0,0,1-.52.52H33.05a.52.52,0,0,1-.51-.52V34.48a1.45,1.45,0,0,1-.44-1.06,1.47,1.47,0,0,1,1.37-1.48h.33a1.46,1.46,0,0,1,1.37,1.48,1.48,1.48,0,0,1-.43,1.06Zm2.14-5.3H30.4V27.55a3.24,3.24,0,1,1,6.48,0Zm0,0"/></svg>