<svg id="Слой_1" data-name="Слой 1" xmlns="http://www.w3.org/2000/svg" viewBox="0 0 127.49 83.78"><defs><style>.cls-1,.cls-2{fill:none;}.cls-1,.cls-2,.cls-3{stroke:#010101;stroke-width:0.5px;}.cls-1{stroke-linejoin:round;}.cls-2,.cls-3{stroke-miterlimit:10;}.cls-3{fill:#fff;}.cls-4{fill:#010101;}</style></defs><title>Icons GS </title><path class="cls-1" d="M118,20.38s.47,1-1.53,2.31c-3.83,2.12-.7,1.22-10,4.8-4.44,1.7-20.13,1.64-25.95,3.66-6,2.1-11.89,3.37-19.5,5.82s-13.74,4.15-20.25,6c-7.28,2.11-17.92,11.65-23.31,13-9.25,2.36-8.09,1.81-9.28,1.75-2.95.14-3-.87-3-.87,0-1.15-.19,8.13,4.69,9.57,2.74.81,4.25.19,9.8-1.19s21.25,1,28.56-1.33c6.3-2,11.81-3.42,19.38-5.79s13-3.81,18.87-5.7c6.2-2,21.75-15.4,26.23-17.26A22.2,22.2,0,0,0,118,32.5C125.11,27.07,118,20.38,118,20.38Z"/><path class="cls-2" d="M63,43.29C55.57,45.68,47.42,41,40.67,43c-7.27,2.12-13.3,7.84-18.24,10.67a29.49,29.49,0,0,1-6.16,2.77c-9.32,2.39-11,1.12-11.17.47s-2.65-1.61,14.46-8.44c10.64-4.26,25.18-8.67,40.58-13.62S90,25,101.11,22.24c17.92-4.42,16.49-2.38,16.73-1.67s.84,1.74-10.31,6.58a42.79,42.79,0,0,1-6.14,1.4c-13.2,1.7-12.76.15-20.22,2.38C74.58,32.89,70.22,41,63,43.29ZM6.6,56.44c.6.14-.33,1.25,10.35-1.27a25.42,25.42,0,0,0,5.53-2.79c8.23-5.67,10.82-8,17.58-10s12.77-4.2,20.16-6.58,14.09-3.5,20.62-5.8c6.79-2.39,12.07-1.73,17.8-2.31a56.22,56.22,0,0,0,7.41-1.21c10.61-4.35,9.89-5,10.29-5.47-.67-.16-1.91-.89-16.07,2.66-11,2.75-24.94,7.55-39.74,12.31S31.61,45,21.12,49.17C7.57,54.53,7,55.92,6.6,56.44Z"/><path class="cls-1" d="M40.36,48.79A25.18,25.18,0,0,0,34.16,53c-3.64,3.17-4,4.29-4,4.29s2.35.46,5.65,1a47.53,47.53,0,0,0,7.58.29l.18-.64a17.08,17.08,0,0,1-2.13-4.7c-.4-2-.82-3.79-.82-3.79Z"/><path class="cls-1" d="M84.79,36.34a21.81,21.81,0,0,1,7.26.07,26.84,26.84,0,0,0,7.52.18s-2.74,2.09-5.79,4.49a73.82,73.82,0,0,1-6.52,4.44l-.5-.43A17,17,0,0,0,86,40c-.78-1.92-1.39-3.61-1.39-3.61Z"/><ellipse class="cls-2" cx="27.63" cy="54.13" rx="1.58" ry="1.71" transform="matrix(0.97, -0.25, 0.25, 0.97, -12.67, 8.64)"/><ellipse class="cls-2" cx="38" cy="46.89" rx="1.25" ry="1.35" transform="translate(-10.53 11) rotate(-14.49)"/><ellipse class="cls-2" cx="34.77" cy="48.78" rx="1.49" ry="1.61" transform="translate(-11.1 10.25) rotate(-14.49)"/><ellipse class="cls-2" cx="31.19" cy="51.43" rx="1.91" ry="2.06" transform="matrix(0.97, -0.25, 0.25, 0.97, -11.88, 9.44)"/><ellipse class="cls-2" cx="100.65" cy="39.82" rx="1.58" ry="1.71" transform="translate(11.29 100.89) rotate(-55.94)"/><ellipse class="cls-2" cx="90.36" cy="47.17" rx="1.25" ry="1.35" transform="translate(0.67 95.6) rotate(-55.94)"/><ellipse class="cls-2" cx="93.22" cy="44.75" rx="1.49" ry="1.61" transform="translate(3.93 96.91) rotate(-55.94)"/><ellipse class="cls-2" cx="96.91" cy="42.27" rx="1.91" ry="2.06" transform="translate(7.61 98.88) rotate(-55.94)"/><path class="cls-2" d="M90.27,28.17c4.3-1.31,9.3-2.63,15.13-3.92"/><path class="cls-2" d="M79.09,40.58c4.3-1.31,9.3-2.63,15.13-3.92"/><path class="cls-2" d="M32.54,54.67c4.21-1.57,9.13-3.19,14.86-4.83"/><path class="cls-2" d="M19.76,52.11q3.48-1.32,6.58-2.39"/><ellipse class="cls-3" cx="63.94" cy="46.74" rx="23.62" ry="21.64" transform="translate(-10.69 20.23) rotate(-16.61)"/><path class="cls-4" d="M45.31,61.3c7.76,8.91,22.57,10.09,32.76,2.61l.34-.26h0l.35-.27c7.24-5.71,10.42-14.91,8-23.08a.07.07,0,0,0,0-.07A21.22,21.22,0,0,0,72.61,26.37,25.87,25.87,0,0,0,49.9,30.23l-.35.27h0l-.35.27C39.34,38.56,37.53,52.39,45.31,61.3ZM40.92,45.61l1.09.07,3.9.28-1.69,2.81-2.76,4.59A19.84,19.84,0,0,1,40.92,45.61Zm34.24,13.8.49-3.58.41-2.93,5.58-4.26,2.42,8.12Zm-5.1,8-3.21-1.55-4.8-2.31,5.58-4.26,4.17.3,2.84.2-2.75,4.57ZM41.65,53.74l1.84-3.05,2.75-4.57,4.32,5-.23,1.68-.67,4.84-4.8-2.32Zm8.37,4,.57-4.12.29-2.14,2.93,3.37,2.93,3.37L55,58.07Zm1.21-11.54-.61,4.42-4.14-4.76,5.36-4.09ZM51,51l.65-4.77.66-4.77,8.18-6.23,5.12.37,5.13.36L77,43.18,75.7,52.73,67.53,59l-5.13-.37-5.13-.36L55.37,56ZM65.61,35.21l-4.75-.34,5.36-4.08,4.15,4.76Zm11.73,8.35,4.15,4.76-5.37,4.09Zm-15,15.38,4.76.34-5.37,4.08L57.6,58.6Zm11.8-19.61L71.22,36l6.72.48-.86,6.25Zm-21.82,1.6.86-6.25,6.72.48ZM68.05,59l7.59-5.77-.86,6.25-.27,0ZM49.7,58.17l2.35,7.88a21.19,21.19,0,0,1-6.32-4.85Zm.37-.11,5.15.37,1.85.13,4.32,5-8.9,2.66Zm27.34-15,.89-6.52,8,3.86L81.73,48ZM78.26,36,75.91,28.1A21.11,21.11,0,0,1,82.24,33Zm-.36.11-7-.5-4.32-5L75.48,28Zm-12-5.51-5.59,4.26-2.39-.17-4.61-.33,4.58-7.62,3.2,1.55ZM52.09,39.91l-.18,1.34-5.59,4.26L43.9,37.39l8.9-2.66ZM46.53,56.49l2.94,1.42-4,3a19.77,19.77,0,0,1-3.8-6.78Zm15,7.36-.64,4.64a23.44,23.44,0,0,1-8-2.06Zm-.27,4.67.64-4.64,3,1.42,4.82,2.33A25.22,25.22,0,0,1,61.22,68.52Zm16.62-4.87a25.39,25.39,0,0,1-7.32,3.71l2.76-4.58L75,60,78,63.5Zm.69-.53-.2.15-3.07-3.53,8.64-2.57A23.69,23.69,0,0,1,78.53,63.12ZM82,48.53l5,.36a21.18,21.18,0,0,1-2.63,7.52Zm5,0-5-.35,4.45-7.4A19.47,19.47,0,0,1,87,48.54Zm-8.55-12.3,4-3A19.75,19.75,0,0,1,86.26,40Zm-12-5.94.64-4.64a23.56,23.56,0,0,1,8,2.06Zm.27-4.67-.64,4.64-2.95-1.42-4.82-2.33A25.25,25.25,0,0,1,66.74,25.63ZM50.12,30.5a25.44,25.44,0,0,1,7.33-3.71L53,34.18l-3.07-3.53Zm-.69.53.2-.15L52.7,34.4,44.06,37A23.71,23.71,0,0,1,49.43,31ZM46,45.62l-5-.36a21.2,21.2,0,0,1,2.64-7.52Z"/><path class="cls-2" d="M113.6,34.8c-3.64,1.36-17,2.4-21.89,1.52"/><path class="cls-2" d="M37.07,58.49c-9.94-1.66-16.19-3-22.46-1.62"/><path class="cls-2" d="M42.72,57.51c-4.74.21-7-.38-11.84-1.06"/><path class="cls-2" d="M97.52,36.88c-3.84,2.78-7.66,5.63-10.07,7.2"/></svg>