<svg id="Слой_1" data-name="Слой 1" xmlns="http://www.w3.org/2000/svg" viewBox="0 0 141.73 141.73"><defs><style>.cls-1{fill:#aa9157;}</style></defs><title>Icons GS </title><path class="cls-1" d="M39.63,20.25c0,5,2.73,9,6.1,9h78.8c3.37,0,6.1-4.05,6.1-9s-2.73-9-6.1-9H45.73C42.36,11.22,39.63,15.26,39.63,20.25Z"/><path class="cls-1" d="M39.63,68.72c0,5,2.73,9,6.1,9h78.8c3.37,0,6.1-4,6.1-9s-2.73-9-6.1-9H45.73C42.36,59.68,39.63,63.73,39.63,68.72Z"/><path class="cls-1" d="M39.63,117.56c0,5,2.73,9,6.1,9h78.8c3.37,0,6.1-4,6.1-9s-2.73-9-6.1-9H45.73C42.36,108.53,39.63,112.57,39.63,117.56Z"/><circle class="cls-1" cx="18.4" cy="117.54" r="9.16"/><circle class="cls-1" cx="18.4" cy="69.08" r="9.16"/><circle class="cls-1" cx="18.4" cy="20.61" r="9.16"/></svg>