<svg id="Слой_1" data-name="Слой 1" xmlns="http://www.w3.org/2000/svg" viewBox="0 0 141.73 141.73"><defs><style>.cls-1{fill:#636462;}</style></defs><title>Icons GS </title><polygon class="cls-1" points="69.87 1.83 56.1 1.83 42.55 17.72 58.05 17.72 69.87 1.83"/><polygon class="cls-1" points="103.18 17.72 89.63 1.83 75.86 1.83 87.69 17.72 103.18 17.72"/><polygon class="cls-1" points="83.93 17.72 72.87 2.86 61.8 17.72 83.93 17.72"/><polygon class="cls-1" points="42.55 20.71 68.68 51.38 57.74 20.71 42.55 20.71"/><polygon class="cls-1" points="60.95 20.71 72.87 54.12 84.78 20.71 60.95 20.71"/><polygon class="cls-1" points="77.05 51.38 103.18 20.71 87.99 20.71 77.05 51.38"/><path class="cls-1" d="M32.81,97.74a5.25,5.25,0,0,0,0,.56c1.52,17.34,18,32.07,40.09,32.07S112.57,115.05,113,98.3c0-.2-1.88,4.18-1.89,4-6.95,14.57-22.32,20.45-39.88,20.45S39.77,112.31,32.81,97.74Z"/><path class="cls-1" d="M92.45,39.55,78.21,56.26c22,2.12,38.57,17.42,38.57,42,0,21.11-19.29,37.65-43.91,37.65S28.78,119.41,29,98.3c.19-22.37,16.59-39.6,38.59-42L53.5,39.8C33.68,47.37,19.64,65.89,19.42,85.74c-.36,30.76,24,55.79,53.45,55.79s53.45-25,53.45-55.79C126.32,64.41,112.28,46.67,92.45,39.55Z"/></svg>