<svg id="Слой_1" data-name="Слой 1" xmlns="http://www.w3.org/2000/svg" viewBox="0 0 141.73 141.73"><defs><style>.cls-1{fill:#e84155;}</style></defs><title>Icons GS </title><path class="cls-1" d="M117.65,60.8A12.45,12.45,0,0,1,105.2,48.35a2.08,2.08,0,0,0-2.08-2.08H40.86a2.08,2.08,0,0,0-2.07,2.08A12.46,12.46,0,0,1,26.34,60.8a2.08,2.08,0,0,0-2.08,2.08v16.6a2.07,2.07,0,0,0,2.08,2.07A12.47,12.47,0,0,1,38.79,94a2.08,2.08,0,0,0,2.07,2.08h62.26A2.08,2.08,0,0,0,105.2,94a12.46,12.46,0,0,1,12.45-12.45,2.07,2.07,0,0,0,2.07-2.07V62.88A2.08,2.08,0,0,0,117.65,60.8ZM72,85.7A14.53,14.53,0,1,1,86.52,71.18,14.52,14.52,0,0,1,72,85.7Z"/><path class="cls-1" d="M28.41,50.43h4.15V46.27H26.34a2.08,2.08,0,0,0-2.08,2.08v6.23h4.15Zm0,0"/><path class="cls-1" d="M28.41,87.78H24.26V94a2.08,2.08,0,0,0,2.08,2.08h6.22V91.93H28.41Zm0,0"/><path class="cls-1" d="M16,40.05v62.26A2.08,2.08,0,0,0,18,104.38H126a2.07,2.07,0,0,0,2.07-2.07V40.05A2.08,2.08,0,0,0,126,38H18A2.08,2.08,0,0,0,16,40.05Zm4.15,2.07H123.87v58.11H20.11Zm0,0"/><path class="cls-1" d="M117.65,46.27h-6.23v4.16h4.15v4.15h4.15V48.35a2.08,2.08,0,0,0-2.07-2.08Zm0,0"/><path class="cls-1" d="M115.57,91.93h-4.15v4.15h6.23A2.08,2.08,0,0,0,119.72,94V87.78h-4.15Zm0,0"/><path class="cls-1" d="M99.66,12.57H52.92V1.18l-14,16.93,14,16.69V23.4H99.66a5.42,5.42,0,1,0,0-10.84Z"/><path class="cls-1" d="M105.08,124.49l-14-16.94V119H44.32a5.42,5.42,0,0,0,0,10.83H91.07v11.4Z"/></svg>