<svg id="Слой_1" data-name="Слой 1" xmlns="http://www.w3.org/2000/svg" viewBox="0 0 141.73 141.73"><defs><style>.cls-1{fill:#636462;}</style></defs><title>Icons GS </title><path class="cls-1" d="M71.8,42.75a31.61,31.61,0,1,0,31.6,31.6A31.6,31.6,0,0,0,71.8,42.75ZM71.8,97A22.66,22.66,0,1,1,94.45,74.35,22.65,22.65,0,0,1,71.8,97Z"/><path class="cls-1" d="M125.71,58l4.37-9.52L123.84,37.7l-10.13-1c-1.07-1.2-2.2-2.36-3.38-3.46l-1-10.45L98.53,16.59,89.3,20.81c-1.53-.5-3.1-.94-4.68-1.31L78.55,11H66.06l-5.88,8.28c-1.58.33-3.17.73-4.72,1.19l-9.52-4.35L35.13,22.32l-1,10.12c-1.19,1.08-2.36,2.2-3.45,3.39l-10.46,1L14,47.63l4.21,9.22c-.49,1.54-.93,3.1-1.3,4.69L8.41,67.61V80.09L16.67,86c.33,1.59.73,3.17,1.21,4.72l-4.36,9.53L19.77,111l10.12,1q1.62,1.78,3.37,3.45l1,10.45,10.81,6.25,9.23-4.22c1.53.5,3.1.94,4.69,1.31L65,137.75h12.5l5.87-8.27c1.59-.34,3.17-.73,4.72-1.2l9.52,4.36,10.81-6.25,1-10.13c1.21-1.07,2.36-2.2,3.46-3.37l10.46-1,6.23-10.82-4.22-9.21c.5-1.55,1-3.1,1.31-4.69l8.55-6.07V68.61l-8.28-5.86C126.59,61.15,126.18,59.58,125.71,58ZM71.8,114.72a40.37,40.37,0,1,1,40.36-40.37A40.36,40.36,0,0,1,71.8,114.72Z"/></svg>