<svg id="Слой_1" data-name="Слой 1" xmlns="http://www.w3.org/2000/svg" viewBox="0 0 62 62"><defs><style>.cls-1{fill:#e84157;}</style></defs><title>Icons GS </title><path class="cls-1" d="M48.22,29.91h0c.35-1.21,3.7-14.2,4.09-15.59a4.3,4.3,0,0,0-.43-3.82,2.72,2.72,0,0,0-2.25-1.11L13,9.33a2.72,2.72,0,0,0-2.23,1.1,4.36,4.36,0,0,0-.49,3.83c.72,2.47,3.5,12.92,4.26,15.64A7.74,7.74,0,0,0,17.05,34a6.27,6.27,0,0,0-2.49,3.12c-.43,1.13-.85,2.28-1.27,3.39l0,.09c-.56,1.49-1.13,3-1.71,4.55l-1,2.62a.53.53,0,0,0-.18.39v7.13A2.38,2.38,0,0,0,12.7,57.7H50.07a2.39,2.39,0,0,0,2.32-2.45V48.11a.59.59,0,0,0-.07-.26l-1-2.76c-1-2.52-2-5.11-2.93-7.62l-.15-.39A6.4,6.4,0,0,0,45.67,34,8,8,0,0,0,48.22,29.91ZM11.48,55.25V48.5H51.32v6.75a1.32,1.32,0,0,1-1.25,1.39H12.7A1.33,1.33,0,0,1,11.48,55.25ZM44.19,33.47l-.23,0H42.23a.54.54,0,0,0,0,1.07h2c1,0,2.41,1.32,3,2.89l.12.33c1,2.52,2,5.14,3,7.69l.74,2H11.83l.71-2c.59-1.52,1.17-3.07,1.73-4.58.42-1.13.85-2.29,1.29-3.44.57-1.54,2-2.89,3-2.89h1.21a.54.54,0,0,0,0-1.07h-1v0h-.23c-.9,0-2.34-1.58-3-3.85C14.81,26.9,12.08,16.93,11.31,14a3.47,3.47,0,0,1,.31-2.89A1.69,1.69,0,0,1,13,10.4l36.62,0a1.69,1.69,0,0,1,1.4.68A3.33,3.33,0,0,1,51.29,14c-.39,1.4-3.74,14.39-4.09,15.59C46.59,31.67,45.19,33.47,44.19,33.47Z"/><path class="cls-1" d="M37.7,41.39H36a9.68,9.68,0,1,0-10.06,0H23.7a.72.72,0,0,0-.72.72.71.71,0,0,0,.72.71h14a.71.71,0,0,0,.71-.71A.72.72,0,0,0,37.7,41.39Zm1.88-8.26a8.67,8.67,0,0,1-6.16,8.26H28.48a8.63,8.63,0,1,1,11.1-8.26Z"/><path class="cls-1" d="M31,25.78a7.36,7.36,0,1,0,7.2,7.36A7.29,7.29,0,0,0,31,25.78Zm6.22,7.36A6.23,6.23,0,1,1,31,26.76,6.3,6.3,0,0,1,37.17,33.14Z"/><path class="cls-1" d="M34.05,16.19l-5.22,0-1.62,1.93,4.12,4.41,4.44-4.34ZM33,18l-.41-1.06h1.16l.9,1.06Zm1.67.43-2.85,2.78L33,18.4ZM32.54,18H30.31l.37-1h1.44Zm-2.31-1-.37,1h-1.6l.89-1.06Zm-2.12,1.25Zm1.73.23h0l1,2.75L28.32,18.4Zm.48,0h2.2l-1.16,2.78Z"/></svg>