<svg id="Слой_1" data-name="Слой 1" xmlns="http://www.w3.org/2000/svg" viewBox="0 0 142.06 84.99"><defs><style>.cls-1{fill:none;stroke-width:0.5px;}.cls-1,.cls-2{stroke:#010101;stroke-miterlimit:10;}.cls-2{fill:#fff;}.cls-3{fill:#010101;}</style></defs><title>Icons GS </title><path class="cls-1" d="M126.39,16.38l.17.57c-1.1,4.29-25.87,14.89-56.28,24.85S12.64,57.77,10.41,55l-.48-.7c-.25-1.95-2.13,8,4.77,13.13C24.85,75,45.17,66.1,75.3,56.71c29.29-9.12,47.43-15,54.44-23.25C139.23,22.31,126.39,16.38,126.39,16.38Z"/><path class="cls-1" d="M70.28,41.8C54.9,46.84,40.25,51,29,53.46c-18,4-18.75,1.86-19.08.84s-1-3.15,15.88-10.62c10.52-4.64,25.07-9,40.45-14.06S96,19.49,107.24,17c18.05-4,18.74-1.86,19.08-.84s1,3.15-15.88,10.62C99.91,31.43,85.65,36.77,70.28,41.8Zm-58.85,12c.71.31,4,.92,18.27-2.3C40.74,49,55,45,69.73,40.13s28.62-10,39-14.51c13.41-5.84,15.71-8.29,16.1-9-.71-.3-4-.91-18.27,2.31-11,2.49-25,7.49-39.74,12.33s-28.91,9-39.29,13.55C14.12,50.69,11.82,53.13,11.43,53.8Z"/><path class="cls-1" d="M63.59,42.46s2.17-9.91,37.33-17"/><path class="cls-1" d="M75.54,39.72S68.28,32.62,35,46"/><ellipse class="cls-2" cx="72.61" cy="48.89" rx="26.09" ry="24.06" transform="translate(-10.95 22.81) rotate(-16.62)"/><path class="cls-3" d="M52,64.75C60.58,74.59,77,75.9,88.2,67.64l.38-.29h0l.39-.3c8-6.31,11.51-16.47,8.82-25.5a.06.06,0,0,0,0-.08,23.46,23.46,0,0,0-15.6-15.31,28.61,28.61,0,0,0-25.1,4.27l-.38.29h0l-.38.3C45.41,39.63,43.4,54.91,52,64.75ZM47.16,47.41l1.19.09,4.32.31-1.87,3.1-3,5.07A21.7,21.7,0,0,1,47.16,47.41ZM85,62.67l.54-4L86,55.47l6.17-4.71,2.68,9Zm-5.64,8.86L75.8,69.82l-5.3-2.56,6.17-4.7,4.6.32,3.14.23-3,5ZM48,56.4,50,53,53,48l4.77,5.48-.25,1.86-.74,5.34-5.3-2.55Zm9.24,4.38.63-4.55.32-2.36,3.24,3.72,3.24,3.72-1.88-.13ZM58.55,48l-.67,4.89-4.59-5.26,5.93-4.52Zm-.32,5.3L59,48.06l.72-5.27,9-6.88,5.66.4,5.67.4,7,8L85.59,55.28l-9,6.88-5.66-.4-5.67-.4L63.12,59Zm16.2-17.4-5.25-.38L75.1,31l4.59,5.26Zm13,9.22L92,50.41l-5.93,4.52Zm-16.56,17,5.26.38L70.16,67l-4.58-5.26Zm13-21.67-3.24-3.71,7.43.52-1,6.91ZM59.76,42.25l1-6.91,7.42.53Zm17.38,20,8.37-6.38-1,6.91-.29,0Zm-20.28-.9,2.6,8.7a23.19,23.19,0,0,1-7-5.36Zm.4-.12,5.69.4,2,.15,4.77,5.48-9.83,2.93ZM87.47,44.61l1-7.2,8.84,4.26-5.06,8.42Zm.94-7.84-2.6-8.7a23.32,23.32,0,0,1,7,5.35Zm-.4.12-7.74-.55L75.5,30.86l9.83-2.93ZM74.77,30.81l-6.17,4.7L66,35.32,60.86,35l5.06-8.42,3.54,1.71ZM59.5,41.12l-.21,1.48-6.17,4.71-2.68-9,9.84-2.94ZM53.35,59.43,56.6,61l-4.39,3.35A21.61,21.61,0,0,1,48,56.87Zm16.53,8.14-.7,5.13a25.93,25.93,0,0,1-8.85-2.28Zm-.29,5.16.7-5.13,3.26,1.57,5.33,2.57A27.87,27.87,0,0,1,69.59,72.73ZM88,67.35a28.17,28.17,0,0,1-8.09,4.1l3-5.07,1.86-3.1,3.39,3.9Zm.76-.59-.22.17L85.1,63l9.54-2.85A25.75,25.75,0,0,1,88.71,66.76Zm3.84-16.12,5.51.4a23.52,23.52,0,0,1-2.91,8.31Zm5.56,0-5.51-.39,4.92-8.17A21.85,21.85,0,0,1,98.11,50.65ZM88.66,37.06l4.4-3.34a21.61,21.61,0,0,1,4.19,7.48ZM75.39,30.5l.7-5.13a25.81,25.81,0,0,1,8.84,2.28Zm.29-5.16L75,30.47,71.72,28.9l-5.33-2.57A27.87,27.87,0,0,1,75.68,25.34ZM57.32,30.72a28.17,28.17,0,0,1,8.09-4.1L60.5,34.79l-3.4-3.9Zm-.76.59.21-.17,3.4,3.9-9.54,2.85A25.75,25.75,0,0,1,56.56,31.31ZM52.72,47.42,47.21,47a23.45,23.45,0,0,1,2.91-8.31Z"/></svg>