<svg id="Слой_1" data-name="Слой 1" xmlns="http://www.w3.org/2000/svg" viewBox="0 0 137.2 76.49"><defs><style>.cls-1{fill:none;stroke:#010101;stroke-miterlimit:10;stroke-width:0.5px;}</style></defs><title>Icons GS </title><path class="cls-1" d="M125.21,10.2s.27,1.06-3.79,3.38S102.66,23,67.59,33.28C35.76,42.65,13.3,47,8.83,45.53c-1.22-.4-1.34-1.25-1.34-1.25-.27-2.19-2.92,11.3,4.82,17,8.91,6.52,30.39.44,60.8-8,29.57-8.17,49.59-17.78,54.8-24.35C136.2,18.48,125.21,10.2,125.21,10.2Z"/><path class="cls-1" d="M68.18,33.24C52.66,37.81,37.91,41.56,26.63,43.8c-18.13,3.6-18.71,1.66-19,.73S6.78,41.65,24,34.87c10.68-4.22,25.35-8.19,40.87-12.75s30.05-9.19,41.32-11.43c18.13-3.61,18.71-1.67,19-.73s.86,2.87-16.31,9.65C98.14,23.83,83.71,28.67,68.18,33.24Zm-59,10.84c.7.28,3.94.85,18.26-2.07,11.09-2.25,25.4-5.91,40.32-10.3s28.92-9.06,39.45-13.17c13.6-5.3,16-7.53,16.44-8.14-.7-.28-3.94-.84-18.26,2.07-11.09,2.26-25.17,6.79-40.08,11.18S36.12,31.84,25.59,35.94C12,41.24,9.58,43.47,9.15,44.08Z"/><path class="cls-1" d="M54.84,33.08s1.68-5.68,23.82-9.7"/></svg>