<svg id="Слой_1" data-name="Слой 1" xmlns="http://www.w3.org/2000/svg" viewBox="0 0 128.7 93.49"><defs><style>.cls-1,.cls-2{fill:none;stroke:#010101;stroke-miterlimit:10;}.cls-1{stroke-width:0.5px;}</style></defs><title>Icons GS </title><path class="cls-1" d="M118.34,14.63s.37,1-3.46,3.72S97.07,29.44,63.12,43C32.3,55.29,10.35,61.73,5.76,60.66a1.75,1.75,0,0,1-1.45-1.12C3.83,57.39,2.46,71.07,10.69,76c9.47,5.66,30.3-2.39,59.8-13.6C99.16,51.48,118.2,40.05,122.77,33,130.05,21.85,118.34,14.63,118.34,14.63Z"/><path class="cls-1" d="M63.71,42.89c-15,6-29.37,11.11-40.39,14.39-17.71,5.27-18.47,3.4-18.84,2.5S3.36,57,19.82,48.64c10.24-5.2,24.48-10.51,39.5-16.51s29.06-12,40.08-15.23c17.71-5.28,18.47-3.4,18.83-2.5s1.13,2.78-15.33,11.14C92.66,30.73,78.74,36.9,63.71,42.89ZM6,59.19c.72.22,4,.47,18-3.76,10.83-3.28,24.74-8.26,39.18-14s28-11.72,38.05-16.79c13-6.55,15.24-9,15.61-9.64-.72-.21-4-.47-18,3.77C88,22,74.36,27.85,59.92,33.61S31.66,44.49,21.55,49.55C8.51,56.1,6.32,58.54,6,59.19Z"/><path class="cls-1" d="M50.41,44s1.14-5.81,22.81-11.88"/><ellipse class="cls-2" cx="68.26" cy="55.68" rx="7.18" ry="6.76" transform="translate(-15.11 27.24) rotate(-20.37)"/><ellipse class="cls-2" cx="92.9" cy="38.68" rx="7.31" ry="6.76" transform="translate(-6.96 26.21) rotate(-15.48)"/><ellipse class="cls-2" cx="38.53" cy="60.52" rx="6.66" ry="6.79" transform="translate(-28.64 85.7) rotate(-78.07)"/></svg>