<svg id="Слой_1" data-name="Слой 1" xmlns="http://www.w3.org/2000/svg" viewBox="0 0 141.73 141.73"><defs><style>.cls-1{fill:#636462;}</style></defs><title>Icons GS </title><path class="cls-1" d="M132.76,31.48H10.81a6.18,6.18,0,0,0-6.18,6.18v87a6.18,6.18,0,0,0,6.18,6.18h122a6.17,6.17,0,0,0,6.17-6.18v-87A6.17,6.17,0,0,0,132.76,31.48ZM122.1,61.22,97.57,79.62l23.62,24.53a3.71,3.71,0,0,1-5.34,5.14L91.6,84.1,71.72,99,69.48,97.2c-4.87-3.94-10.38-8.39-15.93-12.86l-24,25a3.7,3.7,0,1,1-5.33-5.14L47.76,79.67c-11.13-9-21.57-17.35-26.38-21.16A3.7,3.7,0,0,1,26,52.71c8.67,6.85,32.53,26.1,43.69,35.11a3.67,3.67,0,0,0,4.53.08l43.47-32.6a3.69,3.69,0,0,1,5.18.74h0A3.69,3.69,0,0,1,122.1,61.22Z"/></svg>