<svg id="Слой_1" data-name="Слой 1" xmlns="http://www.w3.org/2000/svg" viewBox="0 0 138.42 94.71"><defs><style>.cls-1,.cls-2{fill:none;stroke:#010101;stroke-width:0.5px;}.cls-1{stroke-linejoin:round;}.cls-2{stroke-miterlimit:10;}</style></defs><title>Icons GS </title><path class="cls-1" d="M126.78,18.38a3.14,3.14,0,0,1,.41,1.51,2.34,2.34,0,0,1-.58,1.29c-7.16,6-26.57,13.22-57.19,22.68-30,9.28-50.15,12.48-55.51,12.1,0,0-2.33.12-3.26-.48a3,3,0,0,1-1.06-1.66c.14-.11-2.38,7.39-2.38,7.39l6.29,6.62s7.32,9.37,62.19-7.33c56.45-15.35,56.25-29.24,56.25-29.24l1.33-8.57Z"/><path class="cls-2" d="M70.44,43.43C54.94,48.07,40.19,51.84,28.9,54c-18.15,3.53-18.79,1.39-19.1.36s-1-3.17,16.14-10.21c10.64-4.38,25.29-8.39,40.79-13s30-9.38,41.28-11.57c18.15-3.53,18.79-1.39,19.1-.36s1,3.17-16.14,10.21C100.33,33.81,85.94,38.78,70.44,43.43ZM11.31,53.94c.71.33,4,1,18.32-1.84,11.1-2.22,25.42-5.9,40.3-10.36s28.87-9.27,39.36-13.53c13.54-5.49,15.9-7.88,16.31-8.54-.7-.32-4-1-18.32,1.85-11.1,2.21-25.15,6.86-40,11.32S38.11,41.14,27.63,45.4C14.08,50.9,11.72,53.28,11.31,53.94Z"/><path class="cls-2" d="M60,42.13s1.52-6.19,23.7-10.08"/><path class="cls-2" d="M7.37,61c8.06,6.93,30.84,1.81,63.12-7.61,48.39-14.12,60.6-22.27,62.51-30.88"/></svg>