<svg id="Слой_1" data-name="Слой 1" xmlns="http://www.w3.org/2000/svg" viewBox="0 0 141.73 141.73"><defs><style>.cls-1{fill:#e84155;}</style></defs><title>Icons GS </title><polygon class="cls-1" points="40.25 70.61 70.89 133.5 101.53 70.61 40.25 70.61"/><polygon class="cls-1" points="112 70.61 83.78 127.85 141.02 57.7 112 70.61"/><polygon class="cls-1" points="29.78 70.61 58 127.85 0.76 57.7 29.78 70.61"/><polygon class="cls-1" points="36.38 41.58 30.74 62.54 0.91 47.22 14.61 29.48 36.38 41.58"/><polygon class="cls-1" points="105.85 41.58 111.5 62.54 141.33 47.22 127.62 29.48 105.85 41.58"/><polygon class="cls-1" points="42.49 42.79 40.08 62.14 102.16 62.54 100.55 43.19 42.49 42.79"/><polygon class="cls-1" points="37.23 33.11 19.9 25.05 37.23 17.39 105.77 17.39 121.89 24.65 106.17 33.11 37.23 33.11"/></svg>