<svg id="Слой_1" data-name="Слой 1" xmlns="http://www.w3.org/2000/svg" viewBox="0 0 54 52.67"><defs><style>.cls-1{fill:#e84157;}.cls-2{fill:#fff;}</style></defs><title>Icons GS </title><path class="cls-1" d="M22.8,44.15,9.89,20.91l5.32-.07ZM15.88,18,13.07,12.1h6Zm-6.2,1.14,2.11-5.71,2.69,5.66Zm-6.19,0L9.75,14,7.83,19.17Zm31.74-.09-7.18,0,4.21-6.17,3.28,6.2Zm.56,1.73L27.28,47V20.8Zm-9.38-2.44-4.3-6.3h8.6Zm-.87,2.41V47L17,20.83Zm17.39.11L30,44.15l7.59-23.3Zm-6-2.87L33.8,12.09h6Zm1.41,1.08L41,13.46l2.12,5.71Zm6.65.07L43.07,14l6.26,5.21Zm5,1.73L32.54,43.19,44.91,20.92ZM17.29,19.1l3.27-6.2,4.21,6.16Zm3,24.09L2.88,20.92h5Z"/><path class="cls-2" d="M32,35.25A2.09,2.09,0,0,1,30,33.91a2.22,2.22,0,0,1-.09-.37L29,27.29a5.94,5.94,0,0,0-3.3-3.3l-6.24-.94a2.37,2.37,0,0,1-.36-.09,2.07,2.07,0,0,1,0-3.89,1.19,1.19,0,0,1,.36-.09L25.68,18a5.88,5.88,0,0,0,3.3-3.3l.95-6.24A2.22,2.22,0,0,1,30,8.12a2.07,2.07,0,0,1,3.89,0,1.89,1.89,0,0,1,.09.34l.94,6.24a5.94,5.94,0,0,0,3.3,3.3l6.25.95a1.06,1.06,0,0,1,.35.09,2.07,2.07,0,0,1,0,3.89,2,2,0,0,1-.35.09L38.24,24a6,6,0,0,0-3.3,3.3L34,33.54a2.25,2.25,0,0,1-.09.35A2.08,2.08,0,0,1,32,35.25ZM27.91,21A9.56,9.56,0,0,1,32,25.07,9.58,9.58,0,0,1,36,21,9.61,9.61,0,0,1,32,17,9.54,9.54,0,0,1,27.91,21Z"/><path class="cls-1" d="M44.22,20.78l-6.44-1a7.76,7.76,0,0,1-4.61-4.6l-1-6.44A.26.26,0,0,0,32,8.59a.25.25,0,0,0-.23.17l-1,6.44a7.72,7.72,0,0,1-4.6,4.6l-6.44,1a.25.25,0,0,0-.17.23.26.26,0,0,0,.17.24l6.44,1a7.75,7.75,0,0,1,4.6,4.6l1,6.45a.24.24,0,0,0,.23.16.25.25,0,0,0,.24-.16l1-6.45a7.79,7.79,0,0,1,4.61-4.6l6.44-1a.25.25,0,0,0,.16-.24.24.24,0,0,0-.16-.23Zm0,0"/></svg>