<svg id="Слой_1" data-name="Слой 1" xmlns="http://www.w3.org/2000/svg" viewBox="0 0 75 55.65"><defs><style>.cls-1{fill:#e84157;}</style></defs><title>Icons GS </title><path class="cls-1" d="M33.6,47.72A14,14,0,0,1,19.38,34,14,14,0,0,1,33.6,20.21,14,14,0,0,1,47.82,34,14,14,0,0,1,33.6,47.72Zm0-24.7A11.15,11.15,0,0,0,22.29,34a11.32,11.32,0,0,0,22.62,0A11.14,11.14,0,0,0,33.6,23Z"/><path class="cls-1" d="M25.7,11.44l.11,0h3.91l2.87,7.42-7.18-7.42Zm9.58-3.53,1.16,2.84h-6l1-2.81Zm1.12,3.54-3.12,7.22-2.79-7.23Zm.78,0h4.68L34,18.93Zm4.57-.7H37.22L36.06,7.91h3.19Zm-14-2.81h3l-1,2.81H25.35Z"/><path class="cls-1" d="M55,45.33h1.49a.61.61,0,0,0,0-1.21H55v-2h1.49a.61.61,0,0,0,0-1.21H55v-2h2.84a.61.61,0,1,0,0-1.21H55v-2h1.49a.61.61,0,0,0,0-1.21H55v-2h1.49a.6.6,0,0,0,0-1.2H55v-2h2.84a.6.6,0,1,0,0-1.2H55V26h1.49a.61.61,0,0,0,0-1.21H55v-2h1.49a.61.61,0,0,0,0-1.21H55V18.71h7.45V48.19H55Zm0,0"/><path class="cls-1" d="M35.1,30.14a.47.47,0,0,0,.47-.47.51.51,0,0,0-.11-.31L34,26.83a.47.47,0,0,0-.64-.17.59.59,0,0,0-.18.17l-1.49,2.6a.47.47,0,0,0,.17.65.46.46,0,0,0,.23.06h1v7.65h-1a.47.47,0,0,0-.47.47.39.39,0,0,0,.07.23l1.49,2.6a.47.47,0,0,0,.65.17.46.46,0,0,0,.17-.17l1.5-2.6a.47.47,0,0,0-.41-.7h-1V30.14Zm-2.18-.94"/></svg>