<svg id="Слой_1" data-name="Слой 1" xmlns="http://www.w3.org/2000/svg" viewBox="0 0 141.73 141.73"><defs><style>.cls-1{fill:#636462;}</style></defs><title>Icons GS </title><path class="cls-1" d="M74.61,32.93l-.9.14-6,14.87c11-3.46,22.92-4.7,32.79-2.57,19.27,4.17,23,10.31,23,10.31S114.38,27.32,74.61,32.93Z"/><polygon class="cls-1" points="40.72 11.11 28.87 15.45 22.21 33.39 35.55 28.51 40.72 11.11"/><polygon class="cls-1" points="74.39 14.28 57.72 4.88 45.87 9.22 61.06 19.16 74.39 14.28"/><polygon class="cls-1" points="57.82 20.35 43.62 11.05 38.78 27.32 57.82 20.35"/><polygon class="cls-1" points="23.16 35.97 55.31 54.12 36.23 31.18 23.16 35.97"/><polygon class="cls-1" points="38.99 30.17 59.46 53.33 59.5 22.65 38.99 30.17"/><polygon class="cls-1" points="62.52 51.49 75.33 16.85 62.26 21.64 62.52 51.49"/><path class="cls-1" d="M36.39,48.45C19.86,60.91,11.64,82.58,23.05,101.53c0,0-4.85-17.14,17.72-38.7,3.4-3.25,5.69-4.27,10.44-6.84Z"/></svg>