<svg id="Слой_1" data-name="Слой 1" xmlns="http://www.w3.org/2000/svg" viewBox="0 0 76.67 69.33"><defs><style>.cls-1{fill:#e84157;}</style></defs><title>Icons GS </title><path class="cls-1" d="M69.84,54.44a8.5,8.5,0,0,1-.4,2,9.08,9.08,0,0,1-8.6,6.44c-2.55,0-5.09,0-7.63,0a1.55,1.55,0,0,1-1.67-1.52,1.57,1.57,0,0,1,1.68-1.53c2.5,0,5,0,7.51,0a6.05,6.05,0,0,0,.34-12.09c-2.33-.1-4.66,0-7-.05a2.16,2.16,0,0,0-.26.07l1.75,1.73a1.56,1.56,0,0,1,.54,1.41,1.5,1.5,0,0,1-2.53.92c-1.59-1.5-3.12-3.06-4.64-4.63A1.43,1.43,0,0,1,49,45c1.51-1.54,3-3,4.56-4.56a1.49,1.49,0,0,1,2.13,0,1.46,1.46,0,0,1,.06,2.12c-.59.63-1.25,1.2-1.88,1.79l.08.14a3.42,3.42,0,0,0,.46,0h6.1a9.12,9.12,0,0,1,9.26,7.81A7.89,7.89,0,0,1,69.84,54.44Z"/><path class="cls-1" d="M45.4,27.8H57.69v6.85A7.43,7.43,0,0,0,54.63,34a7.65,7.65,0,0,0-5.35,2.21c-1.57,1.52-3.1,3.07-4.53,4.52a7.45,7.45,0,0,0-.67,10H41.46q-13.23,0-26.49,0c0-8.65,0-10.8,0-16.18V27.81H27.27V28c0,2.4,0,4.79,0,7.19a4.5,4.5,0,0,0,2.34,4.22,4.44,4.44,0,0,0,2.14.56A4.91,4.91,0,0,0,34.54,39l1.09-.72.72-.48.71.48c.39.25.77.51,1.15.77a4.75,4.75,0,0,0,2.7.88,4.53,4.53,0,0,0,4.49-4.69c0-2.39,0-4.78,0-7.17V27.8m-.68-3H42.4v.77c0,3.24,0,6.48,0,9.72a1.52,1.52,0,0,1-.8,1.5,1.48,1.48,0,0,1-.69.18,1.73,1.73,0,0,1-1-.36c-1-.68-2-1.32-3-2a1.05,1.05,0,0,0-.59-.23.93.93,0,0,0-.54.22c-1,.7-2,1.32-2.95,2a2,2,0,0,1-1.09.4,1.45,1.45,0,0,1-.7-.19,1.58,1.58,0,0,1-.78-1.57c0-3.26,0-6.52,0-9.77v-.63H13.81c-1.3,0-1.83.54-1.83,1.85,0,12.94,0,12.17,0,25.11a1.75,1.75,0,0,0,2,2h0q18.3,0,36.6,0l.62,0-.44-.47c-1.28-1.28-2.57-2.55-3.83-3.84a4.51,4.51,0,0,1,0-6.56c1.48-1.51,3-3,4.48-4.48A4.65,4.65,0,0,1,54.63,37a4.57,4.57,0,0,1,4.42,3.57c.08.34.11.83.33,1a.83.83,0,0,0,.39.08c.23,0,.49,0,.71,0a.58.58,0,0,0,.19-.06c0-.16,0-.33,0-.49,0-9.36,0-5,0-14.37,0-1.31-.53-1.83-1.85-1.83H44.72Z"/><path class="cls-1" d="M33.29,32.63V24.84h6.09v7.79l-2-1.3a1.58,1.58,0,0,0-2.16,0Z"/><path class="cls-1" d="M60.61,14.62v4.51H12.18V14.62H60.61m.4-3H11.19a2,2,0,0,0-2,2v6.48a2,2,0,0,0,2,2H60.92a2.68,2.68,0,0,0,2.69-2.69V14.22a2.59,2.59,0,0,0-2.6-2.6Z"/></svg>