<svg id="Слой_1" data-name="Слой 1" xmlns="http://www.w3.org/2000/svg" viewBox="0 0 69 63"><defs><style>.cls-1{opacity:0.9;}.cls-2{fill:#e84157;}</style></defs><title>Icons GS </title><g class="cls-1"><rect class="cls-2" x="27.18" y="29.37" width="6.64" height="0.97"/><rect class="cls-2" x="36.16" y="29.37" width="9.77" height="0.97"/><rect class="cls-2" x="27.18" y="21.66" width="6.64" height="0.97"/><rect class="cls-2" x="36.16" y="21.66" width="9.77" height="0.97"/><rect class="cls-2" x="27.18" y="25.51" width="9.77" height="0.97"/><rect class="cls-2" x="39.29" y="25.51" width="6.64" height="0.97"/><path class="cls-2" d="M57.26,13.14H17.93a6,6,0,0,0-6.08,6V44.72a6,6,0,0,0,6.08,6H57.26a6.05,6.05,0,0,0,6.09-6V19.14A6.05,6.05,0,0,0,57.26,13.14ZM36.83,42.2,36.54,42C31.1,37.63,16.86,26.3,16.22,25.88l.54-.81c.29.19,2.76,2.13,5.89,4.61V21.21c0-3.31.75-4.06,4.12-4.06h19c3.36,0,4.63,1,4.63,4.3V31l6.5-4.81.59.78Z"/></g></svg>