<svg id="Слой_1" data-name="Слой 1" xmlns="http://www.w3.org/2000/svg" viewBox="0 0 75 66"><defs><style>.cls-1{fill:#e84157;}</style></defs><title>Icons GS </title><path class="cls-1" d="M40.94,16.77,38.52,14l-.14-.15h-.2l-8.33,0h-.2l-.14.16-2.27,2.63L27,17l.28.29,6.27,6.48.31.32.33-.3,6.75-6.39.32-.3Zm-5.17-2H38l1.71,2h-3.1ZM36,16.69H32l.7-1.93h2.59Zm-5.95-1.92h2l-.71,1.93h-3Zm-1.4,2.39.07,0h2.67l2,5.07-4.92-5.08Zm3.27,0h4l-2.13,4.95Zm4.58,0h3.2l-5.41,5.12Z"/><path class="cls-1" d="M34.09,60.62c-10.23,0-18.55-8.06-18.55-18s8.32-18,18.55-18,18.55,8.06,18.55,18S44.32,60.62,34.09,60.62Zm0-34.92c-9.67,0-17.55,7.61-17.55,17s7.88,17,17.55,17,17.55-7.61,17.55-17S43.77,25.7,34.09,25.7Zm0,31.35A14.65,14.65,0,0,1,19.23,42.66,14.65,14.65,0,0,1,34.09,28.27,14.65,14.65,0,0,1,49,42.66,14.64,14.64,0,0,1,34.09,57.05Zm0-27.78A13.65,13.65,0,0,0,20.23,42.66,13.65,13.65,0,0,0,34.09,56.05,13.64,13.64,0,0,0,48,42.66,13.64,13.64,0,0,0,34.09,29.27Z"/><path class="cls-1" d="M56.2,57.35h8.66a.6.6,0,0,0,.6-.61V26a.6.6,0,0,0-.6-.6H56.2a.6.6,0,0,0-.6.6V56.74a.6.6,0,0,0,.6.61Zm.6-4.07h1.49a.61.61,0,1,0,0-1.21H56.8v-2h1.49a.61.61,0,1,0,0-1.21H56.8v-2h2.85a.61.61,0,0,0,0-1.21H56.8v-2h1.49a.61.61,0,1,0,0-1.21H56.8v-2h1.49a.61.61,0,1,0,0-1.21H56.8v-2h2.85a.61.61,0,0,0,0-1.21H56.8V34h1.49a.61.61,0,1,0,0-1.21H56.8v-2h1.49a.61.61,0,1,0,0-1.21H56.8V26.66h7.45V56.14H56.8Zm0,0"/><path class="cls-1" d="M35.59,34.46a.48.48,0,0,0,.47-.47.47.47,0,0,0-.11-.31L34.5,31.15a.47.47,0,0,0-.64-.17.49.49,0,0,0-.18.17l-1.49,2.6a.46.46,0,0,0,.17.64.48.48,0,0,0,.23.07h1V50.11h-1a.45.45,0,0,0-.47.46.4.4,0,0,0,.07.24l1.49,2.6a.48.48,0,0,0,.65.17.46.46,0,0,0,.17-.17l1.5-2.6a.47.47,0,0,0-.41-.7h-1V34.46Zm-2.18-.94"/></svg>