<svg id="Слой_1" data-name="Слой 1" xmlns="http://www.w3.org/2000/svg" viewBox="0 0 141.73 141.73"><defs><style>.cls-1{fill:#636462;}</style></defs><title>Icons GS </title><polygon class="cls-1" points="63.41 15.63 60.96 9.14 75 6.38 85.21 8.61 84.46 14.99 71.49 17.86 63.41 15.63"/><path class="cls-1" d="M99.24,128.51S45.38,159.06,18,116.06c-7.23-12.53-2.6-30.48,6.11-43.22C34,58.44,48.55,50,48.55,50s.22,10.86,23.76,11.77c0,0-29.42,11.31-37.79,37.57S54,149.11,99.24,128.51Z"/><path class="cls-1" d="M39,117.26s23,15.4,56.66-5.31c32-19.69,29.32-42.59,23.87-51.16C132,70.25,140.44,91.59,108,117.13,75.42,142.83,42.9,129,39,117.26Z"/><path class="cls-1" d="M135.82,87.26s3.72-21.42-15.56-28.87c-11.06-4.84-22.9-3.15-22.9-3.15s9.59-9,8.24-16.69C120.93,40.69,143.49,57.94,135.82,87.26Z"/><path class="cls-1" d="M51.24,39.49S58.12,49.86,73.68,49s24-7.67,25.49-17.82c4,1.13,9.25,8.69-2.48,19.74C93.5,53.88,84,59,70.75,58.09,52.63,56.85,46.17,45.58,51.24,39.49Z"/><path class="cls-1" d="M92,39.05S87.79,44.42,75.91,45c-.76-6.51-2.49-15.9-2.49-15.9l21.46-5.37Z"/><path class="cls-1" d="M70.55,30.05,73.23,44.8a23.37,23.37,0,0,1-13.41-2.87c-2.11-6.52-4.8-14-4.8-14Z"/><polygon class="cls-1" points="52.53 26.6 57.32 40.39 52.73 37.14 43.53 18.55 52.53 26.6"/><polygon class="cls-1" points="53.49 8.36 45.56 17.41 53.49 24.68 60.98 16.33 58.11 9.57 53.49 8.36"/><polygon class="cls-1" points="70.11 27.12 56.78 25.91 62.8 18.34 69.94 20.2 70.11 27.12"/><polygon class="cls-1" points="72.6 26.92 72.7 20.27 84.3 17.63 93.51 22.02 72.6 26.92"/><path class="cls-1" d="M93.73,37.45,97,22.6l5.19-6.07S98,32.47,93.73,37.45Z"/><polygon class="cls-1" points="101 15.25 95.34 7.83 88.44 8.2 86.71 15.81 95.7 20.92 101 15.25"/><path class="cls-1" d="M85.46,4.62l-8.78-.37-.12.43S86.7,6.82,86.63,6.87l6.64-.39Z"/><polygon class="cls-1" points="66.96 4.34 55.58 7.15 58.66 7.7 73.91 4.56 75 4.26 66.96 4.34"/></svg>