<svg xmlns="http://www.w3.org/2000/svg" width="74" height="22" viewBox="0 0 74 22"><g fill="none"><path d="M6.51 14.9a5.36 5.36 0 00-1.2-.55 4.4 4.4 0 00-2.15-.1c-.25.05-.46.14-.64.26-.18.11-.32.25-.41.41a1 1 0 00-.15.54c0 .19.04.34.13.47.08.13.2.24.37.33.16.09.35.16.59.22.23.06.49.11.78.15l.63.08c.36.05.72.13 1.06.24.35.1.66.25.93.44a2 2 0 01.66.7c.16.29.25.63.25 1.04 0 .44-.1.84-.3 1.18a2.7 2.7 0 01-.78.87c-.33.23-.71.4-1.15.53a5.16 5.16 0 01-2.33.1 6.76 6.76 0 01-1.9-.58 4.6 4.6 0 01-.78-.52l.8-1.13c.15.14.34.27.55.39a4.88 4.88 0 003.1.5c.25-.07.47-.15.66-.27.2-.1.34-.25.45-.4a.94.94 0 00.16-.55c0-.34-.17-.6-.51-.78a4.73 4.73 0 00-1.51-.4l-.7-.1a5.61 5.61 0 01-.98-.22 2.8 2.8 0 01-.86-.44 2.15 2.15 0 01-.6-.72 2.19 2.19 0 01-.23-1.04 2.4 2.4 0 011.04-2.03c.32-.23.7-.4 1.13-.53a5.82 5.82 0 014.64.76L6.5 14.9zm4.91.67a3 3 0 011.18.23c.36.16.67.37.92.65a3 3 0 01.6 1 3.66 3.66 0 01.2 1.76H9.75c.04.28.12.5.24.7a1.65 1.65 0 00.96.75 2.76 2.76 0 001.56-.08c.31-.11.6-.27.85-.47l.67.93a3.1 3.1 0 01-1.2.66c-.42.13-.86.19-1.33.19a3.5 3.5 0 01-1.28-.23 2.9 2.9 0 01-1.64-1.63 3.48 3.48 0 01-.24-1.3c0-.47.08-.9.23-1.28a2.81 2.81 0 011.6-1.64c.37-.16.79-.24 1.24-.24zm-.02 1.17c-.24 0-.46.04-.64.1a1.4 1.4 0 00-.48.31 1.6 1.6 0 00-.34.47c-.08.18-.14.38-.18.6h3.2a1.85 1.85 0 00-.51-1.1 1.45 1.45 0 00-1.05-.38zm7.15-1.17c.46 0 .9.08 1.3.25.39.16.73.4 1 .71l-.86.9a2.6 2.6 0 00-.68-.46c-.24-.1-.5-.16-.8-.16a1.84 1.84 0 00-1.3.53 2 2 0 00-.52 1.39c0 .29.04.55.14.78a1.73 1.73 0 001.68 1.14c.3 0 .57-.05.83-.17.26-.12.48-.27.68-.45l.83.9c-.28.32-.62.56-1.02.72a3.53 3.53 0 01-2.62 0 2.94 2.94 0 01-1.68-1.66 3.44 3.44 0 01.01-2.51 2.93 2.93 0 011.68-1.66c.4-.17.84-.25 1.33-.25zm9.2 3.62c0 .48-.08.88-.25 1.23a2.4 2.4 0 01-1.55 1.32 3.67 3.67 0 01-2.11 0 2.35 2.35 0 01-1.56-1.32 2.86 2.86 0 01-.25-1.23v-3.46h1.36v3.34c0 .29.03.53.11.74.08.2.19.36.32.49.14.12.3.21.48.27a2.02 2.02 0 001.18 0c.19-.06.35-.15.48-.27.14-.13.24-.3.32-.5.08-.2.12-.44.12-.73v-3.34h1.35v3.46zm4.9-3.62a3.27 3.27 0 011.05.17l-.33 1.3a2.72 2.72 0 00-1.02-.22c-.21 0-.41.04-.6.1-.17.08-.33.18-.46.32-.12.14-.22.3-.3.5a2 2 0 00-.1.7v3.3h-1.35v-6h1.33v.67c.2-.3.46-.5.77-.64.3-.13.64-.2 1.02-.2zm4.53 0a3 3 0 011.18.23 2.75 2.75 0 011.52 1.65 3.67 3.67 0 01.19 1.76H35.5c.04.28.12.5.24.7a1.66 1.66 0 00.96.75 2.76 2.76 0 001.56-.08c.31-.11.6-.27.86-.47l.67.93c-.38.32-.78.54-1.2.66-.43.13-.87.19-1.34.19a3.5 3.5 0 01-1.27-.23 2.9 2.9 0 01-1.65-1.63 3.48 3.48 0 01-.23-1.3c0-.47.07-.9.22-1.28a2.81 2.81 0 011.6-1.64c.38-.16.8-.24 1.25-.24zm-.03 1.17c-.24 0-.45.04-.64.1a1.4 1.4 0 00-.48.31 1.6 1.6 0 00-.33.47 1.9 1.9 0 00-.18.6h3.2a1.85 1.85 0 00-.52-1.1 1.45 1.45 0 00-1.05-.38zm8.75-3.94a5.29 5.29 0 012.2.49 4 4 0 011.53 1.34l-1.22.8a2.93 2.93 0 00-2.51-1.27c-.46 0-.89.08-1.28.23a2.99 2.99 0 00-1.67 1.66c-.17.4-.25.83-.25 1.3 0 .47.08.9.25 1.3a3 3 0 002.95 1.89 2.97 2.97 0 002.51-1.26l1.18.84a3.82 3.82 0 01-1.54 1.3 4.6 4.6 0 01-2.15.48c-.7 0-1.33-.12-1.9-.35a4.3 4.3 0 01-2.46-2.39 4.68 4.68 0 01-.36-1.81c0-.66.12-1.26.35-1.82a4.3 4.3 0 012.46-2.39 5.14 5.14 0 011.9-.34zm7.94 2.77c.48 0 .92.08 1.33.25a3.04 3.04 0 012 2.92 3.1 3.1 0 01-2 2.9 3.6 3.6 0 01-2.65.01 3.06 3.06 0 01-2-2.92 3.1 3.1 0 012-2.91c.4-.17.85-.25 1.32-.25zm0 1.24c-.27 0-.53.05-.76.14a1.82 1.82 0 00-1.02 1 2 2 0 00-.15.78 2 2 0 00.15.78 1.83 1.83 0 001.78 1.15c.28 0 .53-.05.77-.15a1.86 1.86 0 001.02-1 2 2 0 00.15-.78 2 2 0 00-.15-.78 1.82 1.82 0 00-1.02-1c-.24-.1-.5-.14-.77-.14zm7.37-1.24a2.4 2.4 0 011.94.88v-3.74h1.34v9.02h-1.34v-.72a2.37 2.37 0 01-1.94.88 3.08 3.08 0 01-2.19-.89 3.3 3.3 0 01-.9-2.27c0-.46.09-.88.25-1.27a3.02 3.02 0 012.84-1.89zm.16 1.24a1.75 1.75 0 00-1.73 1.18 2.15 2.15 0 00.37 2.1 1.75 1.75 0 001.36.57c.28 0 .53-.05.76-.15a1.75 1.75 0 00.97-1.01c.09-.24.13-.5.13-.77s-.04-.53-.13-.76a1.81 1.81 0 00-.97-1.01 1.9 1.9 0 00-.76-.15zm7.6-1.24c.43 0 .82.08 1.18.23.36.16.67.37.92.65a3 3 0 01.6 1 3.65 3.65 0 01.2 1.76H67.3c.04.28.12.5.23.7a1.65 1.65 0 00.97.75 2.76 2.76 0 001.56-.08c.31-.11.6-.27.85-.47l.67.93c-.38.32-.78.54-1.2.66a4.5 4.5 0 01-1.33.19 3.5 3.5 0 01-1.28-.23 2.9 2.9 0 01-1.65-1.63 3.48 3.48 0 01-.23-1.3c0-.47.08-.9.23-1.28a2.81 2.81 0 011.6-1.64c.37-.16.79-.24 1.24-.24zm3.56 6.16v-.3h.12v-.06h-.31v.06h.12v.3h.07zm.62 0v-.36h-.1l-.11.25-.11-.25h-.1v.36h.07v-.27l.1.23h.07l.1-.23v.27h.08zm-4.2-4.99c-.24 0-.46.04-.64.1a1.4 1.4 0 00-.49.31 1.6 1.6 0 00-.33.47c-.08.18-.14.38-.18.6h3.2a1.85 1.85 0 00-.51-1.1 1.45 1.45 0 00-1.05-.38z" fill="#A9A9A9"/><path d="M10.94 9.36h-1.5V1.87L6.7 8.47H5.12L2.39 1.94v7.42H.88V.26h2.31l2.72 6.5L8.63.26h2.31v9.1zm7.94 0H17.5V8.6a2.45 2.45 0 01-2 .91 3.21 3.21 0 01-2.28-.92 3.13 3.13 0 01-.68-1.04 3.53 3.53 0 010-2.63 3.14 3.14 0 014.13-1.71c.33.17.6.39.83.67v-.76h1.4v6.23zm-3.23-5.11c-.3 0-.58.05-.81.16a1.81 1.81 0 00-.99 1.06 2.22 2.22 0 00.38 2.18 2 2 0 00.6.43c.24.1.51.16.82.16a1.83 1.83 0 001.79-1.2 2.28 2.28 0 000-1.59 1.84 1.84 0 00-1.79-1.2zm9.64.44a3.9 3.9 0 00-1.38-.48c-.2-.03-.4-.05-.6-.05-.38 0-.67.07-.88.2-.22.14-.32.32-.32.54 0 .1.03.2.08.27.06.08.13.14.23.18.09.05.2.09.33.12l.41.07.66.1c.7.1 1.25.3 1.64.6.4.3.59.7.59 1.24a1.74 1.74 0 01-.77 1.46 2.8 2.8 0 01-.91.42 4.66 4.66 0 01-1.8.12 4.92 4.92 0 01-2.18-.77l.65-1.02a3.34 3.34 0 00.84.45 3.57 3.57 0 001.27.2c.48 0 .84-.08 1.09-.21.24-.14.37-.33.37-.56 0-.18-.1-.32-.27-.44a2.2 2.2 0 00-.84-.25l-.67-.08c-.71-.1-1.25-.3-1.62-.61a1.51 1.51 0 01-.55-1.22 1.74 1.74 0 01.71-1.46c.23-.17.5-.3.83-.4a5.68 5.68 0 012.52.03c.45.12.84.28 1.17.5l-.6 1.05zm6.62-.32h-2.45v2.7c0 .21.03.4.08.54a1 1 0 00.22.36 1.05 1.05 0 00.72.27c.22 0 .44-.04.66-.12.23-.09.44-.19.63-.3l.55 1.08c-.26.17-.55.32-.87.44-.32.12-.69.18-1.1.18a2.3 2.3 0 01-1.68-.59c-.4-.39-.6-1-.6-1.83V4.37h-1.28V3.13h1.27V1.25h1.4v1.88h2.45v1.24zm4.3-1.4c.44 0 .85.08 1.22.24a2.97 2.97 0 011.58 1.7 3.8 3.8 0 01.2 1.84h-4.73c.04.28.12.52.24.72a1.72 1.72 0 001 .77c.21.06.43.1.66.1a3.13 3.13 0 001.85-.66l.7.96c-.4.33-.81.56-1.25.69-.44.13-.9.19-1.39.19-.48 0-.92-.08-1.32-.23a3 3 0 01-1.7-1.7 3.4 3.4 0 01-.25-1.34c0-.49.08-.93.24-1.34a2.91 2.91 0 011.66-1.7 3.4 3.4 0 011.29-.24zm-.03 1.2a2 2 0 00-.67.12 1.5 1.5 0 00-.5.31c-.14.14-.25.3-.34.5a2.3 2.3 0 00-.19.61h3.32a1.92 1.92 0 00-.53-1.13 1.5 1.5 0 00-1.1-.4zm7.88-1.2a3.56 3.56 0 011.08.18l-.34 1.34a2.83 2.83 0 00-1.06-.23c-.22 0-.43.04-.61.11a1.3 1.3 0 00-.48.33c-.14.14-.24.32-.32.52-.07.21-.11.45-.11.71v3.43h-1.4V3.13h1.39v.7c.21-.3.47-.51.79-.65a2.6 2.6 0 011.06-.21zm4.77 0c.48 0 .93.08 1.35.25.4.17.76.42 1.04.74l-.9.93a2.6 2.6 0 00-.7-.47 2 2 0 00-2.17.39 2.07 2.07 0 00-.54 1.43c0 .3.04.57.14.81a1.78 1.78 0 001 1.04 2.03 2.03 0 001.6-.04c.27-.12.5-.27.71-.46l.86.94c-.29.33-.64.57-1.05.74a3.5 3.5 0 01-1.34.25c-.5 0-.96-.08-1.38-.25a3.05 3.05 0 01-1.74-1.73c-.16-.4-.24-.83-.24-1.3 0-.46.08-.9.24-1.3a3.05 3.05 0 011.74-1.72c.42-.17.88-.25 1.38-.25zm9.83 6.39h-1.4V8.6a2.45 2.45 0 01-2 .91 3.21 3.21 0 01-2.27-.92 3.13 3.13 0 01-.69-1.04c-.16-.4-.24-.84-.24-1.32 0-.47.08-.91.24-1.31a3.14 3.14 0 014.14-1.71c.33.17.6.39.82.67v-.76h1.4v6.23zm-3.24-5.11c-.3 0-.57.05-.8.16a1.81 1.81 0 00-1 1.06 2.24 2.24 0 00.39 2.18c.16.18.36.32.6.43.24.1.5.16.81.16a1.83 1.83 0 001.79-1.2 2.26 2.26 0 000-1.59 1.84 1.84 0 00-1.79-1.2zm8.53-1.28a3.56 3.56 0 011.08.18l-.34 1.34a2.84 2.84 0 00-1.06-.23c-.22 0-.43.04-.61.11a1.3 1.3 0 00-.48.33c-.14.14-.24.32-.32.52-.07.21-.11.45-.11.71v3.43h-1.4V3.13h1.39v.7c.21-.3.47-.51.8-.65.3-.14.66-.21 1.05-.21zm4.58 0c.46 0 .85.08 1.18.25.33.17.6.39.83.67V0h1.4v9.36h-1.4V8.6a2.45 2.45 0 01-2 .91 3.21 3.21 0 01-2.28-.92 3.14 3.14 0 01-.68-1.04 3.53 3.53 0 010-2.63 3.15 3.15 0 012.95-1.96zm5.03 5.81a.41.41 0 01.39.24.37.37 0 010 .31.42.42 0 01-.55.21.41.41 0 01-.22-.2.37.37 0 01-.03-.16c0-.06 0-.1.03-.16a.4.4 0 01.22-.2.3.3 0 01.16-.04zm0 .7a.31.31 0 00.3-.18.3.3 0 00.02-.12.3.3 0 00-.1-.22.32.32 0 00-.22-.09.32.32 0 00-.22.09.3.3 0 00.1.5l.12.03zM73.6 9c.05 0 .08.01.11.03a.1.1 0 01.04.09.1.1 0 01-.03.08.15.15 0 01-.1.03l.13.14h-.1l-.1-.14h-.05v.14h-.08V9h.18zm-.1.07v.1h.1a.1.1 0 00.05-.01l.02-.04c0-.02 0-.03-.02-.04a.1.1 0 00-.05 0h-.1zm-4.8-4.81c-.3 0-.57.05-.8.16a1.81 1.81 0 00-.99 1.06 2.24 2.24 0 00.38 2.18 2 2 0 00.6.43c.24.1.52.16.82.16a1.83 1.83 0 001.79-1.2 2.26 2.26 0 000-1.59 1.84 1.84 0 00-1.79-1.2z" fill="#636363"/></g></svg>