<svg id="Layer_1" data-name="Layer 1" xmlns="http://www.w3.org/2000/svg" viewBox="0 0 387.07 137.84"><defs><style>.cls-1{fill:#231f20;}</style></defs><path class="cls-1" d="M153.1,245.25c0,2.9,0,5.94-1.84,8.35a7.72,7.72,0,0,1-6.27,3,10.21,10.21,0,0,1-6.47-2.71l2.27-3.13c1.3,1.2,2.41,2.07,4.29,2.07,4,0,4-4.73,4-7.58V216.43h4.06Z" transform="translate(-89.93 -214.55)"/><path class="cls-1" d="M167.79,216.43h18.87v3.77H171.84V231h14.39v3.77H171.84v14.29h14.82v3.76H167.79Z" transform="translate(-89.93 -214.55)"/><path class="cls-1" d="M211.27,243.71l11.78-29.16,11.78,29.16,9.56-27.28h4.4l-14,38.28-11.78-29.3-11.78,29.3-14-38.28h4.39Z" transform="translate(-89.93 -214.55)"/><path class="cls-1" d="M259.7,216.43h18.88v3.77H263.76V231h14.38v3.77H263.76v14.29h14.82v3.76H259.7Z" transform="translate(-89.93 -214.55)"/><path class="cls-1" d="M295.66,249.07h10v3.76H291.6v-36.4h4.06Z" transform="translate(-89.93 -214.55)"/><path class="cls-1" d="M320.71,249.07h10v3.76h-14.1v-36.4h4.06Z" transform="translate(-89.93 -214.55)"/><path class="cls-1" d="M341.7,216.43h18.88v3.77H345.75V231h14.39v3.77H345.75v14.29h14.83v3.76H341.7Z" transform="translate(-89.93 -214.55)"/><path class="cls-1" d="M377.65,252.83h-4v-36.4h5.26c6.91,0,13.33,1.83,13.33,10,0,5.6-3.53,9.56-9.13,10l11.59,16.32h-5l-11-16h-1Zm0-19.55h1.26c4.59,0,9.22-.87,9.22-6.52,0-6-4.39-6.56-9.27-6.56h-1.21Z" transform="translate(-89.93 -214.55)"/><path class="cls-1" d="M422,223.53c-1.45-2.51-3.19-4-6.28-4a5.78,5.78,0,0,0-6,5.65c0,3.13,3.23,4.58,5.69,5.69l2.42,1.07c4.73,2.07,8.74,4.44,8.74,10.23a11.49,11.49,0,0,1-22.79,1.84l4-1.12a7.5,7.5,0,0,0,7.29,6.76,7.31,7.31,0,0,0,7.48-7.09c0-4.25-3.33-5.7-6.71-7.25l-2.22-1c-4.25-1.93-7.92-4.1-7.92-9.32,0-5.65,4.78-9.27,10.19-9.27a10.45,10.45,0,0,1,9.41,5.65Z" transform="translate(-89.93 -214.55)"/><path class="cls-1" d="M98.77,296l-4.4,10.33H89.93l16.8-38.14,16.37,38.14h-4.49L114.31,296Zm7.87-18.34-6.23,14.58h12.31Z" transform="translate(-89.93 -214.55)"/><path class="cls-1" d="M149.9,277.07c-1.45-2.51-3.19-4-6.28-4a5.78,5.78,0,0,0-6,5.65c0,3.14,3.23,4.58,5.69,5.69l2.42,1.07c4.73,2.07,8.74,4.44,8.74,10.23a11.49,11.49,0,0,1-22.79,1.84l4-1.11a7.51,7.51,0,0,0,7.29,6.76,7.32,7.32,0,0,0,7.48-7.1c0-4.25-3.33-5.7-6.71-7.24l-2.22-1c-4.25-1.93-7.92-4.1-7.92-9.32,0-5.65,4.78-9.27,10.19-9.27a10.44,10.44,0,0,1,9.41,5.65Z" transform="translate(-89.93 -214.55)"/><path class="cls-1" d="M183.73,277.07c-1.44-2.51-3.18-4-6.27-4a5.78,5.78,0,0,0-6,5.65c0,3.14,3.24,4.58,5.7,5.69l2.41,1.07c4.74,2.07,8.74,4.44,8.74,10.23a11.49,11.49,0,0,1-22.78,1.84l3.95-1.11a7.51,7.51,0,0,0,7.29,6.76,7.33,7.33,0,0,0,7.49-7.1c0-4.25-3.33-5.7-6.71-7.24l-2.22-1c-4.25-1.93-7.92-4.1-7.92-9.32,0-5.65,4.78-9.27,10.18-9.27A10.45,10.45,0,0,1,187,275Z" transform="translate(-89.93 -214.55)"/><path class="cls-1" d="M236.86,288.22a19,19,0,1,1-19-18.88A18.88,18.88,0,0,1,236.86,288.22ZM203,288.17a14.92,14.92,0,1,0,14.91-15.06A15.05,15.05,0,0,0,203,288.17Z" transform="translate(-89.93 -214.55)"/><path class="cls-1" d="M277.45,277.94a15.55,15.55,0,0,0-11.1-4.83c-8.12,0-14.68,7.05-14.68,15.06s6.61,15.07,14.77,15.07a16,16,0,0,0,11-4.83v5A18.74,18.74,0,0,1,266.59,307a18.83,18.83,0,1,1,0-37.66,17.56,17.56,0,0,1,10.86,3.58Z" transform="translate(-89.93 -214.55)"/><path class="cls-1" d="M295.1,306.37h-4.05V270h4.05Z" transform="translate(-89.93 -214.55)"/><path class="cls-1" d="M314.86,296l-4.39,10.33H306l16.8-38.14,16.37,38.14h-4.49L330.41,296Zm7.87-18.34-6.22,14.58h12.31Z" transform="translate(-89.93 -214.55)"/><path class="cls-1" d="M356.84,306.37h-4V273.74H344V270h21.73v3.77h-8.89Z" transform="translate(-89.93 -214.55)"/><path class="cls-1" d="M380.87,306.37h-4.05V270h4.05Z" transform="translate(-89.93 -214.55)"/><path class="cls-1" d="M431.58,288.22a19,19,0,1,1-19-18.88A18.87,18.87,0,0,1,431.58,288.22Zm-33.89-.05a14.92,14.92,0,1,0,14.92-15.06A15.06,15.06,0,0,0,397.69,288.17Z" transform="translate(-89.93 -214.55)"/><path class="cls-1" d="M444.56,268.43l28.38,29.74V270H477v38l-28.39-29.7v28.05h-4.05Z" transform="translate(-89.93 -214.55)"/><path class="cls-1" d="M122.32,336.85A10.35,10.35,0,1,1,112,326.55,10.3,10.3,0,0,1,122.32,336.85Zm-18.49,0A8.14,8.14,0,1,0,112,328.6,8.22,8.22,0,0,0,103.83,336.82Z" transform="translate(-89.93 -214.55)"/><path class="cls-1" d="M130.66,328.94v5.9h6.61v2.06h-6.61v9.85h-2.21V326.89h9v2.05Z" transform="translate(-89.93 -214.55)"/><path class="cls-1" d="M158.44,341.11l-2.4,5.64h-2.42l9.17-20.81,8.92,20.81h-2.45l-2.34-5.64Zm4.29-10-3.39,8h6.71Z" transform="translate(-89.93 -214.55)"/><path class="cls-1" d="M178.09,338.72c0,1.47-.05,3.16.87,4.42a5.14,5.14,0,0,0,4,1.9,5.23,5.23,0,0,0,3.9-1.77c1-1.26,1-3,1-4.55V326.89h2.21v12.43c0,2.16-.16,3.87-1.74,5.5a7.28,7.28,0,0,1-5.35,2.27,7.4,7.4,0,0,1-5.13-2c-1.74-1.66-2-3.47-2-5.74V326.89h2.21Z" transform="translate(-89.93 -214.55)"/><path class="cls-1" d="M205.66,330.76a3.64,3.64,0,0,0-3.42-2.16,3.15,3.15,0,0,0-3.29,3.08c0,1.71,1.76,2.5,3.1,3.11l1.32.58c2.58,1.13,4.77,2.42,4.77,5.58a6.27,6.27,0,0,1-12.43,1l2.16-.6a4.09,4.09,0,0,0,4,3.69,4,4,0,0,0,4.08-3.88c0-2.31-1.81-3.1-3.66-4l-1.21-.52c-2.31-1.06-4.32-2.24-4.32-5.09,0-3.08,2.61-5.05,5.56-5.05a5.71,5.71,0,0,1,5.14,3.08Z" transform="translate(-89.93 -214.55)"/><path class="cls-1" d="M219.43,346.75h-2.21V328.94h-4.79v-2.05h11.85v2.05h-4.85Z" transform="translate(-89.93 -214.55)"/><path class="cls-1" d="M231.64,346.75h-2.21V326.89h2.87c3.76,0,7.27,1,7.27,5.48a5.2,5.2,0,0,1-5,5.48l6.32,8.9H238.2l-6-8.72h-.55Zm0-10.67h.68c2.5,0,5-.47,5-3.55,0-3.27-2.39-3.59-5-3.59h-.66Z" transform="translate(-89.93 -214.55)"/><path class="cls-1" d="M250.23,341.11l-2.39,5.64h-2.43l9.17-20.81,8.93,20.81h-2.45l-2.35-5.64Zm4.3-10-3.4,8h6.72Z" transform="translate(-89.93 -214.55)"/><path class="cls-1" d="M270.83,344.69h5.48v2.06h-7.7V326.89h2.22Z" transform="translate(-89.93 -214.55)"/><path class="cls-1" d="M283.64,346.75h-2.21V326.89h2.21Z" transform="translate(-89.93 -214.55)"/><path class="cls-1" d="M293.54,341.11l-2.4,5.64h-2.42l9.17-20.81,8.92,20.81h-2.45L302,341.11Zm4.29-10-3.39,8h6.71Z" transform="translate(-89.93 -214.55)"/><path class="cls-1" d="M329.93,352.38h-2.05V326.05h2.05Z" transform="translate(-89.93 -214.55)"/><path class="cls-1" d="M355.42,325.76l7.22,16.67,7.24-16.67,4,21h-2.27l-2.55-13.43H369l-6.39,14.24-6.38-14.24h-.05l-2.56,13.43h-2.26Z" transform="translate(-89.93 -214.55)"/><path class="cls-1" d="M379.58,326.89h10.3v2.05h-8.09v5.9h7.85v2.06h-7.85v7.79h8.09v2.06h-10.3Z" transform="translate(-89.93 -214.55)"/><path class="cls-1" d="M399.08,325.76l7.22,16.67,7.24-16.67,4,21H415.3l-2.55-13.43h-.05l-6.4,14.24-6.38-14.24h-.05l-2.55,13.43h-2.27Z" transform="translate(-89.93 -214.55)"/><path class="cls-1" d="M423.24,326.89h3.27c3.6,0,6.63,1.32,6.63,5.37a4.38,4.38,0,0,1-1.95,3.87,5,5,0,0,1,3.77,5.09c0,3.95-3.18,5.53-7.11,5.53h-4.61Zm2.21,8.74h.85c2.5,0,4.63-.29,4.63-3.37s-1.89-3.32-4.61-3.32h-.87Zm0,9.06h2.22c2.47,0,5.08-.6,5.08-3.63s-2.95-3.53-5.37-3.53h-1.93Z" transform="translate(-89.93 -214.55)"/><path class="cls-1" d="M441.12,326.89h10.3v2.05h-8.08v5.9h7.84v2.06h-7.84v7.79h8.08v2.06h-10.3Z" transform="translate(-89.93 -214.55)"/><path class="cls-1" d="M459.87,346.75h-2.21V326.89h2.87c3.77,0,7.27,1,7.27,5.48a5.2,5.2,0,0,1-5,5.48l6.32,8.9h-2.71l-6-8.72h-.55Zm0-10.67h.69c2.5,0,5-.47,5-3.55,0-3.27-2.4-3.59-5.06-3.59h-.66Z" transform="translate(-89.93 -214.55)"/></svg>