<svg width="98" height="18" viewBox="0 0 98 18" xmlns="http://www.w3.org/2000/svg" xmlns:xlink="http://www.w3.org/1999/xlink"><defs><path id="a" d="M.02.1h14.15v17.88H.02z"/></defs><g fill="none" fill-rule="evenodd"><mask id="b" fill="#fff"><use xlink:href="#a"/></mask><path d="M7.94 16.93a1.07 1.07 0 001.36 1.03 7.49 7.49 0 002.9-1.28 4.68 4.68 0 001.97-3.69c.07-2.46-1.69-4.31-4.7-4.95-.57-.13-1.21-.2-1.9-.29-1.9-.24-4.06-.5-4.63-1.77a2.07 2.07 0 010-1.84c.4-.8 1.31-1.46 2.33-1.7 2.12-.5 4.8 0 6.4 1.2.46.34 1.12.32 1.5-.11.41-.47.33-1.18-.15-1.56A10.36 10.36 0 004.79.37a5.66 5.66 0 00-3.76 2.82A4.17 4.17 0 001 6.85c1.06 2.37 3.98 2.73 6.33 3.02.63.08 1.22.15 1.7.25 1.15.25 3.07.94 3.01 2.81-.04 1.66-1.58 2.58-3.1 2.93l-.11.02c-.5.1-.88.54-.88 1.05m-1.75-.06a1.06 1.06 0 01-1.37 1.02 9.24 9.24 0 01-4.5-2.55 1.1 1.1 0 01-.04-1.53 1.07 1.07 0 011.54.02 7 7 0 003.57 2.02c.47.1.8.54.8 1.02" fill="#EF4056" mask="url(#b)"/><path d="M36.6 10.26a1.1 1.1 0 011.66.09l4.2 5.5c.25.34.32.61.32.86 0 .57-.47 1.04-1.04 1.05-.44.01-.77-.16-1.04-.54l-4.2-5.53a1.1 1.1 0 01.1-1.43m-4.62 2.4a.5.5 0 00-.14.35v3.55c0 .73-.46 1.2-1.15 1.2s-1.18-.47-1.18-1.2V1.55c0-.74.5-1.2 1.18-1.2.69 0 1.15.46 1.15 1.2v8.03c0 .1.11.14.18.07L40.38.77c.27-.27.56-.42.9-.42.64 0 1.1.44 1.1 1.03 0 .42-.16.71-.58 1.13l-9.82 10.15M83.5 5.82V1.65c0-.65.52-1.18 1.17-1.18h11.3c.74 0 1.2.44 1.2 1.08 0 .66-.46 1.08-1.2 1.08H85.92a.1.1 0 00-.1.1v3.1a1.16 1.16 0 11-2.33 0m2.33 2.89h6.56c.74 0 1.15.34 1.15 1 0 .66-.41 1.03-1.15 1.03h-6.46a.1.1 0 00-.1.1v4.53c0 .05.05.1.1.1h10.05c.74 0 1.23.44 1.23 1.08 0 .66-.49 1.08-1.23 1.08h-11.3c-.65 0-1.18-.53-1.18-1.18V9.22c0-.28.23-.5.5-.5h1.83M61.67 7.5c-.43.62-1.34.62-1.77 0l-3.8-5.38c-.2-.3-.24-.52-.24-.79 0-.54.51-1 1.1-1 .42 0 .7.14.94.49l3.77 5.45c.25.37.25.86 0 1.23m6.7-6.68c.25-.35.52-.5.94-.5.59 0 1.1.47 1.1 1.01 0 .27-.07.52-.24.8l-5.74 8.22a.5.5 0 00-.09.29v5.91c0 .77-.47 1.23-1.18 1.23-.69 0-1.15-.46-1.15-1.23V10.8c0-.46.13-.9.4-1.28l5.96-8.7" fill="#EF4056"/></g></svg>