<svg xmlns="http://www.w3.org/2000/svg" width="39" height="22" viewBox="0 0 39 22"><g><g><g><path fill="#636363" d="M38.698.78H.09v21.328h38.608v-7.04a.572.572 0 0 0 .23-.468.526.526 0 0 0-.23-.468"/></g><g><path fill="#fff" d="M19.932 7.959c.14-.07.224-.227.224-.418 0-.18-.083-.322-.228-.388-.132-.073-.335-.08-.515-.08h-1.335v.976h1.318c.196 0 .382 0 .536-.09zm-16.365.696l-.74-1.75-.739 1.751h1.48zm25.767 0l-.748-1.75-.747 1.751h1.496zM16.241 6.159v.915H13.7v.79h2.478v.902H13.7v.877h2.54v.909h-3.625V6.159zm6.847 0v4.393H21.98V6.159zM1.702 9.572l-.42.98H.101l1.944-4.393h1.612l1.845 4.158V6.16h1.771l1.421 2.98 1.304-2.98h1.807v4.392h-1.112l-.004-3.44-1.574 3.44h-.952L6.586 7.109l-.001 3.445-2.207-.001-.416-.98h-2.26zM19.489 6.16c.564 0 .96.014 1.313.21.375.214.55.523.55.973 0 .876-.734 1.158-.765 1.17.246.091.447.251.537.37.154.22.179.418.179.807v.862h-1.094l-.005-.553.001-.086c.003-.258.006-.58-.172-.77-.16-.158-.412-.188-.791-.188h-1.164l-.001 1.599-1.085-.001V6.159zm7.963 3.413l-.41.98h-1.269c-.325 0-1.129-.048-1.573-.487-.402-.391-.58-.909-.58-1.677 0-.78.18-1.309.585-1.717.344-.345.883-.512 1.647-.512h1.051V7.1h-1.028c-.418 0-.628.066-.835.26-.199.199-.313.561-.313.995 0 .474.098.811.299 1.032.18.187.51.226.756.226h.487L27.8 6.16h1.626l1.837 4.155V6.159h1.653l1.907 3.059v-3.06h1.112v4.393h-1.538L32.34 7.256l-.001 3.298-2.21-.001-.422-.98h-2.254zM9.583 11.417l.325-.76v.757h9.066l-.004-1.601h.175c.124.004.16.014.16.211v1.39h4.688v-.372c.269.139.852.372 1.74.372h1.974l.422-.975h.935l.414.975h3.801v-.926l.575.926h3.047V5.288h-3.015v.723l-.422-.723H30.37v.723l-.388-.723h-4.18c-.761 0-1.354.116-1.81.357v-.357H21.11v.357c-.284-.244-.674-.357-1.226-.357H9.349L8.642 6.87l-.726-1.582H4.6v.723l-.366-.723H1.404L.09 8.2v3.214h1.854l.418-.975h.936l.416.975h3.649v-.745l.326.749h1.894z"/></g><g><path fill="#fff" d="M24.578 15.525a.472.472 0 0 0 .225-.422c0-.18-.08-.321-.225-.395-.13-.074-.311-.08-.518-.08h-1.337v.987h1.318c.207 0 .39-.007.537-.09zm-4.62-.358c0-.445-.36-.539-.663-.539H17.88v1.12h1.402c.43 0 .677-.212.677-.58zm18.74.735v-1.248H36.72c-.193 0-.328.006-.439.08-.108.068-.158.168-.158.316a.33.33 0 0 0 .237.327c.106.036.224.05.418.05l.588.015c.622.016 1.002.125 1.231.354.031.023.053.048.077.079l.003.004.006.006.014.018.001.002zm-26.202 1.295l1.24-1.289-1.187-1.28h-2.72v.8h2.382v.896H9.828v.873h2.668zm4.303-3.006l-1.666 1.733 1.664 1.788.002.002zm-2.365 2.469l-1.388 1.453H8.747V13.72h4.364l1.336 1.441 1.38-1.44h3.468c1.213 0 1.828.486 1.828 1.447 0 .991-.618 1.473-1.89 1.473H17.88v1.473h-2.11l-1.335-1.453zm8.29-.15v1.603h-1.09V13.72h2.505c.596 0 .961.032 1.305.208.386.226.558.527.558.976 0 .8-.589 1.096-.77 1.169.265.094.452.257.532.368.156.22.176.422.18.802v.871h-1.09v-.55l.001-.083v-.01c.002-.26.004-.583-.175-.766-.165-.163-.417-.195-.797-.195h-1.16zm7.502-2.79v.908h-2.542v.8h2.48v.896h-2.48v.873l2.542.005v.911h-3.622V13.72zm2.755 3.451c.226 0 .359-.033.443-.109a.382.382 0 0 0 .128-.286.375.375 0 0 0-.132-.29c-.085-.07-.2-.098-.387-.098h-.044l-.014-.001-.144-.005c-.977-.026-2.084-.055-2.084-1.354 0-.633.408-1.308 1.552-1.308h2.176v.935h-1.99c-.191 0-.324.006-.436.08-.11.066-.163.166-.163.315 0 .154.087.273.238.328.115.04.247.05.422.05l.584.015c.623.015 1.005.124 1.24.353.227.228.324.506.324.93 0 .92-.573 1.387-1.705 1.387h-2.114v-.942zm-14.143 1.808v-1.442h.348l.15.001c.392 0 .9-.024 1.361-.216v1.654h2.918v-1.598h.14c.179 0 .198.006.198.181v1.417h8.865c.598 0 1.164-.15 1.477-.392v.392h2.811c.645 0 1.196-.097 1.593-.282V17.55c-.261.368-.77.562-1.473.562H35.13v-.942h2.087c.227 0 .359-.033.44-.109a.38.38 0 0 0 .127-.286.356.356 0 0 0-.132-.29c-.079-.068-.197-.098-.382-.098h-.084l-.12-.006c-.978-.026-2.086-.055-2.086-1.354 0-.633.409-1.308 1.557-1.308h2.16v-.875H36.69c-.56 0-1.018.121-1.357.36v-.36h-2.97c-.42 0-1.011.094-1.298.36v-.36H25.76v.36c-.492-.35-1.365-.36-1.463-.36h-3.5v.36c-.316-.297-1.005-.36-1.528-.36h-3.917l-.896.94-.839-.94h-5.85v6.131h5.74l.923-.952.87.952 3.537.004z"/></g></g></g></svg>