<svg xmlns="http://www.w3.org/2000/svg" width="73" height="22" viewBox="0 0 73 22"><g><g><g><path fill="#a9a9a9" d="M70.768 21.905h-.067v-.294h-.122v-.061h.311v.06h-.122v.294zm-40.634 0h-1.312v-5.856h1.3v.66c.2-.28.452-.487.747-.617.305-.13.641-.195.998-.195.21 0 .393.013.543.04.171.029.329.07.468.124l-.313 1.266a1.87 1.87 0 0 0-.484-.16 2.801 2.801 0 0 0-.515-.054c-.2 0-.394.035-.578.103-.175.07-.327.173-.452.306-.124.133-.224.3-.295.495-.07.196-.107.42-.107.667v3.22zm40.895 0h-.068v-.356h.095l.11.245.11-.245h.095v.355h-.067v-.268l-.103.232h-.07l-.102-.231v.268zm-67.37.152c-.322 0-.633-.024-.926-.073a6.823 6.823 0 0 1-.948-.216 5.939 5.939 0 0 1-.895-.358 3.827 3.827 0 0 1-.766-.502l.772-1.1c.154.137.336.262.543.373.227.123.456.224.682.3.219.077.473.144.756.199.262.046.523.07.775.07.29 0 .561-.029.807-.086.248-.057.467-.141.65-.25.171-.098.318-.233.436-.4a.919.919 0 0 0 .16-.53c0-.333-.17-.59-.505-.763-.336-.176-.831-.308-1.472-.392l-.684-.091a5.803 5.803 0 0 1-.958-.22c-.31-.102-.591-.246-.835-.43a2.115 2.115 0 0 1-.59-.698c-.148-.265-.223-.607-.223-1.018 0-.426.092-.81.273-1.14.181-.33.432-.613.744-.837a3.753 3.753 0 0 1 1.102-.517 4.971 4.971 0 0 1 1.346-.177c.638 0 1.222.083 1.736.248.54.176 1.024.403 1.441.675l-.721 1.119a5.164 5.164 0 0 0-1.18-.542 4.44 4.44 0 0 0-1.288-.193c-.305 0-.575.03-.803.09a1.999 1.999 0 0 0-.625.256 1.275 1.275 0 0 0-.405.403 1 1 0 0 0-.144.53c0 .177.042.331.125.457.084.127.205.235.361.322.155.087.348.16.574.217.266.064.524.114.767.146l.608.08c.38.055.73.132 1.043.226.34.103.645.247.907.428.27.188.485.42.64.69.16.277.242.616.242 1.009 0 .447-.095.836-.282 1.155a2.7 2.7 0 0 1-.766.843 3.547 3.547 0 0 1-1.12.52 5.054 5.054 0 0 1-1.354.178zm7.465-5.024c-.222 0-.432.035-.625.104-.182.07-.34.17-.47.297-.132.128-.24.282-.324.458-.083.184-.143.38-.176.584h3.12c-.07-.455-.24-.814-.502-1.064-.262-.251-.606-.379-1.023-.379zm.106 5.024c-.449 0-.867-.073-1.242-.22a2.816 2.816 0 0 1-.973-.623 2.814 2.814 0 0 1-.635-.972 3.33 3.33 0 0 1-.226-1.265c0-.456.074-.877.22-1.253.146-.376.353-.704.615-.975.26-.268.579-.48.945-.63.352-.147.761-.222 1.215-.222.43 0 .817.075 1.153.223.346.147.648.359.897.63.248.27.445.596.584.97.14.364.21.785.21 1.25a3.805 3.805 0 0 1-.025.477H9.523c.04.26.118.489.232.679.11.184.248.34.408.462.16.12.34.21.534.266.209.056.415.085.615.085.301 0 .606-.055.907-.162a3.01 3.01 0 0 0 .832-.455l.653.91c-.368.307-.762.522-1.17.642a4.428 4.428 0 0 1-1.304.183zm6.87 0c-.476 0-.914-.079-1.3-.235a2.99 2.99 0 0 1-.998-.647 2.89 2.89 0 0 1-.641-.976 3.189 3.189 0 0 1-.226-1.222c0-.449.076-.86.226-1.223a2.873 2.873 0 0 1 1.638-1.623 3.483 3.483 0 0 1 1.3-.234c.45 0 .874.079 1.262.234.388.157.72.393.986.7l-.842.875a2.56 2.56 0 0 0-.665-.45 1.963 1.963 0 0 0-.778-.155 1.724 1.724 0 0 0-1.642 1.115c-.09.23-.135.485-.135.761s.045.532.135.761c.088.229.214.428.373.593.157.163.348.292.566.385.217.091.453.138.703.138.288 0 .56-.06.81-.175.246-.113.47-.26.665-.437l.81.88a2.65 2.65 0 0 1-.993.7 3.297 3.297 0 0 1-1.254.235zm6.19 0c-.36 0-.706-.05-1.03-.149a2.591 2.591 0 0 1-.895-.468 2.276 2.276 0 0 1-.627-.82 2.86 2.86 0 0 1-.237-1.197V16.05h1.32v3.258c0 .28.037.521.112.719.075.196.18.358.31.479.133.122.29.211.469.266.191.055.386.083.577.083.192 0 .386-.028.578-.083.18-.055.336-.145.467-.266.132-.121.237-.283.311-.48.075-.186.113-.427.113-.718V16.05h1.32v3.374c0 .452-.081.855-.24 1.198a2.339 2.339 0 0 1-.627.82c-.258.21-.558.367-.892.467-.324.1-.67.15-1.03.15zm11.96-5.024c-.226 0-.437.035-.625.104-.182.07-.34.17-.47.297a1.58 1.58 0 0 0-.324.458c-.083.18-.142.376-.176.584h3.121c-.072-.455-.24-.814-.502-1.064-.263-.251-.608-.379-1.024-.379zm.106 5.024c-.448 0-.867-.073-1.243-.22a2.842 2.842 0 0 1-.973-.623 2.838 2.838 0 0 1-.634-.972 3.342 3.342 0 0 1-.226-1.265c0-.456.074-.877.22-1.253a2.87 2.87 0 0 1 .615-.975c.261-.268.579-.48.944-.63a3.167 3.167 0 0 1 1.216-.222c.425 0 .813.075 1.153.223.348.147.65.36.897.63s.444.597.584.97c.14.368.21.79.21 1.25 0 .083-.002.165-.005.246a5.316 5.316 0 0 1-.02.232H34.65c.04.262.118.49.232.678.112.186.25.341.408.462.156.118.335.208.533.266.204.056.411.085.616.085.301 0 .606-.055.907-.162.287-.1.568-.252.832-.455l.653.91c-.368.307-.762.522-1.17.642-.401.122-.84.183-1.304.183zm16.18-4.956c-.272 0-.523.046-.747.137-.23.092-.431.222-.596.385a1.795 1.795 0 0 0-.396.593c-.096.23-.144.486-.144.761 0 .276.048.532.144.761.096.23.23.43.396.593.165.163.366.293.596.385.23.091.482.138.747.138s.516-.047.747-.138c.231-.093.433-.223.6-.385.168-.163.302-.363.399-.593.095-.23.144-.485.144-.76 0-.276-.049-.532-.144-.762a1.774 1.774 0 0 0-.999-.978 1.984 1.984 0 0 0-.747-.137zm0 4.956c-.464 0-.898-.079-1.29-.235a3.154 3.154 0 0 1-1.024-.647 3.014 3.014 0 0 1-.919-2.198c0-.438.082-.85.245-1.223.162-.374.389-.702.674-.974.286-.274.63-.492 1.024-.649a3.496 3.496 0 0 1 1.29-.234c.462 0 .896.079 1.29.234.394.157.74.375 1.027.65.286.27.514.598.678.973.162.38.245.792.245 1.223a2.98 2.98 0 0 1-.923 2.198c-.29.274-.635.492-1.027.647a3.472 3.472 0 0 1-1.29.235zm6.583-4.807a1.708 1.708 0 0 0-.926 1 2.111 2.111 0 0 0-.126.727c0 .254.043.5.126.727a1.698 1.698 0 0 0 .926 1c.221.1.478.15.763.15.272 0 .521-.049.742-.144.22-.095.412-.228.57-.395.157-.163.281-.363.37-.592.088-.223.133-.474.133-.746 0-.27-.045-.522-.132-.745a1.795 1.795 0 0 0-.37-.593 1.73 1.73 0 0 0-.571-.394 1.869 1.869 0 0 0-.742-.144c-.282 0-.54.05-.763.149zm.606 4.807c-.422 0-.82-.077-1.18-.229a2.893 2.893 0 0 1-.954-.639 2.941 2.941 0 0 1-.64-.975 3.224 3.224 0 0 1-.233-1.237c0-.448.078-.864.232-1.238a2.96 2.96 0 0 1 .64-.975c.271-.271.593-.486.955-.638.362-.152.76-.23 1.18-.23.43 0 .803.08 1.111.235.305.155.568.365.78.627v-3.655h1.312v8.802h-1.312v-.703c-.21.261-.473.47-.78.624-.308.153-.681.231-1.11.231zm7.547-5.024c-.237 0-.441.034-.625.104-.182.07-.34.17-.471.297a1.57 1.57 0 0 0-.323.458 2.134 2.134 0 0 0-.176.584h3.12c-.07-.454-.239-.812-.502-1.064-.262-.251-.606-.379-1.023-.379zm.107 5.024c-.449 0-.867-.073-1.244-.22a2.802 2.802 0 0 1-.973-.623 2.804 2.804 0 0 1-.634-.972 3.387 3.387 0 0 1-.225-1.265c0-.458.074-.88.22-1.253.144-.376.351-.704.614-.975.264-.271.582-.483.945-.63a3.209 3.209 0 0 1 1.215-.222c.419 0 .806.075 1.152.223.348.147.65.359.898.63.248.27.444.596.584.97.14.379.21.8.21 1.25a4.907 4.907 0 0 1-.025.478H65.67c.04.258.118.487.233.678.11.185.248.34.408.462.157.12.337.209.533.266.198.056.405.085.615.085.302 0 .607-.055.907-.162.3-.106.58-.259.833-.455l.652.91a3.29 3.29 0 0 1-1.171.642 4.528 4.528 0 0 1-1.302.183zm-22.596.007c-.67 0-1.295-.112-1.859-.333a4.359 4.359 0 0 1-1.456-.926 4.274 4.274 0 0 1-.949-1.406 4.595 4.595 0 0 1-.339-1.772c0-.637.114-1.233.34-1.773a4.2 4.2 0 0 1 .948-1.406 4.35 4.35 0 0 1 1.456-.926 5.038 5.038 0 0 1 1.859-.333c.38 0 .76.04 1.13.122.356.081.698.2 1.017.354.316.158.603.349.853.566.256.222.472.474.641.748l-1.186.77a2.943 2.943 0 0 0-1.033-.904 3.046 3.046 0 0 0-1.422-.33c-.455 0-.873.076-1.244.226-.379.15-.71.364-.986.636a2.928 2.928 0 0 0-.649.984 3.358 3.358 0 0 0-.236 1.266c0 .452.08.877.236 1.265.155.379.373.71.65.983.273.271.604.485.985.636.386.15.804.227 1.244.227.52 0 .995-.11 1.409-.324.416-.216.765-.52 1.039-.905l1.156.826a3.812 3.812 0 0 1-.663.72c-.263.217-.546.4-.841.545a4.737 4.737 0 0 1-2.1.464z"/></g><g><path fill="#636363" d="M41.195 9.83h-1.361V3.756h1.349v.685c.207-.29.468-.506.774-.64a2.562 2.562 0 0 1 1.035-.203c.217 0 .406.014.563.042.168.028.331.072.486.129l-.326 1.313c-.132-.071-.3-.127-.501-.165a2.92 2.92 0 0 0-.534-.057c-.225 0-.427.037-.6.108a1.25 1.25 0 0 0-.468.317 1.469 1.469 0 0 0-.306.513c-.074.193-.111.426-.111.691v3.34zm19.407 0H59.24V3.756h1.348v.685c.208-.29.47-.505.775-.64a2.562 2.562 0 0 1 1.035-.203c.213 0 .402.014.563.042.17.028.333.072.486.129l-.326 1.313a1.836 1.836 0 0 0-.501-.165 2.666 2.666 0 0 0-.534-.057 1.58 1.58 0 0 0-.6.108 1.25 1.25 0 0 0-.468.317 1.469 1.469 0 0 0-.307.513 1.98 1.98 0 0 0-.11.691v3.34zM2.33 9.831H.857V.953h2.26l2.65 6.34L8.42.954h2.26V9.83l-1.473.001V2.527L6.544 8.962h-1.55L2.33 2.597V9.83zm69.38.003h-.001l-.078-.001v-.358h.17c.05 0 .086.01.109.03.026.02.039.049.039.084 0 .03-.01.054-.031.074a.145.145 0 0 1-.087.035l.119.133-.093.002-.112-.134h-.035v.134zm-49.134.148a5.163 5.163 0 0 1-1.237-.142 4.728 4.728 0 0 1-.73-.237 3.25 3.25 0 0 1-.709-.4l.631-.995c.108.079.231.158.368.237.145.08.296.147.45.196.167.057.353.104.553.137.189.034.42.05.688.05.479 0 .836-.067 1.061-.199.238-.132.359-.314.359-.542 0-.173-.088-.317-.261-.428-.162-.111-.438-.193-.82-.243l-.652-.083c-.692-.093-1.224-.293-1.579-.594-.356-.3-.537-.699-.537-1.188 0-.286.06-.56.179-.811.118-.24.29-.445.514-.612.223-.167.496-.297.811-.386.291-.091.653-.137 1.075-.137.463 0 .93.056 1.387.168.434.112.817.27 1.14.472l-.587 1.033a3.617 3.617 0 0 0-.352-.174 4.42 4.42 0 0 0-.999-.295 3.96 3.96 0 0 0-.577-.05c-.37 0-.663.067-.87.2-.204.131-.308.307-.308.523a.43.43 0 0 0 .08.265c.044.061.115.12.22.178.093.047.202.084.325.111.113.026.249.051.404.073l.644.096c.679.096 1.216.291 1.596.58.38.288.573.697.573 1.214 0 .276-.064.546-.192.801a1.858 1.858 0 0 1-.554.628c-.24.174-.54.312-.892.41-.377.095-.781.144-1.201.144zM15.27 4.847c-.281 0-.547.052-.791.155a1.77 1.77 0 0 0-.59.418 1.87 1.87 0 0 0-.371.62c-.086.247-.13.5-.13.754 0 .252.044.506.13.754.087.237.212.445.371.618.148.163.346.304.59.42.231.102.497.154.79.154.282 0 .54-.05.77-.149.231-.101.43-.239.592-.409a1.85 1.85 0 0 0 .384-.615c.09-.234.137-.494.137-.773 0-.28-.046-.54-.137-.774a1.786 1.786 0 0 0-.977-1.024 1.93 1.93 0 0 0-.768-.149zm-.163 5.142c-.437 0-.85-.08-1.225-.238a3.04 3.04 0 0 1-.99-.663 3.076 3.076 0 0 1-.663-1.01 3.474 3.474 0 0 1-.242-1.284c0-.448.082-.88.242-1.284.16-.39.384-.73.664-1.012.28-.28.612-.504.99-.662a3.16 3.16 0 0 1 1.224-.238c.445 0 .833.082 1.152.245.306.147.577.366.808.648v-.735h1.361V9.83h-1.36v-.729a2.4 2.4 0 0 1-.809.647c-.332.16-.72.241-1.152.241zm14.515 0c-.704 0-1.26-.193-1.65-.573-.391-.381-.59-.982-.59-1.785V4.96H26.14V3.756h1.243V1.918h1.368v1.838h2.39v1.205h-2.39v2.644c0 .189.026.364.078.52a.976.976 0 0 0 .212.352c.088.09.193.157.312.2.133.042.26.063.388.063.213 0 .431-.04.648-.12.24-.09.444-.189.61-.292l.54 1.059a4.407 4.407 0 0 1-.85.425 3.042 3.042 0 0 1-1.066.177zm5.68-5.211c-.251 0-.47.036-.649.108a1.417 1.417 0 0 0-.488.307 1.647 1.647 0 0 0-.336.475 2.258 2.258 0 0 0-.182.606h3.237c-.073-.47-.248-.842-.521-1.104-.272-.26-.63-.392-1.061-.392zm.11 5.211c-.476 0-.91-.077-1.29-.228a2.942 2.942 0 0 1-1.008-.646 2.902 2.902 0 0 1-.658-1.01 3.538 3.538 0 0 1-.234-1.311c0-.473.076-.91.227-1.3.151-.391.366-.732.638-1.011.272-.28.602-.5.98-.654.38-.153.805-.231 1.26-.231.43 0 .832.078 1.195.231.36.154.674.373.932.654.256.286.46.626.605 1.008.145.399.219.835.219 1.297 0 .117-.002.184-.007.253a2.889 2.889 0 0 1-.018.211l-.002.021-4.61.01c.044.273.124.51.241.702.112.187.254.349.423.48.163.123.35.216.553.276.214.058.429.087.639.087.323 0 .64-.056.941-.167.316-.11.606-.27.862-.473l.678.945a3.43 3.43 0 0 1-1.215.666c-.425.126-.88.19-1.35.19zm12.237 0c-.484 0-.938-.082-1.348-.244a3.117 3.117 0 0 1-1.036-.672 3.007 3.007 0 0 1-.664-1.011 3.388 3.388 0 0 1-.234-1.268c0-.454.078-.88.234-1.269.156-.387.379-.727.664-1.01a3.09 3.09 0 0 1 1.036-.672 3.591 3.591 0 0 1 1.348-.245c.465 0 .905.082 1.308.245a2.63 2.63 0 0 1 1.022.726l-.872.906a2.666 2.666 0 0 0-.689-.466 1.97 1.97 0 0 0-.809-.162c-.254 0-.5.048-.728.142a1.755 1.755 0 0 0-.974 1.015c-.093.228-.14.493-.14.79 0 .296.047.562.14.79a1.757 1.757 0 0 0 .974 1.014 2.004 2.004 0 0 0 1.57-.038 2.76 2.76 0 0 0 .689-.454l.84.913a2.757 2.757 0 0 1-1.028.726 3.512 3.512 0 0 1-1.303.244zm6.428-5.142c-.288 0-.554.052-.792.155-.23.103-.428.244-.589.418a1.87 1.87 0 0 0-.371.62c-.087.235-.131.49-.131.754s.044.517.13.754c.088.237.213.445.372.618.153.168.351.309.59.42.23.102.497.154.79.154.282 0 .54-.05.769-.149.232-.101.431-.239.593-.409.163-.17.292-.377.383-.615.091-.227.137-.487.137-.773 0-.287-.046-.547-.137-.774a1.863 1.863 0 0 0-.383-.615 1.786 1.786 0 0 0-.593-.409 1.93 1.93 0 0 0-.768-.149zm-.164 5.142c-.437 0-.85-.08-1.224-.238a3.04 3.04 0 0 1-.99-.663 3.048 3.048 0 0 1-.663-1.01 3.42 3.42 0 0 1-.242-1.284c0-.455.082-.887.242-1.284.16-.39.383-.73.664-1.012.279-.28.612-.504.99-.662a3.152 3.152 0 0 1 1.223-.238c.445 0 .833.082 1.153.245.318.16.59.379.808.648v-.735h1.361V9.83h-1.36v-.729c-.218.27-.49.488-.809.647-.326.16-.713.241-1.153.241zM67.03 4.847c-.295 0-.56.052-.792.155-.23.103-.428.244-.589.418-.16.177-.285.385-.371.62-.087.234-.13.488-.13.754 0 .265.043.519.13.754.086.237.211.445.371.618.16.174.357.315.59.42.23.102.497.154.79.154.282 0 .54-.05.769-.149a1.785 1.785 0 0 0 .976-1.024c.092-.235.138-.495.138-.773 0-.28-.046-.54-.138-.774a1.84 1.84 0 0 0-.383-.615 1.795 1.795 0 0 0-.593-.409 1.93 1.93 0 0 0-.768-.149zm-.163 5.142c-.438 0-.85-.08-1.225-.238a3.04 3.04 0 0 1-.99-.663 3.075 3.075 0 0 1-.663-1.01 3.4 3.4 0 0 1-.242-1.284c0-.458.081-.89.242-1.284.16-.39.384-.73.663-1.012.28-.28.613-.504.99-.662.377-.158.79-.238 1.225-.238.443 0 .83.082 1.152.245.322.162.593.38.808.65V.7h1.361v9.13h-1.361V9.1c-.217.27-.49.488-.808.647-.323.16-.71.241-1.152.241zm4.91-.634a.302.302 0 0 0-.286.183.293.293 0 0 0 .066.33c.026.026.06.048.098.065a.333.333 0 0 0 .241 0 .303.303 0 0 0 .187-.278.289.289 0 0 0-.089-.213.31.31 0 0 0-.217-.087zm0 .686a.425.425 0 0 1-.288-.114.388.388 0 0 1-.087-.122.361.361 0 0 1 0-.3.384.384 0 0 1 .216-.206.395.395 0 0 1 .16-.03.406.406 0 0 1 .37.236.326.326 0 0 1 .033.15.35.35 0 0 1-.032.15.362.362 0 0 1-.086.122.42.42 0 0 1-.286.114z"/></g></g></g></svg>