<svg xmlns="http://www.w3.org/2000/svg" width="88" height="22" viewBox="0 0 88 22"><g><g><g><path fill="#636363" d="M30.922 7.977c.874 0 1.7 0 2.126.488.255.292.332.724.235 1.32-.265 1.699-1.593 1.699-2.877 1.699h-.73l.512-3.174a.399.399 0 0 1 .399-.333zM27.97 18.503a.666.666 0 0 0 .665-.556l.529-3.275a.664.664 0 0 1 .663-.556h1.534c3.177 0 5.032-1.514 5.511-4.5.217-1.31.01-2.338-.617-3.057-.688-.792-1.909-1.21-3.53-1.21h-4.843a.666.666 0 0 0-.665.555l-1.958 12.144a.386.386 0 0 0 .087.312.408.408 0 0 0 .312.143h2.312z"/></g><g><path fill="#636363" d="M43.576 12.539c.354.409.493.978.392 1.604-.223 1.295-1.275 2.165-2.616 2.165-.673 0-1.212-.211-1.558-.612-.343-.397-.472-.963-.363-1.593.209-1.284 1.277-2.182 2.598-2.182.66 0 1.194.214 1.547.618zm-3.49 6.175c1.93 0 3.083-1.161 3.208-1.294l.002-.004-.104.63a.39.39 0 0 0 .09.315c.076.09.189.142.309.142h2.089a.668.668 0 0 0 .665-.557l1.253-7.76a.387.387 0 0 0-.088-.314.405.405 0 0 0-.31-.142h-2.318a.402.402 0 0 0-.399.332l-.103.634-.162-.229c-.432-.613-1.405-.95-2.739-.95-2.578 0-4.755 1.917-5.178 4.56-.221 1.328.094 2.598.864 3.483.664.765 1.647 1.154 2.92 1.154z"/></g><g><path fill="#636363" d="M59.552 9.73h-2.33a.68.68 0 0 0-.557.288l-3.215 4.63-1.362-4.449a.673.673 0 0 0-.646-.47h-2.29a.396.396 0 0 0-.383.523l2.567 7.365-2.414 3.332a.394.394 0 0 0 .33.623h2.327c.221 0 .428-.105.553-.283l7.752-10.94a.394.394 0 0 0-.332-.62z"/></g><g><path fill="#a9a9a9" d="M65.466 7.977c.875 0 1.7 0 2.126.488.255.291.332.723.235 1.32-.264 1.699-1.592 1.699-2.876 1.699h-.73l.513-3.174a.397.397 0 0 1 .398-.333zm-2.78 10.526a.465.465 0 0 0 .464-.389l.556-3.442a.664.664 0 0 1 .664-.556h1.532c3.177 0 5.032-1.514 5.514-4.5.216-1.308.008-2.336-.619-3.057-.688-.792-1.908-1.21-3.529-1.21h-4.843a.666.666 0 0 0-.665.555l-1.958 12.144a.386.386 0 0 0 .087.313c.077.09.19.142.31.142h2.486z"/></g><g><path fill="#a9a9a9" d="M78.119 12.539c.356.408.495.978.393 1.604-.223 1.295-1.274 2.165-2.617 2.165-.674 0-1.212-.211-1.557-.612-.342-.395-.472-.961-.364-1.593.21-1.284 1.28-2.182 2.599-2.182.66 0 1.194.214 1.546.618zm-3.488 6.175c1.93 0 3.083-1.161 3.209-1.294l.002-.004-.104.63a.39.39 0 0 0 .089.315c.077.09.19.142.31.142h2.089a.666.666 0 0 0 .664-.557l1.254-7.76a.387.387 0 0 0-.088-.314.409.409 0 0 0-.312-.142h-2.317c-.2 0-.368.14-.398.332l-.103.634-.163-.229c-.432-.613-1.404-.95-2.738-.95-2.578 0-4.755 1.917-5.178 4.56-.221 1.329.094 2.599.864 3.483.665.765 1.647 1.154 2.92 1.154z"/></g><g><path fill="#a9a9a9" d="M84.478 5.682l-1.987 12.365c-.04.24.15.456.398.456h1.998a.667.667 0 0 0 .665-.556l1.96-12.142a.397.397 0 0 0-.398-.456h-2.238a.402.402 0 0 0-.398.333z"/></g><g><path fill="#253b80" d="M5.145 20.863l.37-2.3-.824-.02H.75L3.49 1.572a.223.223 0 0 1 .222-.186h6.643c2.205 0 3.727.449 4.521 1.335.373.415.61.85.725 1.327.12.501.122 1.1.005 1.83l-.009.054v.468l.373.206c.313.163.563.35.754.563.319.355.525.806.612 1.342.09.55.06 1.205-.087 1.947-.17.853-.445 1.596-.816 2.204a4.572 4.572 0 0 1-1.293 1.384 5.3 5.3 0 0 1-1.74.768c-.642.164-1.373.246-2.176.246h-.517c-.37 0-.728.13-1.01.364-.283.238-.47.563-.527.919l-.039.207-.654 4.054-.03.149c-.008.047-.021.07-.041.087a.111.111 0 0 1-.068.024z"/></g><g><path fill="#a9a9a9" d="M16.321 5.985c-.02.124-.042.25-.068.38-.876 4.398-3.872 5.917-7.7 5.917H6.604a.94.94 0 0 0-.935.784l-.998 6.188-.283 1.754a.491.491 0 0 0 .493.563h3.456c.41 0 .757-.29.821-.685l.034-.172.651-4.038.042-.222a.826.826 0 0 1 .821-.687h.517c3.35 0 5.97-1.33 6.737-5.176.32-1.607.154-2.95-.693-3.893a3.297 3.297 0 0 0-.946-.713z"/></g><g><path fill="#636363" d="M15.405 5.628a7.04 7.04 0 0 0-.852-.185 11.065 11.065 0 0 0-1.718-.123H7.63a.842.842 0 0 0-.36.08.814.814 0 0 0-.46.607L5.7 12.867l-.032.2a.94.94 0 0 1 .935-.785h1.949c3.828 0 6.824-1.52 7.7-5.916.027-.13.049-.257.068-.381a4.727 4.727 0 0 0-.916-.357z"/></g><g><path fill="#636363" d="M6.808 6.007a.812.812 0 0 1 .462-.606c.11-.052.23-.08.359-.08h5.206c.617 0 1.193.04 1.718.123a7.04 7.04 0 0 1 1.049.244 4.8 4.8 0 0 1 .72.297c.26-1.625-.002-2.732-.9-3.734-.991-1.103-2.78-1.575-5.067-1.575H3.712a.943.943 0 0 0-.938.785L.007 18.608a.562.562 0 0 0 .563.646h4.101l1.03-6.388z"/></g></g></g></svg>