<svg xmlns="http://www.w3.org/2000/svg" width="95" height="19" viewBox="0 0 95 19"><defs><clipPath id="g9uta"><path d="M.017.759h13.807v17.439H.017z"/></clipPath></defs><g><g><g><g/><g><g/><g clip-path="url(#g9uta)"><path fill="#636363" d="M7.75 17.172c0 .647.586 1.14 1.223 1.026l.106-.02c1.074-.236 2.06-.67 2.83-1.254 1.212-.917 1.873-2.161 1.914-3.598.067-2.4-1.645-4.206-4.579-4.833-.562-.12-1.188-.197-1.85-.279-1.86-.23-3.97-.491-4.525-1.729-.278-.622-.276-1.225.005-1.792.383-.775 1.275-1.426 2.272-1.66 2.067-.484 4.68.005 6.243 1.165.449.333 1.094.317 1.462-.104a1.042 1.042 0 0 0-.15-1.516C10.625.998 7.4.365 4.67 1.006 3.07 1.38 1.666 2.439 1.008 3.768.445 4.903.432 6.137.968 7.336c1.034 2.31 3.882 2.662 6.171 2.945.615.076 1.197.147 1.67.248 1.117.24 2.983.912 2.932 2.74-.046 1.62-1.545 2.515-3.036 2.858-.028.007-.062.013-.101.021a1.045 1.045 0 0 0-.855 1.024"/></g><g clip-path="url(#g9uta)"><path fill="#636363" d="M6.053 17.112c.004.664-.611 1.17-1.257 1.02l-.085-.02c-1.686-.41-3.218-1.263-4.395-2.491-.395-.413-.433-1.082-.034-1.49a1.041 1.041 0 0 1 1.503.012 6.836 6.836 0 0 0 3.48 1.972c.462.107.785.524.788.997"/></g></g></g><g><path fill="#636363" d="M29.944 17.98c-.687 0-1.149-.47-1.149-1.172V2.165c0-.701.462-1.172 1.149-1.172.683 0 1.125.46 1.125 1.172v7.839a.1.1 0 0 0 .099.098.095.095 0 0 0 .07-.03l8.157-8.673c.273-.273.563-.406.886-.406.613 0 1.076.431 1.076 1.004 0 .388-.15.676-.574 1.101l-9.577 9.906a.49.49 0 0 0-.137.342v3.462c0 .712-.442 1.172-1.125 1.172zm10.742 0c-.406 0-.717-.166-.98-.526l-4.085-5.395a1.07 1.07 0 0 1 .08-1.4c.205-.212.48-.33.774-.33.337 0 .648.154.853.42l4.1 5.365c.213.298.312.564.312.838a1.043 1.043 0 0 1-1.054 1.029z"/></g><g><path fill="#636363" d="M82.597 7.469c.627 0 1.137-.51 1.137-1.137V3.316c0-.054.044-.098.099-.098h9.806c.723 0 1.173-.404 1.173-1.053 0-.63-.471-1.053-1.173-1.053H82.61c-.633 0-1.148.515-1.148 1.148v4.072c0 .627.51 1.137 1.136 1.137zM93.64 17.86c.727 0 1.197-.413 1.197-1.053 0-.63-.48-1.053-1.197-1.053h-9.806a.099.099 0 0 1-.1-.098v-4.416c0-.054.045-.098.1-.098h6.3c.725 0 1.124-.357 1.124-1.005 0-.633-.4-.982-1.124-.982h-8.18a.492.492 0 0 0-.492.492v7.065c0 .633.515 1.148 1.148 1.148h11.03z"/></g><g><path fill="#636363" d="M59.301 8.424c.352 0 .668-.166.867-.456a1.058 1.058 0 0 0 0-1.196L56.491 1.45c-.245-.34-.509-.48-.912-.48-.575 0-1.08.46-1.08.985 0 .252.04.467.24.767l3.701 5.255c.2.285.514.448.861.448zm2.323 9.58c.7 0 1.152-.472 1.152-1.201v-5.77c0-.102.03-.2.089-.282l5.597-8.03c.166-.26.24-.497.24-.767 0-.524-.505-.984-1.08-.984-.404 0-.669.139-.912.48l-5.824 8.488a2.207 2.207 0 0 0-.39 1.253v5.612c0 .73.443 1.2 1.128 1.2z"/></g></g></g></svg>