<svg xmlns="http://www.w3.org/2000/svg" width="48" height="21" viewBox="0 0 48 21"><g><g><g><path fill="#636363" d="M19.895 11.076l-2.376 6.275-.253-1.275c-.592-1.563-1.873-3.203-3.365-3.868l2.174 8.057 2.569-.002 3.82-9.187h-2.57z"/></g><g><path fill="#636363" d="M24.357 20.273h-2.426l1.519-9.206h2.427z"/></g><g><path fill="#636363" d="M33.163 11.294a6.1 6.1 0 0 0-2.176-.387c-2.4 0-4.088 1.25-4.102 3.038-.016 1.324 1.206 2.062 2.124 2.502.948.45 1.265.74 1.262 1.142-.01.617-.759.898-1.455.898-.97 0-1.487-.139-2.282-.481l-.316-.147-.34 2.06c.569.257 1.617.48 2.706.49 2.549 0 4.206-1.235 4.226-3.143.01-1.05-.638-1.846-2.04-2.502-.846-.427-1.37-.71-1.361-1.142 0-.382.439-.792 1.39-.792a4.32 4.32 0 0 1 1.817.354l.216.106.33-1.996z"/></g><g><path fill="#636363" d="M37.846 14.353l.563 2.656h-2.014c.2-.523.959-2.55.966-2.572 0-.004.034-.098.12-.328l.204-.547zm-2.66 5.92c.043-.117.422-1.148.51-1.38.13 0 .748 0 1.402.002h.053l1.649.003h.004c.076.325.294 1.375.295 1.379l2.254-.002-1.965-9.198h-1.875c-.664 0-1.045.228-1.274.764l-3.603 8.436h2.548z"/></g><g><path fill="#a9a9a9" d="M15.315 11.071h-3.914l-.023.159c3.043.762 5.052 2.634 5.888 4.848l-.851-4.231c-.147-.582-.572-.755-1.1-.776z"/></g><g><path fill="#636363" d="M2.435.684l1.222 6.168L6.769.766h1.643l-4.354 8.08H2.51L.725.965z"/></g><g><path fill="#636363" d="M10.585 4.273c.21.22.304.599.278 1.123H8.578c.233-.855.74-1.365 1.357-1.365.279 0 .497.082.65.242zM9.392 8.928c.851 0 1.66-.23 2.406-.687l.005-1.096c-.794.49-1.418.699-2.087.699-.448 0-.788-.123-1.01-.366-.242-.266-.34-.672-.29-1.208h3.692c.005-.039.016-.091.028-.148.013-.06.027-.13.037-.19.15-.956 0-1.727-.43-2.23-.362-.424-.907-.638-1.62-.638-1.567 0-2.806 1.18-3.082 2.938-.15.95-.005 1.689.428 2.196.409.478 1.074.73 1.923.73z"/></g><g><path fill="#636363" d="M14.513 5.582l-.508 3.23h-1.428l.885-5.632h1.214l.001 1.13c.484-.652 1.141-1.2 2.042-1.247l.008 1.388a3.194 3.194 0 0 0-2.214 1.13z"/></g><g><path fill="#636363" d="M18.468 2.235c.482 0 .899-.34.97-.792a.701.701 0 0 0-.145-.575.735.735 0 0 0-.572-.242c-.489 0-.912.351-.986.817a.657.657 0 0 0 .139.546c.135.159.346.246.594.246zm-.331 6.576l.885-5.631h-1.429l-.885 5.632h1.429z"/></g><g><path fill="#636363" d="M22.979 1.64c-.489 0-.783.21-.862.712l-.13.828h1.095v1.143h-1.275l-.705 4.489h-1.417l.705-4.49h-.833l.18-1.142h.833l.152-.968C20.918.964 21.801.498 22.98.498c.25 0 .437.023.576.047l.01 1.142a3.692 3.692 0 0 0-.587-.046z"/></g><g><path fill="#636363" d="M24.754 2.235c.483 0 .9-.34.97-.792a.701.701 0 0 0-.145-.575.735.735 0 0 0-.572-.242c-.488 0-.912.351-.985.817a.657.657 0 0 0 .138.546c.135.159.346.246.594.246zm-.33 6.576l.884-5.631H23.88l-.886 5.632h1.43z"/></g><g><path fill="#636363" d="M28.675 4.031c.279 0 .498.082.65.242.21.22.304.599.279 1.123h-2.286c.233-.855.74-1.365 1.357-1.365zm-.544 4.897a4.49 4.49 0 0 0 2.407-.687l.005-1.096c-.794.49-1.418.699-2.086.699-.449 0-.788-.123-1.01-.366-.242-.266-.34-.672-.29-1.208h3.69c.006-.037.017-.086.028-.139.013-.063.028-.135.038-.199.15-.955.002-1.726-.428-2.23-.363-.424-.908-.638-1.622-.638-1.567 0-2.805 1.18-3.081 2.938-.15.95-.006 1.69.428 2.196.409.478 1.073.73 1.921.73z"/></g><g><path fill="#636363" d="M34.476 4.24c.494 0 .752.084 1.081.246l-.38 2.425c-.52.532-.961.77-1.431.77-.268 0-.49-.095-.643-.274-.233-.272-.306-.734-.212-1.335.18-1.147.773-1.831 1.585-1.831zM33.18 8.929c.674 0 1.297-.293 1.903-.897l-.003.781h1.226L37.63.393l-1.464.221-.427 2.717a3.895 3.895 0 0 0-1.301-.21c-1.215 0-2.638.797-2.989 3.032-.152.972-.016 1.74.395 2.22.31.363.773.555 1.336.555z"/></g><g><path fill="#636363" d="M41.482 5.394c.202 0 .362.068.477.202.177.207.232.561.16 1.025C41.973 7.535 41.53 8 40.8 8a1.62 1.62 0 0 1-.667-.115l.303-1.934c.372-.37.723-.556 1.045-.556zm-.799 3.47c1.402 0 2.303-.818 2.536-2.305.116-.736.013-1.318-.299-1.682-.235-.275-.585-.42-1.012-.42-.449 0-.895.19-1.324.565l.407-2.588-1.11.168-.939 5.98c.56.193 1.114.283 1.741.283z"/></g><g><path fill="#636363" d="M45.769 9.041c-.553 1.051-1.1 1.378-1.94 1.378-.189 0-.294-.018-.389-.044l-.007-.875c.139.036.288.062.495.062.316 0 .59-.141.775-.45l.143-.283-.917-4.204 1.15-.141.532 3.038 1.442-2.977h1.073z"/></g></g></g></svg>