<svg xmlns="http://www.w3.org/2000/svg" viewBox="0 0 141.73228 141.73228"><defs><style>.cls-1{fill:#ac915f;}</style></defs><path class="cls-1" d="M49.08946,99.58455a27.9219,27.9219,0,0,1-20.27805-8.02036Q20.58295,83.543,20.58124,70.82713q0-12.71755,8.23017-20.69776A28.00547,28.00547,0,0,1,49.08946,42.15,26.44882,26.44882,0,0,1,70.615,52.54078l-5.48564,3.40775a18.96439,18.96439,0,0,0-6.93821-5.56964,20.59257,20.59257,0,0,0-9.10171-2.07815,20.279,20.279,0,0,0-15.25041,6.3592q-6.1111,6.35751-6.10768,16.16719,0,9.808,6.10768,16.20649a20.20918,20.20918,0,0,0,15.25041,6.40022,20.442,20.442,0,0,0,8.52067-1.78591,21.3572,21.3572,0,0,0,6.35719-4.19731V76.14555h-19.034V69.99484H70.86452V90.02609A27.94072,27.94072,0,0,1,49.08946,99.58455Z"/><path class="cls-1" d="M96.73418,99.58942q-13.46287,0-21.27606-8.8389l4.07406-5.2526a22.45433,22.45433,0,0,0,17.4515,7.92176q6.73143,0,9.89123-2.87659a8.82592,8.82592,0,0,0,3.15809-6.71146,7.01934,7.01934,0,0,0-1.82855-4.92,12.34957,12.34957,0,0,0-4.69611-3.12687,56.52973,56.52973,0,0,0-6.3982-2.04172q-3.53233-.918-7.02366-2.04344A35.88874,35.88874,0,0,1,83.72929,68.991a12.62555,12.62555,0,0,1-6.52466-11.42234,13.56169,13.56169,0,0,1,5.40019-11.13091q5.40361-4.29431,13.63035-4.29431,12.38626,0,19.70044,7.75376l-4.1561,5.08631q-6.07008-6.67032-16.03992-6.67032a13.05839,13.05839,0,0,0-8.18915,2.46,7.68524,7.68524,0,0,0-3.1991,6.37717,5.89406,5.89406,0,0,0,2.45059,4.836A16.15909,16.15909,0,0,0,92.872,64.82182q3.61435.918,7.89521,2.292,4.28085,1.37573,7.89521,2.91773a14.31756,14.31756,0,0,1,6.06667,4.96117,13.79647,13.79647,0,0,1,2.45059,8.25432,15.3366,15.3366,0,0,1-5.02764,11.58863Q107.12271,99.59028,96.73418,99.58942Z"/><path class="cls-1" d="M70.86785,140.315A69.44882,69.44882,0,1,1,140.315,70.86614,69.52975,69.52975,0,0,1,70.86785,140.315Zm0-133.93811a64.48929,64.48929,0,1,0,64.48441,64.48929A64.56143,64.56143,0,0,0,70.86785,6.37685Z"/></svg>