<svg id="Слой_1" data-name="Слой 1" xmlns="http://www.w3.org/2000/svg" viewBox="0 0 141.73 141.73"><defs><style>.cls-1{fill:#e84155}</style></defs><path class="cls-1" d="M54 94.75v-12.9l36.49 23.79L54 129.59v-13.23S24.6 113 13.3 100.78c-8.73-7.21-6.55-20.61-6.55-20.61s1.19 13.74 20.83 16.75C40.47 99.1 54 94.75 54 94.75z"/><path class="cls-1" d="M103.51 106.05L87.12 95.37c2.9.84 14.51 3.86 25.68 2 19.64-3 20.83-16.75 20.83-16.75s2.18 13.4-6.55 20.6C117 112.14 92.41 116 87.36 116.65zm-86.68-39.5A22 22 0 0027 69.31c6.48 0 9.09-3.65 9-7.16 0-5.31-5-7.58-10.13-7.58H22v-6.2h3.78c3.93 0 8.89-1.79 8.89-6.27 0-3-2.27-5.58-7.16-5.58a18 18 0 00-9.17 2.83l-1.92-6.13c2.54-1.79 7.5-3.45 12.88-3.45 9.23 0 14 5.1 14 11 0 4.69-2.76 8.54-8.27 10.47v.14c5.44 1 9.85 5.1 9.85 11.16 0 7.58-6.33 13.57-17.42 13.57C22 76.06 17.31 74.54 14.9 73zm59.72-30.03a33.53 33.53 0 00-4.34.21c-9.37 1.1-13.92 6.89-15 13.09h.21a12.88 12.88 0 0110.06-4.34c7.71 0 13.7 5.51 13.7 14.6 0 8.54-6.27 16-15.77 16-10.88 0-16.88-8.27-16.88-19.29 0-8.61 3.1-15.63 7.79-20.11 4.13-3.86 9.5-6.06 15.91-6.61a23.59 23.59 0 014.27-.14zm-4 24c0-5.17-2.82-8.88-7.78-8.88a8.22 8.22 0 00-7.3 4.61 5.74 5.74 0 00-.55 2.75c.13 5.92 3 10.74 8.4 10.74 4.41-.02 7.23-3.81 7.23-9.18zm42.5-7.88c0 14.39-5.65 23.42-16.32 23.42-10.34 0-15.85-9.37-15.91-23 0-13.91 5.92-23.28 16.39-23.28 10.79-.01 15.84 9.64 15.84 22.86zm-23.69.41c-.07 10.89 3 16.53 7.64 16.53 5 0 7.58-6.06 7.58-16.8 0-10.4-2.48-16.53-7.58-16.53-4.54 0-7.71 5.58-7.64 16.8zm44.56-32.23c0 3.58-2.89 6.4-7.44 6.4S121 24.4 121 20.89s2.69-6.61 7.44-6.61 7.48 2.89 7.48 6.54zm-10.67.07a3.23 3.23 0 003.16 3.3 3.15 3.15 0 003.17-3.44 3.22 3.22 0 00-3.17-3.44c-2.06 0-3.16 1.69-3.16 3.58z"/></svg>