<svg xmlns="http://www.w3.org/2000/svg" xmlns:xlink="http://www.w3.org/1999/xlink" width="23" height="7" viewBox="0 0 23 7"><defs><path id="a" d="M1360 670.54v-.08a.23.23 0 00-.01-.04l-.02-.04-.03-.03a.22.22 0 00-.03-.03l-.03-.02a.2.2 0 00-.05-.02c0-.01-1.97-.52-4.08-1.18a7.32 7.32 0 01-3.47-2.03.24.24 0 00-.34 0 .23.23 0 000 .33c.72.69 1.52 1.47 3.66 2.15.87.27 1.72.52 2.41.71h-20.94a.24.24 0 00-.24.24c0 .13.1.24.24.24h20.94c-.7.2-1.54.44-2.4.71-2.15.68-2.95 1.46-3.67 2.15a.23.23 0 000 .33.24.24 0 00.34 0 7.33 7.33 0 013.47-2.03 91.76 91.76 0 014.08-1.17l.05-.03c.01 0 .02 0 .03-.02a.22.22 0 00.03-.03l.03-.03.02-.04a.25.25 0 000-.04z"/></defs><use fill="#ef4056" xlink:href="#a" transform="translate(-1337 -667)"/></svg>