<svg xmlns="http://www.w3.org/2000/svg" xmlns:xlink="http://www.w3.org/1999/xlink" width="38" height="60" viewBox="0 0 38 60"><defs><path id="a" d="M466.1 2015l-2.69 2.33-2.69 2.33h21.9l-2.69-2.33-2.7-2.33z"/><path id="b" d="M477.24 2019.66h-16.45l10.88 8.47 10.88-8.47z"/><path id="c" d="M471.67 2030.6c-8.93 0-16.2 7.27-16.2 16.2a16.2 16.2 0 1016.2-16.2m0 34.88A18.7 18.7 0 01453 2046.8a18.7 18.7 0 0118.67-18.68 18.7 18.7 0 0118.68 18.68 18.7 18.7 0 01-18.68 18.67"/><path id="d" d="M457.89 2071.37h27.52v-1.45h-27.52z"/><path id="e" d="M455.27 2074.66l-1.08-.97 2.73-3.05-2.73-3.05 1.08-.96 3.59 4.01z"/><path id="f" d="M488.03 2074.66l-3.59-4.02 3.59-4.01 1.08.96-2.73 3.05 2.73 3.05z"/><path id="g" d="M465.91 2051.33v-.93h1.74v-6.81c-.41.22-1.03.49-1.84.79v-1.07a10.88 10.88 0 002.1-1h.93v8.09h1.64v.93z"/><path id="h" d="M474.52 2051.47c-.66 0-1.22-.2-1.68-.58a3.45 3.45 0 01-1.04-1.63 7.87 7.87 0 01-.35-2.46c0-1.49.26-2.63.79-3.44a2.57 2.57 0 012.29-1.21c.99 0 1.74.4 2.25 1.22.5.81.76 1.96.76 3.43 0 1.45-.26 2.59-.77 3.42a2.48 2.48 0 01-2.25 1.25m.02-1c1.18 0 1.77-1.22 1.77-3.67 0-.54-.03-1.03-.1-1.46a5 5 0 00-.3-1.15 1.72 1.72 0 00-.55-.77 1.3 1.3 0 00-.82-.27c-.34 0-.62.09-.87.27-.24.18-.43.44-.58.77a4.78 4.78 0 00-.32 1.15c-.07.43-.1.92-.1 1.46 0 .75.05 1.4.18 1.92.12.54.32.96.6 1.28.3.31.65.47 1.1.47"/></defs><use fill="#aaf7fe" xlink:href="#a" transform="translate(-453 -2015)"/><use fill="#81edf7" xlink:href="#b" transform="translate(-453 -2015)"/><use fill="#ffce54" xlink:href="#c" transform="translate(-453 -2015)"/><use fill="#ef4056" xlink:href="#d" transform="translate(-453 -2015)"/><use fill="#ef4056" xlink:href="#e" transform="translate(-453 -2015)"/><use fill="#ef4056" xlink:href="#f" transform="translate(-453 -2015)"/><use fill="#a9a9a9" xlink:href="#g" transform="translate(-453 -2015)"/><use fill="#a9a9a9" xlink:href="#h" transform="translate(-453 -2015)"/></svg>