<svg xmlns="http://www.w3.org/2000/svg" xmlns:xlink="http://www.w3.org/1999/xlink" width="50" height="60" viewBox="0 0 50 60"><defs><path id="a" d="M692.92 2032.22a4.99 4.99 0 00-5-4.99H648a4.99 4.99 0 00-4.99 5l2.5 14.96-2.5 12.73h49.92l-2.5-12.48z"/><path id="b" d="M687.92 2027.23H648a4.99 4.99 0 00-4.99 5l2.5 14.96-.05.25h44.97l2.5-15.22a4.99 4.99 0 00-5-4.99z"/><path id="c" d="M692.92 2059.93v9.98a4.99 4.99 0 01-5 5H648a4.99 4.99 0 01-4.99-5v-9.98h39.93z"/><path id="d" d="M685.43 2059.93v9.98a4.99 4.99 0 01-4.99 5h7.49a4.99 4.99 0 004.99-5v-9.98z"/><path id="e" d="M674.2 2036.13c.69.68.65 1.84-.07 2.57l-4.84 3.59a1.88 1.88 0 01-2.65 0l-4.84-3.6c-.73-.72-.76-1.88-.08-2.56.69-.69 2.1-2.5 3.12-2.5h6.24c1.03 0 2.44 1.81 3.12 2.5z"/><path id="f" d="M692.92 2020v12.22a4.99 4.99 0 00-5-4.99H648a4.99 4.99 0 00-4.99 5v-12.24a4.99 4.99 0 015-4.99h39.93a4.99 4.99 0 014.99 5z"/><path id="g" d="M687.93 2015h-7.49a4.99 4.99 0 015 5v7.23h2.49a4.99 4.99 0 014.99 5v-12.24a4.99 4.99 0 00-5-4.99z"/><path id="h" d="M667.96 2042.83a16.87 16.87 0 00-16.85 16.85v.25h3.74v-.25a13.11 13.11 0 0126.21 0v.25h3.74v-.25c0-9.3-7.55-16.85-16.84-16.85z"/></defs><use fill="#fff" xlink:href="#a" transform="translate(-643 -2015)"/><use fill="#fbfbfb" xlink:href="#b" transform="translate(-643 -2015)"/><use fill="#ef4056" xlink:href="#c" transform="translate(-643 -2015)"/><use fill="#d24758" xlink:href="#d" transform="translate(-643 -2015)"/><use fill="#81edf7" xlink:href="#e" transform="translate(-643 -2015)"/><use fill="#ef4056" xlink:href="#f" transform="translate(-643 -2015)"/><use fill="#d24758" xlink:href="#g" transform="translate(-643 -2015)"/><use fill="#ffce54" xlink:href="#h" transform="translate(-643 -2015)"/></svg>