<svg xmlns="http://www.w3.org/2000/svg" xmlns:xlink="http://www.w3.org/1999/xlink" width="59" height="59" viewBox="0 0 59 59"><defs><path id="b" d="M885 2038h-9l4.99-10h.02z"/><path id="i" d="M863 2075l-21-37h9z"/><path id="c" d="M881 2028.01l-5 9.99-5-10h9.73l.27.01z"/><path id="d" d="M876 2038h-12l7-10z"/><path id="e" d="M870 2028l-7 10-7-10z"/><path id="f" d="M856 2028l-5 10-5-9.99.27-.01z"/><path id="g" d="M846 2028l-4 10h-8a3.05 3.05 0 011.25-2.64l9.16-6.75a3.23 3.23 0 011.59-.61z"/><path id="h" d="M863 2075a2.06 2.06 0 01-1.65-.81l-26.69-34.41a3.13 3.13 0 01-.66-1.78h8z"/><path id="a" d="M893 2038h-8l-4-10a3.23 3.23 0 011.6.61l6.15 4.54 1.81 1.34 1.2.87a3.05 3.05 0 011.23 2.64z"/><path id="j" d="M893 2038a3.13 3.13 0 01-.66 1.78l-26.69 34.4a2.06 2.06 0 01-1.65.82l10.5-18.5 5.84-10.28L885 2038z"/><path id="k" d="M851 2038h-9l3.99-10h.02z"/><path id="l" d="M863 2038h-12l5-10z"/><path id="m" d="M876 2038l-12 37v-37z"/><path id="n" d="M885 2038l-4.67 8.22-5.83 10.28L864 2075l12-37z"/><path id="o" d="M863 2038v37l-12-37z"/><path id="p" d="M877.58 2031.42L874.5 2016l-3.08 15.42-15.42 3.08 15.42 3.08 3.08 15.42 3.08-15.42 15.42-3.08z"/></defs><use fill="#aaf7fe" xlink:href="#a" transform="translate(-834 -2016)"/><use fill="#81edf7" xlink:href="#b" transform="translate(-834 -2016)"/><use fill="#aaf7fe" xlink:href="#c" transform="translate(-834 -2016)"/><use fill="#81edf7" xlink:href="#d" transform="translate(-834 -2016)"/><use fill="#aaf7fe" xlink:href="#e" transform="translate(-834 -2016)"/><use fill="#aaf7fe" xlink:href="#f" transform="translate(-834 -2016)"/><use fill="#aaf7fe" xlink:href="#g" transform="translate(-834 -2016)"/><use fill="#81edf7" xlink:href="#h" transform="translate(-834 -2016)"/><use fill="#6cdde8" xlink:href="#i" transform="translate(-834 -2016)"/><use fill="#6cdde8" xlink:href="#j" transform="translate(-834 -2016)"/><use fill="#81edf7" xlink:href="#k" transform="translate(-834 -2016)"/><use fill="#6cdde8" xlink:href="#l" transform="translate(-834 -2016)"/><use fill="#6cdde8" xlink:href="#m" transform="translate(-834 -2016)"/><use fill="#81edf7" xlink:href="#n" transform="translate(-834 -2016)"/><use fill="#81edf7" xlink:href="#o" transform="translate(-834 -2016)"/><use fill="#fff" xlink:href="#p" transform="translate(-834 -2016)"/></svg>