<svg xmlns="http://www.w3.org/2000/svg" xmlns:xlink="http://www.w3.org/1999/xlink" width="61" height="55" viewBox="0 0 61 55"><defs><path id="a" d="M1062.72 2046.82h20.94v-12h-20.94z"/><path id="b" d="M1050.63 2046.82h11.36v-12h-11.36z"/><path id="c" d="M1062.72 2073h20.94v-14.04h-20.94z"/><path id="d" d="M1050.63 2073h11.36v-14.04h-11.36z"/><path id="e" d="M1086.58 2044.34c0-1.24-.93-2.27-2.13-2.44v4.88a2.47 2.47 0 002.13-2.44"/><path id="f" d="M1067.07 2018.01H1026V2034h60.74v-15.99z"/><path id="g" d="M1049.94 2073v-14.02h-1.04v4.93l-11.11-11.02 11.11-11.02v4.93h1.04v-12.02h-20.87V2073z"/><path id="h" d="M1084.1 2047.57h-35.97v-3.83l-9.23 9.15 9.22 9.15v-3.83h35.98a2.49 2.49 0 002.49-2.47v-9.3a3.27 3.27 0 01-2.49 1.13"/></defs><use fill="#fcd180" xlink:href="#a" transform="translate(-1026 -2018)"/><use fill="#f5a623" xlink:href="#b" transform="translate(-1026 -2018)"/><use fill="#fcd180" xlink:href="#c" transform="translate(-1026 -2018)"/><use fill="#f5a623" xlink:href="#d" transform="translate(-1026 -2018)"/><use fill="#bf3748" xlink:href="#e" transform="translate(-1026 -2018)"/><use fill="#fcd180" xlink:href="#f" transform="translate(-1026 -2018)"/><use fill="#fcd180" xlink:href="#g" transform="translate(-1026 -2018)"/><use fill="#ef4056" xlink:href="#h" transform="translate(-1026 -2018)"/></svg>