<svg xmlns="http://www.w3.org/2000/svg" xmlns:xlink="http://www.w3.org/1999/xlink" width="49" height="60" viewBox="0 0 49 60"><defs><path id="a" d="M1228 2015.12h48.57v59.78H1228z"/><path id="d" d="M1276.57 2024.46c.05 0-23.68-9.1-24.29-9.34-.46.19-24.33 9.34-24.28 9.34v17.19c0 11.9 3.41 27.46 24.28 33.25 20.83-5.8 24.24-21.63 24.24-33.25.05-5.89.05-17.19.05-17.19"/><path id="b" d="M1228 2015.12h24.28v59.78H1228z"/><path id="f" d="M1228 2041.65c0 11.9 3.41 27.46 24.28 33.25v-59.78l-24.28 9.34v17.19"/><path id="g" d="M1271.85 2027.68c.05 0-19.1-7.7-19.61-7.89-.43.14-19.67 7.57-19.62 7.52v14.43c0 10 1.96 23.63 19.61 28.49 17.61-4.86 19.62-18.73 19.62-28.5.05-4.94.05-14.05 0-14.05l-6.85 23.79"/><path id="h" d="M1252.29 2019.79c-.42.14-19.67 7.57-19.62 7.52v14.43c0 10 1.96 23.63 19.61 28.49z"/><path id="i" d="M1258.55 2047.86c-2.84-1.02-3.75-1.89-3.75-3.73 0-.2.03-.36.08-.49.22-.57.86-.63 1.17-2.3.16-.83.92 0 1.07-1.93 0-.76-.42-.95-.42-.95s.21-1.14.3-2.01c.1-1.09-.64-3.9-4.57-3.9h-.1c-3.94 0-4.68 2.81-4.58 3.9.09.87.3 2 .3 2s-.42.2-.42.96c.15 1.92.91 1.1 1.07 1.94.31 1.66.94 1.72 1.17 2.29.05.13.08.28.08.48 0 1.85-.91 2.72-3.75 3.74s-4.12 2.07-4.12 2.78v4.68h20.59v-4.68c0-.71-1.28-1.76-4.12-2.78"/><clipPath id="c"><use xlink:href="#a"/></clipPath><clipPath id="e"><use xlink:href="#b"/></clipPath></defs><g clip-path="url(#c)" transform="translate(-1228 -2015)"><use fill="#fff" xlink:href="#d"/></g><g clip-path="url(#e)" transform="translate(-1228 -2015)"><use fill="#ebebeb" xlink:href="#f"/></g><use fill="#d24758" xlink:href="#g" transform="translate(-1228 -2015)"/><use fill="#ef4056" xlink:href="#h" transform="translate(-1228 -2015)"/><use fill="#fff" xlink:href="#i" transform="translate(-1228 -2015)"/></svg>