<svg xmlns="http://www.w3.org/2000/svg" xmlns:xlink="http://www.w3.org/1999/xlink" width="81" height="55" viewBox="0 0 81 55"><defs><path id="c" d="M1407 2041.98v18.83a5.16 5.16 0 005.17 5.14h30.26v-27.34z"/><path id="i" d="M1477.85 2044.86a7.54 7.54 0 00-7.55 7.52v8.97h2.68v-8.97a4.87 4.87 0 014.87-4.85z"/><path id="d" d="M1477.86 2028.9l-38.81-3.36 3.38 16.44h35.43z"/><path id="e" d="M1442.43 2025.54l-35.43 3.37v13.07h35.43z"/><path id="f" d="M1477.86 2028.9v-5.75a5.16 5.16 0 00-5.17-5.15h-30.26l-3.38 5.45 3.38 5.46z"/><path id="g" d="M1442.43 2018h-30.26a5.16 5.16 0 00-5.17 5.15v5.76h35.43z"/><path id="h" d="M1477.86 2044.86l-1.79 1.54 1.79 1.13a4.87 4.87 0 014.87 4.85v8.97h2.68v-8.97a7.54 7.54 0 00-7.55-7.52"/><path id="b" d="M1442.43 2065.95h30.26c2.85 0 5.17-2.3 5.17-5.14v-18.83l-38.81-3.37z"/><path id="j" d="M1487.3 2058.24h-9.44l-1.79 6.44 1.79 8.3h9.43z"/><path id="a" d="M1407 2072.97h80.29V2018H1407z"/><path id="l" d="M1468.42 2072.97h9.44v-14.73h-9.44z"/><path id="m" d="M1479.2 2070.16v-3.42a2.74 2.74 0 001.4-2.4 2.75 2.75 0 00-2.75-2.74l-.89 3.16.9 5.4z"/><path id="n" d="M1476.52 2066.74v3.42h1.34v-8.56a2.75 2.75 0 00-2.76 2.74c0 1.04.57 1.93 1.42 2.4z"/><clipPath id="k"><use xlink:href="#a"/></clipPath></defs><use fill="#d24758" xlink:href="#b" transform="translate(-1407 -2018)"/><use fill="#ef4056" xlink:href="#c" transform="translate(-1407 -2018)"/><use fill="#ffc35f" xlink:href="#d" transform="translate(-1407 -2018)"/><use fill="#fcd180" xlink:href="#e" transform="translate(-1407 -2018)"/><use fill="#d24758" xlink:href="#f" transform="translate(-1407 -2018)"/><use fill="#ef4056" xlink:href="#g" transform="translate(-1407 -2018)"/><use fill="#cdced3" xlink:href="#h" transform="translate(-1407 -2018)"/><use fill="#f5f5f6" xlink:href="#i" transform="translate(-1407 -2018)"/><use fill="#ebebeb" xlink:href="#j" transform="translate(-1407 -2018)"/><g clip-path="url(#k)" transform="translate(-1407 -2018)"><use fill="#d4d4d4" xlink:href="#l"/></g><g clip-path="url(#k)" transform="translate(-1407 -2018)"><use fill="#fff" xlink:href="#m"/></g><g clip-path="url(#k)" transform="translate(-1407 -2018)"><use fill="#fff" xlink:href="#n"/></g></svg>