<svg xmlns="http://www.w3.org/2000/svg" xmlns:xlink="http://www.w3.org/1999/xlink" width="51" height="15" viewBox="0 0 51 15"><defs><path id="a" d="M827 1715.42c-.16 0-.3.02-.43.07a.96.96 0 00-.33.2 1.08 1.08 0 00-.23.32c-.06.12-.1.26-.12.4h2.18a1.25 1.25 0 00-.35-.73 1 1 0 00-.72-.26zm2.87 3.4h-.05v-.19l-.07.16h-.05l-.07-.16v.2h-.05v-.26h.07l.08.17.07-.17h.07zm-.47 0v-.2h-.08v-.05h.2v.05h-.08v.2zm-2.38-4.2c.3 0 .56.05.8.16a1.8 1.8 0 01.63.44c.18.19.31.41.41.68.1.26.15.55.15.87a3.7 3.7 0 01-.02.33h-3.1c.02.19.08.35.16.48a1.12 1.12 0 00.66.5c.13.05.28.07.43.07.2 0 .42-.04.63-.12a2.08 2.08 0 00.58-.32l.46.64a2.3 2.3 0 01-.82.45 3.17 3.17 0 01-.91.13c-.32 0-.6-.05-.87-.16a1.98 1.98 0 01-.68-.43 1.96 1.96 0 01-.44-.68 2.37 2.37 0 01-.16-.89c0-.31.05-.6.15-.87a1.92 1.92 0 011.1-1.12c.25-.1.53-.16.84-.16zm-5.18.84c-.2 0-.38.04-.53.1a1.2 1.2 0 00-.65.71 1.49 1.49 0 000 1.02 1.2 1.2 0 00.65.7c.15.07.33.1.53.1.19 0 .36-.03.52-.1a1.2 1.2 0 00.66-.69 1.46 1.46 0 00-.01-1.04 1.2 1.2 0 00-.65-.7 1.3 1.3 0 00-.52-.1zm-.11-.84a1.64 1.64 0 011.32.6v-2.55h.92v6.15h-.92v-.49a1.62 1.62 0 01-.54.44 1.72 1.72 0 01-.78.16c-.3 0-.57-.06-.82-.16a2.05 2.05 0 01-1.12-1.13 2.25 2.25 0 01-.16-.87c0-.3.05-.6.16-.86a2.05 2.05 0 011.12-1.13c.25-.1.53-.16.82-.16zm-5.02.84c-.2 0-.37.04-.53.1a1.24 1.24 0 00-.69.69c-.07.16-.1.34-.1.53s.03.37.1.53a1.27 1.27 0 00.7.69 1.4 1.4 0 001.05 0 1.25 1.25 0 00.69-.69c.06-.16.1-.34.1-.53s-.04-.37-.1-.53a1.25 1.25 0 00-.7-.69 1.4 1.4 0 00-.52-.1zm0-.84a2.41 2.41 0 011.61.62 2.07 2.07 0 01.65 1.53 2.07 2.07 0 01-.65 1.54c-.2.2-.44.34-.71.45a2.44 2.44 0 01-1.8 0 2.18 2.18 0 01-.72-.45 2.09 2.09 0 01-.64-1.54 2.08 2.08 0 01.64-1.53c.2-.2.44-.34.71-.45.28-.11.58-.17.9-.17zm-5.42-1.89a3.6 3.6 0 011.5.33 2.73 2.73 0 011.04.92l-.83.54a2 2 0 00-.72-.63 2.12 2.12 0 00-1-.23c-.3 0-.6.05-.86.15a2.04 2.04 0 00-.69.45c-.2.19-.34.42-.45.69a2.3 2.3 0 00-.17.88c0 .32.06.62.17.88a2.05 2.05 0 002 1.3 2.03 2.03 0 001.72-.86l.8.57a2.6 2.6 0 01-.46.5 2.9 2.9 0 01-.58.39 3.13 3.13 0 01-.7.24 3.52 3.52 0 01-.77.08c-.47 0-.9-.08-1.3-.23a2.93 2.93 0 01-1.68-1.63 3.2 3.2 0 01-.24-1.24c0-.45.08-.86.24-1.24a2.93 2.93 0 011.68-1.63 3.5 3.5 0 011.3-.23zm-5.96 2.69c-.17 0-.31.02-.44.07a.96.96 0 00-.33.2 1.08 1.08 0 00-.23.32c-.06.12-.1.26-.12.4h2.18a1.25 1.25 0 00-.35-.73 1 1 0 00-.72-.26zm.01-.8c.3 0 .56.05.8.16.25.1.46.25.64.44s.3.41.4.68a2.5 2.5 0 01.15.87 2.87 2.87 0 01-.02.33h-3.1c.03.19.08.35.16.48a1.13 1.13 0 00.66.5c.13.05.28.07.43.07a2.04 2.04 0 001.22-.43l.45.63a2.3 2.3 0 01-.82.45 3.18 3.18 0 01-.91.13c-.32 0-.6-.05-.87-.16a1.98 1.98 0 01-.68-.43 1.96 1.96 0 01-.44-.68 2.37 2.37 0 01-.16-.89c0-.31.05-.6.15-.87a1.92 1.92 0 011.1-1.12c.25-.1.53-.16.84-.16zm-3.07 0c.14 0 .27.01.38.03l.33.09-.22.88a1.34 1.34 0 00-.34-.1 1.86 1.86 0 00-.36-.05 1.1 1.1 0 00-.4.07.86.86 0 00-.32.22 1 1 0 00-.21.34c-.05.14-.07.3-.07.47v2.25h-.92v-4.1h.9v.47c.15-.2.32-.34.53-.43.2-.1.44-.14.7-.14zm-3.35 2.47c0 .32-.06.6-.17.83a1.63 1.63 0 01-.44.58 1.77 1.77 0 01-.62.32 2.5 2.5 0 01-1.44 0 1.8 1.8 0 01-.63-.32 1.6 1.6 0 01-.44-.58 1.95 1.95 0 01-.16-.83v-2.36h.92v2.28c0 .2.03.36.08.5s.13.25.22.33a.83.83 0 00.32.19 1.39 1.39 0 00.81 0 .83.83 0 00.33-.19.87.87 0 00.21-.33c.06-.14.08-.3.08-.5v-2.28h.92v2.36zm-6.28-2.47c.32 0 .61.06.88.17.28.1.5.27.7.49l-.6.6a1.77 1.77 0 00-.46-.3 1.3 1.3 0 00-.54-.12c-.18 0-.34.04-.5.1a1.18 1.18 0 00-.65.68 1.46 1.46 0 00-.1.53c0 .2.04.38.1.54a1.18 1.18 0 00.65.68 1.33 1.33 0 001.06-.03c.18-.08.33-.18.47-.3l.56.61c-.2.22-.42.38-.7.5a2.42 2.42 0 01-1.79 0 2 2 0 01-1.13-1.14 2.27 2.27 0 01-.16-.86c0-.3.05-.59.16-.85a2 2 0 011.14-1.13c.28-.11.58-.17.91-.17zm-4.87.8c-.17 0-.31.02-.44.07a.96.96 0 00-.33.2 1.08 1.08 0 00-.22.32c-.06.12-.1.26-.13.4h2.18a1.25 1.25 0 00-.35-.73 1 1 0 00-.71-.26zm.02-.8c.29 0 .56.05.8.16a1.8 1.8 0 01.63.44 2.4 2.4 0 01.55 1.55 3.5 3.5 0 01-.02.33h-3.1c.03.19.08.35.16.48a1.14 1.14 0 00.66.5c.14.05.28.07.43.07a2.05 2.05 0 001.22-.43l.45.63c-.26.21-.53.36-.82.45a3.18 3.18 0 01-.9.13 2.3 2.3 0 01-.88-.16 1.98 1.98 0 01-.68-.43 1.96 1.96 0 01-.44-.68 2.37 2.37 0 01-.16-.89c0-.31.05-.6.16-.87a1.88 1.88 0 011.09-1.12 2.24 2.24 0 01.85-.16zm-3.35-.46a3.65 3.65 0 00-.83-.37 3 3 0 00-.9-.14c-.2 0-.39.02-.56.06-.17.04-.31.1-.44.18a.9.9 0 00-.28.28.7.7 0 00-.1.37c0 .13.03.24.09.32a.7.7 0 00.25.23c.11.06.24.11.4.15.16.04.34.08.54.1l.42.06c.25.03.5.09.73.16.24.07.45.17.64.3a1.39 1.39 0 01.62 1.19c0 .3-.07.57-.2.8a1.8 1.8 0 01-.54.6 2.5 2.5 0 01-.78.35 3.52 3.52 0 01-.95.13 4.61 4.61 0 01-1.31-.2 4.1 4.1 0 01-.62-.26 2.67 2.67 0 01-.54-.35l.54-.76c.1.09.23.18.38.26a3.33 3.33 0 001 .34 3.14 3.14 0 001.11 0c.17-.05.33-.1.45-.18a.95.95 0 00.3-.28.64.64 0 00.12-.37c0-.23-.12-.41-.35-.53a3.2 3.2 0 00-1.03-.28l-.48-.06a3.83 3.83 0 01-.67-.16 1.96 1.96 0 01-.58-.3 1.46 1.46 0 01-.41-.48 1.5 1.5 0 01-.16-.71 1.63 1.63 0 01.71-1.39c.22-.16.48-.28.77-.36a3.95 3.95 0 013.16.52z"/><path id="b" d="M827.38 1707a1.25 1.25 0 01.68.72c.07.16.1.34.1.54s-.03.37-.1.54a1.25 1.25 0 01-.68.71c-.16.07-.34.1-.54.1s-.39-.03-.55-.1a1.23 1.23 0 01-.67-.73 1.52 1.52 0 01-.1-.52c0-.19.04-.36.1-.53a1.24 1.24 0 01.67-.72c.16-.08.35-.11.55-.11.2 0 .38.03.54.1zm2.73 3.18h.06l.04.01.01.03-.01.03a.05.05 0 01-.04.01h-.06zm.07-.05h-.12v.25h.05v-.1h.03l.07.1h.07l-.08-.1a.1.1 0 00.06-.02.07.07 0 00.02-.05.07.07 0 00-.03-.06.12.12 0 00-.07-.02zm-.1.32a.22.22 0 01-.12-.11.2.2 0 01.11-.28.22.22 0 01.09-.01.21.21 0 01.2.12.2.2 0 01.01.09.2.2 0 01-.06.15.21.21 0 01-.15.06.22.22 0 01-.09-.02zm-.04-.44a.28.28 0 00-.14.14.26.26 0 00-.02.1c0 .05 0 .08.02.11a.28.28 0 00.36.15.28.28 0 00.15-.15.26.26 0 000-.2.27.27 0 00-.15-.15.28.28 0 00-.22 0zm-4.17-3.82a2.13 2.13 0 00-.69.46 2.15 2.15 0 00-.46.71 2.34 2.34 0 00-.17.9c0 .32.05.62.17.9a2.13 2.13 0 001.15 1.16 2.2 2.2 0 001.66 0c.23-.11.42-.26.57-.45v.51h.95V1704h-.95v2.65a1.7 1.7 0 00-.57-.46 1.77 1.77 0 00-.8-.16 2.19 2.19 0 00-.86.16zm-2.99-.02a1.3 1.3 0 00-.54.44v-.47h-.94v4.24h.95v-2.34c0-.18.03-.34.08-.48.05-.14.12-.26.21-.36.1-.1.2-.17.33-.22.13-.05.27-.07.42-.07a1.9 1.9 0 01.72.15l.23-.92a1.77 1.77 0 00-.34-.09 2.43 2.43 0 00-.4-.03c-.26 0-.5.05-.72.15zm-4.55.83a1.26 1.26 0 01.69.72 1.53 1.53 0 010 1.08 1.25 1.25 0 01-.69.71c-.16.07-.34.1-.54.1s-.39-.03-.55-.1a1.24 1.24 0 01-.67-.72 1.52 1.52 0 01-.1-.53c0-.19.03-.36.1-.53a1.24 1.24 0 01.67-.72c.16-.08.35-.11.56-.11.2 0 .37.03.54.1zm1.67-.86h-.95v.5a1.7 1.7 0 00-.57-.44 1.77 1.77 0 00-.8-.17 2.19 2.19 0 00-.86.16 2.13 2.13 0 00-.7.46 2.14 2.14 0 00-.46.71 2.34 2.34 0 00-.16.9c0 .32.05.62.16.9a2.12 2.12 0 002.02 1.33 1.69 1.69 0 001.37-.62v.51h.95zm-7.64.06a2.09 2.09 0 00-1.2 1.18c-.1.26-.15.56-.15.88 0 .32.05.61.16.88a2.08 2.08 0 001.19 1.18 2.58 2.58 0 001.86 0c.28-.11.52-.28.72-.5l-.6-.64c-.13.12-.3.23-.47.31a1.39 1.39 0 01-1.1.03 1.22 1.22 0 01-.69-.71 1.49 1.49 0 01-.1-.55c0-.2.04-.39.1-.55a1.22 1.22 0 01.69-.71 1.36 1.36 0 011.08.01c.16.08.32.18.48.33l.6-.64a1.84 1.84 0 00-.7-.5 2.44 2.44 0 00-.93-.17 2.51 2.51 0 00-.94.17zm-3.04-.03a1.3 1.3 0 00-.54.44v-.47h-.94v4.24h.95v-2.33c0-.18.02-.35.08-.49.05-.14.12-.26.2-.36a.88.88 0 01.34-.22c.12-.05.26-.07.42-.07a1.88 1.88 0 01.72.15l.23-.92a1.77 1.77 0 00-.34-.09 2.43 2.43 0 00-.4-.03 1.78 1.78 0 00-.72.15zm-3.9.95c.2.18.31.44.37.77h-2.28c.03-.16.07-.3.13-.43.06-.12.14-.23.24-.32a.99.99 0 01.34-.22c.13-.05.28-.07.46-.07.3 0 .55.09.74.27zm-1.61-.93a1.99 1.99 0 00-1.13 1.16 2.4 2.4 0 00-.16.9c0 .35.05.65.16.93a2.02 2.02 0 001.17 1.15c.27.1.57.16.9.16.33 0 .64-.04.94-.13.3-.09.58-.25.85-.47l-.47-.66a2.13 2.13 0 01-.6.33 1.95 1.95 0 01-.66.12c-.16 0-.3-.02-.45-.06a1.18 1.18 0 01-.39-.2 1.17 1.17 0 01-.3-.33 1.35 1.35 0 01-.16-.5h3.22a3.13 3.13 0 00.02-.34c0-.33-.05-.63-.15-.9a2.13 2.13 0 00-.43-.7 1.86 1.86 0 00-.65-.46 2.11 2.11 0 00-.83-.16c-.32 0-.62.05-.88.16zm-2.05.79v-.84h-1.67v-1.29h-.95v1.29h-.87v.84h.87v1.86c0 .57.13.98.4 1.25.28.27.67.4 1.16.4.28 0 .52-.04.74-.12.22-.09.42-.18.6-.3l-.38-.74a2.4 2.4 0 01-.42.2 1.3 1.3 0 01-.46.09.8.8 0 01-.27-.05.56.56 0 01-.22-.14.68.68 0 01-.14-.24 1.08 1.08 0 01-.06-.37v-1.84zm-4.1-.5a2.83 2.83 0 00-.8-.33 3.87 3.87 0 00-.97-.12c-.28 0-.53.03-.75.1-.22.06-.41.15-.57.27a1.18 1.18 0 00-.48.99c0 .34.12.62.37.83.25.21.62.35 1.1.41l.46.06c.26.04.46.1.58.17.12.08.18.18.18.3 0 .16-.08.29-.25.38-.17.1-.42.14-.74.14-.18 0-.34-.01-.48-.04a2.43 2.43 0 01-.4-.1 1.88 1.88 0 01-.3-.13 2.28 2.28 0 01-.26-.16l-.44.7c.15.1.32.2.5.27a3.5 3.5 0 001.37.27c.3 0 .59-.04.84-.1.24-.07.45-.17.62-.3a1.18 1.18 0 00.52-1 1 1 0 00-.4-.84 2.4 2.4 0 00-1.11-.4l-.45-.07a4.11 4.11 0 01-.29-.05.95.95 0 01-.22-.08.43.43 0 01-.16-.12.3.3 0 01-.05-.19c0-.15.07-.27.21-.36.15-.1.35-.14.61-.14a2.36 2.36 0 01.78.12 2.83 2.83 0 01.57.24zm-6.45.52a1.25 1.25 0 01.68.72 1.5 1.5 0 010 1.08 1.25 1.25 0 01-.68.71c-.16.07-.34.1-.54.1s-.39-.03-.55-.1a1.23 1.23 0 01-.67-.72 1.51 1.51 0 01-.1-.53c0-.19.04-.36.1-.53a1.24 1.24 0 01.67-.72c.16-.08.35-.11.55-.11.2 0 .38.03.54.1zm1.67-.86h-.95v.5a1.7 1.7 0 00-.57-.44 1.77 1.77 0 00-.8-.17 2.19 2.19 0 00-.86.16 2.13 2.13 0 00-.69.46 2.14 2.14 0 00-.46.71 2.34 2.34 0 00-.17.9 2.32 2.32 0 00.63 1.6 2.13 2.13 0 001.55.63 1.69 1.69 0 001.37-.62v.51h.95zm-5.42 4.24v-6.2h-1.58l-1.85 4.43-1.85-4.43h-1.58v6.2h1.03v-5.05l1.86 4.44h1.08l1.86-4.5v5.11z"/></defs><use fill="#a9a9a9" xlink:href="#a" transform="translate(-780 -1704)"/><use fill="#636363" xlink:href="#b" transform="translate(-780 -1704)"/></svg>