<svg xmlns="http://www.w3.org/2000/svg" xmlns:xlink="http://www.w3.org/1999/xlink" width="34" height="15" viewBox="0 0 34 15"><defs><path id="a" d="M861.89 1711.95l-1.66 4.38-.18-.89a4.99 4.99 0 00-2.35-2.7l1.52 5.63h1.8l2.66-6.42h-1.8z"/><path id="b" d="M865 1718.37h-1.69l1.06-6.43h1.7z"/><path id="c" d="M871.16 1712.1a4.26 4.26 0 00-1.52-.27c-1.68 0-2.86.87-2.87 2.12 0 .93.85 1.44 1.49 1.75.66.32.88.52.88.8 0 .43-.53.63-1.02.63a3.5 3.5 0 01-1.6-.34l-.21-.1-.24 1.44c.4.18 1.13.33 1.89.34 1.78 0 2.94-.86 2.95-2.2.01-.73-.44-1.29-1.42-1.74-.6-.3-.96-.5-.95-.8 0-.27.3-.56.97-.56.55 0 .95.12 1.27.25l.15.07.23-1.39z"/><path id="d" d="M873.42 1716.1l.67-1.8.22-.61.11.55.4 1.87h-1.4zm2.09-4.15h-1.31c-.4 0-.71.11-.9.53l-2.51 5.9h1.78l.36-.97h2.17l.2.97h1.58l-1.37-6.43z"/><path id="e" d="M858.7 1711.95h-2.74l-.02.11a5.68 5.68 0 014.12 3.39l-.6-2.96c-.1-.4-.4-.53-.77-.54z"/><path id="f" d="M849.68 1704.69l.86 4.31 2.17-4.25h1.15l-3.04 5.64h-1.08l-1.25-5.5z"/><path id="g" d="M854.93 1707.03c-.4 0-.77.3-.95.95h1.6c.03-.61-.17-.95-.65-.95zm1.52 1.56h-2.58c-.07.77.3 1.1.9 1.1.53 0 .98-.19 1.47-.49v.77a3.16 3.16 0 01-1.69.48c-1.12 0-1.86-.63-1.64-2.05.2-1.28 1.1-2.05 2.15-2.05 1.2 0 1.61.89 1.43 2 0 .09-.03.18-.04.24z"/><path id="h" d="M858.13 1708.11l-.35 2.26h-1l.62-3.94h.85v.8c.34-.47.8-.85 1.42-.88l.01.97c-.63.04-1.2.37-1.55.79z"/><path id="i" d="M860.9 1705.77c-.34 0-.57-.22-.52-.55a.7.7 0 01.7-.57c.32 0 .55.24.5.57a.68.68 0 01-.69.55zm-1.24 4.6l.62-3.94h1l-.62 3.94z"/><path id="j" d="M864.04 1705.36c-.34 0-.55.15-.6.5l-.1.57h.77v.8h-.89l-.49 3.14h-.99l.5-3.14h-.59l.13-.8h.58l.1-.67c.14-.87.76-1.2 1.58-1.2.18 0 .3.02.4.03l.01.8a2.58 2.58 0 00-.4-.03z"/><path id="k" d="M865.3 1705.77c-.34 0-.57-.22-.52-.55a.7.7 0 01.7-.57c.32 0 .55.24.5.57a.69.69 0 01-.69.55zm-1.24 4.6l.62-3.94h1l-.62 3.94h-1z"/><path id="l" d="M868.03 1707.03c-.4 0-.77.3-.95.95h1.6c.03-.61-.17-.95-.65-.95zm1.52 1.56h-2.58c-.07.77.3 1.1.9 1.1.52 0 .98-.19 1.47-.49v.77a3.16 3.16 0 01-1.69.48c-1.12 0-1.86-.63-1.64-2.05.2-1.28 1.1-2.05 2.15-2.05 1.2 0 1.61.89 1.43 2 0 .09-.03.18-.04.24z"/><path id="m" d="M872.83 1707.34a1.5 1.5 0 00-.75-.17c-.53 0-.97.41-1.11 1.28-.12.76.16 1.12.6 1.12.36 0 .68-.2 1-.54l.26-1.69zm-.33 3.02v-.54c-.33.33-.77.62-1.33.62-.84 0-1.42-.6-1.2-1.94.22-1.46 1.15-2.11 2.08-2.11.38 0 .68.06.91.14l.3-1.9 1.02-.15-.92 5.88h-.86z"/><path id="n" d="M876.97 1707.98c-.25 0-.5.16-.72.39l-.22 1.35c.15.05.26.08.47.08.48 0 .81-.28.92-.96.09-.58-.1-.86-.45-.86zm-.55 2.42c-.48 0-.86-.07-1.22-.2l.66-4.17.77-.12-.28 1.8c.22-.19.54-.39.92-.39.65 0 1.08.47.92 1.47-.17 1.1-.87 1.61-1.77 1.61z"/><path id="o" d="M879.97 1710.53c-.38.73-.77.96-1.35.96a.94.94 0 01-.28-.03v-.61c.1.02.2.04.35.04a.6.6 0 00.54-.32l.1-.2-.64-2.93.8-.1.37 2.12 1.01-2.08h.75l-1.65 3.14z"/></defs><use fill="#636363" xlink:href="#a" transform="translate(-848 -1704)"/><use fill="#636363" xlink:href="#b" transform="translate(-848 -1704)"/><use fill="#636363" xlink:href="#c" transform="translate(-848 -1704)"/><use fill="#636363" xlink:href="#d" transform="translate(-848 -1704)"/><use fill="#a9a9a9" xlink:href="#e" transform="translate(-848 -1704)"/><use fill="#636363" xlink:href="#f" transform="translate(-848 -1704)"/><use fill="#636363" xlink:href="#g" transform="translate(-848 -1704)"/><use fill="#636363" xlink:href="#h" transform="translate(-848 -1704)"/><use fill="#636363" xlink:href="#i" transform="translate(-848 -1704)"/><use fill="#636363" xlink:href="#j" transform="translate(-848 -1704)"/><use fill="#636363" xlink:href="#k" transform="translate(-848 -1704)"/><use fill="#636363" xlink:href="#l" transform="translate(-848 -1704)"/><use fill="#636363" xlink:href="#m" transform="translate(-848 -1704)"/><use fill="#636363" xlink:href="#n" transform="translate(-848 -1704)"/><use fill="#636363" xlink:href="#o" transform="translate(-848 -1704)"/></svg>