<svg xmlns="http://www.w3.org/2000/svg" xmlns:xlink="http://www.w3.org/1999/xlink" width="57" height="20" viewBox="0 0 57 20"><defs><path id="a" d="M1448.45 632.84a6.08 6.08 0 00-.52.02c-.5.05-1.45.28-1.97.73-1.55 1.34-.63 3.79 2.52 3.79 1.82 0 3.65-1.16 5.08-3-1.85-.9-3.44-1.56-5.11-1.54zm-2.22-10.84a3.22 3.22 0 00-3.23 3.2v13.6c0 1.77 1.45 3.2 3.23 3.2h13.72a3.22 3.22 0 003.24-3.2v-.14c-.06-.03-5.25-2.17-7.89-3.43-1.77 2.17-4.07 3.49-6.45 3.49-4.03 0-5.4-3.5-3.49-5.8a4.1 4.1 0 012.22-1.24c1.72-.42 4.45.26 7.02 1.1.46-.84.84-1.77 1.13-2.76h-7.9v-.79h4.08v-1.42h-4.93v-.8h4.93V625s0-.34.35-.34h1.99v2.37h4.87v.8h-4.87v1.41h3.98a16.04 16.04 0 01-1.69 4.22c1.21.43 2.3.84 3.1 1.1 2.7.9 3.45 1.01 3.55 1.02v-10.36a3.23 3.23 0 00-3.24-3.21h-13.72z"/><path id="b" d="M1491.92 626.26h-2.06v-1.9h3.87v-1.06h2.16v1.06h3.34c.3 0 .54.25.54.55v1.35h-2.07v-1.13h-5.78zm8.08 7.75v.03h-10.14v-.77h3.97v-3.24h-3.97v-.77h3.97v-1.52h-3.97v-.77h9.9v.77h-3.97v1.52h3.97v.77h-3.97v3.24h2.02l-.5-1.67h1.73c.15 0 .27.1.32.24l.64 2.17zm-18.6-10.61l-1.34 3.04h.64v7.84h-1.77v-5.91h-1.62l2.11-4.97zm3.66 7.58h-1.8l-1.2-3.74h1.53a.41.41 0 01.36.24zm2.8-5.58h.74v.77h-.75v7.26a.72.72 0 01-.69.71h-2.39v-.8h.94a.32.32 0 00.3-.28v-6.89h-4.55v-.77h4.55v-1.91h1.84zm-11.52 1.58a8.55 8.55 0 01-3.38 4.66c1.05.65 2.38 1.32 4.07 1.93v.9s-2.64-.53-5.26-2.05a18.65 18.65 0 01-5.32 2.04v-.94a16 16 0 004.16-1.85 10.18 10.18 0 01-2.94-3.12h1.84s.56 1 2.25 2.28c1.88-1.59 2.26-3.06 2.26-3.06h-6.86v-.79h3.44v-1.26h-4.08v-.79h4.08v-1.23c0-.2.16-.37.36-.37h1.84v1.6h4.1v.79h-4.1v1.26h3.54zm-7.5 12.56l-.33.92h-.85l1.68-4.55h.66l1.69 4.55h-.86l-.3-.92zm.2-.57h1.29l-.64-1.89zm6.19-3.06v3.93h1.95v.62h-2.78v-4.55zm4.98 0h.83v4.55h-.83zm5.96 0c.88 0 1.5.57 1.5 1.4 0 .82-.62 1.4-1.5 1.4h-.96v1.75h-.82v-4.55h1.78zm-.04 2.17c.48 0 .74-.4.74-.77 0-.39-.28-.78-.74-.78h-.92v1.55h.92zm4.72 1.46l-.32.92h-.86l1.68-4.55h.66l1.7 4.55h-.87l-.3-.92zm.2-.57h1.3l-.65-1.89zm8.16-3.06l-1.4 2.67v1.88h-.82v-1.87l-1.4-2.68h.9l.92 1.94.9-1.94z"/></defs><use fill="#a9a9a9" xlink:href="#a" transform="translate(-1443 -622)"/><use fill="#636363" xlink:href="#b" transform="translate(-1443 -622)"/></svg>