<svg xmlns="http://www.w3.org/2000/svg" xmlns:xlink="http://www.w3.org/1999/xlink" width="71" height="13" viewBox="0 0 71 13"><defs><path id="a" d="M991.01 1705.08h10.22v12.91h-10.22z"/><path id="c" d="M996.74 1717.23c0 .48.43.84.9.76l.08-.02a5.5 5.5 0 002.1-.92c.9-.68 1.39-1.6 1.42-2.67.05-1.77-1.22-3.11-3.4-3.58-.4-.08-.87-.14-1.36-.2-1.38-.17-2.94-.36-3.35-1.28-.2-.46-.2-.9 0-1.33.28-.57.94-1.05 1.68-1.23a6 6 0 014.62.87c.34.24.81.23 1.09-.08a.77.77 0 00-.12-1.12 7.48 7.48 0 00-5.94-1.17 4.09 4.09 0 00-2.71 2.05 3.01 3.01 0 00-.03 2.64c.77 1.7 2.87 1.97 4.57 2.18.45.06.89.1 1.23.18.83.18 2.21.68 2.17 2.03-.03 1.2-1.14 1.86-2.24 2.12l-.08.01a.77.77 0 00-.63.76"/><path id="d" d="M995.48 1717.18a.76.76 0 01-.93.76l-.06-.02a6.68 6.68 0 01-3.26-1.84c-.29-.3-.32-.8-.02-1.1a.77.77 0 011.11 0 5.06 5.06 0 002.58 1.46.76.76 0 01.58.74"/><path id="e" d="M1014.1 1714.14a.36.36 0 00-.1.25v2.57c0 .53-.34.87-.84.87-.5 0-.85-.34-.85-.87v-10.84c0-.53.35-.87.85-.87s.83.34.83.87v5.8c0 .07.08.1.13.05l6.04-6.42c.2-.2.4-.3.65-.3.46 0 .8.32.8.74 0 .3-.12.52-.43.82l-7.08 7.33m3.32-1.73a.8.8 0 011.2.06l3.04 3.98c.18.25.23.45.23.62a.77.77 0 01-.75.77.85.85 0 01-.75-.4l-3.03-4a.8.8 0 01.06-1.03"/><path id="f" d="M1052.98 1711.3h4.74c.53 0 .83.24.83.72s-.3.75-.83.75h-4.66a.07.07 0 00-.08.07v3.27c0 .04.03.08.07.08h7.27c.53 0 .88.32.88.78 0 .48-.35.78-.89.78h-8.16a.85.85 0 01-.85-.85v-5.24c0-.2.16-.36.36-.36h1.32m-1.68-2.1v-3.01c0-.47.38-.85.85-.85h8.16c.54 0 .87.32.87.78 0 .48-.33.78-.87.78h-7.25a.07.07 0 00-.08.07v2.23a.84.84 0 11-1.68 0"/><path id="g" d="M1040.38 1705.6a.75.75 0 01.67-.36c.43 0 .8.34.8.73 0 .2-.05.37-.17.57l-4.15 5.94a.36.36 0 00-.06.2v4.28c0 .55-.34.89-.86.89-.5 0-.83-.34-.83-.89v-4.15c0-.33.1-.66.29-.93l4.3-6.29m-4.83 4.83a.78.78 0 01-1.28 0l-2.74-3.88a.93.93 0 01-.18-.57c0-.4.37-.73.8-.73.3 0 .5.1.67.35l2.73 3.95a.78.78 0 010 .88"/><clipPath id="b"><use xlink:href="#a"/></clipPath></defs><g clip-path="url(#b)" transform="translate(-991 -1705)"><use fill="#636363" xlink:href="#c"/></g><g clip-path="url(#b)" transform="translate(-991 -1705)"><use fill="#636363" xlink:href="#d"/></g><use fill="#636363" xlink:href="#e" transform="translate(-991 -1705)"/><use fill="#636363" xlink:href="#f" transform="translate(-991 -1705)"/><use fill="#636363" xlink:href="#g" transform="translate(-991 -1705)"/></svg>