<svg xmlns="http://www.w3.org/2000/svg" xmlns:xlink="http://www.w3.org/1999/xlink" width="30" height="15" viewBox="0 0 30 15"><defs><path id="a" d="M944 1719v-14.21h29.35V1719z"/><path id="b" d="M946.28 1707.61l1.21 1.96h-2.42z"/><path id="c" d="M949.54 1707.61l1.21 1.96h-2.42z"/><path id="d" d="M952.8 1707.61l1.21 1.96h-2.42z"/><path id="e" d="M968.77 1706.38H968l-.52 4.25h.76l.23-1.88h.23a.4.4 0 01.2.04l.1.1.87 1.59a.36.36 0 00.04.06.19.19 0 00.06.05.29.29 0 00.08.03h.78l-1.08-1.98a.65.65 0 00-.11-.16.46.46 0 00-.15-.1.54.54 0 00.13-.09 1.34 1.34 0 00.13-.13l1.5-1.78h-.65a.52.52 0 00-.2.04.42.42 0 00-.16.13l-1.23 1.5a.35.35 0 01-.3.13h-.17zm-5.09 0l-.52 4.26h.67l.33-2.78a11.46 11.46 0 00.03-.26l1.64 2.9a.23.23 0 00.1.1.36.36 0 00.15.04h.4l.52-4.26h-.67l-.34 2.71a4.57 4.57 0 00-.03.32l-1.65-2.9a.4.4 0 00-.04-.07.15.15 0 00-.05-.03.19.19 0 00-.06-.02.66.66 0 00-.08 0zm-2.78 1.2a6.2 6.2 0 00.21-.49 5.48 5.48 0 00.1.49l.28 1.45h-1.24zm.68-1.2h-.77l-2.06 4.26h.6c.06 0 .12-.02.17-.06a.32.32 0 00.1-.12l.4-.89h1.58l.17.9c.01.05.04.09.08.12s.09.05.16.05h.59zm-4.94.59h.61c.21 0 .37.04.47.12.1.08.16.21.16.4 0 .24-.08.43-.22.56a.9.9 0 01-.6.18h-.58zm.5 1.79c.22 0 .38.04.48.13a.48.48 0 01.14.37c0 .11-.01.22-.04.31a.62.62 0 01-.14.24.64.64 0 01-.24.16 1 1 0 01-.36.05h-.72l.16-1.26zm-.22 1.88c.25 0 .47-.04.67-.1.2-.08.36-.17.5-.3.14-.12.24-.26.32-.43.07-.17.1-.35.1-.55a.77.77 0 00-.17-.52c-.12-.13-.3-.23-.54-.3a1.45 1.45 0 00.38-.18 1.11 1.11 0 00.26-.25.99.99 0 00.15-.3 1.24 1.24 0 00.05-.36c0-.14-.03-.28-.08-.4a.77.77 0 00-.23-.3 1.15 1.15 0 00-.41-.2 2.3 2.3 0 00-.6-.07h-1.37l-.52 4.26z"/><path id="f" d="M969.04 1713.26l-.18 1.44h.44c.16 0 .29-.02.4-.06a.73.73 0 00.27-.19.75.75 0 00.16-.27c.04-.1.05-.21.05-.33a.56.56 0 00-.17-.43c-.11-.1-.29-.16-.52-.16zm-.24 2l-.21 1.67h-.76l.52-4.26h1.2c.25 0 .46.03.64.08.17.05.31.13.42.22a.85.85 0 01.25.33 1.35 1.35 0 01.01.89 1.36 1.36 0 01-.51.7 1.5 1.5 0 01-.43.21.6.6 0 01.22.24l.76 1.59h-.69a.31.31 0 01-.16-.04.24.24 0 01-.1-.12l-.62-1.38a.26.26 0 00-.09-.1.3.3 0 00-.16-.04zm-.96-2.59l-.07.61h-1.7l-.15 1.21h1.34l-.08.59h-1.33l-.16 1.24h1.71l-.07.6h-2.47l.52-4.25zm-2.96.61h-1.7l-.17 1.3h1.44l-.07.6h-1.44l-.21 1.75h-.77l.52-4.26h2.48zm-3.15.16a.34.34 0 01-.09.08.17.17 0 01-.1.03.2.2 0 01-.12-.05 3.08 3.08 0 00-.14-.1 1.1 1.1 0 00-.2-.1.75.75 0 00-.28-.05.8.8 0 00-.29.05.59.59 0 00-.2.13.54.54 0 00-.13.19.67.67 0 00-.04.24c0 .09.02.17.07.22.04.06.1.12.18.16.07.05.16.09.25.12l.3.11.28.14c.1.05.19.11.26.19a.87.87 0 01.18.26.94.94 0 01.07.38c0 .21-.04.4-.1.6a1.43 1.43 0 01-.8.8 1.63 1.63 0 01-.65.12 1.68 1.68 0 01-1-.32 1.3 1.3 0 01-.23-.23l.27-.37a.25.25 0 01.08-.06.21.21 0 01.1-.03c.03 0 .07 0 .1.03l.1.07a8.2 8.2 0 01.11.1l.15.09a.87.87 0 00.42.1.7.7 0 00.52-.19.7.7 0 00.19-.52.4.4 0 00-.07-.24.56.56 0 00-.18-.16 1.43 1.43 0 00-.25-.11l-.29-.1a2.61 2.61 0 01-.29-.13.98.98 0 01-.25-.18.85.85 0 01-.18-.28 1.07 1.07 0 01-.07-.4 1.4 1.4 0 01.4-.98 1.44 1.44 0 011.06-.42 1.54 1.54 0 01.63.13 1.32 1.32 0 01.45.36zm-5.58-.77h.09a.19.19 0 01.06.03.15.15 0 01.04.03.4.4 0 01.05.07l1.65 2.9a7.66 7.66 0 01.03-.32l.33-2.7h.67l-.52 4.25h-.4a.36.36 0 01-.14-.03.23.23 0 01-.1-.1l-1.65-2.9a24.9 24.9 0 01-.02.25l-.33 2.78h-.68l.53-4.26zm-3.47 2.65h1.24l-.3-1.45a10.73 10.73 0 01-.04-.22 4.63 4.63 0 01-.04-.27 6.2 6.2 0 01-.21.5zm2.34 1.6h-.59a.25.25 0 01-.16-.04.2.2 0 01-.07-.13l-.18-.88h-1.58l-.39.88a.32.32 0 01-.1.12.27.27 0 01-.17.06h-.5l-.05-.1 2-4.16h.78zm-5.61-3.66l-.18 1.44h.44c.15 0 .29-.02.4-.06a.73.73 0 00.27-.19.75.75 0 00.16-.27c.03-.1.05-.21.05-.33a.56.56 0 00-.17-.43c-.11-.1-.29-.16-.52-.16zm-.25 2l-.2 1.67h-.76l.52-4.26h1.2c.25 0 .46.03.63.08.18.05.32.13.43.22a.85.85 0 01.25.33 1.35 1.35 0 01.01.89 1.36 1.36 0 01-.52.7 1.5 1.5 0 01-.42.21.6.6 0 01.22.24l.7 1.49-.04.1h-.59a.31.31 0 01-.16-.04.24.24 0 01-.1-.12l-.62-1.38a.26.26 0 00-.09-.1.3.3 0 00-.16-.04zm-.77-2.59l-.08.63h-1.16l-.45 3.63h-.76l.45-3.63h-1.17l.08-.63z"/></defs><use fill="#636363" xlink:href="#a" transform="translate(-944 -1704)"/><use fill="#fff" xlink:href="#b" transform="rotate(90 1326.5 384.5)"/><use fill="#fff" xlink:href="#c" transform="rotate(90 1329.5 384.5)"/><use fill="#fff" xlink:href="#d" transform="rotate(90 1332.5 384.5)"/><use fill="#fff" xlink:href="#e" transform="translate(-944 -1704)"/><use fill="#fff" xlink:href="#f" transform="translate(-944 -1704)"/></svg>