<svg xmlns="http://www.w3.org/2000/svg" xmlns:xlink="http://www.w3.org/1999/xlink" width="28" height="15" viewBox="0 0 28 15"><defs><path id="a" d="M926.04 1704.06h-26.98v14.9h26.98v-4.92a.4.4 0 00.16-.32.37.37 0 00-.16-.33"/><path id="b" d="M899.06 1711.5v-2.25l.92-2.04h1.98l.25.5v-.5h2.32l.5 1.1.5-1.1h7.36c.34 0 .64.06.86.25v-.25h2.01v.25a2.7 2.7 0 011.27-.25h2.92l.27.5v-.5h2.16l.3.5v-.5h2.1v4.28h-2.13l-.4-.65v.65h-2.65l-.3-.68h-.65l-.3.68h-1.37c-.54 0-.95-.12-1.22-.26v.26h-3.27v-.97c0-.14-.03-.14-.11-.15h-.13v1.12h-6.33v-.53l-.23.53h-1.32l-.23-.52v.52h-2.55l-.29-.68h-.65l-.3.68zm25.05-3.68h-.78v2.14l-1.33-2.14h-1.16v2.9l-1.28-2.9h-1.14l-1.06 2.41h-.34c-.2 0-.42-.03-.53-.16-.14-.15-.21-.39-.21-.72 0-.32.09-.56.22-.7.15-.13.3-.17.58-.17h.72v-.66h-.74c-.52 0-.9.11-1.15.36-.32.33-.4.74-.4 1.2 0 .56.13.9.4 1.17.26.26.73.34 1.1.34h.88l.3-.69h1.57l.3.69h1.54v-2.3l1.43 2.3h1.08zm-8.98 0h-.77v3.07h.77zm-1.6.15c-.24-.14-.53-.15-.91-.15h-1.75v3.07h.76v-1.12h.81c.28 0 .45.02.56.13.13.15.12.42.12.6v.39h.77v-.6c0-.28-.02-.42-.13-.57a.88.88 0 00-.38-.26.86.86 0 00.54-.82.71.71 0 00-.39-.68zm-3.17 2.92v-.64h-1.79v-.6h1.74v-.64h-1.74v-.55h1.79v-.64h-2.55v3.07zm-3.11 0v-3.07h-1.26l-.92 2.08-.99-2.08h-1.24v2.9l-1.29-2.9h-1.12l-1.36 3.07h.82l.3-.69h1.58l.29.69h1.54v-2.4l1.1 2.4h.67l1.1-2.4v2.4zm11.2-1.33l.52-1.22.53 1.22zm-5.52-.48c-.1.06-.23.06-.38.06h-.92v-.68h.93c.14 0 .27 0 .36.05.1.05.16.14.16.27 0 .14-.05.25-.15.3zm-12.47.48l.5-1.22.52 1.22z"/><path id="c" d="M912.49 1713.1h-2.43l-.96 1-.94-1h-3.05v3.07h3l.98-1.02.93 1.02h1.48v-1.03h.94c.67 0 1.32-.18 1.32-1.03 0-.85-.67-1-1.27-1zm-1.75 2.8l-1.16-1.26 1.16-1.21zm1.74-1.38h-.98v-.78h.99c.27 0 .46.1.46.37s-.18.4-.47.4zm5.11-1.42v3.07h2.53v-.64h-1.77v-.6h1.73v-.64h-1.73v-.55h1.77v-.64zm-.42.83a.71.71 0 00-.39-.68 1.93 1.93 0 00-.91-.15h-1.75v3.07h.76v-1.12h.81c.28 0 .45.03.56.14.14.14.12.41.12.6v.38h.76v-.6c0-.28-.02-.42-.12-.57a.82.82 0 00-.38-.26.86.86 0 00.54-.81zm-1 .43a.7.7 0 01-.37.07h-.92v-.7h.93c.14 0 .27 0 .37.06.1.05.15.15.15.28a.33.33 0 01-.15.3zm5.98-.06h-.4a.9.9 0 01-.3-.04.24.24 0 01-.17-.23c0-.1.03-.17.12-.22.08-.05.17-.06.3-.06h1.4v-.65h-1.53c-.8 0-1.08.47-1.08.91 0 .98.89.93 1.6.95.13 0 .2.03.27.07a.27.27 0 010 .4c-.06.06-.17.08-.31.08h-1.47v.66h1.48c.76 0 1.19-.3 1.19-.97 0-.31-.08-.5-.23-.65-.17-.17-.45-.24-.87-.25zm3.9 2.28c-.3.14-.7.2-1.12.2h-1.96v-.28a1.8 1.8 0 01-1.03.27h-6.2v-.99c0-.12-.01-.12-.14-.12h-.1v1.11h-2.04v-1.15c-.34.14-.72.15-1.05.15h-.24v1h-2.48l-.6-.66-.65.66h-4.01v-4.28h4.09l.58.66.63-.66h2.74c.31 0 .83.03 1.07.25v-.25h2.44c.23 0 .73.04 1.02.25v-.25h3.71v.25c.18-.17.57-.25.9-.25h2.08v.25c.22-.15.53-.25.95-.25h1.4v.61h-1.5c-.8 0-1.1.47-1.1.91 0 .98.9.93 1.6.95.14 0 .22.03.27.07a.25.25 0 01.1.2.27.27 0 01-.1.2c-.05.06-.16.08-.3.08h-1.46v.66h1.47c.48 0 .84-.13 1.03-.4zm0-1.94l-.07-.08c-.17-.17-.45-.24-.87-.25h-.4a.88.88 0 01-.3-.05.23.23 0 01-.17-.23c0-.1.04-.17.12-.22.07-.05.16-.06.3-.06h1.38z"/></defs><use fill="#636363" xlink:href="#a" transform="translate(-899 -1704)"/><use fill="#fff" xlink:href="#b" transform="translate(-899 -1704)"/><use fill="#fff" xlink:href="#c" transform="translate(-899 -1704)"/></svg>