<svg xmlns="http://www.w3.org/2000/svg" xmlns:xlink="http://www.w3.org/1999/xlink" width="62" height="15" viewBox="0 0 62 15"><defs><path id="a" d="M1102.26 1710.37c-.18 1.19-1.11 1.19-2 1.19h-.52l.36-2.22a.28.28 0 01.28-.23h.23c.61 0 1.19 0 1.49.34.18.2.23.5.16.92zm-.39-3.1h-3.38a.47.47 0 00-.47.39l-1.37 8.48a.28.28 0 00.28.32h1.62a.47.47 0 00.46-.39l.37-2.29a.47.47 0 01.47-.38h1.07c2.23 0 3.51-1.06 3.85-3.15.15-.91 0-1.63-.43-2.13-.48-.56-1.34-.85-2.47-.85z"/><path id="b" d="M1109.73 1713.41a1.8 1.8 0 01-1.83 1.52c-.47 0-.85-.15-1.09-.43a1.33 1.33 0 01-.25-1.11 1.8 1.8 0 011.81-1.53c.46 0 .84.15 1.08.43.25.29.35.68.28 1.12zm2.26-3.08h-1.62a.28.28 0 00-.28.23l-.08.44-.1-.16c-.36-.5-1.14-.66-1.92-.66a3.7 3.7 0 00-3.62 3.19c-.16.92.06 1.81.6 2.43.5.57 1.2.8 2.04.8 1.45 0 2.25-.9 2.25-.9l-.07.44a.28.28 0 00.27.32h1.46a.47.47 0 00.47-.39l.87-5.42a.28.28 0 00-.27-.32z"/><path id="c" d="M1120.62 1710.33H1119a.47.47 0 00-.39.2l-2.24 3.24-.95-3.11a.47.47 0 00-.46-.33h-1.6a.28.28 0 00-.26.36l1.79 5.15-1.69 2.33a.28.28 0 00.23.44h1.63a.47.47 0 00.39-.2l5.41-7.65a.28.28 0 00-.23-.43z"/><path id="d" d="M1126.4 1710.37c-.18 1.19-1.11 1.19-2 1.19h-.52l.36-2.22a.28.28 0 01.28-.23h.23c.61 0 1.19 0 1.49.34.18.2.23.5.16.92zm-.39-3.1h-3.38a.47.47 0 00-.47.39l-1.37 8.48a.28.28 0 00.28.32h1.74c.16 0 .3-.11.32-.27l.4-2.4a.47.47 0 01.46-.4h1.07c2.23 0 3.51-1.05 3.85-3.14.15-.91 0-1.63-.43-2.13-.48-.56-1.34-.85-2.47-.85z"/><path id="e" d="M1133.86 1713.41a1.8 1.8 0 01-1.82 1.52c-.47 0-.85-.15-1.1-.43a1.33 1.33 0 01-.25-1.11c.15-.9.9-1.53 1.82-1.53.46 0 .83.15 1.08.43.25.29.35.68.27 1.12zm2.26-3.08h-1.62a.28.28 0 00-.27.23l-.08.44-.11-.16c-.35-.5-1.13-.66-1.91-.66a3.7 3.7 0 00-3.62 3.19c-.16.92.06 1.81.6 2.43.5.57 1.2.8 2.04.8 1.45 0 2.25-.9 2.25-.9l-.08.44a.28.28 0 00.28.32h1.46a.47.47 0 00.47-.39l.87-5.42a.28.28 0 00-.28-.32z"/><path id="f" d="M1138.03 1707.5l-1.39 8.64a.28.28 0 00.28.32h1.4a.47.47 0 00.46-.39l1.37-8.48a.28.28 0 00-.28-.32h-1.56a.28.28 0 00-.28.23z"/><path id="g" d="M1082.6 1718.11l.26-1.6-.58-.02h-2.75l1.91-11.86a.16.16 0 01.16-.13h4.64c1.54 0 2.6.31 3.16.93.26.3.43.6.5.93.1.35.1.77.01 1.28v.36l.25.15a1.79 1.79 0 01.96 1.33 4.7 4.7 0 01-.63 2.9 3.2 3.2 0 01-.9.97 3.7 3.7 0 01-1.22.53 6.2 6.2 0 01-1.52.18h-.36c-.26 0-.51.09-.7.25a1.06 1.06 0 00-.38.64l-.02.15-.46 2.83-.02.1c0 .04-.02.05-.03.06a.08.08 0 01-.05.02z"/><path id="h" d="M1090.4 1707.71l-.04.27c-.62 3.07-2.71 4.13-5.38 4.13h-1.37a.66.66 0 00-.65.55l-.7 4.32-.2 1.23a.34.34 0 00.35.4h2.41a.58.58 0 00.58-.49l.02-.12.46-2.82.03-.15a.58.58 0 01.57-.48h.36c2.34 0 4.17-.93 4.7-3.62.23-1.12.12-2.06-.48-2.72a2.3 2.3 0 00-.66-.5z"/><path id="i" d="M1089.76 1707.46a4.92 4.92 0 00-.6-.13 7.73 7.73 0 00-1.2-.08h-3.63a.58.58 0 00-.25.06.57.57 0 00-.32.42l-.78 4.8-.02.13a.66.66 0 01.65-.55h1.37c2.67 0 4.76-1.06 5.38-4.13a6.74 6.74 0 00.04-.27 3.3 3.3 0 00-.64-.25z"/><path id="j" d="M1083.76 1707.72a.57.57 0 01.32-.42.59.59 0 01.25-.05h3.64c.43 0 .83.02 1.2.08a4.92 4.92 0 01.73.17c.18.06.35.13.5.21.19-1.14 0-1.9-.62-2.61-.7-.77-1.95-1.1-3.54-1.1h-4.65a.66.66 0 00-.65.55l-1.94 11.98a.4.4 0 00.4.45h2.86l.72-4.46z"/></defs><use fill="#636363" xlink:href="#a" transform="translate(-1079 -1704)"/><use fill="#636363" xlink:href="#b" transform="translate(-1079 -1704)"/><use fill="#636363" xlink:href="#c" transform="translate(-1079 -1704)"/><use fill="#a9a9a9" xlink:href="#d" transform="translate(-1079 -1704)"/><use fill="#a9a9a9" xlink:href="#e" transform="translate(-1079 -1704)"/><use fill="#a9a9a9" xlink:href="#f" transform="translate(-1079 -1704)"/><use fill="#253b80" xlink:href="#g" transform="translate(-1079 -1704)"/><use fill="#a9a9a9" xlink:href="#h" transform="translate(-1079 -1704)"/><use fill="#636363" xlink:href="#i" transform="translate(-1079 -1704)"/><use fill="#636363" xlink:href="#j" transform="translate(-1079 -1704)"/></svg>