<svg id="Слой_1" data-name="Слой 1" xmlns="http://www.w3.org/2000/svg" viewBox="0 0 141.73 141.73"><defs><style>.cls-1{fill:#fff}</style></defs><path class="cls-1" d="M70.91 10.49h-8.49l-8.35 9.79h9.55l7.29-9.79zm20.51 9.79l-8.34-9.79h-8.49l7.29 9.79h9.54zm-11.86 0l-6.81-9.15-6.82 9.15h13.63zm-16.13 1.84h-9.36l16.1 18.9-6.74-18.9zm9.32 20.58l7.34-20.58H65.41l7.34 20.58zm9.32-20.58l-6.74 18.9 16.1-18.9h-9.36z"/><path class="cls-1" d="M94.73 50.28a34.56 34.56 0 01-1.39-3.6c-2.6-7.94-.36-16.29 6-22.35a1.29 1.29 0 00-1.27-2.17 2.65 2.65 0 00-.42.12c-8.88 3.8-13.34 14.06-11.07 24.6a47 47 0 00-27.64 0c2.27-10.54-2.19-20.8-11.07-24.59a1.61 1.61 0 00-.44-.13 1.29 1.29 0 00-1.25 2.17c6.35 6.06 8.59 14.41 6 22.35a34.56 34.56 0 01-1.39 3.6 46.88 46.88 0 1044 0zm-22 78a36.57 36.57 0 1136.57-36.57 36.61 36.61 0 01-36.55 36.53z"/></svg>