<svg xmlns="http://www.w3.org/2000/svg" xmlns:xlink="http://www.w3.org/1999/xlink" width="23" height="32" viewBox="0 0 23 32"><defs><path id="b" d="M1150.55 824.12h-4.47l.85-1.35h2.76z"/><path id="c" d="M1150.93 824.1l2.39-.43-1.65-1.23-1.61.29z"/><path id="d" d="M1149.28 822h-1.94l-1.47.27.98.17h2.92l.98-.18z"/><path id="e" d="M1148.32 830.9l2.3-6.44H1146z"/><path id="f" d="M1150.98 824.43l-2.09 5.88 4.46-6.3z"/><path id="g" d="M1146.56 822.73l-1.62-.28-1.64 1.24 2.39.42z"/><path id="h" d="M1145.65 824.44l-2.38-.42 4.48 6.29z"/><path id="a" d="M1137 825.88h22.65v28.09H1137z"/><path id="j" d="M1153.53 825.88a2.34 2.34 0 00-2.34 2.3 5.78 5.78 0 001.35 3.5l.55.68a11.28 11.28 0 00-4.77-1.05c-1.71 0-3.32.38-4.77 1.06l.49-.6a5.93 5.93 0 001.4-3.55 2.34 2.34 0 00-1.1-2 2.35 2.35 0 00-1.76-.27c-.34.08-.66.24-.87.52a1.34 1.34 0 00-.26.93c.06.63.64 1.19 1.3 1.08.23-.04.44-.23.45-.46.02-.24-.01-.46-.25-.57-.5-.23-.9.49-.45.8a.84.84 0 01-.53-.57c-.07-.28 0-.65.24-.84.23-.19.58-.2.87-.16.3.03.59.15.82.35.4.34.53.83.48 1.33a4.54 4.54 0 01-.74 1.97c-.8 1.25-1.9 2.3-2.89 3.4-.69.8-1.35 1.62-1.9 2.52a13.56 13.56 0 00-.85 1.72l-.07.17a11.28 11.28 0 00-.93 4.5 11.32 11.32 0 009.8 11.23 11.33 11.33 0 0012.85-11.24 11.28 11.28 0 00-.93-4.51c-.27-.73-.63-1.43-1.05-2.09-.8-1.26-1.82-2.36-2.83-3.46-.5-.54-1-1.1-1.45-1.7a5.95 5.95 0 01-1.02-1.88c-.14-.47-.22-1.02-.01-1.48.27-.6.89-.9 1.52-.85.43.02.74.25.8.7a.84.84 0 01-.56.87.46.46 0 00.07-.7.46.46 0 00-.69.04.6.6 0 00.04.7c.2.24.56.24.84.15.65-.22.92-.94.74-1.57-.2-.69-.93-.97-1.6-.97m4.41 16.75a9.6 9.6 0 01-10.23 9.59c-.99-.14-2.66-.58-2.82-.62a9.6 9.6 0 01-6.16-8.95 9.54 9.54 0 011.95-5.81l.02-.02a9.59 9.59 0 017.63-3.79 9.6 9.6 0 019.61 9.6"/><clipPath id="i"><use xlink:href="#a"/></clipPath></defs><use fill="#fff" xlink:href="#b" transform="translate(-1137 -822)"/><use fill="#fff" xlink:href="#c" transform="translate(-1137 -822)"/><use fill="#fff" xlink:href="#d" transform="translate(-1137 -822)"/><use fill="#fff" xlink:href="#e" transform="translate(-1137 -822)"/><use fill="#fff" xlink:href="#f" transform="translate(-1137 -822)"/><use fill="#fff" xlink:href="#g" transform="translate(-1137 -822)"/><use fill="#fff" xlink:href="#h" transform="translate(-1137 -822)"/><g clip-path="url(#i)" transform="translate(-1137 -822)"><use fill="#fff" xlink:href="#j"/></g></svg>