<svg xmlns="http://www.w3.org/2000/svg" xmlns:xlink="http://www.w3.org/1999/xlink" width="26" height="22" viewBox="0 0 26 22"><defs><path id="a" d="M1140.41 1017.58l3.88 1.61h11.03l3.92-1.61-3.76-1.58h-11.04l-4.03 1.58"/><path id="b" d="M1139.53 1018.26l4.4 1.78-1 3.96-5.93-2.59 2.53-3.15"/><path id="c" d="M1137.32 1022.63l5.58 2.59 5.65 11.48-11.23-14.07"/><path id="d" d="M1151.3 1036.7l5.77-11.48 5.46-2.59-11.23 14.07"/><path id="e" d="M1154.93 1020.37h-10.12l-.99 3.68 12.06-.04"/><path id="f" d="M1156.01 1020.09l1.1 3.92 5.78-2.67-2.33-2.91-4.55 1.66"/><path id="g" d="M1143.82 1025.38h12.06l-5.97 11.96-6.09-11.96"/></defs><use fill="#fff" xlink:href="#a" transform="translate(-1137 -1016)"/><use fill="#fff" xlink:href="#b" transform="translate(-1137 -1016)"/><use fill="#fff" xlink:href="#c" transform="translate(-1137 -1016)"/><use fill="#fff" xlink:href="#d" transform="translate(-1137 -1016)"/><use fill="#fff" xlink:href="#e" transform="translate(-1137 -1016)"/><use fill="#fff" xlink:href="#f" transform="translate(-1137 -1016)"/><use fill="#fff" xlink:href="#g" transform="translate(-1137 -1016)"/></svg>