<svg xmlns="http://www.w3.org/2000/svg" xmlns:xlink="http://www.w3.org/1999/xlink" width="24" height="19" viewBox="0 0 24 19"><defs><path id="a" d="M1160.76 948.06a.24.24 0 01.24.24v1.43a.24.24 0 01-.24.24h-1.56a.34.34 0 00-.3.23l-2.76 9.57a.34.34 0 01-.3.23h-13.75a.34.34 0 01-.3-.23l-2.72-9.57a.34.34 0 00-.3-.23h-1.53a.24.24 0 01-.24-.24v-1.43a.24.24 0 01.24-.24h3.8a2.85 2.85 0 001.56 2.53 2.88 2.88 0 003.88-1.23l.67-1.3h3.7l.68 1.3a2.88 2.88 0 002.56 1.55c.44 0 .9-.1 1.32-.32a2.85 2.85 0 001.55-2.53h3.8m-17.28.84a.95.95 0 01-.42-1.28l3.17-6.1a.96.96 0 011.3-.41.95.95 0 01.41 1.28l-3.17 6.1a.96.96 0 01-1.3.41m6.6-6.51a.95.95 0 01.4-1.28.96.96 0 011.3.4l3.17 6.1a.95.95 0 01-.41 1.29.96.96 0 01-1.3-.41z"/></defs><use fill="#fff" xlink:href="#a" transform="translate(-1137 -941)"/></svg>