<svg xmlns="http://www.w3.org/2000/svg" xmlns:xlink="http://www.w3.org/1999/xlink" width="41" height="25" viewBox="0 0 41 25"><defs><path id="a" d="M1496.8 490.04h-35.4a2.36 2.36 0 00-2.36 2.36v20.21a2.36 2.36 0 002.36 2.36h35.4a2.36 2.36 0 002.36-2.36V492.4a2.36 2.36 0 00-2.36-2.36zm0 .4c1.09 0 1.97.88 1.97 1.96v20.21c0 1.09-.88 1.97-1.97 1.97h-35.4a1.97 1.97 0 01-1.97-1.97v-20.2c0-1.1.88-1.98 1.97-1.98h35.4z"/><path id="b" d="M1492.1 504h1.34c.51 0 .88.01 1.08.06a1.26 1.26 0 01.92.73c.09.2.13.41.13.65 0 .36-.09.66-.26.88a1.3 1.3 0 01-.78.45l1.27 1.88h-1.43l-1.07-1.82v1.82h-1.2zm1.2 2.2h.23c.28 0 .48-.05.6-.15.13-.09.2-.24.2-.44 0-.23-.07-.4-.18-.5-.12-.1-.32-.14-.6-.14h-.25zm-4.89-2.2h2.86v1h-1.62v.81h1.53v1h-1.53v.79h1.62v1.04h-2.86zm-3.54 0h2.85v1h-1.61v.81h1.52v1h-1.52v1.83h-1.24zm-3.58 3.14c.19.22.38.38.56.48.18.11.37.16.55.16a.63.63 0 00.42-.13.43.43 0 00.16-.35.49.49 0 00-.14-.36 1.8 1.8 0 00-.64-.26 2.1 2.1 0 01-.97-.48 1.1 1.1 0 01-.28-.8c0-.45.15-.82.44-1.1.3-.28.69-.42 1.16-.42a2.53 2.53 0 011.39.42l-.4.91a1.67 1.67 0 00-.44-.28 1.18 1.18 0 00-.45-.1.6.6 0 00-.38.12.34.34 0 00-.14.28c0 .12.04.2.13.28.08.07.24.14.48.2l.06.02c.52.14.86.29 1.02.46.1.11.2.25.25.4.06.17.09.35.09.54 0 .5-.17.9-.49 1.2-.33.3-.76.44-1.3.44a2.3 2.3 0 01-.88-.16 2.5 2.5 0 01-.77-.52zm-5.76-3.15h1.23l1.76 2.4.16.3.26.52a9.74 9.74 0 01-.06-.52 5.25 5.25 0 01-.02-.4V504h1.22v4.66h-1.22l-1.76-2.4a2.65 2.65 0 01-.17-.3 11.5 11.5 0 01-.25-.52 9.82 9.82 0 01.08.92v2.3h-1.23zm-3.47 2.92h1.26l-.47-1.54a3.88 3.88 0 01-.06-.22l-.1-.4a25.27 25.27 0 01-.08.32 9.85 9.85 0 01-.09.3zm-5.41-2.92h1.32c.52 0 .89.02 1.1.07a1.26 1.26 0 01.92.73c.08.2.12.41.12.65 0 .36-.09.66-.26.88a1.3 1.3 0 01-.78.45l1.23 1.82 1.58-4.6h1.6l1.6 4.66h-1.26l-.23-.83h-1.8l-.25.83h-2.63l-1.07-1.82v1.82h-1.2zm1.19 2.2h.23c.28 0 .48-.04.6-.14.13-.09.2-.24.2-.44 0-.23-.07-.4-.18-.5-.12-.1-.32-.14-.6-.14h-.25zm-4.13 2.46v-3.56h-1.04V504h3.36v1.1h-1.05v3.56z"/><path id="c" d="M1495.32 503.14v-1.5h-2.34v-1.14h2.2v-1.45h-2.2v-1.16h2.34v-1.48h-4.13v6.73zm-10.17 0h1.72v-2.63l1.55 2.63h2.08l-1.84-2.71c.5-.11.86-.33 1.12-.65a2 2 0 00.39-1.27c0-.35-.07-.66-.2-.95a1.82 1.82 0 00-.56-.7 2.01 2.01 0 00-.77-.35c-.3-.07-.82-.1-1.57-.1h-1.92zm1.72-5.32h.37c.4 0 .7.07.86.22.18.14.26.38.26.71 0 .3-.1.5-.27.64-.19.13-.48.2-.88.2h-.34zm-3.19 5.32v-6.73h-1.86v6.73zm-6.45-6.73h-1.48l-.84 3.22a37.15 37.15 0 00-.24 1 13.2 13.2 0 00-.2-1l-.78-3.22h-1.85l1.9 6.73h1.7l.82-2.87.17-.63.06-.27.07.3c.07.3.12.5.16.6l.83 2.87h1.7l1.9-6.73h-1.85l-.8 3.2-.09.4a42.82 42.82 0 00-.11.59 17.27 17.27 0 00-.1-.54 8.03 8.03 0 00-.12-.45l-.85-3.2z"/><path id="e" d="M1462.72 497.7v-1.33h8.39v1.33z"/><path id="g" d="M1462.72 500.28v-1.33h8.39v1.33z"/><path id="i" d="M1462.72 503.1v-1.33h8.39v1.33z"/><linearGradient id="d" x1="1462.72" x2="1471.12" y1="497.04" y2="497.04" gradientUnits="userSpaceOnUse"><stop offset="0" stop-opacity="0"/><stop offset="1" stop-opacity=".41"/></linearGradient><linearGradient id="f" x1="1462.72" x2="1471.12" y1="499.62" y2="499.62" gradientUnits="userSpaceOnUse"><stop offset="0" stop-opacity="0"/><stop offset="1" stop-opacity=".41"/></linearGradient><linearGradient id="h" x1="1462.72" x2="1471.12" y1="502.44" y2="502.44" gradientUnits="userSpaceOnUse"><stop offset="0" stop-opacity="0"/><stop offset="1" stop-opacity=".41"/></linearGradient></defs><use fill="#a9a9a9" xlink:href="#a" transform="translate(-1459 -490)"/><use fill="#a9a9a9" xlink:href="#b" transform="translate(-1459 -490)"/><use fill="#636363" xlink:href="#c" transform="translate(-1459 -490)"/><use fill="url(#d)" xlink:href="#e" transform="translate(-1459 -490)"/><use fill="url(#f)" xlink:href="#g" transform="translate(-1459 -490)"/><use fill="url(#h)" xlink:href="#i" transform="translate(-1459 -490)"/></svg>