<svg xmlns="http://www.w3.org/2000/svg" xmlns:xlink="http://www.w3.org/1999/xlink" width="18" height="14" viewBox="0 0 18 14"><defs><path id="a" d="M1471 88.24h17.3v8.56H1471z"/><path id="e" d="M1488.13 88.24h-2.73a2.05 2.05 0 01-1.13 1.82 2.09 2.09 0 01-2.8-.89l-.49-.93h-2.66l-.49.94a2.09 2.09 0 01-2.8.88 2.05 2.05 0 01-1.12-1.82h-2.74a.17.17 0 00-.17.17v1.03c0 .1.08.17.17.17h1.1c.1 0 .2.07.23.16l1.95 6.87c.03.1.12.17.22.17h9.9a.24.24 0 00.23-.17l1.99-6.87a.24.24 0 01.22-.16h1.12a.17.17 0 00.17-.17V88.4a.17.17 0 00-.17-.17"/><path id="b" d="M1475.3 83.17h3.67v5.74h-3.67z"/><path id="g" d="M1475.67 88.84a.7.7 0 00.94-.3l2.28-4.37a.68.68 0 00-.3-.92.7.7 0 00-.93.3l-2.28 4.37a.68.68 0 00.3.92"/><path id="c" d="M1480.34 83.17h3.67v5.74h-3.67z"/><path id="i" d="M1482.7 88.54a.7.7 0 00.93.3.68.68 0 00.3-.92l-2.28-4.38a.7.7 0 00-.94-.3.68.68 0 00-.3.93z"/><clipPath id="d"><use xlink:href="#a"/></clipPath><clipPath id="f"><use xlink:href="#b"/></clipPath><clipPath id="h"><use xlink:href="#c"/></clipPath></defs><g clip-path="url(#d)" transform="translate(-1471 -83)"><use fill="#636363" xlink:href="#e"/></g><g clip-path="url(#f)" transform="translate(-1471 -83)"><use fill="#636363" xlink:href="#g"/></g><g clip-path="url(#h)" transform="translate(-1471 -83)"><use fill="#636363" xlink:href="#i"/></g></svg>