<svg xmlns="http://www.w3.org/2000/svg" xmlns:xlink="http://www.w3.org/1999/xlink" width="14" height="14" viewBox="0 0 14 14"><defs><path id="a" d="M1363.2 576.61c0 .04-.02.07-.06.08l-1.22.2a.4.4 0 00-.32.3 4.9 4.9 0 01-.5 1.21.4.4 0 000 .43l.73 1.02a.08.08 0 010 .1l-.88.87a.07.07 0 01-.05.03.07.07 0 01-.05-.02l-1.01-.72a.4.4 0 00-.43-.02 4.68 4.68 0 01-1.23.51.39.39 0 00-.29.32l-.2 1.22a.08.08 0 01-.08.07h-1.23a.08.08 0 01-.08-.07l-.2-1.22a.4.4 0 00-.29-.32 4.86 4.86 0 01-1.2-.49.4.4 0 00-.2-.05.39.39 0 00-.23.07l-1.02.73a.09.09 0 01-.04.01.08.08 0 01-.06-.02l-.87-.87a.08.08 0 010-.1l.71-1.01a.4.4 0 00.02-.43 4.63 4.63 0 01-.52-1.22.4.4 0 00-.31-.3l-1.24-.2a.08.08 0 01-.06-.08v-1.23c0-.04.02-.07.06-.08l1.22-.2a.4.4 0 00.32-.3c.1-.42.28-.84.5-1.22a.39.39 0 00-.02-.43l-.73-1.02a.08.08 0 01.01-.1l.87-.87a.07.07 0 01.06-.02l.04.01 1.01.72a.4.4 0 00.43.02c.38-.23.8-.4 1.22-.52a.4.4 0 00.3-.31l.2-1.24a.08.08 0 01.08-.06h1.23c.04 0 .07.02.08.06l.2 1.22a.4.4 0 00.3.32c.43.1.85.28 1.25.51a.4.4 0 00.43-.02l1-.72a.09.09 0 01.05-.02c.01 0 .03 0 .05.03l.87.87a.08.08 0 01.01.1l-.72 1.01a.4.4 0 00-.02.43c.23.39.4.8.51 1.23a.39.39 0 00.32.29l1.23.2a.08.08 0 01.06.08v1.23zm.08-2.08l-.99-.17a5.54 5.54 0 00-.4-.95l.59-.81a.86.86 0 00-.1-1.12l-.87-.87a.86.86 0 00-1.1-.09l-.82.58a5.49 5.49 0 00-.99-.4l-.16-.98a.86.86 0 00-.86-.72h-1.23a.86.86 0 00-.85.72l-.17 1a5.4 5.4 0 00-.95.4l-.8-.58a.86.86 0 00-.5-.16.85.85 0 00-.62.25l-.87.87a.86.86 0 00-.1 1.11l.6.83c-.17.3-.3.62-.4.95l-.97.17a.86.86 0 00-.72.85v1.23c0 .42.3.78.72.85l1 .17c.1.33.23.65.4.95l-.58.8a.86.86 0 00.1 1.12l.86.87a.86.86 0 001.11.1l.83-.6c.3.16.6.29.92.39l.16.98c.07.42.43.72.86.72h1.23a.86.86 0 00.85-.72l.17-.98c.33-.1.65-.24.95-.4l.81.58a.86.86 0 001.12-.1l.87-.86a.86.86 0 00.1-1.12l-.59-.8c.16-.32.3-.64.4-.96l.98-.17a.86.86 0 00.72-.85v-1.23a.85.85 0 00-.72-.85z"/><path id="b" d="M1357 578.22a2.23 2.23 0 110-4.46 2.23 2.23 0 010 4.46zm0-5.25a3.02 3.02 0 00-3.02 3.02 3.02 3.02 0 003.02 3.02 3.02 3.02 0 003.02-3.02 3.02 3.02 0 00-3.02-3.02z"/></defs><use fill="#636363" xlink:href="#a" transform="translate(-1350 -569)"/><use fill="#636363" xlink:href="#b" transform="translate(-1350 -569)"/></svg>