<svg xmlns="http://www.w3.org/2000/svg" xmlns:xlink="http://www.w3.org/1999/xlink" width="20" height="20" viewBox="0 0 20 20"><defs><path id="a" d="M29 578a10 10 0 1120 0 10 10 0 01-20 0z"/><path id="b" d="M49 578c0-.24-.01-.49-.03-.73l-4.14-4.14-11.66 4.59 4.46 4.46.06.2.08-.07-.08.08 4.93 4.93A10 10 0 0049 578z"/><path id="c" d="M38.03 579.46l4.52 3.4 2.28-9.73-11.66 4.59 3.55 1.17 6.47-4.34z"/><path id="d" d="M36.72 578.9l.97 3.49.34-2.93 5.16-4.91z"/><path id="e" d="M39.5 580.57l-1.81 1.82.34-2.93z"/></defs><use fill="#41b4e6" xlink:href="#a" transform="translate(-29 -568)"/><use fill="#0091c8" xlink:href="#b" transform="translate(-29 -568)"/><use fill="#fff" xlink:href="#c" transform="translate(-29 -568)"/><use fill="#d2d2d7" xlink:href="#d" transform="translate(-29 -568)"/><use fill="#b9b9be" xlink:href="#e" transform="translate(-29 -568)"/></svg>