<svg xmlns="http://www.w3.org/2000/svg" xmlns:xlink="http://www.w3.org/1999/xlink" width="44" height="45" viewBox="0 0 44 45"><defs><path id="a" d="M1464.93 1949.86c-.7 2.76-4.3 6.2-7.16 6.83a52.75 52.75 0 01-11.28.9.27.27 0 00-.2.09l-3.5 3.58-3.74 3.82a.44.44 0 01-.75-.3v-7.83a.27.27 0 00-.22-.26c-2.86-.63-6.46-4.07-7.16-6.83a37.36 37.36 0 010-16.1c.7-2.75 4.3-6.18 7.16-6.82a52.71 52.71 0 0119.7 0c2.85.63 6.45 4.07 7.15 6.83a37.32 37.32 0 010 16.1zm3.8-16.95v-.05c-1.06-4.23-5.8-8.77-10.15-9.72h-.05a56.6 56.6 0 00-21.21 0h-.05c-4.35.95-9.1 5.49-10.14 9.72l-.01.05a41.17 41.17 0 000 17.81v.05c1.01 4.05 5.4 8.38 9.59 9.58v4.72a1.9 1.9 0 003.28 1.32l4.8-4.98a56.34 56.34 0 0013.74-.91l.05-.01c4.35-.95 9.1-5.49 10.14-9.72l.02-.05a41.17 41.17 0 000-17.8z"/><path id="b" d="M1454.15 1953.47c-.44-.13-.86-.22-1.25-.38-4.03-1.67-7.74-3.81-10.68-7.1a27.61 27.61 0 01-4.08-6.23c-.52-1.06-.97-2.16-1.42-3.26-.4-1 .2-2.03.83-2.78.6-.7 1.37-1.25 2.2-1.65.65-.3 1.3-.13 1.77.42a22.67 22.67 0 012.73 3.8c.47.85.34 1.89-.5 2.46-.21.14-.4.3-.6.46a1.9 1.9 0 00-.44.47c-.21.34-.22.75-.08 1.12 1.05 2.87 2.81 5.1 5.72 6.3.46.2.93.42 1.46.36.9-.1 1.19-1.08 1.81-1.6.62-.5 1.4-.5 2.06-.08.66.41 1.3.86 1.94 1.31.63.45 1.25.88 1.83 1.39.55.48.74 1.12.43 1.78a6.04 6.04 0 01-2.6 2.86c-.34.18-.75.24-1.13.35-.44-.13.38-.11 0 0z"/><path id="c" d="M1447.94 1930.7c5.27.14 9.6 3.62 10.53 8.81.16.89.22 1.8.29 2.69.03.38-.19.74-.6.74-.42 0-.61-.35-.64-.72-.05-.75-.09-1.5-.2-2.24a9.4 9.4 0 00-7.58-7.84c-.59-.1-1.2-.13-1.79-.2-.37-.04-.87-.06-.95-.53-.07-.39.26-.7.64-.72h.3c5.27.15-.1 0 0 0z"/><path id="d" d="M1455.95 1941.04c0 .06 0 .22-.05.36-.14.53-.94.6-1.12.06a1.58 1.58 0 01-.07-.5c0-1.12-.24-2.23-.8-3.2a5.95 5.95 0 00-2.5-2.33 7.21 7.21 0 00-2-.6c-.3-.06-.6-.09-.9-.13-.37-.05-.57-.28-.55-.64.02-.34.26-.58.63-.56 1.21.07 2.38.33 3.46.9a6.96 6.96 0 013.8 5.4l.05.33.05.9c0 .07-.02-.35 0 0z"/><path id="e" d="M1452.67 1940.9c-.44.01-.67-.23-.72-.63-.03-.28-.06-.57-.12-.84a2.36 2.36 0 00-.88-1.37 2.29 2.29 0 00-.7-.34c-.33-.1-.67-.07-1-.15-.34-.08-.54-.36-.48-.7a.63.63 0 01.67-.5c2.04.15 3.5 1.2 3.71 3.6.02.17.03.35 0 .5-.07.28-.27.42-.48.44-.44 0 .2-.02 0 0z"/></defs><use fill="#7d3daf" xlink:href="#a" transform="translate(-1426 -1922)"/><use fill="#7d3daf" xlink:href="#b" transform="translate(-1426 -1922)"/><use fill="#7d3daf" xlink:href="#c" transform="translate(-1426 -1922)"/><use fill="#7d3daf" xlink:href="#d" transform="translate(-1426 -1922)"/><use fill="#7d3daf" xlink:href="#e" transform="translate(-1426 -1922)"/></svg>