<svg xmlns="http://www.w3.org/2000/svg" xmlns:xlink="http://www.w3.org/1999/xlink" width="20" height="20" viewBox="0 0 20 20"><defs><path id="a" d="M38.98 467a9.79 9.79 0 00-9.98 9.57 9.38 9.38 0 003.33 7.12v2.86a.42.42 0 00.63.35l2.32-1.45c1.18.45 2.44.68 3.7.68a9.8 9.8 0 009.98-9.56 9.79 9.79 0 00-9.98-9.57z"/><path id="b" d="M45.55 473.82a.42.42 0 00-.53-.12l-4.32 2.36-2.7-2.3a.42.42 0 00-.56.01l-4.99 5a.42.42 0 00.5.65l4.32-2.36 2.7 2.31a.42.42 0 00.56-.02l4.99-4.99a.42.42 0 00.03-.54z"/></defs><use fill="#2196f3" xlink:href="#a" transform="translate(-29 -467)"/><use fill="#fafafa" xlink:href="#b" transform="translate(-29 -467)"/></svg>