<svg xmlns="http://www.w3.org/2000/svg" xmlns:xlink="http://www.w3.org/1999/xlink" width="14" height="20" viewBox="0 0 14 20"><defs><path id="a" d="M45.23 339.44c0-1.35-1.37-2.44-3.07-2.44-1.7 0-3.08 1.1-3.08 2.44 0 1.2 1.1 2.2 2.55 2.4.07.46-.07.96-.43 1.31.76 0 1.4-.57 1.5-1.31h-.01c1.44-.2 2.54-1.2 2.54-2.4z"/><path id="b" d="M40.94 339.63c0-.25.1-.45.21-.45s.22.2.22.45c0 .24-.1.44-.21.44s-.22-.2-.22-.45z"/><path id="c" d="M43.13 339.63c0-.25.1-.45.21-.45s.22.2.22.45c0 .24-.1.44-.21.44s-.22-.2-.22-.45z"/><path id="d" d="M42.03 339.63c0-.25.1-.45.21-.45s.22.2.22.45c0 .24-.1.44-.21.44s-.22-.2-.22-.45z"/><path id="e" d="M38.91 357H33.4a1.4 1.4 0 01-1.39-1.4v-11.97a1.4 1.4 0 011.4-1.4h5.51c.77 0 1.4.63 1.4 1.4v11.96a1.4 1.4 0 01-1.4 1.41z"/><path id="f" d="M38.91 357H33.4a1.4 1.4 0 01-1.39-1.4v-11.97a1.4 1.4 0 011.4-1.4h5.51c.77 0 1.4.63 1.4 1.4v11.96a1.4 1.4 0 01-1.4 1.41z"/><path id="g" d="M39.4 355.76h-6.17a.62.62 0 01-.61-.62v-11.36c0-.35.27-.63.6-.63h6.18c.33 0 .6.28.6.63v11.36a.62.62 0 01-.6.63z"/><path id="h" d="M33.54 345.92v-1.23h1.23v1.23z"/><path id="i" d="M37.85 345.92v-1.23h1.23v1.23z"/><path id="j" d="M35.69 345.92v-1.23h1.23v1.23z"/><path id="k" d="M33.54 348.08v-1.23h1.23v1.23z"/><path id="l" d="M37.85 348.08v-1.23h1.23v1.23z"/><path id="m" d="M35.69 348.08v-1.23h1.23v1.23z"/><path id="n" d="M33.54 350.23V349h1.23v1.23z"/><path id="o" d="M37.85 350.23V349h1.23v1.23z"/><path id="p" d="M35.69 350.23V349h1.23v1.23z"/><path id="q" d="M33.54 352.38v-1.23h1.23v1.23z"/><path id="r" d="M37.85 352.38v-1.23h1.23v1.23z"/><path id="s" d="M35.69 352.38v-1.23h1.23v1.23z"/><path id="t" d="M39.4 343.15h-6.17a.63.63 0 00-.61.64v.9c0-.35.27-.64.6-.64h6.18c.33 0 .6.29.6.64v-.9a.62.62 0 00-.6-.64z"/><path id="u" d="M33.23 343.46c-.34.05-.61.3-.61.6v11.1c0 .3.27.56.61.6z"/><path id="v" d="M33.23 344.06v-.91a.82.82 0 00-.3.1.72.72 0 00-.13.12.68.68 0 00-.04.04.69.69 0 00-.04.05.64.64 0 00-.03.05.52.52 0 00-.02.05.58.58 0 00-.02.05.65.65 0 00-.02.05v.01a.5.5 0 000 .05.57.57 0 00-.01.06v.9c0-.3.27-.57.62-.62z"/><path id="w" d="M32.4 343.87c0-.3.23-.55.52-.6v-1.04c-.54.2-.92.7-.92 1.3v11.86c0 .6.38 1.1.92 1.3v-1.03a.62.62 0 01-.52-.61z"/><path id="x" d="M39.38 343.46c.35.05.61.3.61.6v11.1c0 .3-.26.56-.61.6z"/><path id="y" d="M40 343.73a.56.56 0 00-.08-.22.6.6 0 00-.02-.05.68.68 0 00-.08-.1.73.73 0 00-.14-.1.82.82 0 00-.3-.11v.9c.35.06.61.32.61.64v-.9a.66.66 0 000-.06z"/><path id="z" d="M39.9 355.05v-11.18a.62.62 0 00-.52-.6v-1.04c.54.2.92.7.92 1.3v11.86c0 .6-.38 1.1-.92 1.3v-1.03a.62.62 0 00.52-.61z"/><path id="A" d="M37.4 343.77h-2.19a.44.44 0 01-.44-.44v-.79h3.08v.8a.44.44 0 01-.44.43z"/><path id="B" d="M36.62 343.16a.3.3 0 11-.62 0 .3.3 0 01.61 0z"/><path id="C" d="M36.3 343a.15.15 0 11-.3 0 .15.15 0 01.3 0z"/><path id="D" d="M36.5 354.44a.29.29 0 100 .58.29.29 0 000-.58zm0 .79a.5.5 0 110-1 .5.5 0 010 1z"/><path id="E" d="M34.39 354.68h-.46c-.05 0-.08-.03-.08-.07 0-.04.03-.07.08-.07h.46c.04 0 .07.03.07.07 0 .04-.03.07-.07.07z"/><path id="F" d="M38.2 354.85a.05.05 0 01-.03-.02.08.08 0 010-.1l.15-.2-.15-.18a.08.08 0 010-.1c.02-.03.05-.03.08 0l.2.24a.08.08 0 010 .1l-.2.24a.05.05 0 01-.04.02z"/></defs><use fill="#d9d9d9" xlink:href="#a" transform="translate(-32 -337)"/><use fill="#fff" xlink:href="#b" transform="translate(-32 -337)"/><use fill="#fff" xlink:href="#c" transform="translate(-32 -337)"/><use fill="#fff" xlink:href="#d" transform="translate(-32 -337)"/><g transform="translate(-32 -337)"><use fill="#d0d2d3" xlink:href="#e"/><use fill="#ef4056" xlink:href="#f"/><use fill="#fff" xlink:href="#g"/><use fill="#d9d9d9" xlink:href="#h"/><use fill="#d9d9d9" xlink:href="#i"/><use fill="#d9d9d9" xlink:href="#j"/><use fill="#d9d9d9" xlink:href="#k"/><use fill="#d9d9d9" xlink:href="#l"/><use fill="#d9d9d9" xlink:href="#m"/><use fill="#d9d9d9" xlink:href="#n"/><use fill="#d9d9d9" xlink:href="#o"/><use fill="#d9d9d9" xlink:href="#p"/><use fill="#d9d9d9" xlink:href="#q"/><use fill="#d9d9d9" xlink:href="#r"/><use fill="#d9d9d9" xlink:href="#s"/><use fill="#ef4056" xlink:href="#t"/><use fill="#fff" xlink:href="#u"/><use fill="#ef4056" xlink:href="#v"/><use fill="#ce3145" xlink:href="#w"/><use fill="#fff" xlink:href="#x"/><use fill="#ef4056" xlink:href="#y"/><use fill="#ce3145" xlink:href="#z"/><use fill="#ff8796" xlink:href="#A"/><use fill="#fff" xlink:href="#B"/><use fill="#ef4056" xlink:href="#C"/><use fill="#ef4056" xlink:href="#D"/><use fill="#ef4056" xlink:href="#E"/><use fill="#ef4056" xlink:href="#F"/></g></svg>