<svg xmlns="http://www.w3.org/2000/svg" xmlns:xlink="http://www.w3.org/1999/xlink" width="21" height="20" viewBox="0 0 21 20"><defs><path id="a" d="M29 394.78l10.33-6.13 10.32 6.13v9.04H29z"/><path id="b" d="M31.36 387H47.5c.36 0 .65.29.65.65v11.29c0 .35-.3.65-.65.65H31.36a.65.65 0 01-.64-.65v-11.3c0-.35.29-.64.65-.64z"/><path id="c" d="M30.61 388.32v-.65c0-.35.29-.64.65-.64h1.6l-1.02 1.29zm7.04 0l1.03-1.29h2.26l-1.04 1.29zm8.38 0l1.04-1.29h.32c.36 0 .65.29.65.65v.64z"/><path id="d" d="M48.69 406.72H29.97a.97.97 0 01-.97-.97v-10.97l10.33 4.52 10.32-4.52v10.97a.97.97 0 01-.96.97z"/><path id="e" d="M49.65 405.75a.97.97 0 01-.96.97H29.97a.97.97 0 01-.97-.97v-1.93l20.65-9.04z"/><path id="f" d="M43.5 393.83h-9.68a.32.32 0 00-.32.32c0 .17.14.31.32.31h9.67a.32.32 0 00.33-.31.32.32 0 00-.33-.32zm1.6-1.38H33.83a.32.32 0 00-.32.32c0 .17.14.32.32.32h11.29a.32.32 0 00.32-.32.32.32 0 00-.32-.32zm-11.28-.73h11.29a.32.32 0 00.32-.33.32.32 0 00-.32-.32H33.82a.32.32 0 00-.32.32c0 .18.14.33.32.33z"/><path id="g" d="M33.45 388.32l1.03-1.29h2.25l-1.03 1.29zm8.4 0l1.03-1.29h2.25l-1.03 1.29z"/></defs><use fill="#cb2237" xlink:href="#a" transform="translate(-29 -387)"/><use fill="#fff" xlink:href="#b" transform="translate(-29 -387)"/><use fill="#00aff0" xlink:href="#c" transform="translate(-29 -387)"/><use fill="#ff566c" xlink:href="#d" transform="translate(-29 -387)"/><use fill="#ef4056" xlink:href="#e" transform="translate(-29 -387)"/><use fill="#efefef" xlink:href="#f" transform="translate(-29 -387)"/><use fill="#ef4056" xlink:href="#g" transform="translate(-29 -387)"/></svg>