<svg xmlns="http://www.w3.org/2000/svg" xmlns:xlink="http://www.w3.org/1999/xlink" width="20" height="20" viewBox="0 0 20 20"><defs><path id="a" d="M48.43 249.12a9.35 9.35 0 00.22-2.02 9.47 9.47 0 00-11.17-9.26 5.56 5.56 0 00-2.95-.84 5.5 5.5 0 00-5.53 5.46 5.38 5.38 0 00.76 2.76 9.28 9.28 0 00-.2 1.89c0 5.19 4.28 9.24 9.55 9.24.6 0 1.18-.05 1.74-.15.78.4 1.67.8 2.62.8a5.5 5.5 0 005.53-5.46c0-.86-.2-1.69-.57-2.42z"/><path id="b" d="M43.28 250.82c-.36.53-.9.95-1.6 1.25-.7.3-1.54.45-2.5.45a5.8 5.8 0 01-2.86-.62 3.73 3.73 0 01-1.3-1.18c-.33-.5-.5-.97-.5-1.44 0-.27.1-.5.3-.69.2-.2.45-.29.76-.29a.93.93 0 01.64.23c.17.15.32.37.44.66.15.35.31.65.48.88.18.24.42.43.73.58.32.15.73.23 1.24.23.7 0 1.28-.15 1.72-.46.44-.3.66-.7.66-1.15 0-.37-.12-.66-.36-.89a2.32 2.32 0 00-.92-.52 16.1 16.1 0 00-1.5-.38 11.7 11.7 0 01-2.12-.65 3.4 3.4 0 01-1.35-1.02c-.33-.43-.5-.96-.5-1.6 0-.6.18-1.13.53-1.6a3.3 3.3 0 011.53-1.1 6.6 6.6 0 012.35-.37c.71 0 1.34.08 1.86.25.53.17.96.4 1.3.67.35.28.6.57.77.87.16.3.24.6.24.9 0 .26-.1.5-.3.71a.98.98 0 01-.75.32c-.27 0-.48-.06-.62-.19s-.3-.33-.46-.62a2.86 2.86 0 00-.77-.98c-.3-.23-.77-.35-1.43-.35-.62 0-1.11.13-1.49.38-.37.25-.56.56-.56.91 0 .22.07.41.2.57.12.17.3.3.52.42.22.11.45.2.68.27.23.06.6.16 1.13.28a19 19 0 011.8.48c.53.18.99.4 1.36.64.38.25.67.57.88.95.21.38.32.85.32 1.41a3.1 3.1 0 01-.55 1.8z"/></defs><use fill="#00aff0" xlink:href="#a" transform="translate(-29 -237)"/><use fill="#fff" xlink:href="#b" transform="translate(-29 -237)"/></svg>