<svg xmlns="http://www.w3.org/2000/svg" xmlns:xlink="http://www.w3.org/1999/xlink" width="20" height="20" viewBox="0 0 20 20"><defs><path id="a" d="M29 538l1.72-5.16a9.78 9.78 0 01-1.38-5.01 9.83 9.83 0 119.83 9.82 9.78 9.78 0 01-4.57-1.12z"/><path id="b" d="M45.44 531.1c-.45-.86-2.12-1.84-2.12-1.84-.38-.21-.84-.24-1.05.15 0 0-.55.65-.69.74-.63.43-1.21.41-1.8-.18l-1.38-1.37-1.37-1.37c-.59-.6-.6-1.18-.18-1.81.1-.14.75-.68.75-.68.38-.22.36-.68.14-1.05 0 0-.98-1.68-1.84-2.13a.94.94 0 00-1.1.17l-.6.6c-1.93 1.92-.98 4.1.94 6.02l1.76 1.76 1.76 1.75c1.92 1.93 4.09 2.87 6.01.95l.6-.6a.94.94 0 00.17-1.11z"/></defs><use fill="#2cb742" xlink:href="#a" transform="translate(-29 -518)"/><use fill="#fff" xlink:href="#b" transform="translate(-29 -518)"/></svg>