<svg xmlns="http://www.w3.org/2000/svg" xmlns:xlink="http://www.w3.org/1999/xlink" width="46" height="45" viewBox="0 0 46 45"><defs><path id="a" d="M695.98 1922.04h-14.63a3.32 3.32 0 00-3.32 3.32v7.2a3.32 3.32 0 003.32 3.31h.87c-.3.86-.91 1.73-2.14 2.26-.34.14-.29.64.07.7 1.63.32 4.5.3 6.4-2.96h9.43a3.32 3.32 0 003.32-3.32v-7.2a3.32 3.32 0 00-3.32-3.31z"/><path id="b" d="M681.39 1966.96h-27.31v-2.81a9.13 9.13 0 019.13-9.14h9.04a9.13 9.13 0 019.14 9.13z"/><path id="c" d="M657.93 1965.49a9.13 9.13 0 019.13-9.13h9.04c.34 0 .68.02 1.02.05a9.09 9.09 0 00-4.87-1.4h-9.03a9.13 9.13 0 00-9.14 9.13v2.82h3.85z"/><path id="d" d="M659.92 1946.25h3.12v-11.15a1.87 1.87 0 00-1.87-1.87h-1.25a1.87 1.87 0 00-1.87 1.87v9.28c0 1.03.84 1.87 1.87 1.87z"/><path id="e" d="M675.6 1932.27h-1.27a1.86 1.86 0 00-1.86 1.86v1.62a8.2 8.2 0 013.32 6.6v2.93a1.86 1.86 0 001.67-1.85v-9.3a1.86 1.86 0 00-1.86-1.86z"/><path id="f" d="M673.31 1943.05a2.65 2.65 0 115.31 0 2.65 2.65 0 01-5.31 0z"/><path id="g" d="M656.57 1944.02a2.65 2.65 0 115.31 0 2.65 2.65 0 01-5.31 0z"/><path id="h" d="M667.74 1960.04a3.79 3.79 0 01-3.79-3.78v-9.03h7.57v9.02a3.78 3.78 0 01-3.78 3.79z"/><path id="i" d="M666.57 1956.26v-9.03h-2.62v9.03a3.79 3.79 0 003.79 3.78c.46 0 .9-.08 1.3-.23a3.79 3.79 0 01-2.47-3.55z"/><path id="j" d="M667.76 1953.47a8.22 8.22 0 01-8.22-8.21v-4.18a8.22 8.22 0 0116.43 0v4.18a8.22 8.22 0 01-8.21 8.21z"/><path id="k" d="M662.42 1944.22v-4.08c0-.3.02-.61.05-.92a.93.93 0 01.93-.81h12.13a8.22 8.22 0 00-8.81-5.49l-.08.02a8.14 8.14 0 00-.26.04l-.13.02a7.65 7.65 0 00-.57.13l-.13.03-.22.07-.11.03-.27.1-.06.01a8.16 8.16 0 00-.33.13l-.08.04a8.26 8.26 0 00-.23.1l-.12.06a8 8 0 00-.8.45l-.1.07-.2.13-.09.06a8.9 8.9 0 00-.26.2l-.08.07a8.52 8.52 0 00-.19.15l-.1.1a8.09 8.09 0 00-.63.62l-.1.1-.13.16-.09.11a8.16 8.16 0 00-.18.23l-.1.13-.12.17-.08.13a8.08 8.08 0 00-.44.76l-.08.15-.07.16-.07.15a7.95 7.95 0 00-.17.42l-.07.19a8.2 8.2 0 00-.44 2.66v4.09c0 4.52 3.6 8.27 8.13 8.31a8.18 8.18 0 004-1 8.3 8.3 0 01-1.09.07 8.28 8.28 0 01-8.16-8.32z"/><path id="l" d="M672.82 1937.2h-13.75a2.78 2.78 0 01-2.78-2.79v-1.87a2.78 2.78 0 012.78-2.78h13.75a2.78 2.78 0 012.78 2.78v1.87a2.78 2.78 0 01-2.78 2.78z"/><path id="m" d="M674.24 1934.5a.58.58 0 01-.58-.56 2.35 2.35 0 00-.7-1.72c-.81-.7-2.07-.61-2.08-.61a.58.58 0 01-.1-1.15c.06 0 1.75-.15 2.93.9a3.4 3.4 0 011.1 2.54.58.58 0 01-.57.6z"/><path id="n" d="M662.08 1943.16a1.02 1.02 0 112.05 0 1.02 1.02 0 01-2.05 0z"/><path id="o" d="M671.38 1943.16a1.02 1.02 0 112.05 0 1.02 1.02 0 01-2.05 0z"/><path id="p" d="M661.1 1934.41v-1.87a2.78 2.78 0 012.78-2.78h-4.8a2.78 2.78 0 00-2.79 2.78v1.87a2.78 2.78 0 002.78 2.79h4.81a2.78 2.78 0 01-2.78-2.79z"/><path id="q" d="M695.24 1927.1h-12.77a.86.86 0 110-1.73h12.77a.86.86 0 010 1.73z"/><path id="r" d="M695.24 1930.94h-12.77a.86.86 0 110-1.73h12.77a.86.86 0 010 1.73z"/></defs><use fill="#d9d9d9" xlink:href="#a" transform="translate(-654 -1922)"/><use fill="#ef4056" xlink:href="#b" transform="translate(-654 -1922)"/><use fill="#fd6478" xlink:href="#c" transform="translate(-654 -1922)"/><use xlink:href="#d" transform="translate(-654 -1922)"/><use xlink:href="#e" transform="translate(-654 -1922)"/><use fill="#ffeacf" xlink:href="#f" transform="translate(-654 -1922)"/><use fill="#ffd59a" xlink:href="#g" transform="translate(-654 -1922)"/><use fill="#ffeacf" xlink:href="#h" transform="translate(-654 -1922)"/><use fill="#ffd59a" xlink:href="#i" transform="translate(-654 -1922)"/><use fill="#ffeacf" xlink:href="#j" transform="translate(-654 -1922)"/><use fill="#ffd59a" xlink:href="#k" transform="translate(-654 -1922)"/><use fill="#373737" xlink:href="#l" transform="translate(-654 -1922)"/><use fill="#a9a9a9" xlink:href="#m" transform="translate(-654 -1922)"/><use xlink:href="#n" transform="translate(-654 -1922)"/><use xlink:href="#o" transform="translate(-654 -1922)"/><use xlink:href="#p" transform="translate(-654 -1922)"/><use fill="#fff" xlink:href="#q" transform="translate(-654 -1922)"/><use fill="#fff" xlink:href="#r" transform="translate(-654 -1922)"/></svg>