<svg xmlns="http://www.w3.org/2000/svg" xmlns:xlink="http://www.w3.org/1999/xlink" width="22" height="20" viewBox="0 0 22 20"><defs><path id="a" d="M44.26 293.08v7.83a1.82 1.82 0 01-1.82 1.82l-6.31.03-3.7 4.07v-4.07h-2.6a1.82 1.82 0 01-1.83-1.83v-7.83c0-1 .81-1.82 1.82-1.82l12.62-.03c1 0 1.82.82 1.82 1.83z"/><path id="b" d="M36.13 295.32h-4.8a.37.37 0 010-.74h4.8a.37.37 0 010 .74z"/><path id="c" d="M40.94 297.54h-9.61a.37.37 0 010-.74h9.6a.37.37 0 010 .74z"/><path id="d" d="M40.94 299.76h-9.61a.37.37 0 010-.74h9.6a.37.37 0 010 .74z"/><path id="e" d="M47.6 287.2l-12.6-.03a1.82 1.82 0 00-1.83 1.83v2.26l9.26-.02c1 0 1.82.82 1.82 1.83v6.83l2.59 2.85v-4.07h.77a1.82 1.82 0 001.82-1.83v-7.83a1.82 1.82 0 00-1.82-1.82z"/></defs><use fill="#ef4056" xlink:href="#a" transform="translate(-28 -287)"/><use fill="#fff" xlink:href="#b" transform="translate(-28 -287)"/><use fill="#fff" xlink:href="#c" transform="translate(-28 -287)"/><use fill="#fff" xlink:href="#d" transform="translate(-28 -287)"/><use fill="#d9d9d9" xlink:href="#e" transform="translate(-28 -287)"/></svg>