<svg xmlns="http://www.w3.org/2000/svg" xmlns:xlink="http://www.w3.org/1999/xlink" width="27" height="20" viewBox="0 0 27 20"><defs><path id="a" d="M1053.82 476.86l-8.4 9.4a3.28 3.28 0 01-.42-1.6v-13.3a3.3 3.3 0 01.52-1.76zm16.2 10.6c-.51.33-1.11.52-1.76.52h-19.94a3.28 3.28 0 01-1.75-.51l8.5-9.51 2.68 2.34a.83.83 0 001.09 0l2.67-2.34zm-23.28-19a3.27 3.27 0 011.58-.42h19.94c.58 0 1.11.16 1.59.42l-11.56 10.1zm24.85 16.2c0 .58-.17 1.12-.43 1.6l-8.4-9.4 8.3-7.26c.33.51.53 1.11.53 1.76z"/></defs><use fill="#636363" xlink:href="#a" transform="translate(-1045 -468)"/></svg>