<svg xmlns="http://www.w3.org/2000/svg" xmlns:xlink="http://www.w3.org/1999/xlink" width="15" height="10" viewBox="0 0 15 10"><defs><path id="a" d="M972.13 825.56a6.89 6.89 0 01-3.63 1.01 6.89 6.89 0 01-3.64-1.01 8.63 8.63 0 01-2.79-2.73 8.23 8.23 0 013.19-2.96 3.67 3.67 0 00-.51 1.89 3.6 3.6 0 001.1 2.64 3.6 3.6 0 002.65 1.1c1.03 0 1.9-.36 2.64-1.1a3.61 3.61 0 001.1-2.64c0-.68-.17-1.3-.5-1.89a8.23 8.23 0 013.18 2.96 8.63 8.63 0 01-2.8 2.73zm-5.43-5.6c.5-.5 1.1-.75 1.8-.75a.4.4 0 01.29.12.39.39 0 01.12.29.4.4 0 01-.12.28.39.39 0 01-.29.12c-.48 0-.89.17-1.23.51a1.68 1.68 0 00-.51 1.24c0 .1-.04.2-.12.28a.39.39 0 01-.28.12.39.39 0 01-.3-.12.39.39 0 01-.1-.28c0-.7.24-1.3.74-1.8zm9.12 2.3a8.93 8.93 0 00-3.15-3.09 8.11 8.11 0 00-8.35 0 8.93 8.93 0 00-3.15 3.08 1.16 1.16 0 00-.17.58c0 .19.06.38.17.57a8.93 8.93 0 003.15 3.08 8.12 8.12 0 008.35 0 8.87 8.87 0 003.15-3.08c.11-.19.17-.38.17-.57 0-.2-.06-.38-.17-.58z"/></defs><use fill="#ac915f" xlink:href="#a" transform="translate(-961 -818)"/></svg>