<svg id="Слой_1" data-name="Слой 1" xmlns="http://www.w3.org/2000/svg" viewBox="0 0 141.73 141.73"><defs><style>.cls-1{fill:#e84155}</style></defs><path class="cls-1" d="M108.54 72L101 64.7l-6.86 34.89 32.42-9.53-6.56-8.25s11.76-16.92 11.55-38c0-11.35-7.91-32.26-34-29.91-18.61 1.7-34.21 10.56-43.9 17.93l6.4 1.24c9.81-7.32 22.74-14.4 41.13-12.74C119.34 22 121 44.06 117.27 53.75 112.94 65.51 108.54 72 108.54 72z"/><path class="cls-1" d="M86.13 108.28L88.6 96c-1.16 2.18-7 7-23.52 16.3C54.66 118.21 21.14 126 19.9 94c0-.62-6.6-.2-6.6-.2s-3.51 33.4 23.93 37.52c37.13 3.3 62.94-25.28 66.22-27.85zM16.71 77.12a21 21 0 009.69 2.62c6.15 0 8.64-3.47 8.58-6.81 0-5-4.72-7.2-9.63-7.2h-3.73v-5.89h3.6c3.73 0 8.45-1.7 8.45-6 0-2.88-2.16-5.3-6.81-5.3a17.23 17.23 0 00-8.71 2.68l-1.83-5.82c2.42-1.71 7.13-3.28 12.24-3.28 8.77 0 13.29 4.85 13.29 10.41 0 4.46-2.62 8.12-7.86 10v.14c5.18.91 9.37 4.84 9.37 10.6 0 7.2-6 12.9-16.57 12.9-5.17 0-9.62-1.44-11.91-3zM49.38 41.9a81.19 81.19 0 0112.83-.9c8.25 0 13.94 1.7 18 5.1 4.26 3.47 6.88 8.71 6.88 16.24 0 7.86-2.69 13.75-6.88 17.54-4.38 4-11.39 6-20 6a89.31 89.31 0 01-10.86-.59zm8 37.38a29.4 29.4 0 004.45.2c10.48.07 16.69-5.69 16.69-16.89.07-9.75-5.56-15.32-15.64-15.32a25.87 25.87 0 00-5.5.46z"/></svg>