<svg xmlns="http://www.w3.org/2000/svg" xmlns:xlink="http://www.w3.org/1999/xlink" width="64" height="30" viewBox="0 0 64 30"><defs><path id="a" d="M1461.43 700.22l2.55 2.81 2.45-2.81h5.24l-5.12 5.77 5.19 5.81h-5.45l-2.52-2.83-2.5 2.83h-5.26l5.14-5.79-5.14-5.79z"/><path id="b" d="M1456.01 700.21v3.91h-5.82v3.6h5.82v4.07h-10.1v-18.24h10.1v4.07h-5.82v2.6z"/><path id="c" d="M1439.06 709.02c-1.57 0-2.54-1.47-2.54-3 0-1.64.84-3.22 2.54-3.22 1.76 0 2.46 1.58 2.46 3.22 0 1.56-.74 3-2.46 3zm-15.14-4.84c.26-1.16 1.16-1.92 2.28-1.92 1.23 0 2.09.74 2.31 1.92h-4.6zm17.72-10.63v7.47h-.04a4.31 4.31 0 00-3.5-1.47c-2.8 0-4.9 1.91-5.65 4.43-.84-2.78-3.02-4.48-6.25-4.48-2.63 0-4.7 1.18-5.78 3.1v-2.39h-5.43v-2.6h5.92v-4.06h-10.75v18.24h4.83v-7.67h4.82a7.28 7.28 0 00-.22 1.8c0 3.81 2.9 6.48 6.6 6.48 3.12 0 5.17-1.46 6.26-4.13h-4.15c-.56.8-.98 1.04-2.1 1.04a2.5 2.5 0 01-2.42-2.48h8.43c.37 3.02 2.72 5.63 5.94 5.63a4.1 4.1 0 003.44-1.85h.05v1.18h4.26v-18.24z"/><path id="d" d="M1445.91 720.92v-6.54h3.6v.49h-3v2.4h2.88v.5h-2.89v2.66h3.15v.49h-3.74z"/><path id="e" d="M1450.08 720.92l1.76-2.35-1.67-2.22h.68l1.36 1.81 1.33-1.81h.68l-1.7 2.22 1.77 2.35h-.69l-1.46-1.94-1.38 1.94h-.68z"/><path id="f" d="M1458.3 718.63c0-.97-.4-1.93-1.49-1.93-1.01 0-1.38.84-1.38 1.93 0 1.1.37 1.93 1.38 1.93 1.08 0 1.5-.95 1.5-1.93zm-2.87 4h-.55v-4.92c0-.45 0-.9-.03-1.36h.54l.02.68c.34-.54.8-.79 1.47-.79 1.4 0 2 1.16 2 2.4 0 1.22-.6 2.38-2 2.38a1.6 1.6 0 01-1.45-.76v2.37z"/><path id="g" d="M1461.71 716.77c-.9 0-1.22.77-1.22 1.56v2.59h-.55v-3.23l-.03-1.34h.54l.04.66c.27-.53.72-.77 1.32-.77.08 0 .17 0 .25.02v.55c-.12-.02-.22-.04-.35-.04z"/><path id="h" d="M1462.76 718.32h2.73c0-.9-.43-1.66-1.3-1.66-.78 0-1.33.6-1.43 1.66zm-.02.41c0 1.03.48 1.88 1.48 1.88.78 0 1.14-.52 1.27-1.03h.53c-.25.96-.83 1.45-1.87 1.45-1.39 0-2-1.03-2-2.32 0-1.3.64-2.47 2.07-2.47 1.45 0 1.84 1.27 1.84 2.49h-3.32z"/><path id="i" d="M1468.2 721.02c-.93 0-1.63-.44-1.63-1.44h.55c0 .68.45 1.03 1.12 1.03.62 0 1.1-.3 1.1-.91 0-.55-.56-.7-1.16-.87-.72-.2-1.5-.43-1.5-1.32 0-.98.82-1.27 1.58-1.27.89 0 1.54.34 1.57 1.29h-.55c-.02-.54-.41-.85-1-.85-.46 0-1.02.18-1.02.78 0 .54.56.7 1.16.86.72.2 1.51.41 1.51 1.3 0 1.02-.8 1.4-1.72 1.4z"/><path id="j" d="M1472.02 721.02c-.94 0-1.64-.44-1.64-1.44h.55c0 .68.45 1.03 1.12 1.03.62 0 1.1-.3 1.1-.91 0-.55-.56-.7-1.16-.87-.72-.2-1.5-.43-1.5-1.32 0-.98.82-1.27 1.58-1.27.89 0 1.54.34 1.57 1.29h-.55c-.02-.54-.41-.85-1-.85-.46 0-1.02.18-1.02.78 0 .54.56.7 1.16.86.72.2 1.51.41 1.51 1.3 0 1.02-.8 1.4-1.72 1.4z"/></defs><use fill="#ff5900" xlink:href="#a" transform="translate(-1410 -693)"/><use fill="#ff5900" xlink:href="#b" transform="translate(-1410 -693)"/><use fill="#2a007c" xlink:href="#c" transform="translate(-1410 -693)"/><use fill="#2a007c" xlink:href="#d" transform="translate(-1410 -693)"/><use fill="#2a007c" xlink:href="#e" transform="translate(-1410 -693)"/><use fill="#2a007c" xlink:href="#f" transform="translate(-1410 -693)"/><use fill="#2a007c" xlink:href="#g" transform="translate(-1410 -693)"/><use fill="#2a007c" xlink:href="#h" transform="translate(-1410 -693)"/><use fill="#2a007c" xlink:href="#i" transform="translate(-1410 -693)"/><use fill="#2a007c" xlink:href="#j" transform="translate(-1410 -693)"/></svg>