<svg xmlns="http://www.w3.org/2000/svg" xmlns:xlink="http://www.w3.org/1999/xlink" width="40" height="45" viewBox="0 0 40 45"><defs><path id="a" d="M1232.01 853.21h39.9v23.28h-39.9z"/><path id="b" d="M1240.45 873.38c0-3-2.4-5.43-5.37-5.43v-6.2a5.4 5.4 0 005.37-5.44h23.02c0 3 2.4 5.43 5.37 5.43v6.2a5.4 5.4 0 00-5.37 5.44z"/><path id="c" d="M1251.96 870.28c-2.97 0-5.37-2.43-5.37-5.43s2.4-5.43 5.37-5.43 5.37 2.43 5.37 5.43c0 3-2.4 5.43-5.37 5.43z"/><path id="d" d="M1235.85 858.64h-1.54v-2.32c0-.43.34-.78.77-.78h2.3v1.55h-1.53z"/><path id="e" d="M1237.38 874.15h-2.3a.77.77 0 01-.77-.77v-2.33h1.53v1.55h1.54z"/><path id="f" d="M1269.61 858.64h-1.53v-1.55h-1.54v-1.55h2.3c.43 0 .77.35.77.78z"/><path id="g" d="M1268.84 874.15h-2.3v-1.55h1.54v-1.55h1.53v2.33a.77.77 0 01-.77.77z"/><path id="h" d="M1261.86 846.65l-2.3-4.65-1.38.7 1.3 2.63a20.51 20.51 0 00-17.88 1.37l.77 1.34a19 19 0 0117.09-1.04l-3.24 1.63.69 1.4 4.6-2.33a.77.77 0 00.39-.45.78.78 0 00-.04-.6z"/><path id="i" d="M1251.2 883.46a19.07 19.07 0 01-7.5-1.54l3.24-1.64-.7-1.39-4.6 2.33a.78.78 0 00-.34 1.04l2.3 4.65 1.38-.69-1.3-2.64a20.51 20.51 0 0017.88-1.37l-.77-1.34a19 19 0 01-9.6 2.6z"/></defs><use fill="#6fb944" xlink:href="#a" transform="translate(-1232 -842)"/><use fill="#2d8e43" xlink:href="#b" transform="translate(-1232 -842)"/><use fill="#6fb944" xlink:href="#c" transform="translate(-1232 -842)"/><use fill="#2d8e43" xlink:href="#d" transform="translate(-1232 -842)"/><use fill="#2d8e43" xlink:href="#e" transform="translate(-1232 -842)"/><use fill="#2d8e43" xlink:href="#f" transform="translate(-1232 -842)"/><use fill="#2d8e43" xlink:href="#g" transform="translate(-1232 -842)"/><use fill="#2d8e43" xlink:href="#h" transform="translate(-1232 -842)"/><use fill="#2d8e43" xlink:href="#i" transform="translate(-1232 -842)"/></svg>