<svg xmlns="http://www.w3.org/2000/svg" xmlns:xlink="http://www.w3.org/1999/xlink" width="45" height="45" viewBox="0 0 45 45"><defs><path id="a" d="M1080.06 723.97h-35.12c-.92 0-1.67-.74-1.67-1.66v-26.86h38.46v26.86c0 .92-.75 1.66-1.67 1.66z"/><path id="b" d="M1043.27 695.45h38.46v5.59h-38.46z"/><path id="c" d="M1085 689.62v6.92c0 .74-.6 1.34-1.34 1.34h-42.32c-.74 0-1.34-.6-1.34-1.34v-6.92c0-.74.6-1.34 1.34-1.34h42.32c.74 0 1.34.6 1.34 1.34z"/><path id="d" d="M1060.97 691.47a38.82 38.82 0 00-4.48 6.41h-9.13a47.08 47.08 0 017.42-11.75l2.5 2.15.39.34 2.94 2.54.37.3z"/><path id="e" d="M1074.59 697.88h-9.13a38.98 38.98 0 00-4.49-6.41l.36-.31 2.95-2.54.39-.34 2.5-2.15a45.26 45.26 0 011.74 2.15 47.16 47.16 0 015.68 9.6z"/><path id="f" d="M1062.5 691.47a38.84 38.84 0 00-3.72 5.1 39.04 39.04 0 00-5.33 14.71 39.27 39.27 0 01-3.17-4.95 41.24 41.24 0 00-4.92 3.77 47.22 47.22 0 0110.94-23.97l2.89 2.48 2.95 2.54.36.31z"/><path id="g" d="M1079.64 710.1a41.24 41.24 0 00-4.92-3.77 39.27 39.27 0 01-3.17 4.95 39.04 39.04 0 00-9.05-19.81l.36-.31 2.95-2.54 2.89-2.49a47.12 47.12 0 015.67 8.2 47.24 47.24 0 015.27 15.77z"/><path id="h" d="M1058.92 691.46h7.17v6.42h-7.17z"/><path id="i" d="M1074.37 694.33l-8.15 2.24a38.95 38.95 0 00-2.86-4.07l-.5-1.34-.36-.97 3.31-1.57 3.56-1.69a47.12 47.12 0 015 7.4z"/><path id="j" d="M1062.5 690.19l-.36.97-.5 1.34a38.84 38.84 0 00-2.86 4.07l-8.14-2.24a47.12 47.12 0 015-7.4l3.55 1.69z"/><path id="k" d="M1075.5 679.31l-13 6.18 2.5 6.71 13.87-3.82a3.2 3.2 0 002.16-4.2l-1.15-3.09a3.2 3.2 0 00-4.38-1.78z"/><path id="l" d="M1049.5 679.31l13 6.18-2.5 6.71-13.87-3.82a3.2 3.2 0 01-2.16-4.2l1.15-3.09a3.2 3.2 0 014.38-1.78z"/><path id="m" d="M1065.6 688.19a.71.71 0 01-.38-1.32c.1-.07 2.44-1.56 5.13-2.64 3.87-1.57 6.46-1.49 7.69.25a.72.72 0 11-1.17.82c-1.66-2.35-8.58 1.3-10.88 2.77a.71.71 0 01-.38.12z"/><path id="n" d="M1059.32 688.19a.71.71 0 01-.38-.12c-2.3-1.46-9.21-5.12-10.88-2.77a.72.72 0 11-1.17-.82c1.23-1.74 3.82-1.82 7.7-.25a35.14 35.14 0 015.12 2.64.72.72 0 01-.39 1.32z"/><path id="o" d="M1064.54 683.18h-4.08a2.02 2.02 0 00-2.02 2.02v5.92a2.02 2.02 0 002.02 2.02h4.08a2.02 2.02 0 002.02-2.02v-5.92a2.02 2.02 0 00-2.02-2.02z"/><path id="p" d="M1058.92 697.88h7.17v26.09h-7.17z"/><path id="q" d="M1058.92 697.88h7.17v3.15h-7.17z"/></defs><use fill="#ffc73b" xlink:href="#a" transform="translate(-1040 -679)"/><use fill="#efb025" xlink:href="#b" transform="translate(-1040 -679)"/><use fill="#ffc73b" xlink:href="#c" transform="translate(-1040 -679)"/><use fill="#efb025" xlink:href="#d" transform="translate(-1040 -679)"/><use fill="#efb025" xlink:href="#e" transform="translate(-1040 -679)"/><use fill="#ff4440" xlink:href="#f" transform="translate(-1040 -679)"/><use fill="#ff4440" xlink:href="#g" transform="translate(-1040 -679)"/><use fill="#ff4440" xlink:href="#h" transform="translate(-1040 -679)"/><use fill="#ea2f2f" xlink:href="#i" transform="translate(-1040 -679)"/><use fill="#ea2f2f" xlink:href="#j" transform="translate(-1040 -679)"/><use fill="#ff4440" xlink:href="#k" transform="translate(-1040 -679)"/><use fill="#ff4440" xlink:href="#l" transform="translate(-1040 -679)"/><use fill="#ea2f2f" xlink:href="#m" transform="translate(-1040 -679)"/><use fill="#ea2f2f" xlink:href="#n" transform="translate(-1040 -679)"/><use fill="#ea2f2f" xlink:href="#o" transform="translate(-1040 -679)"/><use fill="#ff4440" xlink:href="#p" transform="translate(-1040 -679)"/><use fill="#ea2f2f" xlink:href="#q" transform="translate(-1040 -679)"/></svg>