<svg xmlns="http://www.w3.org/2000/svg" xmlns:xlink="http://www.w3.org/1999/xlink" width="50" height="45" viewBox="0 0 50 45"><defs><path id="a" d="M1068.1 865.57h17.17v-9.81h-17.17z"/><path id="b" d="M1058.19 865.57h9.3v-9.81h-9.3z"/><path id="c" d="M1068.1 887h17.17v-11.49h-17.17z"/><path id="d" d="M1058.19 887h9.3v-11.49h-9.3z"/><path id="e" d="M1087.66 863.54a2.02 2.02 0 00-1.75-1.99v3.99a2.02 2.02 0 001.75-2"/><path id="f" d="M1071.67 842.01H1038v13.08h49.79v-13.08z"/><path id="g" d="M1057.63 887v-11.47h-.86v4.03l-9.1-9.01 9.1-9.02v4.03h.86v-9.83h-17.11V887z"/><path id="h" d="M1085.62 866.2h-29.49v-3.14l-7.56 7.49 7.56 7.48v-3.13h29.49a2.03 2.03 0 002.04-2.02v-7.62a2.68 2.68 0 01-2.04.94"/></defs><use fill="#fcd180" xlink:href="#a" transform="translate(-1038 -842)"/><use fill="#f5a623" xlink:href="#b" transform="translate(-1038 -842)"/><use fill="#fcd180" xlink:href="#c" transform="translate(-1038 -842)"/><use fill="#f5a623" xlink:href="#d" transform="translate(-1038 -842)"/><use fill="#bf3748" xlink:href="#e" transform="translate(-1038 -842)"/><use fill="#fcd180" xlink:href="#f" transform="translate(-1038 -842)"/><use fill="#fcd180" xlink:href="#g" transform="translate(-1038 -842)"/><use fill="#ef4056" xlink:href="#h" transform="translate(-1038 -842)"/></svg>