<svg xmlns="http://www.w3.org/2000/svg" xmlns:xlink="http://www.w3.org/1999/xlink" width="46" height="34" viewBox="0 0 46 34"><defs><path id="a" d="M1446.1 876.04a48.29 48.29 0 01-7.83-23.45 47.51 47.51 0 018.12 23.86l-.28-.4zm12.55-2.15c-.01-6.24-1.75-12.64-4.27-18.33-2.02-4.66-5-10.63-9.79-12.88-.7-.34-1.5-.56-2.29-.48-1.03.08-2.04.6-3 .92l-9.88 3.36c-2.86.97-3.34 5.3-3.41 7.95-.13 5.15 1.06 10.36 2.75 15.2 1.63 4.64 3.82 9.3 7 13.09 1.6 1.92 4.54 4.98 7.38 3.93 1.7-.62 4.24-1.43 6.2-2.1 2.06-.7 5.4-1.18 7.06-2.72 2.05-1.88 2.24-5.36 2.24-7.94z"/><path id="c" d="M1446.1 876.02a48.28 48.28 0 01-7.82-23.43 47.5 47.5 0 018.1 23.84l-.28-.4zm8.53-20.63c-1.93-4.7-5.14-10.6-9.93-12.85a4.79 4.79 0 00-2.4-.35c-1.03.09-2.04.6-3 .92-3.3 1.12-5.8 2.08-9.08 3.2-2.87.97-3.2 5.45-3.26 8.1-.13 5.15 1.15 10.16 2.84 15 1.62 4.64 3.4 8.58 6.59 12.37 1.6 1.92 4.3 5.14 7.15 4.1 1.7-.63 3.85-.67 5.81-1.34 2.07-.7 5.4-1.17 7.07-2.72 2.04-1.87 2.65-4.44 2.68-7.01.07-3.3-.1-8.79-4.47-19.42z"/><path id="d" d="M1458.1 873.86c0-6.33-1.26-12.76-3.82-18.53-1.83-4.15-4.2-8.52-7.78-11.43a7.48 7.48 0 00-3.08-1.63 3.5 3.5 0 00-1.72.04c-4.14 1.2-8.2 2.78-12.28 4.17 5.12-1.74 10 7.47 11.65 10.73a52.97 52.97 0 014.62 13.4c.83 4.18 1.54 9.2-.1 13.3-.47 1.17-1.26 2.34-2.52 2.77l7.04-2.4c1.98-.67 5.28-1.17 6.7-2.87 1.63-2.02 1.45-4.68 1.45-7.16a.73.73 0 00-.16-.39z"/><path id="f" d="M1458.65 873.9c0-6.34-1.8-12.8-4.37-18.57-1.83-4.15-4.2-8.52-7.78-11.43a7.46 7.46 0 00-3.08-1.63 3.5 3.5 0 00-1.72.04c-4.14 1.2-9.18 2.8-10.88 3.7 4.32-1.48 9.72 7.64 11.36 10.9a53.17 53.17 0 014.66 13.4c.84 4.2 1.19 10.1-.46 14.2-.47 1.18-2.04 1.74-3.3 2.17l7.04-2.4c1.98-.67 5.28-1.17 6.7-2.88 1.64-2.01 1.83-5.03 1.83-7.5z"/><path id="g" d="M1441.7 886.86l.63-.23c.3-.11 2.92-.46 3.48-5.1.62-5.14-.1-9.4-1.65-15.49-1.55-6.08-5.8-13.01-7.64-15.21-2.22-2.67-4.24-4.03-6.04-4.04-.44 0-.54-.13-.97-.1l-.65.04s1.36-.82 2.04-.76c1.93.2 4.03 1.64 6.26 4.32 1.87 2.26 6.23 9.36 7.8 15.55 2.03 7.97 2.15 11.82 1.68 15.8-.33 2.76-1.4 3.83-2.33 4.5a4.03 4.03 0 01-2.19.73z"/><path id="h" d="M1455.2 877.03c-.2.22-.44.4-.72.5a.46.46 0 01-.54-.16 1.7 1.7 0 01-.34-.7 8.94 8.94 0 01-.18-1.83l-.02-1.94a22 22 0 00-.11-1.98 10.31 10.31 0 00-.07-.5l-.06-.5-.18-.99a17 17 0 00-.42-1.6l.11.16a2.08 2.08 0 00.65.61 1 1 0 00.56.13.84.84 0 00.17-.03.71.71 0 00.07-.02h.05a1.43 1.43 0 00.59-.38c.1-.12.19-.25.25-.4.1-.25.13-.52.1-.8a3.04 3.04 0 00-.48-1.34c.03.44 0 .88-.07 1.32-.03.18-.1.35-.2.5a.6.6 0 01-.34.23.65.65 0 01-.1.03h-.04c-.01 0 0 0 0 0h-.02a.27.27 0 01-.08-.05 1.28 1.28 0 01-.3-.34c-.2-.36-.38-.73-.53-1.12-.34-.8-.64-1.65-1-2.48-.19-.42-.38-.83-.6-1.23a9.77 9.77 0 00-.57-.95c-.08-.35-.17-.7-.27-1.04a23.77 23.77 0 00-.43-1.28 20.14 20.14 0 00-.15-.4l.16.06a1.56 1.56 0 001-.03 1.08 1.08 0 00.45-.32c.12-.13.2-.3.23-.47.03-.15.04-.3.02-.45a2.59 2.59 0 00-.2-.77 3.32 3.32 0 00-.37-.67l.06.73c.01.23 0 .46-.04.69a1.14 1.14 0 01-.09.27.43.43 0 01-.14.17.4.4 0 01-.16.06.84.84 0 01-.24 0 .67.67 0 01-.22-.06 1.18 1.18 0 01-.21-.13 2.72 2.72 0 01-.44-.43 11.68 11.68 0 01-.8-1.13l-.43-.67-.06-.1a36.9 36.9 0 00-2.87-4.62v.01a17.07 17.07 0 00-.7-1.03 17.84 17.84 0 00-4.48-4.2 19.98 19.98 0 00-2.64-1.5l-.48-.22a2.35 2.35 0 01-.24.07c-.1.05-.35.11-.45.15.2.12.73.32.93.44.84.52 1.65 1.09 2.43 1.7a21.72 21.72 0 014.12 4.15 16.95 16.95 0 011.55 2.46 5 5 0 01.6 2.64 2.45 2.45 0 01-.44 1.21 1.5 1.5 0 01-.45.42 1.13 1.13 0 01-.27.12.79.79 0 01-.28.03.57.57 0 01-.45-.29 2.03 2.03 0 01-.27-.63 4.68 4.68 0 01-.13-.72 7.35 7.35 0 01-.05-.75 5.3 5.3 0 00-.1 1.52c.02.27.09.54.2.79.07.13.16.26.28.36a.99.99 0 00.44.22 1.4 1.4 0 00.46 0 1.84 1.84 0 001.14-.64c.38-.43.63-.96.72-1.53.03-.22.06-.45.06-.67.31.6.64 1.21 1 1.8l.13.2c.49 1.23.95 2.46 1.33 3.71.12.41.23.83.32 1.24.09.4.15.81.18 1.22a4.1 4.1 0 01-.1 1.19 4.6 4.6 0 01-.36 1.13c-.07.15-.17.28-.3.39a.34.34 0 01-.13.06.24.24 0 01-.14-.01.83.83 0 01-.34-.33 2.12 2.12 0 01-.24-.53c-.06-.2-.1-.4-.1-.6a17.02 17.02 0 01-.04-.66 6.03 6.03 0 01.01-.65 1.89 1.89 0 01.13-.63 1.02 1.02 0 00-.16.29 3.01 3.01 0 00-.11.32c-.06.21-.11.43-.15.66a8.05 8.05 0 00-.07.67 2.74 2.74 0 00.22 1.41c.12.26.3.48.55.63a.92.92 0 00.97-.02c.24-.15.43-.36.58-.6.25-.4.44-.86.55-1.32l.03-.1c.16.72.3 1.43.42 2.15l.09.62.08.64.19 1.27a45.28 45.28 0 01.27 2.5c.02.41.01.82-.03 1.22a2.9 2.9 0 01-.29 1.07 1.34 1.34 0 01-1.25.67.4.4 0 01-.31-.22 1.25 1.25 0 01-.14-.52 3.99 3.99 0 010-.62 6.56 6.56 0 01.21-1.26 6.11 6.11 0 00-.49 1.21c-.06.22-.1.45-.13.67-.02.25 0 .5.09.74a.94.94 0 00.24.36.97.97 0 00.39.22 2 2 0 001.51-.27 1.95 1.95 0 00.56-.56l.13-.22a15.65 15.65 0 00.15 2.06c.05.35.14.7.26 1.03a3.05 3.05 0 00.43.76l.1.12.05.04h.02l.02.02.03.03c.17.14.39.24.62.27.22.02.45-.03.64-.15.16-.1.3-.22.43-.37a4.12 4.12 0 00.7-1.35c-.19.26-.4.51-.63.74z"/><path id="i" d="M1442.7 873.64a1.42 1.42 0 00-.37-.54c-.14-.13-.3-.26-.47-.36a5.16 5.16 0 00-1.04-.5 8.3 8.3 0 01.88.7c.13.12.25.26.36.4.1.13.17.28.2.43a.37.37 0 01-.1.34c-.1.1-.23.2-.37.26a1.11 1.11 0 01-.87.04 2.41 2.41 0 01-.82-.53 7 7 0 01-.7-.8 15.77 15.77 0 01-.65-.88 42.53 42.53 0 01-.62-.93l-.6-.95-.32-.48-.29-.46a28.32 28.32 0 01-.94-1.67l.06.05c.36.23.74.42 1.15.54.24.07.5.09.75.05a.92.92 0 00.41-.2.88.88 0 00.27-.38c.08-.24.08-.5.01-.74a2.07 2.07 0 00-.26-.6 2.82 2.82 0 00-.4-.47 7.58 7.58 0 00-.44-.4 4.9 4.9 0 00-.48-.35 2.32 2.32 0 00-.26-.14.9.9 0 00-.28-.1c.17.09.33.2.46.34a5.7 5.7 0 011 1.34c.08.16.13.33.15.5a.75.75 0 01-.05.42.24.24 0 01-.09.1.3.3 0 01-.13.03 1 1 0 01-.42-.08 3.89 3.89 0 01-.91-.53 4.34 4.34 0 01-.41-.34 3.17 3.17 0 01-.34-.38 7.28 7.28 0 01-.58-.92 25.37 25.37 0 01-.49-1.01 39.05 39.05 0 01-1.22-3.25l-.03-.2a22.03 22.03 0 00-.35-1.81c.14.15.28.29.44.42.39.32.86.52 1.37.58a1.94 1.94 0 001.16-.25l.16-.13c.06-.04.11-.1.15-.15a.91.91 0 00.18-.41 1.05 1.05 0 00-.02-.41 1.86 1.86 0 00-.31-.64 4.4 4.4 0 00-.95-.94 6.5 6.5 0 01.73 1.08c.1.18.16.37.18.58a.52.52 0 01-.14.45.73.73 0 01-.21.15 1.35 1.35 0 01-.81.09 2.1 2.1 0 01-1-.55 4.2 4.2 0 01-1.11-2.1 15.85 15.85 0 01-.23-1.27c-.06-.42-.1-.86-.13-1.29a19.4 19.4 0 01.45-5.22c.08-.38.16-.76.27-1.14a5.1 5.1 0 00-.62-.07c-.12.35-.24.7-.35 1.07a16.06 16.06 0 00-.67 5.45 16.15 16.15 0 00.1 1.09 32.3 32.3 0 00.69 4.78l.02.1.1.7c.06.41.09.82.1 1.23 0 .19-.02.37-.06.55a1.07 1.07 0 01-.08.21.6.6 0 01-.11.17.94.94 0 01-.17.14.4.4 0 01-.15.06.38.38 0 01-.19-.02.98.98 0 01-.22-.13 2.68 2.68 0 01-.42-.43 6.71 6.71 0 01-.38-.52 2.56 2.56 0 00.43 1.3c.08.11.17.2.28.29.13.09.27.15.43.17a1 1 0 00.5-.07c.14-.05.28-.13.4-.23a1.5 1.5 0 00.38-.5l.13.37a15.18 15.18 0 00.86 1.95c.03.33.08.65.15.97.08.4.19.79.3 1.18.23.77.5 1.5.74 2.24.12.34.2.7.27 1.05.02.14.02.27 0 .4a.27.27 0 01-.03.08l-.02.02s.01 0 0 0h-.01a.74.74 0 01-.1.06.56.56 0 01-.36.04 1.14 1.14 0 01-.43-.2 4.44 4.44 0 01-.8-.82 2.53 2.53 0 00.43 1.18c.14.2.33.36.54.46.13.06.26.1.4.11a1.31 1.31 0 00.62-.1h.05l.06-.03a1.02 1.02 0 00.43-.5c.05-.13.08-.28.1-.42v-.37l-.03-.18a17 17 0 001.33 2.45l.25.36c.33.49.7.94 1.06 1.38.37.44.75.87 1.1 1.3.36.4.68.83.95 1.29.1.2.16.43.17.66a.43.43 0 01-.28.44 2.1 2.1 0 01-.79.1 6.2 6.2 0 01-.86-.1 3.42 3.42 0 001.26.47c.17.02.34.01.5-.02a.99.99 0 00.54-.29 1.1 1.1 0 00.26-.55v-.28l-.01-.26a2.62 2.62 0 00-.13-.5 4.53 4.53 0 00-.4-.83 8.92 8.92 0 00-.51-.74 18.2 18.2 0 00-.59-.72l.23.07c.46.12.96.04 1.37-.22.22-.1.4-.27.55-.46a.93.93 0 00.15-.38.83.83 0 00-.05-.4z"/><linearGradient id="b" x1="1438.94" x2="1442.5" y1="851.29" y2="862.79" gradientUnits="userSpaceOnUse"><stop offset="0" stop-color="#3a342c"/><stop offset="1" stop-color="#8f8e8d"/></linearGradient><linearGradient id="e" x1="1440.68" x2="1451.04" y1="846.56" y2="877.64" gradientUnits="userSpaceOnUse"><stop offset=".01" stop-color="#8f8e8d"/><stop offset=".31" stop-color="#fff"/><stop offset=".74" stop-color="#c1c1c1"/><stop offset=".88" stop-color="#e5e5e5"/><stop offset="1" stop-color="#8f8e8d"/></linearGradient></defs><use fill="#e5e5e5" xlink:href="#a" transform="rotate(-90 309 1151)"/><use fill="url(#b)" xlink:href="#c" transform="rotate(-90 309 1151)"/><use fill="#e5e5e5" xlink:href="#d" transform="rotate(-90 309 1151)"/><use fill="url(#e)" xlink:href="#f" transform="rotate(-90 309 1151)"/><use fill="#848381" xlink:href="#g" transform="rotate(-90 309 1151)"/><use fill="#3a342c" xlink:href="#h" transform="rotate(-90 309 1151)"/><use fill="#3a342c" xlink:href="#i" transform="rotate(-90 309 1151)"/></svg>