<svg width="24" height="24" viewBox="0 0 24 24" fill="none" xmlns="http://www.w3.org/2000/svg">
<path d="M12 0C5.38298 0 0 5.38298 0 12C0 18.617 5.38298 24 12 24C18.617 24 24 18.617 24 12C24 5.38298 18.617 0 12 0ZM14.707 16.293C15.098 16.684 15.098 17.316 14.707 17.707C14.512 17.902 14.256 18 14 18C13.744 18 13.488 17.902 13.293 17.707L8.29298 12.707C7.902 12.316 7.902 11.684 8.29298 11.293L13.293 6.29302C13.684 5.90203 14.316 5.90203 14.707 6.29302C15.098 6.684 15.098 7.31602 14.707 7.707L10.414 12L14.707 16.293Z" fill="#AC915F"/>
</svg>
