<svg xmlns="http://www.w3.org/2000/svg" xmlns:xlink="http://www.w3.org/1999/xlink" width="70" height="70" viewBox="0 0 70 70"><defs><path id="a" d="M1258.98 1728a35 35 0 11.05-69.98 35 35 0 01-.05 69.98zm0-3.6a31.42 31.42 0 100-62.79 31.42 31.42 0 000 62.79z"/><path id="b" d="M1256.68 1687.99c-.24 0-.47.02-.7-.02-.08 0-.16-.15-.2-.24-.4-1.15-.77-2.3-1.2-3.44a9.25 9.25 0 00-1.79-3.07 4.35 4.35 0 00-3.6-1.36 5.42 5.42 0 00-5.2 3.4 13.72 13.72 0 00-1 3.7c-.36 2.4-.38 4.8-.33 7.21.05 2.11.19 4.22.72 6.27.3 1.12.7 2.2 1.48 3.09a4.6 4.6 0 002.98 1.53 6.3 6.3 0 003.02-.16 3.54 3.54 0 002.3-2.01c.11-.3.17-.66.17-.99.02-2.24.01-4.49.01-6.73v-.19h-3.94v-.82h9.6v.8h-1.62v8.76c0 .24-.07.36-.28.47a14.38 14.38 0 01-4.66 1.54c-1.06.16-2.14.28-3.21.27a11.1 11.1 0 01-6.54-1.93c-1.8-1.27-2.95-3-3.69-5.05a18.8 18.8 0 01-.98-5.62c-.1-2.45.2-4.82 1.14-7.1a11.42 11.42 0 0110.18-7.28c2.13-.12 4.15.3 6.12 1.05l1.09.44c.07.04.16.14.16.22v7.18l-.03.08"/><path id="c" d="M1276.48 1687.98c-.24 0-.47.02-.7 0-.07-.01-.15-.13-.18-.21l-1.25-4.02a5.9 5.9 0 00-1.6-2.76 4.6 4.6 0 00-2.74-1.1 6.55 6.55 0 00-3.73.62 4.7 4.7 0 00-2.64 3.46c-.28 1.57.14 2.88 1.5 3.8 1.02.69 2.14 1.13 3.26 1.58 1.76.72 3.54 1.4 5.29 2.16a8.1 8.1 0 013.1 2.22 5.38 5.38 0 011.15 2.97 7.86 7.86 0 01-4.33 8.1 10.77 10.77 0 01-4.68 1.2 13.8 13.8 0 01-7.33-1.94c-.14-.07-.23-.16-.23-.34v-7.84l.02-.18.72.01c.06 0 .13.12.15.19.36 1.32.68 2.66 1.08 3.98.4 1.33.92 2.61 1.82 3.7a4.21 4.21 0 003.12 1.56c1.54.1 2.98-.21 4.27-1.08a5.14 5.14 0 001.93-6.18 5.02 5.02 0 00-2.05-2.25c-1.2-.78-2.54-1.26-3.87-1.77-1.47-.56-2.96-1.1-4.32-1.92a6.16 6.16 0 01-2.86-3.28 7.05 7.05 0 013.4-8.6 9.57 9.57 0 014-1.04 16.49 16.49 0 017.55 1.4c.08.03.17.16.17.24v7.16l-.02.16"/></defs><g opacity=".6" fill="#f8f4f2" transform="translate(-1224 -1658)"><use xlink:href="#a" opacity=".6"/><use xlink:href="#b" opacity=".6"/><use xlink:href="#c" opacity=".6"/></g></svg>