<svg xmlns="http://www.w3.org/2000/svg" xmlns:xlink="http://www.w3.org/1999/xlink" width="599" height="599" viewBox="0 0 599 599"><defs><path id="a" d="M142.36 5617c-164.4.11-300.07-133.34-299.36-301.03.71-166.37 137.73-301.39 306.15-297.9 159.13 3.28 293.53 133.37 292.85 300.92-.68 165.6-135.29 298.22-299.64 298zm.07-30.77c146.27.55 268.44-118 268.88-267.72.44-150.48-120.53-266.9-262.98-269.77-150.87-3.05-274.26 118.1-274.64 267.9-.38 150.96 122.37 270.1 268.74 269.6z"/><path id="b" d="M122.93 5278.2c-2.07 0-4.12.2-6.08-.1-.68-.1-1.44-1.3-1.74-2.16-3.51-9.97-6.71-20.05-10.47-29.93-3.67-9.7-8.33-18.95-15.45-26.68-8.44-9.17-19.07-12.42-31.19-11.85-6.77.31-13.4 1.26-19.7 3.81-12.16 4.91-19.97 14.15-25.29 25.84-4.65 10.23-7.1 21.09-8.77 32.15-3.15 20.83-3.33 41.82-2.84 62.79.42 18.35 1.6 36.67 6.24 54.55 2.54 9.78 6.13 19.09 12.81 26.87 6.8 7.93 15.7 11.95 25.8 13.36 8.8 1.24 17.64 1.55 26.21-1.45 8.94-3.13 16.2-8.36 19.86-17.47a24.13 24.13 0 001.57-8.59c.13-19.53.07-39.07.07-58.6 0-.46-.05-.93-.1-1.64H59.84v-7.16H143v7.03h-14.04v3.1c0 24.36-.04 48.7.05 73.06 0 2.1-.7 3.19-2.5 4.15a124.25 124.25 0 01-40.4 13.38c-9.2 1.38-18.54 2.39-27.83 2.34-20.39-.12-39.68-4.73-56.66-16.83-15.52-11.05-25.57-26.15-31.95-43.92-5.67-15.8-7.88-32.2-8.52-48.92-.82-21.29 1.74-41.99 9.93-61.75 10.39-25.05 27.3-43.96 52.24-55.09 11.45-5.1 23.5-7.63 36-8.32 18.38-1.01 35.92 2.62 52.99 9.15a192.9 192.9 0 019.45 3.86c.62.27 1.36 1.22 1.36 1.86.05 20.84 0 41.68-.02 62.51 0 .08-.04.16-.17.66"/><path id="c" d="M292.93 5278.19c-2.06 0-4.06.13-6.03-.1-.57-.06-1.28-1.06-1.5-1.77-3.61-11.65-7.14-23.32-10.72-34.98-2.78-9.07-6.65-17.49-13.78-24-6.7-6.1-14.77-8.79-23.49-9.64-11.14-1.1-22 .14-32.09 5.46-12.17 6.42-20.28 16.21-22.7 30.14-2.34 13.6 1.23 25.05 13 33.1 8.67 5.9 18.3 9.76 27.91 13.7 15.16 6.22 30.47 12.14 45.45 18.79 10.12 4.49 19.5 10.42 26.67 19.29 6.09 7.52 8.88 16.35 9.86 25.85 1.11 10.74.43 21.35-3.1 31.63-6.1 17.7-17.87 30.33-34.06 38.92-12.6 6.68-26.12 9.87-40.26 10.36-22.6.77-43.4-5.6-62.94-16.79-1.17-.67-1.97-1.38-1.96-3 .05-22.73.03-45.46.04-68.2 0-.4.06-.79.11-1.57 2.13 0 4.2-.1 6.23.07.48.05 1.1 1 1.27 1.63 3.1 11.55 5.84 23.2 9.26 34.64 3.46 11.58 7.92 22.77 15.67 32.26 6.96 8.54 15.98 12.83 26.79 13.54 13.22.86 25.56-1.84 36.63-9.43 17.43-11.93 24.45-34.8 16.57-53.74-3.6-8.63-9.98-14.7-17.56-19.64-10.35-6.73-21.83-10.96-33.23-15.35-12.67-4.89-25.46-9.52-37.12-16.73-11.14-6.9-20.36-15.65-24.59-28.51-8.7-26.53-.31-59.34 29.27-74.87 10.72-5.63 22.19-8.44 34.2-9.06a139.97 139.97 0 0164.97 12.18c.67.3 1.42 1.38 1.42 2.1.08 20.77.07 41.54.05 62.31 0 .39-.14.78-.24 1.4"/></defs><use fill="#fff" xlink:href="#a" transform="translate(157 -5018)"/><use fill="#fff" xlink:href="#b" transform="translate(157 -5018)"/><use fill="#fff" xlink:href="#c" transform="translate(157 -5018)"/></svg>