<svg xmlns="http://www.w3.org/2000/svg" xmlns:xlink="http://www.w3.org/1999/xlink" width="23" height="28" viewBox="0 0 23 28"><defs><path id="a" d="M700 2320.05h22.96v28.06H700z"/><path id="c" d="M718.86 2350.12a.34.34 0 01-.35-.35v-2.92c0-1.64.4-2.5.77-3.32.38-.82.74-1.6.74-3.3v-8.42a1.08 1.08 0 00-1.08-1.07 1.07 1.07 0 00-1.07 1.04v1.1c0 .2-.16.35-.35.35h-.09a.34.34 0 01-.34-.34v-2.96a1.08 1.08 0 00-1.84-.76c-.18.18-.28.4-.31.65v2.5c0 .2-.15.35-.34.35h-.1a.34.34 0 01-.34-.35v-10.1c0-.28-.11-.55-.32-.76a1.07 1.07 0 00-1.52 0 1.07 1.07 0 00-.31.76v10.1c0 .2-.16.35-.35.35h-.09a.34.34 0 01-.34-.35v-7.92a1.07 1.07 0 10-2.15 0v8.2c0 1.85-.41 2.76-.81 3.63l-.18.4c-.17.38-.33.8-.43 1.39a.3.3 0 01-.34.25l-.14-.02a.33.33 0 01-.28-.38c.06-.33.14-.64.24-.96a.17.17 0 00-.1-.22 3.05 3.05 0 01-1.75-1.38 20.6 20.6 0 01-.56-.87c-.76-1.25-1.62-2.67-2.94-2.67-.64 0-1.01.37-1.01 1 0 .25.03.29.35.58l.32.3c1.48 1.49 2.58 3.94 3.3 5.56.27.57.47 1.03.61 1.26 1.1 1.8 1.9 2.68 2.49 3.33.82.9 1.23 1.36 1.23 3v2.97c0 .2-.15.35-.34.35h-.1a.34.34 0 01-.34-.35v-2.98c0-1.33-.26-1.61-1.03-2.47-.6-.67-1.44-1.59-2.57-3.44-.17-.27-.38-.75-.65-1.35-.7-1.57-1.78-3.94-3.16-5.33l-.28-.27c-.36-.33-.61-.57-.61-1.16 0-1.06.72-1.78 1.79-1.78 1.76 0 2.78 1.68 3.6 3.04l.54.84c.59.86 1.07 1.01 1.58 1.14l.05-.1c.38-.84.74-1.63.74-3.3v-8.21a1.85 1.85 0 012.68-1.67.17.17 0 00.25-.15v-.36a1.85 1.85 0 011.85-1.86c1.02 0 1.85.83 1.85 1.86v5.91a.17.17 0 00.25.16c.31-.15.64-.21.82-.21 1.03 0 1.86.83 1.86 1.85v.1a.17.17 0 00.24.15c.28-.13.61-.22.83-.22 1.03 0 1.86.83 1.87 1.85v8.42c0 1.87-.43 2.8-.81 3.63-.36.78-.7 1.52-.7 3v2.91c0 .2-.15.35-.34.35zm-16.21-26.61l-1.82-1.42a.34.34 0 01-.13-.27c0-.1.04-.2.13-.27l1.81-1.43a.34.34 0 01.48.06l.06.07a.34.34 0 01-.06.49l-.49.38a.17.17 0 00-.05.2c.02.06.09.1.16.1h3.09c.19 0 .34.16.34.35v.1c0 .19-.15.34-.34.34h-3.08a.17.17 0 00-.1.31l.47.37a.34.34 0 01.07.48l-.06.08a.34.34 0 01-.48.06zm17.9-.07l-.06-.08a.34.34 0 01.05-.48l.49-.38a.17.17 0 00-.1-.3h-3.1a.34.34 0 01-.35-.35v-.1c0-.18.15-.34.34-.34h3.09a.17.17 0 00.1-.3l-.47-.37a.34.34 0 01-.06-.49l.05-.07a.34.34 0 01.49-.06l1.82 1.41a.35.35 0 010 .54l-1.82 1.43a.34.34 0 01-.48-.06z"/><clipPath id="b"><use xlink:href="#a"/></clipPath></defs><g clip-path="url(#b)" transform="translate(-700 -2320)"><use fill="#ac915f" xlink:href="#c"/></g></svg>