<svg xmlns="http://www.w3.org/2000/svg" xmlns:xlink="http://www.w3.org/1999/xlink" width="59" height="59" viewBox="0 0 59 59"><defs><path id="b" d="M885 7750h-9l4.99-10h.02z"/><path id="i" d="M863 7787l-21-37h9z"/><path id="c" d="M881 7740.01l-5 9.99-5-10h9.73l.27.01z"/><path id="d" d="M876 7750h-12l7-10z"/><path id="e" d="M870 7740l-7 10-7-10z"/><path id="f" d="M856 7740l-5 10-5-9.99.27-.01z"/><path id="g" d="M846 7740l-4 10h-8a3.05 3.05 0 011.25-2.64l9.16-6.75a3.23 3.23 0 011.59-.61z"/><path id="h" d="M863 7787a2.06 2.06 0 01-1.65-.81l-26.69-34.41a3.13 3.13 0 01-.66-1.78h8z"/><path id="a" d="M893 7750h-8l-4-10a3.23 3.23 0 011.6.61l6.15 4.54 1.81 1.34 1.2.87a3.05 3.05 0 011.23 2.64z"/><path id="j" d="M893 7750a3.13 3.13 0 01-.66 1.78l-26.69 34.4a2.06 2.06 0 01-1.65.82l10.5-18.5 5.84-10.28L885 7750z"/><path id="k" d="M851 7750h-9l3.99-10h.02z"/><path id="l" d="M863 7750h-12l5-10z"/><path id="m" d="M876 7750l-12 37v-37z"/><path id="n" d="M885 7750l-4.67 8.22-5.83 10.28L864 7787l12-37z"/><path id="o" d="M863 7750v37l-12-37z"/><path id="p" d="M877.58 7743.42L874.5 7728l-3.08 15.42-15.42 3.08 15.42 3.08 3.08 15.42 3.08-15.42 15.42-3.08z"/></defs><use fill="#aaf7fe" xlink:href="#a" transform="translate(-834 -7728)"/><use fill="#81edf7" xlink:href="#b" transform="translate(-834 -7728)"/><use fill="#aaf7fe" xlink:href="#c" transform="translate(-834 -7728)"/><use fill="#81edf7" xlink:href="#d" transform="translate(-834 -7728)"/><use fill="#aaf7fe" xlink:href="#e" transform="translate(-834 -7728)"/><use fill="#aaf7fe" xlink:href="#f" transform="translate(-834 -7728)"/><use fill="#aaf7fe" xlink:href="#g" transform="translate(-834 -7728)"/><use fill="#81edf7" xlink:href="#h" transform="translate(-834 -7728)"/><use fill="#6cdde8" xlink:href="#i" transform="translate(-834 -7728)"/><use fill="#6cdde8" xlink:href="#j" transform="translate(-834 -7728)"/><use fill="#81edf7" xlink:href="#k" transform="translate(-834 -7728)"/><use fill="#6cdde8" xlink:href="#l" transform="translate(-834 -7728)"/><use fill="#6cdde8" xlink:href="#m" transform="translate(-834 -7728)"/><use fill="#81edf7" xlink:href="#n" transform="translate(-834 -7728)"/><use fill="#81edf7" xlink:href="#o" transform="translate(-834 -7728)"/><use fill="#fff" xlink:href="#p" transform="translate(-834 -7728)"/></svg>