<svg xmlns="http://www.w3.org/2000/svg" xmlns:xlink="http://www.w3.org/1999/xlink" width="61" height="55" viewBox="0 0 61 55"><defs><path id="a" d="M1062.72 7758.81h20.94v-11.99h-20.94z"/><path id="b" d="M1050.63 7758.81h11.36v-11.99h-11.36z"/><path id="c" d="M1062.72 7785h20.94v-14.04h-20.94z"/><path id="d" d="M1050.63 7785h11.36v-14.04h-11.36z"/><path id="e" d="M1086.58 7756.34c0-1.24-.93-2.27-2.13-2.44v4.88a2.47 2.47 0 002.13-2.44"/><path id="f" d="M1067.07 7730.01H1026V7746h60.74v-15.99z"/><path id="g" d="M1049.94 7785v-14.02h-1.04v4.93l-11.11-11.02 11.11-11.02v4.93h1.04v-12.02h-20.87V7785z"/><path id="h" d="M1084.1 7759.57h-35.97v-3.83l-9.23 9.15 9.22 9.15v-3.83h35.98a2.49 2.49 0 002.49-2.47v-9.3a3.27 3.27 0 01-2.49 1.13"/></defs><use fill="#fcd180" xlink:href="#a" transform="translate(-1026 -7730)"/><use fill="#f5a623" xlink:href="#b" transform="translate(-1026 -7730)"/><use fill="#fcd180" xlink:href="#c" transform="translate(-1026 -7730)"/><use fill="#f5a623" xlink:href="#d" transform="translate(-1026 -7730)"/><use fill="#bf3748" xlink:href="#e" transform="translate(-1026 -7730)"/><use fill="#fcd180" xlink:href="#f" transform="translate(-1026 -7730)"/><use fill="#fcd180" xlink:href="#g" transform="translate(-1026 -7730)"/><use fill="#ef4056" xlink:href="#h" transform="translate(-1026 -7730)"/></svg>