<svg xmlns="http://www.w3.org/2000/svg" xmlns:xlink="http://www.w3.org/1999/xlink" width="40" height="52" viewBox="0 0 40 52"><defs><path id="a" d="M1271.85 7739.68c.05 0-19.1-7.7-19.61-7.89-.43.14-19.67 7.57-19.62 7.52v14.43c0 10 1.96 23.63 19.61 28.49 17.61-4.86 19.62-18.73 19.62-28.5.05-4.94.05-14.05 0-14.05l-6.85 23.79"/><path id="b" d="M1252.29 7731.79c-.42.14-19.67 7.57-19.62 7.52v14.43c0 10 1.96 23.63 19.61 28.49z"/><path id="c" d="M1258.55 7759.86c-2.84-1.02-3.75-1.89-3.75-3.73 0-.2.03-.36.08-.49.22-.57.86-.63 1.17-2.3.16-.84.92 0 1.07-1.93 0-.76-.42-.95-.42-.95s.21-1.14.3-2.01c.1-1.09-.64-3.9-4.57-3.9h-.1c-3.94 0-4.68 2.81-4.58 3.9.09.87.3 2 .3 2s-.42.2-.42.96c.15 1.92.91 1.1 1.07 1.94.31 1.66.94 1.72 1.17 2.29.05.13.08.28.08.48 0 1.85-.91 2.72-3.75 3.74s-4.12 2.07-4.12 2.78v4.68h20.59v-4.68c0-.71-1.28-1.76-4.12-2.78"/></defs><use fill="#d24758" xlink:href="#a" transform="translate(-1232 -7731)"/><use fill="#ef4056" xlink:href="#b" transform="translate(-1232 -7731)"/><use fill="#fff" xlink:href="#c" transform="translate(-1232 -7731)"/></svg>