<svg xmlns="http://www.w3.org/2000/svg" xmlns:xlink="http://www.w3.org/1999/xlink" width="89" height="23" viewBox="0 0 89 23"><defs><path id="a" d="M165.04 596.34l-2.03 12.67a.4.4 0 00.4.47h2.05c.34 0 .63-.24.68-.57l2.01-12.44a.4.4 0 00-.4-.47h-2.3a.41.41 0 00-.4.34z"/><path id="b" d="M113.23 600.55c-.27 1.75-1.63 1.75-2.95 1.75h-.75l.53-3.26a.41.41 0 01.4-.35h.35c.9 0 1.74 0 2.18.5.26.3.34.75.24 1.36zm-.57-4.55h-4.97a.69.69 0 00-.68.57l-2 12.45a.4.4 0 00.4.46h2.38a.7.7 0 00.68-.57l.54-3.35a.68.68 0 01.68-.57h1.57c3.27 0 5.16-1.55 5.65-4.62.22-1.34 0-2.4-.63-3.13-.7-.81-1.96-1.24-3.62-1.24z"/><path id="c" d="M123.93 604.74a2.63 2.63 0 01-2.68 2.22c-.7 0-1.24-.22-1.6-.63-.35-.4-.48-.98-.37-1.63a2.64 2.64 0 012.66-2.24c.68 0 1.23.22 1.59.64a2 2 0 01.4 1.64zm3.31-4.52h-2.37a.41.41 0 00-.41.34l-.1.65-.17-.24c-.52-.73-1.67-.97-2.81-.97a5.42 5.42 0 00-5.3 4.67 4.26 4.26 0 00.88 3.57c.72.84 1.76 1.19 3 1.19 2.1 0 3.28-1.33 3.28-1.33l-.1.64a.4.4 0 00.4.47h2.14a.7.7 0 00.69-.57l1.28-7.95a.4.4 0 00-.4-.47z"/><path id="d" d="M140.07 601h-2.38a.7.7 0 00-.58.3l-3.29 4.74-1.4-4.56a.69.69 0 00-.66-.48h-2.35a.4.4 0 00-.39.54l2.63 7.55-2.47 3.4a.4.4 0 00.34.65h2.38a.7.7 0 00.57-.3l7.94-11.2a.4.4 0 00-.34-.64z"/><path id="e" d="M148.23 600.55c-.27 1.75-1.63 1.75-2.95 1.75h-.75l.53-3.26a.41.41 0 01.4-.35h.35c.9 0 1.74 0 2.18.5.26.3.34.75.24 1.36zm-.57-4.55h-4.97a.69.69 0 00-.68.57l-2 12.45a.4.4 0 00.4.46h2.55a.48.48 0 00.48-.4l.57-3.52a.68.68 0 01.68-.57h1.57c3.27 0 5.15-1.55 5.65-4.62.22-1.34 0-2.4-.64-3.13-.7-.81-1.95-1.24-3.61-1.24z"/><path id="f" d="M158.93 604.74a2.63 2.63 0 01-2.69 2.22c-.68 0-1.24-.22-1.6-.63-.34-.4-.47-.98-.36-1.63a2.64 2.64 0 012.66-2.24 2 2 0 011.58.64c.37.42.51 1 .4 1.64zm3.31-4.52h-2.38a.4.4 0 00-.4.34l-.1.65-.18-.24c-.51-.73-1.66-.97-2.8-.97a5.42 5.42 0 00-5.3 4.67 4.26 4.26 0 00.88 3.57c.72.84 1.76 1.19 2.99 1.19 2.12 0 3.29-1.33 3.29-1.33l-.1.64a.4.4 0 00.4.47h2.14a.69.69 0 00.68-.57l1.29-7.95a.4.4 0 00-.41-.47z"/><path id="g" d="M84.5 611.96l.38-2.35-.84-.02H80l2.8-17.4a.23.23 0 01.23-.19h6.81c2.26 0 3.82.46 4.64 1.37.38.42.62.87.74 1.36.12.51.12 1.13 0 1.87v.54l.38.21c.32.17.57.36.77.58.33.36.54.82.63 1.37.09.57.06 1.24-.1 2a6.94 6.94 0 01-.83 2.26 4.69 4.69 0 01-1.32 1.42 5.43 5.43 0 01-1.79.78c-.66.17-1.4.26-2.23.26h-.53c-.38 0-.74.13-1.03.37a1.56 1.56 0 00-.54.94l-.04.21-.67 4.16-.03.15a.15.15 0 01-.05.09.11.11 0 01-.07.02z"/><path id="h" d="M95.24 597l-.07.39c-.9 4.5-3.97 6.07-7.9 6.07h-2a.96.96 0 00-.95.8l-1.02 6.34-.3 1.8a.5.5 0 00.51.58h3.54c.42 0 .78-.3.85-.7l.03-.18.67-4.14.04-.23a.85.85 0 01.84-.7h.53c3.43 0 6.12-1.37 6.9-5.3.33-1.66.17-3.03-.7-4a3.38 3.38 0 00-.97-.73z"/><path id="i" d="M94.98 596.32a7.2 7.2 0 00-.87-.2 11.34 11.34 0 00-1.76-.12H87a.86.86 0 00-.37.08.83.83 0 00-.47.62l-1.14 7.03-.03.2a.96.96 0 01.96-.8h2c3.92 0 7-1.55 7.89-6.06l.07-.39a4.84 4.84 0 00-.94-.36z"/><path id="j" d="M85.98 596.46a.83.83 0 01.47-.62.87.87 0 01.37-.08h5.33c.64 0 1.23.04 1.77.13a7.22 7.22 0 011.07.25c.27.08.51.18.74.3.27-1.67 0-2.8-.92-3.83-1.02-1.13-2.85-1.61-5.2-1.61h-6.8a.97.97 0 00-.97.8l-2.83 17.58a.58.58 0 00.57.66h4.2l1.06-6.55z"/></defs><use fill="#a9a9a9" xlink:href="#a" transform="translate(-79 -591)"/><use fill="#636363" xlink:href="#b" transform="translate(-79 -591)"/><use fill="#636363" xlink:href="#c" transform="translate(-79 -591)"/><use fill="#636363" xlink:href="#d" transform="translate(-79 -591)"/><use fill="#a9a9a9" xlink:href="#e" transform="translate(-79 -591)"/><use fill="#a9a9a9" xlink:href="#f" transform="translate(-79 -591)"/><use fill="#253b80" xlink:href="#g" transform="translate(-79 -591)"/><use fill="#a9a9a9" xlink:href="#h" transform="translate(-79 -591)"/><use fill="#636363" xlink:href="#i" transform="translate(-79 -591)"/><use fill="#636363" xlink:href="#j" transform="translate(-79 -591)"/></svg>