<svg xmlns="http://www.w3.org/2000/svg" xmlns:xlink="http://www.w3.org/1999/xlink" width="97" height="19" viewBox="0 0 97 19"><defs><path id="a" d="M199.02 592.11h14.15v17.87h-14.15z"/><path id="c" d="M206.94 608.93c0 .67.6 1.17 1.26 1.05l.1-.02a7.48 7.48 0 002.9-1.28 4.68 4.68 0 001.97-3.69c.07-2.46-1.69-4.31-4.7-4.95-.57-.13-1.21-.2-1.9-.29-1.9-.23-4.06-.5-4.63-1.77a2.07 2.07 0 010-1.84c.4-.8 1.31-1.46 2.33-1.7 2.12-.5 4.8 0 6.4 1.2.46.34 1.12.32 1.5-.11a1.07 1.07 0 00-.15-1.56 10.36 10.36 0 00-8.23-1.6 5.66 5.66 0 00-3.76 2.82 4.16 4.16 0 00-.04 3.66c1.06 2.37 3.98 2.73 6.33 3.02.63.08 1.22.15 1.7.25 1.15.25 3.07.94 3.01 2.81-.04 1.66-1.58 2.58-3.1 2.93l-.11.02a1.07 1.07 0 00-.88 1.05"/><path id="d" d="M205.2 608.87c0 .68-.62 1.2-1.28 1.04l-.1-.02a9.25 9.25 0 01-4.5-2.55c-.4-.42-.44-1.1-.03-1.53a1.07 1.07 0 011.54.02 7 7 0 003.57 2.02c.47.1.8.53.8 1.02"/><path id="e" d="M230.47 605.31a.5.5 0 00-.14.35v3.55c0 .74-.47 1.2-1.15 1.2s-1.18-.46-1.18-1.2V594.2c0-.73.49-1.2 1.18-1.2s1.15.47 1.15 1.2v8.04a.1.1 0 00.17.07l8.36-8.9c.27-.26.57-.41.91-.41.64 0 1.1.44 1.1 1.03 0 .42-.17.71-.58 1.13l-9.82 10.15m4.6-2.4a1.1 1.1 0 011.68.09l4.2 5.5c.24.34.32.61.32.86 0 .57-.47 1.04-1.04 1.05-.44.01-.77-.16-1.05-.54l-4.18-5.53a1.1 1.1 0 01.08-1.43"/><path id="f" d="M284.33 601.25h6.56c.73 0 1.15.34 1.15 1 0 .66-.42 1.03-1.15 1.03h-6.46a.1.1 0 00-.1.1v4.53c0 .06.05.1.1.1h10.05c.74 0 1.23.45 1.23 1.09 0 .66-.5 1.08-1.23 1.08h-11.3c-.65 0-1.18-.53-1.18-1.18v-7.25c0-.28.22-.5.5-.5h1.83m-2.33-2.9v-4.17c0-.65.53-1.18 1.18-1.18h11.3c.74 0 1.2.44 1.2 1.08 0 .66-.46 1.08-1.2 1.08h-10.05a.1.1 0 00-.1.1v3.09a1.17 1.17 0 11-2.33 0"/><path id="g" d="M267.51 593.5c.25-.35.52-.5.94-.5.59 0 1.1.47 1.1 1 0 .28-.07.52-.24.8l-5.74 8.23a.5.5 0 00-.09.28v5.92c0 .76-.46 1.23-1.18 1.23-.69 0-1.15-.47-1.15-1.23v-5.75c0-.46.14-.91.4-1.29l5.97-8.7m-6.71 6.68a1.08 1.08 0 01-1.77.01l-3.8-5.38a1.28 1.28 0 01-.24-.8c0-.53.52-1 1.1-1 .42 0 .7.15.94.5l3.77 5.45c.26.37.26.86 0 1.22"/><clipPath id="b"><use xlink:href="#a"/></clipPath></defs><g clip-path="url(#b)" transform="translate(-199 -592)"><use fill="#636363" xlink:href="#c"/></g><g clip-path="url(#b)" transform="translate(-199 -592)"><use fill="#636363" xlink:href="#d"/></g><use fill="#636363" xlink:href="#e" transform="translate(-199 -592)"/><use fill="#636363" xlink:href="#f" transform="translate(-199 -592)"/><use fill="#636363" xlink:href="#g" transform="translate(-199 -592)"/></svg>