<svg xmlns="http://www.w3.org/2000/svg" xmlns:xlink="http://www.w3.org/1999/xlink" width="74" height="23" viewBox="0 0 74 23"><defs><path id="a" d="M107.82 651.03c-.24 0-.45.03-.64.1a1.4 1.4 0 00-.48.3 1.6 1.6 0 00-.33.48 2.17 2.17 0 00-.18.6h3.2a1.85 1.85 0 00-.52-1.1 1.45 1.45 0 00-1.05-.38zm4.2 5h-.06v-.28l-.11.23h-.07l-.1-.23v.27h-.08v-.36h.1l.11.25.12-.25h.1zm-.68 0v-.31h-.13v-.06h.32v.06h-.12v.3zm-3.5-6.17c.44 0 .83.08 1.19.23.36.15.66.37.92.65a3 3 0 01.6 1c.14.38.21.8.21 1.27a5.45 5.45 0 01-.02.5h-4.56c.04.27.12.5.24.69a1.64 1.64 0 00.97.74c.2.06.4.1.63.1a3.01 3.01 0 001.78-.63l.67.92a3.37 3.37 0 01-1.2.66 4.65 4.65 0 01-1.34.19c-.46 0-.89-.08-1.27-.23a2.9 2.9 0 01-1-.64 2.88 2.88 0 01-.65-1 3.48 3.48 0 01-.23-1.29c0-.47.07-.9.22-1.28a2.83 2.83 0 011.6-1.64c.38-.16.8-.24 1.25-.24zm-7.6 1.24c-.28 0-.54.05-.77.15a1.75 1.75 0 00-.95 1.02 2.14 2.14 0 00-.13.75c0 .26.04.5.13.74a1.75 1.75 0 00.95 1.02c.23.1.49.15.78.15.28 0 .53-.04.76-.14a1.75 1.75 0 00.96-1.01 2.2 2.2 0 000-1.53 1.77 1.77 0 00-.96-1 1.91 1.91 0 00-.76-.15zm-.15-1.24c.44 0 .82.08 1.14.24.31.16.58.38.8.65V647h1.34v9.02h-1.34v-.72a2.37 2.37 0 01-.8.64 3.07 3.07 0 01-2.35 0 3 3 0 01-.98-.65 3.01 3.01 0 01-.66-1 3.3 3.3 0 01-.23-1.27 3.04 3.04 0 011.87-2.92 3.1 3.1 0 011.2-.24zm-7.37 1.24c-.28 0-.53.04-.77.14-.23.1-.44.22-.6.4a1.83 1.83 0 00-.41.6 2 2 0 00-.15.78 2 2 0 00.15.77 1.84 1.84 0 001.78 1.14c.27 0 .53-.04.77-.14a1.81 1.81 0 001.02-1 2 2 0 00.15-.77 2 2 0 00-.15-.78 1.82 1.82 0 00-.41-.6 1.86 1.86 0 00-.61-.4 2.06 2.06 0 00-.77-.14zm0-1.24a3.52 3.52 0 012.37.91 3.05 3.05 0 01.95 2.26c0 .45-.08.87-.25 1.25a3.04 3.04 0 01-.7 1 3.24 3.24 0 01-1.05.67 3.55 3.55 0 01-1.32.24c-.48 0-.92-.08-1.32-.24a3.2 3.2 0 01-1.05-.67 3.07 3.07 0 01-.7-1 3.11 3.11 0 01-.24-1.25 3.06 3.06 0 01.94-2.26 3.2 3.2 0 011.05-.67 3.55 3.55 0 011.32-.24zm-7.95-2.77a5.24 5.24 0 012.2.49c.32.16.6.35.87.58.26.22.48.48.65.76l-1.21.8a2.93 2.93 0 00-1.06-.93 3.1 3.1 0 00-1.45-.34c-.46 0-.89.08-1.28.23-.39.15-.72.37-1 .65a2.99 2.99 0 00-.67 1.01 3.39 3.39 0 00-.24 1.3c0 .47.08.9.24 1.3a2.96 2.96 0 001.68 1.66 3.41 3.41 0 002.7-.1 2.97 2.97 0 001.07-.93l1.19.84a3.82 3.82 0 01-.68.74c-.26.22-.55.4-.86.56a4.59 4.59 0 01-1.02.35 5.18 5.18 0 01-3.04-.22 4.43 4.43 0 01-1.49-.95 4.3 4.3 0 01-.97-1.44 4.69 4.69 0 01-.34-1.81c0-.66.11-1.26.34-1.82a4.3 4.3 0 01.97-1.44 4.43 4.43 0 011.5-.95 5.13 5.13 0 011.9-.34zm-8.74 3.94c-.24 0-.46.03-.64.1a1.4 1.4 0 00-.49.3 1.6 1.6 0 00-.33.48c-.08.18-.14.38-.18.6h3.2a1.85 1.85 0 00-.51-1.1 1.45 1.45 0 00-1.05-.38zm.03-1.17a3 3 0 011.18.23 2.78 2.78 0 011.52 1.65c.15.38.22.8.22 1.28a4.2 4.2 0 01-.03.48H74.4c.04.28.12.5.24.7a1.64 1.64 0 00.96.74c.2.06.42.1.64.1.3 0 .62-.06.93-.17a3.05 3.05 0 00.85-.47l.67.93a3.37 3.37 0 01-1.2.66 4.67 4.67 0 01-1.34.19 3.51 3.51 0 01-1.27-.23 2.9 2.9 0 01-1-.64 2.87 2.87 0 01-.65-1 3.47 3.47 0 01-.24-1.29c0-.47.08-.9.23-1.28a2.82 2.82 0 011.6-1.64 3.3 3.3 0 011.25-.24zm-4.52 0a2.5 2.5 0 011.04.17l-.33 1.3a1.96 1.96 0 00-.5-.16 2.71 2.71 0 00-.52-.06c-.22 0-.42.04-.6.1-.18.08-.33.18-.46.32a1.47 1.47 0 00-.3.5c-.07.2-.11.44-.11.69v3.3H68.4v-6h1.34v.68c.2-.3.46-.5.76-.64.3-.13.65-.2 1.03-.2zm-4.9 3.62c0 .47-.09.88-.25 1.23a2.4 2.4 0 01-.64.84 2.6 2.6 0 01-.92.48 3.69 3.69 0 01-1.06.15 3.7 3.7 0 01-1.05-.15 2.64 2.64 0 01-.92-.48 2.34 2.34 0 01-.65-.84 2.85 2.85 0 01-.24-1.23v-3.46h1.35v3.34c0 .29.04.53.12.74.08.2.18.36.32.49.14.12.3.21.48.27a2.03 2.03 0 001.19 0c.18-.06.34-.15.48-.27.13-.13.24-.3.32-.5a2.07 2.07 0 00.11-.73v-3.34h1.35v3.46zm-9.22-3.62c.47 0 .9.08 1.3.25.4.16.73.4 1 .71l-.86.9a2.6 2.6 0 00-.68-.46 1.92 1.92 0 00-.8-.16c-.25 0-.5.05-.72.14a1.72 1.72 0 00-.58.4c-.16.17-.29.37-.38.6a2.14 2.14 0 00-.14.79c0 .28.05.54.14.78a1.73 1.73 0 00.96 1 1.95 1.95 0 001.55-.04c.26-.12.49-.27.69-.45l.83.9a2.73 2.73 0 01-1.02.73 3.37 3.37 0 01-1.29.24c-.49 0-.93-.08-1.33-.24a3.05 3.05 0 01-1.02-.67 2.94 2.94 0 01-.66-1 3.33 3.33 0 01-.23-1.25c0-.46.08-.87.23-1.26a2.94 2.94 0 011.68-1.66 3.53 3.53 0 011.33-.25zm-7.15 1.17c-.24 0-.45.03-.64.1a1.4 1.4 0 00-.48.3 1.6 1.6 0 00-.33.48 1.9 1.9 0 00-.18.6h3.2a1.85 1.85 0 00-.52-1.1 1.45 1.45 0 00-1.05-.38zm.03-1.17c.43 0 .82.08 1.18.23.36.16.67.37.92.65a3 3 0 01.6 1c.14.38.21.8.21 1.28a5.11 5.11 0 01-.02.48h-4.56c.05.28.13.5.24.7a1.67 1.67 0 00.97.74c.2.06.4.1.63.1a3.01 3.01 0 001.78-.63l.67.92a3.37 3.37 0 01-1.2.66 4.66 4.66 0 01-1.34.19 3.5 3.5 0 01-1.27-.23 2.9 2.9 0 01-1-.64 2.87 2.87 0 01-.65-1 3.48 3.48 0 01-.23-1.29c0-.47.08-.9.23-1.28a2.82 2.82 0 011.6-1.64c.37-.16.79-.24 1.24-.24zm-4.91-.67a5.36 5.36 0 00-1.21-.55 4.4 4.4 0 00-1.32-.2 3.02 3.02 0 00-1.46.36 1.31 1.31 0 00-.42.4c-.1.17-.15.35-.15.55 0 .18.05.34.13.47.09.13.21.24.37.33.16.09.36.16.6.22.22.06.48.11.78.15l.62.08c.37.05.72.13 1.07.24.35.1.66.25.93.43a2.01 2.01 0 01.9 1.74 2.41 2.41 0 01-1.07 2.05c-.33.24-.72.42-1.15.54a5.16 5.16 0 01-1.39.18 6.76 6.76 0 01-1.92-.3 6 6 0 01-.92-.37A3.92 3.92 0 0139 655l.8-1.13c.15.14.33.27.55.39a4.99 4.99 0 001.47.5 4.43 4.43 0 001.62-.01 2.29 2.29 0 00.67-.26c.19-.1.34-.25.45-.4a.94.94 0 00.16-.55c0-.34-.17-.6-.52-.78a4.74 4.74 0 00-1.5-.4l-.7-.1a5.61 5.61 0 01-.99-.22 2.87 2.87 0 01-.86-.44 2.15 2.15 0 01-.6-.72 2.2 2.2 0 01-.23-1.04 2.39 2.39 0 011.04-2.03 3.54 3.54 0 011.13-.53 5.07 5.07 0 011.38-.18 5.8 5.8 0 013.26.95z"/><path id="b" d="M108.61 638.4a1.83 1.83 0 011 1.05 2.26 2.26 0 010 1.59 1.83 1.83 0 01-1 1.05 1.97 1.97 0 01-.79.15c-.3 0-.57-.05-.8-.16a1.81 1.81 0 01-1-1.06 2.23 2.23 0 01-.13-.77c0-.28.05-.53.14-.78a1.9 1.9 0 01.38-.63c.16-.18.36-.33.6-.43.24-.1.5-.16.81-.16.3 0 .55.05.79.15zm4 4.66h.1a.1.1 0 01.05.01.04.04 0 01.02.04c0 .02 0 .03-.02.04a.09.09 0 01-.05.01h-.1zm.1-.07h-.17v.37h.08v-.14h.03l.12.14h.1l-.13-.14a.15.15 0 00.1-.04.1.1 0 00.02-.07.1.1 0 00-.04-.09.17.17 0 00-.1-.03zm-.15.47a.32.32 0 01-.17-.16.3.3 0 01.17-.4.32.32 0 01.13-.03.32.32 0 01.29.19.3.3 0 01.02.12.3.3 0 01-.1.22.31.31 0 01-.21.09.33.33 0 01-.13-.03zm-.04-.65a.41.41 0 00-.22.21.37.37 0 00-.03.16l.03.15a.4.4 0 00.39.24.42.42 0 00.29-.11.39.39 0 00.12-.28.39.39 0 00-.12-.28.42.42 0 00-.3-.12.43.43 0 00-.16.03zm-6.12-5.6a3.13 3.13 0 00-1.02.68 3.42 3.42 0 00-.93 2.35c0 .48.09.92.25 1.32a3.15 3.15 0 001.7 1.72 3.21 3.21 0 001.25.24 2.45 2.45 0 002-.91v.75h1.4V634h-1.39v3.89a2.5 2.5 0 00-.82-.67 3.22 3.22 0 00-2.44 0zm-4.39-.03a1.91 1.91 0 00-.79.65v-.7h-1.38v6.23h1.4v-3.43a1.63 1.63 0 01.42-1.23c.14-.14.3-.25.48-.33.19-.07.4-.1.62-.1a2.59 2.59 0 011.06.22l.33-1.35a2.6 2.6 0 00-.5-.13 3.56 3.56 0 00-.57-.04c-.4 0-.75.07-1.06.2zm-6.68 1.22a1.83 1.83 0 011 1.05c.09.24.13.5.13.8 0 .28-.04.55-.14.79a1.82 1.82 0 01-1 1.05 1.96 1.96 0 01-.78.15 1.97 1.97 0 01-.8-.16 1.8 1.8 0 01-1-1.06 2.24 2.24 0 01-.12-.77c0-.28.04-.53.13-.78a1.8 1.8 0 01.98-1.06c.24-.1.5-.16.81-.16.29 0 .55.05.79.15zm2.45-1.27h-1.4v.76a2.49 2.49 0 00-.82-.67 3.2 3.2 0 00-2.44 0 3.13 3.13 0 00-1.01.67 3.42 3.42 0 00-.93 2.35c0 .48.08.92.25 1.32a3.14 3.14 0 004.13 1.71c.33-.16.6-.38.83-.66v.75h1.4zm-11.2.09a3.16 3.16 0 00-1.06.69 3.05 3.05 0 00-.69 1.04c-.16.4-.24.83-.24 1.3 0 .46.08.9.24 1.3a3.05 3.05 0 001.75 1.72c.41.17.87.25 1.38.25a3.52 3.52 0 001.34-.25c.41-.17.76-.42 1.06-.74l-.87-.94a2.77 2.77 0 01-.7.46 2.04 2.04 0 01-.87.19 1.9 1.9 0 01-.75-.15 1.79 1.79 0 01-1-1.04 2.19 2.19 0 01-.14-.8c0-.3.05-.57.14-.82a1.8 1.8 0 011-1.04c.24-.1.49-.14.75-.14a2 2 0 01.83.17c.25.1.48.27.71.47l.9-.93a2.7 2.7 0 00-1.05-.74 3.57 3.57 0 00-1.35-.25c-.5 0-.97.08-1.38.25zm-4.46-.04c-.31.14-.58.36-.8.65v-.7h-1.37v6.23h1.4v-3.43a1.63 1.63 0 01.42-1.23c.13-.14.3-.25.48-.33a1.66 1.66 0 01.61-.1 2.88 2.88 0 011.07.22l.33-1.35a2.6 2.6 0 00-.5-.13 3.56 3.56 0 00-.58-.04c-.39 0-.74.07-1.06.2zm-5.74 1.4c.28.27.46.65.53 1.13h-3.3a2.29 2.29 0 01.18-.62c.1-.19.2-.35.35-.49a1.66 1.66 0 011.16-.42c.44 0 .8.13 1.08.4zm-2.34-1.37a2.91 2.91 0 00-1.66 1.7 3.67 3.67 0 00-.24 1.34c0 .49.08.94.24 1.34a3 3 0 00.68 1.03 3 3 0 001.03.67c.4.15.84.23 1.33.23a4.85 4.85 0 001.38-.2 3.5 3.5 0 001.25-.68l-.7-.96a3.13 3.13 0 01-.88.48 2.86 2.86 0 01-.97.17c-.23 0-.44-.03-.65-.09a1.74 1.74 0 01-.57-.28 1.72 1.72 0 01-.43-.5c-.12-.2-.2-.43-.25-.71h4.73a4.6 4.6 0 00.02-.51c0-.49-.07-.93-.22-1.33a3.12 3.12 0 00-.62-1.03 2.73 2.73 0 00-.96-.67 3.1 3.1 0 00-1.22-.24c-.47 0-.9.08-1.3.24zm-3 1.16v-1.24h-2.45v-1.88h-1.4v1.88H65.9v1.24h1.27v2.73c0 .83.2 1.44.6 1.83.41.4.98.59 1.7.59a3.21 3.21 0 001.96-.62l-.55-1.08c-.2.11-.4.21-.63.3a1.91 1.91 0 01-.66.12c-.14 0-.27-.02-.4-.07a.83.83 0 01-.32-.2 1 1 0 01-.21-.36 1.58 1.58 0 01-.08-.53v-2.71zm-6.02-.74a4.15 4.15 0 00-1.17-.48 5.68 5.68 0 00-1.42-.17c-.41 0-.78.04-1.1.14a2.55 2.55 0 00-.84.4c-.23.16-.4.37-.52.62a1.84 1.84 0 00-.19.83c0 .5.19.9.55 1.21.37.31.91.52 1.62.61l.67.09c.38.05.66.13.84.25.18.11.27.26.27.43 0 .24-.12.42-.37.56-.24.13-.6.2-1.09.2-.26 0-.5-.02-.7-.05a3.57 3.57 0 01-.57-.14 2.76 2.76 0 01-.46-.2 3.33 3.33 0 01-.38-.24l-.64 1.02c.23.16.47.3.72.4a5.14 5.14 0 001.45.36l.57.03c.46 0 .87-.05 1.23-.15.36-.1.67-.24.92-.41a1.87 1.87 0 00.56-.65c.13-.25.2-.52.2-.82 0-.53-.2-.94-.59-1.24-.39-.3-.93-.5-1.63-.6l-.66-.1a6.03 6.03 0 01-.42-.07 1.39 1.39 0 01-.33-.1.64.64 0 01-.22-.2.44.44 0 01-.09-.26c0-.22.1-.4.32-.54.21-.14.5-.2.89-.2a3.4 3.4 0 011.14.18 4.15 4.15 0 01.84.35zm-9.46.77a1.83 1.83 0 011 1.05 2.3 2.3 0 010 1.59 1.83 1.83 0 01-1 1.05 1.97 1.97 0 01-.79.15c-.3 0-.57-.05-.81-.16a1.8 1.8 0 01-.99-1.06 2.22 2.22 0 01-.13-.78c0-.27.05-.53.13-.77a1.89 1.89 0 01.38-.63c.17-.18.37-.33.61-.43.24-.1.5-.16.81-.16.29 0 .55.05.79.15zm2.45-1.27h-1.4v.76a2.49 2.49 0 00-.83-.67 3.2 3.2 0 00-2.44 0 3.12 3.12 0 00-1 .67 3.2 3.2 0 00-.93 2.35c0 .48.08.92.24 1.32a3.14 3.14 0 004.13 1.71 2.45 2.45 0 00.83-.66v.75h1.4zm-7.95 6.23v-9.1h-2.31l-2.72 6.5-2.71-6.5H40v9.1h1.5v-7.42l2.74 6.53h1.59l2.73-6.6v7.49z"/></defs><use fill="#a9a9a9" xlink:href="#a" transform="translate(-39 -634)"/><use fill="#636363" xlink:href="#b" transform="translate(-39 -634)"/></svg>