<svg xmlns="http://www.w3.org/2000/svg" xmlns:xlink="http://www.w3.org/1999/xlink" width="48" height="21" viewBox="0 0 48 21"><defs><path id="b" d="M167.49 655.44H165l1.56-9.44h2.48z"/><path id="h" d="M157.99 640.58l-.52 3.31H156l.9-5.77h1.25v1.16c.5-.67 1.17-1.23 2.1-1.28v1.42a3.27 3.27 0 00-2.27 1.16z"/><path id="c" d="M176.47 646.4a6.25 6.25 0 00-2.23-.4c-2.46 0-4.2 1.28-4.2 3.11-.02 1.36 1.23 2.12 2.17 2.57.97.46 1.3.76 1.3 1.17-.02.63-.79.92-1.5.92-1 0-1.52-.14-2.34-.5l-.32-.14-.35 2.1a7.7 7.7 0 002.77.51c2.61 0 4.31-1.27 4.33-3.22.01-1.08-.65-1.9-2.09-2.57-.86-.43-1.4-.72-1.4-1.17 0-.39.46-.8 1.43-.8.82-.02 1.4.16 1.86.35l.23.11.34-2.04z"/><path id="d" d="M179.85 652.08l1-2.64.32-.9.17.82.58 2.72h-2.07zm3.07-6.08H181c-.6 0-1.04.17-1.3.78l-3.7 8.65h2.61l.53-1.42h3.18l.3 1.42h2.31l-2.01-9.43z"/><path id="e" d="M158.04 646h-4.02l-.02.16c3.12.78 5.18 2.7 6.04 4.97l-.88-4.33c-.15-.6-.58-.78-1.12-.8z"/><path id="f" d="M145.75 635l1.25 6.32 3.2-6.24h1.68l-4.46 8.29h-1.59l-1.83-8.08z"/><path id="g" d="M153.02 639c-.58 0-1.13.45-1.39 1.39h2.35c.04-.9-.25-1.4-.96-1.4zm2.23 2.29h-3.78c-.1 1.12.43 1.61 1.33 1.61a4 4 0 002.14-.72v1.13a4.63 4.63 0 01-2.47.7c-1.65 0-2.74-.92-2.41-3 .3-1.87 1.62-3.01 3.16-3.01 1.77 0 2.35 1.3 2.1 2.94l-.07.35z"/><path id="a" d="M163.14 646l-2.43 6.43-.26-1.3c-.6-1.6-1.92-3.29-3.45-3.97l2.23 8.26h2.63l3.92-9.42h-2.64z"/><path id="i" d="M161.8 636.65c-.48 0-.82-.34-.75-.81.08-.5.52-.84 1.01-.84.48 0 .81.35.74.84a1 1 0 01-1 .8zm-1.8 6.74l.9-5.77h1.47l-.9 5.77z"/><path id="j" d="M166.5 636.17c-.5 0-.8.22-.88.73l-.13.85h1.12v1.17h-1.3l-.73 4.6h-1.45l.72-4.6H163l.18-1.17h.86l.15-1c.2-1.27 1.11-1.75 2.32-1.75.25 0 .45.02.59.05l.01 1.17a3.79 3.79 0 00-.6-.05z"/><path id="k" d="M167.8 636.65c-.48 0-.82-.34-.75-.81.08-.5.52-.84 1.01-.84.48 0 .81.35.74.84a1 1 0 01-1 .8zm-1.8 6.74l.9-5.77h1.47l-.9 5.77H166z"/><path id="l" d="M172.02 639c-.58 0-1.13.45-1.39 1.39h2.35c.04-.9-.25-1.4-.96-1.4zm2.23 2.29h-3.78c-.1 1.12.43 1.61 1.33 1.61a4 4 0 002.14-.72v1.13a4.63 4.63 0 01-2.47.7c-1.65 0-2.74-.92-2.41-3 .3-1.87 1.62-3.01 3.16-3.01 1.77 0 2.35 1.3 2.1 2.94l-.07.35z"/><path id="m" d="M179.27 639.2c-.34-.17-.6-.26-1.1-.26-.77 0-1.43.61-1.63 1.88-.18 1.12.23 1.65.88 1.65.53 0 1-.31 1.46-.79l.4-2.48zm-.49 4.43v-.8c-.49.49-1.13.92-1.94.92-1.24 0-2.08-.9-1.78-2.85.34-2.15 1.7-3.1 3.07-3.1.56 0 1 .1 1.33.21l.44-2.78 1.5-.23-1.36 8.63h-1.26z"/><path id="n" d="M185.6 640.03c-.37 0-.74.25-1.07.57l-.3 1.99c.21.08.36.11.68.11.7 0 1.19-.41 1.35-1.4.13-.85-.16-1.27-.66-1.27zm-.82 3.56a5.33 5.33 0 01-1.78-.29l.96-6.13 1.14-.17-.42 2.65c.34-.29.8-.58 1.36-.58.94 0 1.58.7 1.35 2.16-.26 1.6-1.27 2.36-2.6 2.36z"/><path id="o" d="M189.4 643.67c-.57 1.08-1.13 1.41-2 1.41-.19 0-.3-.01-.4-.04v-.9c.14.04.3.07.5.07a.89.89 0 00.8-.47l.15-.29-.94-4.3 1.18-.15.54 3.11 1.48-3.05h1.1l-2.42 4.61z"/></defs><use fill="#636363" xlink:href="#a" transform="translate(-144 -635)"/><use fill="#636363" xlink:href="#b" transform="translate(-144 -635)"/><use fill="#636363" xlink:href="#c" transform="translate(-144 -635)"/><use fill="#636363" xlink:href="#d" transform="translate(-144 -635)"/><use fill="#a9a9a9" xlink:href="#e" transform="translate(-144 -635)"/><use fill="#636363" xlink:href="#f" transform="translate(-144 -635)"/><use fill="#636363" xlink:href="#g" transform="translate(-144 -635)"/><use fill="#636363" xlink:href="#h" transform="translate(-144 -635)"/><use fill="#636363" xlink:href="#i" transform="translate(-144 -635)"/><use fill="#636363" xlink:href="#j" transform="translate(-144 -635)"/><use fill="#636363" xlink:href="#k" transform="translate(-144 -635)"/><use fill="#636363" xlink:href="#l" transform="translate(-144 -635)"/><use fill="#636363" xlink:href="#m" transform="translate(-144 -635)"/><use fill="#636363" xlink:href="#n" transform="translate(-144 -635)"/><use fill="#636363" xlink:href="#o" transform="translate(-144 -635)"/></svg>