<svg xmlns="http://www.w3.org/2000/svg" xmlns:xlink="http://www.w3.org/1999/xlink" width="40" height="22" viewBox="0 0 40 22"><defs><path id="a" d="M261.57 634H222v21.86h39.57v-7.21a.59.59 0 00.24-.48.54.54 0 00-.24-.48"/><path id="b" d="M222 645.28v-3.3l1.35-2.98h2.9l.37.74V639h3.4l.75 1.62.72-1.62h10.8c.49 0 .93.09 1.25.37V639h2.96v.37c.5-.27 1.14-.37 1.86-.37h4.28l.4.74V639h3.17l.43.74V639h3.09v6.28h-3.12l-.6-.95v.95h-3.89l-.42-1h-.96l-.43 1h-2.03a3.9 3.9 0 01-1.78-.38v.38h-4.8v-1.43c0-.2-.04-.2-.17-.21h-.18v1.64h-9.29v-.78l-.33.78h-1.94l-.34-.76v.76h-3.74l-.42-1h-.96l-.43 1zm36.74-5.39h-1.14v3.15l-1.96-3.15h-1.69v4.27l-1.88-4.27h-1.67l-1.57 3.55h-.5c-.29 0-.6-.05-.77-.23-.2-.23-.3-.58-.3-1.06 0-.47.12-.83.31-1.02.22-.21.45-.27.86-.27h1.05v-.97h-1.08c-.76 0-1.33.17-1.68.53-.48.48-.6 1.1-.6 1.76 0 .82.2 1.34.6 1.73.38.38 1.06.5 1.6.5h1.3l.42-1.01h2.31l.44 1h2.26v-3.38l2.11 3.39h1.58zm-13.17 0h-1.13v4.52h1.13zm-2.34.22c-.36-.2-.78-.22-1.35-.22h-2.56v4.52h1.12v-1.65h1.19c.4 0 .65.04.81.2.2.21.18.6.18.88v.56h1.12v-.88c0-.4-.02-.6-.18-.83a1.29 1.29 0 00-.55-.38c.29-.11.78-.48.78-1.2 0-.5-.2-.8-.56-1zm-4.69 4.3v-.94h-2.6v-.9h2.54v-.92h-2.53v-.82h2.6v-.94h-3.71v4.52zm-4.53 0v-4.52h-1.85l-1.34 3.06-1.46-3.06h-1.81v4.28l-1.9-4.28h-1.64l-2 4.52h1.21l.43-1.01h2.32l.43 1h2.26v-3.53l1.62 3.54h.97l1.61-3.54v3.54zm16.43-1.96l.77-1.8.77 1.8zm-8.1-.71c-.16.09-.34.09-.55.09h-1.35v-1h1.37c.19 0 .4 0 .52.08.15.07.24.2.24.4s-.09.36-.23.43zm-18.3.71l.77-1.8.76 1.8z"/><path id="c" d="M241.82 647.9h-3.55l-1.42 1.47-1.37-1.47H231v4.5h4.41l1.43-1.5 1.37 1.5h2.16v-1.51h1.4c.96 0 1.93-.26 1.93-1.51s-1-1.48-1.88-1.48zm-2.56 4.09l-1.71-1.83 1.7-1.78zm2.55-2.03h-1.45v-1.13h1.46c.4 0 .69.15.69.55 0 .38-.27.59-.7.59zm7.5-2.06v4.5h3.7v-.93h-2.6v-.9h2.54v-.92h-2.54v-.82h2.6v-.93zm-.62 1.2c0-.5-.22-.79-.57-1a2.85 2.85 0 00-1.34-.2h-2.57v4.5h1.12v-1.64h1.19c.4 0 .65.03.81.2.21.2.18.6.18.88v.56h1.12v-.9c0-.39-.03-.6-.18-.81a1.2 1.2 0 00-.55-.38c.3-.12.79-.48.79-1.2zm-1.46.65c-.15.08-.33.09-.55.09h-1.35v-1.01h1.37c.2 0 .4 0 .53.08.14.07.23.21.23.4a.48.48 0 01-.23.44zm8.77-.09l-.6-.01c-.19 0-.32-.01-.43-.05a.35.35 0 01-.25-.34c0-.14.05-.25.17-.32.11-.08.25-.08.45-.08h2.04v-.96h-2.23c-1.17 0-1.6.68-1.6 1.34 0 1.42 1.3 1.36 2.35 1.4.2 0 .31.02.4.1a.4.4 0 010 .58c-.1.09-.24.11-.45.11h-2.17v.97h2.18c1.12 0 1.75-.45 1.75-1.42 0-.46-.12-.74-.34-.96-.25-.24-.66-.34-1.27-.36zm5.7 3.33c-.44.21-1.03.3-1.63.3h-2.88v-.4c-.33.25-.94.4-1.51.4h-9.09v-1.46c0-.18-.02-.18-.2-.18h-.15v1.63h-2.99v-1.7c-.5.22-1.07.24-1.55.23h-.35v1.48h-3.63l-.9-.98-.94.97H230V647h6l.86.96.91-.96h4.02c.46 0 1.22.05 1.57.37V647h3.58c.34 0 1.07.07 1.5.37V647h5.44v.37c.27-.25.84-.37 1.33-.37h3.04v.37c.32-.23.77-.37 1.4-.37h2.05v.9h-2.21c-1.17 0-1.6.68-1.6 1.34 0 1.42 1.3 1.36 2.35 1.4.2 0 .3.02.39.1a.36.36 0 01.14.29.39.39 0 01-.14.3c-.09.08-.23.1-.45.1h-2.14v.97h2.15c.72 0 1.24-.2 1.51-.58zm0-2.84l-.1-.12c-.25-.24-.66-.35-1.26-.36l-.6-.02c-.2 0-.32 0-.43-.05a.34.34 0 01-.25-.34c0-.14.05-.25.16-.32.12-.08.25-.09.45-.09h2.03z"/></defs><use fill="#636363" xlink:href="#a" transform="translate(-222 -634)"/><use fill="#fff" xlink:href="#b" transform="translate(-222 -634)"/><use fill="#fff" xlink:href="#c" transform="translate(-222 -634)"/></svg>