<svg xmlns="http://www.w3.org/2000/svg" xmlns:xlink="http://www.w3.org/1999/xlink" width="263" height="186" viewBox="0 0 263 186"><defs><path id="a" d="M438.23 400A14.12 14.12 0 01424 386V258c0-7.73 6.37-14 14.23-14h198.54c7.86 0 14.23 6.27 14.23 14v128c0 7.73-6.37 14-14.23 14z"/><path id="b" d="M424 314h227v-37H424z"/><path id="c" d="M613.39 337h-32.78a8.51 8.51 0 00-8.61 8.4v19.2a8.5 8.5 0 008.61 8.4h32.78a8.51 8.51 0 008.61-8.4v-19.2c0-4.63-3.85-8.4-8.61-8.4"/><path id="d" d="M447 349h95v-11h-95z"/><path id="e" d="M448 372h59v-11h-59z"/><path id="f" d="M461.9 391.01a34.95 34.95 0 10-69.9 0 34.95 34.95 0 0069.9 0"/><path id="g" d="M431.61 404.1a4.6 4.6 0 01-4.8 4.8 4.58 4.58 0 01-4.76-4.8c0-2.79 1.97-4.71 4.76-4.71 2.83 0 4.8 1.92 4.8 4.7"/><path id="h" d="M431.86 373.54v9.04l-1.77 13.26h-6.12l-1.82-13.26v-9.04z"/></defs><g transform="translate(-390 -242)"><use fill="#ffbdc5" xlink:href="#a"/><use fill="#fff" fill-opacity="0" stroke="#ef4056" stroke-miterlimit="50" stroke-width="4" xlink:href="#a"/></g><g transform="translate(-390 -242)"><use fill="#f8f4f2" xlink:href="#b"/><use fill="#fff" fill-opacity="0" stroke="#ef4056" stroke-miterlimit="50" stroke-width="3" xlink:href="#b"/></g><g transform="translate(-390 -242)"><use fill="#f8f4f2" xlink:href="#c"/><use fill="#fff" fill-opacity="0" stroke="#ef4056" stroke-miterlimit="50" stroke-width="3" xlink:href="#c"/></g><g transform="translate(-390 -242)"><use fill="#f8f4f2" xlink:href="#d"/><use fill="#fff" fill-opacity="0" stroke="#ef4056" stroke-miterlimit="50" stroke-width="3" xlink:href="#d"/></g><g transform="translate(-390 -242)"><use fill="#f8f4f2" xlink:href="#e"/><use fill="#fff" fill-opacity="0" stroke="#ef4056" stroke-miterlimit="50" stroke-width="3" xlink:href="#e"/></g><g transform="translate(-390 -242)"><use fill="#ffd900" xlink:href="#f"/><use fill="#fff" fill-opacity="0" stroke="#f5a623" stroke-miterlimit="50" stroke-width="3" xlink:href="#f"/></g><g fill="#fff" transform="translate(-390 -242)"><use xlink:href="#g"/><use fill-opacity="0" stroke="#f5a623" stroke-miterlimit="50" stroke-width="3" xlink:href="#g"/></g><g fill="#fff" transform="translate(-390 -242)"><use xlink:href="#h"/><use fill-opacity="0" stroke="#f5a623" stroke-miterlimit="50" stroke-width="3" xlink:href="#h"/></g></svg>