<svg xmlns="http://www.w3.org/2000/svg" xmlns:xlink="http://www.w3.org/1999/xlink" width="155" height="40" viewBox="0 0 155 40"><defs><path id="a" d="M1295.86 1067.65c-.5 2.95-2.7 2.95-4.92 2.95h-1.48l.98-5.66c0-.25.25-.5.74-.5h.5c1.47 0 2.95 0 3.69.99.5.25.5.98.5 2.22m-1-8.13h-8.36c-.5 0-.99.5-1.23.98l-3.45 21.67c0 .49.25.73.74.73h4.43c.5 0 .74-.24.74-.73l.98-6.16c0-.49.5-.98 1.23-.98h2.71c5.66 0 8.86-2.71 9.6-8.12.5-2.22 0-4.19-.98-5.42-1.48-1.23-3.7-1.97-6.4-1.97"/><path id="b" d="M1235.54 1067.65c-.5 2.95-2.7 2.95-4.91 2.95h-1.23l.98-5.66c0-.25.25-.5.74-.5h.49c1.47 0 2.95 0 3.68.99.25.25.5.98.25 2.22m-.97-8.13h-8.37c-.5 0-.99.5-1.23.98l-3.45 21.67c0 .49.25.73.74.73h3.94c.49 0 .98-.49 1.23-.98l.98-5.9c0-.5.5-1 1.23-1h2.71c5.66 0 8.86-2.7 9.6-8.11.5-2.22 0-4.19-.98-5.42-1.48-1.23-3.45-1.97-6.4-1.97"/><path id="c" d="M1254.28 1075.28c-.5 2.22-2.22 3.94-4.69 3.94-1.23 0-2.21-.5-2.7-.98a5.25 5.25 0 01-.75-2.96 4.51 4.51 0 014.44-3.94c1.23 0 1.97.5 2.71.98.74.74.99 1.97.99 2.96m5.65-7.88h-3.94c-.25 0-.74.25-.74.5l-.25 1.22-.24-.49c-.99-1.23-2.7-1.72-4.68-1.72-4.43 0-8.37 3.45-9.1 8.12a7.34 7.34 0 001.47 6.16c1.23 1.47 2.95 1.97 5.17 1.97 3.7 0 5.66-2.22 5.66-2.22l-.24 1.23c0 .5.24.74.73.74h3.7c.49 0 .98-.5 1.23-.98l2.21-13.79c-.24-.24-.74-.74-.98-.74"/><path id="d" d="M1314.34 1075.28c-.5 2.22-2.22 3.94-4.69 3.94-1.23 0-2.21-.5-2.7-.98a5.25 5.25 0 01-.75-2.96 4.51 4.51 0 014.44-3.94c1.23 0 1.97.5 2.71.98.99.74 1.23 1.97.99 2.96m5.65-7.88h-3.94c-.25 0-.74.25-.74.5l-.25 1.22-.24-.49c-.99-1.23-2.7-1.72-4.68-1.72-4.43 0-8.37 3.45-9.1 8.12a7.34 7.34 0 001.47 6.16c1.23 1.47 2.95 1.97 5.17 1.97 3.7 0 5.66-2.22 5.66-2.22l-.24 1.23c0 .5.24.74.73.74h3.7c.49 0 .98-.5 1.23-.98l2.21-13.79c-.24-.24-.49-.74-.98-.74"/><path id="e" d="M1281.33 1067.4h-4.18c-.5 0-.74.25-.98.5l-5.42 8.36-2.46-7.88c-.25-.49-.5-.73-1.23-.73h-3.94c-.5 0-.74.49-.74.98l4.43 13.05-4.18 5.9c-.25.5 0 1.23.49 1.23h3.94c.49 0 .74-.24.98-.49l13.54-19.44c.74-.74.25-1.48-.25-1.48"/><path id="f" d="M1324.67 1060.26l-3.45 22.15c0 .5.25.74.74.74h3.45c.49 0 .98-.5 1.22-.98l3.45-21.66c0-.5-.25-.74-.74-.74h-3.94c-.24-.25-.49 0-.73.49"/><path id="g" d="M1203.3 1052.13c-1.71-1.97-4.91-2.95-9.35-2.95h-12.3c-.74 0-1.48.74-1.73 1.48l-4.92 32.24c0 .74.5 1.23.98 1.23h7.63l1.98-12.06v.5c.24-.74.98-1.48 1.72-1.48h3.69c7.14 0 12.55-2.96 14.28-11.08v-.74c-.25 0-.25 0 0 0 .24-3.2-.25-5.17-1.97-7.14"/><path id="h" d="M1205.03 1059.28v.74c-1.72 8.37-7.13 11.08-14.27 11.08h-3.7c-.73 0-1.47.73-1.72 1.47l-2.46 15.02c0 .49.25.98.98.98h6.4c.74 0 1.48-.49 1.48-1.23v-.24l1.23-7.63v-.5c0-.74.74-1.23 1.48-1.23h.98c6.16 0 11.08-2.46 12.31-9.85.5-2.95.25-5.66-1.23-7.38a2.5 2.5 0 00-1.48-1.23"/><path id="i" d="M1203.3 1058.54c-.24 0-.49-.25-.73-.25-.25 0-.5 0-.74-.24-.99-.25-1.97-.25-3.2-.25h-9.6c-.25 0-.5 0-.74.25-.5.24-.74.73-.74 1.23l-1.97 12.8v.49c.25-.74.98-1.48 1.72-1.48h3.7c7.13 0 12.55-2.95 14.27-11.08 0-.24 0-.49.25-.73-.5-.25-.74-.5-1.23-.5-.74-.24-.74-.24-.99-.24"/></defs><use fill="#139ad6" xlink:href="#a" transform="translate(-1175 -1049)"/><use fill="#263b80" xlink:href="#b" transform="translate(-1175 -1049)"/><use fill="#263b80" xlink:href="#c" transform="translate(-1175 -1049)"/><use fill="#139ad6" xlink:href="#d" transform="translate(-1175 -1049)"/><use fill="#263b80" xlink:href="#e" transform="translate(-1175 -1049)"/><use fill="#139ad6" xlink:href="#f" transform="translate(-1175 -1049)"/><use fill="#263b80" xlink:href="#g" transform="translate(-1175 -1049)"/><use fill="#139ad6" xlink:href="#h" transform="translate(-1175 -1049)"/><use fill="#232c65" xlink:href="#i" transform="translate(-1175 -1049)"/></svg>