<svg xmlns="http://www.w3.org/2000/svg" xmlns:xlink="http://www.w3.org/1999/xlink" width="14" height="15" viewBox="0 0 14 15"><defs><path id="a" d="M687.96 4568.92s-.14-.76-.2-1.33c-.07-.73.42-2.59 3.03-2.59h.08c2.61 0 3.1 1.86 3.03 2.58a18.18 18.18 0 01-.2 1.34s.28.12.28.63c-.1 1.28-.6.73-.7 1.28-.18.93-1 1.6-1.51 1.84a2.31 2.31 0 01-.93.2h-.01a2.31 2.31 0 01-.93-.2 2.78 2.78 0 01-1.5-1.84c-.11-.55-.62 0-.72-1.28 0-.5.28-.63.28-.63zm9.74 7.96v3.1H684v-3.1c0-.4.36-.77.95-1.07a61.9 61.9 0 013.31-1.54.51.51 0 01.66.32c.34.81.97 2.27 1.36 2.98l.09-1.98-.65-1.34c-.15-.27-.01-.5.27-.5h1.72c.28 0 .42.23.27.5-.07.11-.65 1.35-.65 1.35l.1 1.97a39.2 39.2 0 001.35-2.98.51.51 0 01.65-.32c.1.03 2 .87 3.32 1.54.6.3.95.67.95 1.07z"/></defs><use fill="#ef4056" xlink:href="#a" transform="translate(-684 -4565)"/></svg>