<svg xmlns="http://www.w3.org/2000/svg" xmlns:xlink="http://www.w3.org/1999/xlink" width="18" height="15" viewBox="0 0 18 15"><defs><path id="a" d="M699.34 4514.59v12.12a.59.59 0 01-.6.58h-2.68v-2.36a3.28 3.28 0 001.14-2.48 3.29 3.29 0 00-3.29-3.28 3.29 3.29 0 00-3.28 3.28c0 1 .44 1.88 1.13 2.48v2.36h-9.17a.59.59 0 01-.59-.58v-12.12c0-.33.26-.59.59-.59h16.16a.6.6 0 01.59.59zm-11.23 9.09a.47.47 0 00-.47-.47h-3.03a.47.47 0 000 .94h3.03c.26 0 .47-.21.47-.47zm1-3.03a.47.47 0 00-.46-.47h-4.04a.47.47 0 000 .93h4.04c.26 0 .47-.2.47-.46zm3.04-3.03a.47.47 0 00-.47-.47h-7.07a.47.47 0 000 .94h7.07c.26 0 .47-.22.47-.47zm4.11 4.83a2.35 2.35 0 01-2.35 2.35 2.35 2.35 0 01-2.35-2.35 2.35 2.35 0 012.35-2.34 2.35 2.35 0 012.35 2.34zm-3.24 6.45a.22.22 0 01-.32-.2v-3.2a3.27 3.27 0 002.43 0v3.2a.22.22 0 01-.33.2l-.68-.34a.47.47 0 00-.42 0z"/></defs><use fill="#ef4056" xlink:href="#a" transform="translate(-682 -4514)"/></svg>