<svg xmlns="http://www.w3.org/2000/svg" xmlns:xlink="http://www.w3.org/1999/xlink" width="15" height="15" viewBox="0 0 15 15"><defs><path id="a" d="M408 4565.44v14.12a.44.44 0 01-.44.44h-14.12a.44.44 0 01-.44-.44v-14.12a.44.44 0 01.44-.44h5.2v4.2c0 .25.2.45.45.45h2.82a.44.44 0 00.44-.45v-4.2h5.21a.44.44 0 01.44.44zm-2.82 9.18c0-1.02-.83-1.85-1.86-1.85h-6l.67-.67a.44.44 0 00-.62-.62l-1.42 1.41a.44.44 0 000 .63l1.42 1.4a.44.44 0 00.62 0 .44.44 0 000-.61l-.66-.66h6a.97.97 0 010 1.94h-2.83a.44.44 0 000 .88h2.82c1.03 0 1.86-.83 1.86-1.85zm-5.65-9.62h1.94v3.77h-1.94z"/></defs><use fill="#ef4056" xlink:href="#a" transform="translate(-393 -4565)"/></svg>