<svg xmlns="http://www.w3.org/2000/svg" xmlns:xlink="http://www.w3.org/1999/xlink" width="27" height="20" viewBox="0 0 27 20"><defs><path id="a" d="M919 3772v-16h27v16z"/><path id="b" d="M926.47 3758c-.26 0-.47-.18-.47-.4 0-3.09 2.93-5.6 6.53-5.6.26 0 .47.18.47.4 0 .22-.2.4-.47.4-3.08 0-5.6 2.15-5.6 4.8 0 .22-.2.4-.46.4zm7 0c-.26 0-.47-.18-.47-.4 0-3.09 2.93-5.6 6.53-5.6.26 0 .47.18.47.4 0 .22-.2.4-.47.4-3.08 0-5.6 2.15-5.6 4.8 0 .22-.2.4-.46.4z"/></defs><use fill="#f8f8f8" xlink:href="#a" transform="translate(-919 -3752)"/><use fill="#ef4056" xlink:href="#b" transform="translate(-919 -3752)"/></svg>