<svg data-name="Слой 1" xmlns="http://www.w3.org/2000/svg" viewBox="0 0 141.73 141.73"><path d="M111.33 25.86H76.78l18.3 23.03 16.25-23.03zM91.9 55.29H51.76l1.19 4.23 19.04 65.29 1.63-5.6L90.08 61.8l1.82-6.51zm5.69 0L77.76 124.5l63.96-69.21H97.59zm43.62-4.53l-24.82-23.43-16.54 23.43h41.36zM55.37 87.25l-9.32-32H1.93L66.38 125l-11-37.48a2.33 2.33 0 01-.01-.27zM9.5 50.76h34.31L27.26 27.32 2.42 50.78h6.83zm62.33 0h18.42L71.83 27.57 53.41 50.76h18.42zm-4.96-24.9H32.33l16.25 23.03 18.29-23.03z" fill="#fbfbfb"/></svg>