<svg xmlns="http://www.w3.org/2000/svg" xmlns:xlink="http://www.w3.org/1999/xlink" width="24" height="24" viewBox="0 0 24 24"><defs><path id="a" d="M705 220a11 11 0 11-22 0 11 11 0 0122 0zm-15.33-4.04l-2.73 1.08 1.14 2.72zm-2.87 1.2l-3.5 2.84 3.53 2.73 1.15-2.75zm.16 5.73l3.02 1.16-1.86-3.93zm3.26 1.25l3.78 1.46 3.78-1.46 2.01-4.24-1.68-4.03-4.11-1.63-4.11 1.63-1.68 4.03 2 4.23zm3.98-10.01l3.83 1.51-1.15-2.75zm2.58-1.39l-2.78-3.5-2.78 3.5 2.78 1.29zm-6.8 2.9l3.83-1.51-2.68-1.24zm9.9 4.48l-1.86 3.93 3.02-1.16zm4.82-.12l-3.5-2.84-1.18 2.82 1.15 2.75zm-3.63-2.96l-2.73-1.08 1.59 3.8zm-3.36 7.32l-3.5 1.35 2.65 1.25zm-7.42 0l.85 2.6 2.66-1.25zm.93 2.76l2.78 3.58 2.78-3.58-2.78-1.3zm5.82-.11l4.52.54-.5-4.49-3.14 1.22zm4.3-4.2l2.66 1.33c.52-1.24.8-2.6.82-4.01zm3.48-2.94a10.8 10.8 0 00-.75-3.85l-2.76 1zm-3.33-7.48l-4.44.46 1.2 2.88 2.84 1.13zm.03-.18a10.86 10.86 0 00-3.4-2.22l-1.07 2.68zm-3.56-2.29a10.79 10.79 0 00-3.77-.74l2.7 3.42zm-4.15-.74c-1.32.02-2.6.28-3.77.74l1.07 2.68zm-3.92.81a10.86 10.86 0 00-3.4 2.21l4.46.47zm-3.38 2.4l.4 4.47 2.84-1.13 1.2-2.88zm.17 4.63l-2.75-1a10.82 10.82 0 00-.75 3.85zm-3.5 3.1c.02 1.43.3 2.78.82 4.02l2.65-1.32zm3.25 7.42l4.52-.53-.88-2.74-3.15-1.21zm0 .18a10.84 10.84 0 003.16 2.16l1.34-2.69zm3.32 2.24c1.27.54 2.66.84 4.13.86l-2.78-3.57zm4.38.86a10.83 10.83 0 004.13-.86l-1.35-2.71zm4.28-.94a10.84 10.84 0 003.17-2.16l-4.5-.53zm3.34-2.33a10.84 10.84 0 002.17-3.25l-2.67-1.33zm-.08-15.19l-.4 4.5 2.73-1a10.86 10.86 0 00-2.33-3.5zm-17.67 3.5l2.73 1-.4-4.5a10.86 10.86 0 00-2.33 3.5zm2.24 11.7l.5-4.6-2.67 1.34a10.84 10.84 0 002.17 3.25z"/></defs><g transform="translate(-682 -208)"><use fill="#a9a9a9" xlink:href="#a"/><use fill="#fff" fill-opacity="0" stroke="#a9a9a9" stroke-miterlimit="50" stroke-width=".5" xlink:href="#a"/></g></svg>