<svg xmlns="http://www.w3.org/2000/svg" xmlns:xlink="http://www.w3.org/1999/xlink" width="24" height="22" viewBox="0 0 24 22"><defs><path id="a" d="M805.17 368.77c-.37-1.33-.06-2.98.18-4.32.12-.65.64-1.32 1-1.86.24-.37.48-.87.8-1.17a4.95 4.95 0 013.59-1.4c1.02-.04 2.43 0 3.35.47.45.2.89.72 1.25 1.04.57.5 1.19 1.04 1.61 1.68.66-1 1.73-1.8 2.64-2.55.46-.38 1.14-.43 1.71-.52a9.95 9.95 0 011.86-.13c1.21-.13 2.59.56 3.49 1.32.48.41.83 1.13 1.16 1.67.47.75.75 1.36.86 2.22.15 1.12.37 2.44.06 3.55v.02l-.03.09h-.08l.07.03a.34.34 0 010 .02h-.1l.09.02a.17.17 0 010 .02l-.02.05h-.1l.1.02-.1.27a3.2 3.2 0 01-.03.11l-.04.12-.01.02-.03.07v.03l-.07.18-.04.1-.17.41v.02l-.1.22v.02l-.2.41v.02l-.13.25-.06.1-.22.39a6.95 6.95 0 01-.2.31l-.1-.01.08.04a6.85 6.85 0 01-.09.13l-.03.04-.04.05a.85.85 0 00-.03.04l-.29.36-.1.1a66.3 66.3 0 01-2.52 3.03c-.83.93-1.85 1.76-2.8 2.58a33.8 33.8 0 01-1.7 1.39l-.49.36-.17.11-1.98 1.43a.09.09 0 01-.1 0l-1.98-1.43a9.4 9.4 0 01-.26-.18l-.29-.2a31.7 31.7 0 01-1.78-1.46 35.32 35.32 0 01-5.35-5.62l-.1-.1-.3-.37a.2.2 0 010-.01l-.1-.12a7.75 7.75 0 01-.08-.13l-.01-.02a7.93 7.93 0 01-.21-.33l-.16-.28-.02-.03-.38-.76v-.02l-.04-.07-.01-.02-.06-.15-.01-.02-.2-.49a5.34 5.34 0 01-.05-.14l-.06-.15v-.03l-.03-.05v-.02l-.04-.1-.13-.4-.02-.06v-.03l-.02-.04v-.03a2.5 2.5 0 01-.03-.09v-.02zm2.9-3.43h.01l-.9-3.66c-.35.49-1.4 2.02-1.64 2.74zm20.3-.92c-.24-.72-1.3-2.25-1.65-2.74l-.91 3.66h.02zm-4.16 10.4l.76-2.77-2.58 1.96-4.22 4.71 3.14-1.58 2.62-1.31zm-1.24-2.3l-.45 1.18 2.5-1.9-.66-2.86zm-6.89 6.33l.76-1.56-4.8-2.96 3.63 4.05zm-6.43-6.47l1.73 1.32-.45-1.17-1.39-3.6-.66 2.87zm14.63-3.75l-.81-3.9-6.52-.31-6.53.32-.81 3.9.47 1.2 1.56 4.04 5.3 3.27 5.31-3.27 1.57-4.04zm-3.03 6.39l.62-.7-1.3.8-3.5 2.17.75 1.56zm2.02-10.47l-1.46-1.14-4.17.87 4.3.2zm-7-.27l-4.18-.87-1.47 1.14 4.13-.2zm9.36 1.09l.93-3.75-4.55 1.73 1.58 1.23zm-16.3 2.57l.16.4.74-3.55-1.9.74zm-.6 3.73l.7-3.02-1.24-3-2.81 3.09zm2.24 4.66l4.75 2.39-4.21-4.71-2.58-1.96 1.04 3.78zm5.22 2.68l.77 2.37.76-2.37-.76-1.56zm8.4-11.08l.98-2.4-1.9-.74.74 3.56zm-7.64-4.48l-4-.03.1.02 3.9.8 3.2-.66.8-.16zm-9.61-1.83l.94 3.75 2.03-.8 1.58-1.22zm9.77 19.83l1.7-1.22-.5-.55-.47-.51zm11.26-12.58l.15-.13-.87-.97-1.94-2.13-1.03 2.5-.2.5.69 3.03zm-21.1 3.76l.05.05.08-.05 1.24-.81-3.22-2.81.12.35.15.42.03.09.31.74.03.07.35.7.02.03.16.27a8.55 8.55 0 00.2.32l.02.03.08.12.06.08a.95.95 0 00.03.04zm.16.19c.75.93 1.5 1.85 2.3 2.75l-1-3.6zm7.42 7.24l.1.07 1.01-1.1-5.58-2.8c.75.7 1.51 1.41 2.3 2.09l.02.02c.57.5 1.16.99 1.77 1.44l.05.04.04.03zm.25.17l1.69 1.22-.72-2.28zm6.67-2.39l.2-.17 1.55-1.44-5.58 2.8 1 1.1.11-.07.3-.21.03-.03.15-.11c.57-.44 1.13-.9 1.67-1.37l.02-.02.55-.48zm3.84-3.96l.26-.32.6-.74-1.3-.85-.98 3.6 1.42-1.69zm2.87-4.87l-3.22 2.8 1.24.82.08.05.05-.05.29-.35.02-.03a.7.7 0 00.04-.06l.03-.04.08-.12.03-.03.2-.31.2-.38a.82.82 0 01.07-.11l.11-.23.01-.02.13-.27.07-.14.08.01-.08-.03.2-.46a.7.7 0 01.01-.04l.06-.15.03-.08.07-.19h.1l-.09-.03.02-.06h.1l-.09-.03.04-.1.04-.12.05-.17a.4.4 0 01.01-.03zm.12-.44c.23-1.15-.11-3.47-.2-3.98l-1.19.43-1.37.5zm-2.08-7.12a5.36 5.36 0 00-3.26-1.26h-.04l-1.23 2.98zm-3.49-1.27c-1.02-.02-2.06.15-3.04.43l1.83 2.53.3-.74zm-3.2.5c-.38.31-2.18 1.8-2.72 2.6l4.56-.04zm-3.03 2.6c-.54-.8-2.34-2.29-2.72-2.6l-1.85 2.56zm-2.89-2.67a10.4 10.4 0 00-3.04-.43l.91 2.22.3.74zm-3.26-.42c-1.64 0-2.9.96-3.27 1.26l4.53 1.72-1.22-2.98zm-5.15 4.4c-.08.51-.43 2.83-.2 3.98l2.78-3.05-1.39-.5z"/></defs><g clip-path="url(#clip-F9D5A1F5-0A8C-4597-9DBD-0AFD2650C46B)" transform="translate(-805 -360)"><use fill="#a9a9a9" xlink:href="#a"/><use fill="#fff" fill-opacity="0" stroke="#a9a9a9" stroke-linejoin="round" stroke-miterlimit="50" stroke-width=".5" xlink:href="#a"/></g></svg>