<svg xmlns="http://www.w3.org/2000/svg" xmlns:xlink="http://www.w3.org/1999/xlink" width="14" height="22" viewBox="0 0 14 22"><defs><path id="a" d="M700.62 379.86a.16.16 0 00-.02.06l-1.84 1.83a.09.09 0 01-.06.03h-9.78a.09.09 0 01-.06-.03l-1.84-1.83a.15.15 0 00-.02-.06v-17.95a.15.15 0 00.02-.05l1.84-1.84a.15.15 0 00.05-.02h9.8a.16.16 0 00.05.02l1.84 1.84c0 .02 0 .04.02.05zm-13.46-.15l.68-.5v-16.65l-.68-.5zm11.55-19.51l-.56.69 1.56 1.52.33-.23.38-.28zm-1.92 19.08l1.08-1.3V363.8l-1.08-1.3h-5.95l-1.08 1.3v14.18l1.08 1.3zm-7.84-8.47l.01 7.6.65-.45v-14.15l-.67-.47zm.06 7.77l1.27 1.29.42-.5-1.03-1.26zm1.27-16.7l-1.3 1.3.7.48 1.02-1.25zm7.87 16.37l-.2-.14-1.03 1.25.43.53 1.31-1.27zm-.95-16.18l-.28.34 1.03 1.24.7-.49-1.31-1.26zm1.5 8.84v-7.58l-.69.48v14.16l.7.5zm-1.04-9.41l-.22.28 1.33 1.3.8-.57-1.52-1.5zm-3.86.36h-3.35l.4.47h5.93l.38-.47zm-1.1 18.06l4.47.01-.4-.49h-5.93l-.39.47zm5.37.88l1.51-1.53-.79-.56-1.12 1.1-.22.21zm1.53-1.7h.02v-16.43l-.78.55.01 7.65.01 7.7zm-5.8-18.13h-4.07l.6.72h3.48l3.48.01.42-.52.17-.2zm-5.72 1.76l-.08-.06v16.44l.8-.58v-7.62l-.02-7.68zm.55 17.16l.88.92.44-.55.21-.27-1.29-1.32-.4.29-.43.31zm5.18.95l4.09-.01-.57-.7-.03-.04-3.45-.01-3.53-.01-.63.78zm4.73-20.68h-9.46l.42.52.1.13h8.41zm-9.53 1.39l-.97.96.27.19.54.38 1.33-1.31-.09-.1-.53-.67zm.07 20.07h9.46l-.4-.5-.11-.13h-4.25l-4.21.02zm11.34-1.75l-.7-.5-1.55 1.55.54.67zm-.25-.37l.3.2v-17.63l-.3.2-.39.29v16.66zm-12.97-17.6l.7.51.99-.97.57-.56-.55-.68zm0 17.97l1.7 1.72.52-.65-1.51-1.57-.64.45z"/></defs><g clip-path="url(#clip-26946223-6E10-4409-993C-B8E04D57083D)" transform="translate(-687 -360)"><use fill="#a9a9a9" xlink:href="#a"/><use fill="#fff" fill-opacity="0" stroke="#a9a9a9" stroke-miterlimit="50" stroke-width=".4" xlink:href="#a"/></g></svg>