<svg xmlns="http://www.w3.org/2000/svg" xmlns:xlink="http://www.w3.org/1999/xlink" width="22" height="22" viewBox="0 0 22 22"><defs><path id="a" d="M827.72 289.5a.18.18 0 00.03.07v14.61a.18.18 0 00-.03.06l-3.47 3.47a.09.09 0 01-.07.04h-14.62a.09.09 0 01-.06-.03l-3.47-3.48a.17.17 0 00-.03-.06v-14.61a.17.17 0 00.03-.06l3.47-3.48a.17.17 0 00.06-.03h14.62l.06.03zm-20.22 14.14l.81-.26v-13.02l-.78-.25-1.36-.43v14.38zm6.94.63l1.99-.48-5.5-.82-.52 2.27zm8.89.97l-.52-2.27-5.48.82zm-.27-4.2l.62-4.17-.6-4.03-.28-1.9-2.2-.32-3.73-.55-3.72.55-2.2.33-.22 1.46-.67 4.46.7 4.64.19 1.29 2.14.32 3.78.56 3.8-.56 2.13-.32zm-12.29-10.1l-2.25-.53 1.44 6.01zm-2.25 12.39l2.25-.52-.81-5.48zm6.78-13.21l1.12-.17-.75-.17-5.26-1.26.53 2.24zm8.49 6.3l1.44-6-2.26.52zm-.98-5.66l.52-2.24-6 1.43.94.14zm.98 6.57l-.82 5.48 2.26.52zm-15.3-6.3v11.68l1.4-5.83zm15 14.14l1.68-1.67-2.18-.5.34 1.45zm1.77-2.45v-11.69l-1.4 5.84 1.05 4.39zm-.93-13.3l-.84-.85-.12.55-.38 1.65 2.18-.51zm-1.63-.93h-11.67l5.84 1.4zm-12.44.08l-1.69 1.69 2.2.5zm-1.69 14.93l1.69 1.67.45-1.92.06-.26zm2.46 1.76h11.68l-5.84-1.4zm15.2-1.62l1.34.42v-14.38l-1.36.43-.78.25v13.02zm1.28-14.11l-3.29-3.28-.68 2.13.92.9.91.92zm-17.83-3.36l.42 1.33.26.81h13.02l.68-2.14zm-3.43 3.36l2.13.67 1.82-1.82-.68-2.13zm0 14.7l3.27 3.28.68-2.14-1.82-1.82zm3.43 3.34h14.38l-.68-2.14h-13.02l-.25.8zm17.83-3.35l-2.14-.67-.91.9-.92.92.47 1.48.21.66z"/></defs><g clip-path="url(#clip-CBCF232C-6AA4-4228-8ABC-D94E87D0D09D)" transform="translate(-806 -286)"><use fill="#a9a9a9" xlink:href="#a"/><use fill="#fff" fill-opacity="0" stroke="#a9a9a9" stroke-linejoin="round" stroke-miterlimit="50" stroke-width=".5" xlink:href="#a"/></g></svg>