<svg xmlns="http://www.w3.org/2000/svg" xmlns:xlink="http://www.w3.org/1999/xlink" width="15" height="22" viewBox="0 0 15 22"><defs><path id="a" d="M810.01 227.2c-.07-1.54.2-3.09.61-4.58 1.12-3.97 3.3-8.2 6.77-10.61h.1c2.35 1.56 3.97 4.06 5.2 6.54 1.3 2.65 2.32 5.66 2.19 8.66a6.64 6.64 0 01-2.34 5.03 5.72 5.72 0 01-2.74 1.29c-.72.19-1.5.32-2.35.38h-.01a12.88 12.88 0 01-2.36-.39 6.8 6.8 0 01-2.73-1.28 6.64 6.64 0 01-2.34-5.03zm.74-4.4c-.41 1.5-.6 2.89-.58 4.14l.65-.85 1.5-2-.28-.24zm3.74-7.74c-.63.87-1.24 1.86-1.79 2.89l1.45-.7 1.79-.87-.26-.23zm5.04.8l-.57.52 1.66.8 1.56.77a24.52 24.52 0 00-1.78-2.9zm2.9 14.98l.05-1.93-2.14.63-.83 2.12 1 .15 1.88.27zm-9.95 1.24l2.9-.42-.84-2.12-2.14-.63.05 1.87zm.07-7.99l.9 2.06c.12-1.51.52-3.04 1.2-4.4l-1.54 1.71zm3.97-4.68l-.01.01a11.48 11.48 0 00-2.9 7.07 4.35 4.35 0 001.06 2.92c.69.7 1.94 1.43 2.98 1.3 2.22-.28 3.54-2.08 3.64-4.2a11.5 11.5 0 00-1.59-5.33c-.63-1.03-1.45-1.89-2.26-2.77l-.92 1zm-.02.02l.02-.02-.03.03.01-.01zm-1.11 10.76a4.61 4.61 0 01-.57-.4l.72 1.83.7-.33.89-.42a4.97 4.97 0 01-1.74-.68zm2.8.57c-.14.04-.29.08-.43.1l1.58.76.72-1.83c-.53.45-1.2.78-1.87.97zm2.65-1.89c-.08.14-.2.3-.3.43l1.25-.36.66-.2-1.01-1.93a4.8 4.8 0 01-.6 2.06zm-7.3-1.38a6.67 6.67 0 01-.1-.68l-1 1.93 1.9.56a4.08 4.08 0 01-.8-1.8zm8.8-3.4l-2.12-2.34a11.9 11.9 0 011.22 4.4zm-9.91.15l-2.21 2.94 2.06 1.5 1.14-2.18zm5.01 9.46l1.57-1.68.24-.26-1.8-.85-1.81.85zm5.16-5.02l2.07-1.5-2.2-2.94-1 2.26zm-.25-4.83l-.04-4-.02-1.66-3.36-1.63.18.9.74 3.63zm-4.37-6.16l-.43.59c.72.78 1.45 1.54 2.05 2.43l-.83-4.1zm-1.26-.25l-.6-.83-.83 4.1c.6-.89 1.32-1.65 2.03-2.43zm-4.14 2.4l-.05 4.01 2.5-2.76.93-4.53-3.37 1.63zm2.96 12.07l-.34 1.47c.63.16 1.3.28 2.03.34zm2.12 1.81a12.5 12.5 0 002.01-.34l-.34-1.47zm.52-19.01l-.74-2.35-1.27 4.04 1.27 1.75.53-.73.75-1.03zm-7.99 12.66c.06.93.25 1.77.57 2.51l.22-.17 1.19-.91-.94-.68zm.64 2.67a5.6 5.6 0 001.48 1.94l-.08-3.02zm1.79 2.2a7.5 7.5 0 002.42 1.1l.34-1.5zm7.23 1.1a7.42 7.42 0 002.42-1.1l-2.77-.4zm2.73-1.36a5.6 5.6 0 001.48-1.94l-1.4-1.08zm1.55-2.1c.32-.74.5-1.58.57-2.5l-1.05.74-.93.68 1.19.91zm.58-2.94c.03-1.25-.16-2.64-.58-4.15l-1.34 1.1-.23.2zm-.64-4.32a24.5 24.5 0 00-1.6-4.12l.02 2.22.04 3.19 1.1-.92zm-3.78-7.7a16.81 16.81 0 00-2.69-2.63l1.25 3.96zm-3-2.62c-.85.62-1.74 1.48-2.7 2.62l1.45 1.33.72-2.27zm-4.87 6.2a24.41 24.41 0 00-1.62 4.12l.48.4 1.08.89.04-3.28z"/></defs><g clip-path="url(#clip-3ACDAC48-9EBB-4BAA-B8C4-1A3EB55EAAE3)" transform="translate(-810 -212)"><use fill="#a9a9a9" xlink:href="#a"/><use fill="#fff" fill-opacity="0" stroke="#a9a9a9" stroke-miterlimit="50" stroke-width=".5" xlink:href="#a"/></g></svg>