<svg xmlns="http://www.w3.org/2000/svg" xmlns:xlink="http://www.w3.org/1999/xlink" width="22" height="18" viewBox="0 0 22 18"><defs><path id="a" d="M687.63 253.21l3.1-1.21h8.49l2.89 1.21-3.01 1.25h-8.5l-2.98-1.25m-.67.53l3.37 1.37-.76 3.05-4.56-2 1.95-2.42m-1.7 3.36l4.29 2 4.35 8.82-8.64-10.82M696 267.92l4.44-8.83 4.2-1.99-8.64 10.82m3.53-9.76l-9.28.03.76-2.83h7.79m.82-.22l3.5-1.27 1.8 2.24-4.44 2.05-.85-3.02m-9.38 4.08h9.28l-4.6 9.2-4.68-9.2"/></defs><use fill="#fff" fill-opacity="0" stroke="#a9a9a9" stroke-linecap="round" stroke-linejoin="round" stroke-miterlimit="50" stroke-width=".7" xlink:href="#a" transform="translate(-684 -251)"/></svg>