<svg xmlns="http://www.w3.org/2000/svg" xmlns:xlink="http://www.w3.org/1999/xlink" width="15" height="22" viewBox="0 0 15 22"><defs><path id="a" d="M699.23 326.21a14.37 14.37 0 012.08 7.78c0 3.6-1.12 7.95-4.27 10.08l-.13.08-.12.08a5.11 5.11 0 01-6.05-.58c-1.64-1.38-2.64-3.43-3.19-5.47-1.23-4.6-.57-11.37 3.74-14.29l.13-.08.12-.07c2.9-1.77 6-.14 7.7 2.47zm-.16 15.4v-4.27l-1.9 1.22-.82 3.06zm.16-15.4c-.67-1.03.67 1.03 0 0zm-5 14.31l-.06-.04-1.82 1.17-.13.08 1.95 3.01 1.94-3zm-.6-13.38l.53.34 1.82-1.16.13-.09-1.95-3.01-1.94 3.01zm5.44 10l-.76-2.82-1.08 3.99 1.09-.7zm-1.84-7.49l1.08 4 .76-2.83zm-.22-.14l-2.85-1.82-2.84 1.82-1.2 4.47 1.2 4.47 2.85 1.83 2.84-1.83 1.2-4.47zm-.06-.26l-.77-2.85-1.85 1.18zm-2.95-1.67l-1.85-1.18-.77 2.86zm-3.98 2.76l-.75.48.76 2.82 1.08-3.99zm1.36 8.36l.77 2.87 1.85-1.19zm-3.3-6.07l-.87 1.36.87 1.36 1.06 1.63.8-3-.8-2.99zm2.79 5.53l.24.15-1.08-3.99-.76 2.82zm3.82 2.46l1.49.96.77-2.88-2.62 1.69zm5.9-10.86a12.43 12.43 0 00-1.34-3.2v4.06zm-1.52-3.42h-2.72l.82 3.06 1.9 1.22zm-7.09 0h-2.72v4.28l1.9-1.22zm-4.79 7.94c.03 1.3.2 2.55.5 3.74l1.36-.87zm.55 3.92a12.5 12.5 0 001.34 3.2v-4.06zm1.52 3.42h2.72l-.82-3.06-.18-.11-1.72-1.11zm10.89-6.12l.97-1.51-.97-1.52-.96-1.48-.8 3 .8 2.99zm.98-1.82a16.06 16.06 0 00-.5-3.74l-1.35.87.67 1.03zm-2.13-7.51a7.64 7.64 0 00-2.08-2.14l-.57 2.14zm-2.23-2.25a4.9 4.9 0 00-2.44-.77l1.35 2.08.52.8zm-2.77-.77a4.9 4.9 0 00-2.37.73l-.07.05.57 2.1 1.74-2.67zm-2.61.9a7.7 7.7 0 00-2.06 2.12h2.65l-.57-2.14zm-2.3 2.51c-.57.94-1.02 2.01-1.35 3.2l1.34.86zm-1.4 3.38a16.04 16.04 0 00-.5 3.74l1.86-2.87zm1.64 11.85c.61.92 1.3 1.64 2.08 2.16l.57-2.16zm2.23 2.24c.78.48 1.6.75 2.44.78l-1.4-2.16-.47-.73zm2.77.78a4.89 4.89 0 002.37-.74l.07-.04-.57-2.11-.48.73zm2.61-.89a7.68 7.68 0 002.06-2.13h-2.65l.57 2.14zm2.3-2.52c.58-.94 1.03-2.01 1.36-3.2l-1.35-.86zm1.39-3.38c.3-1.19.47-2.45.5-3.74l-1.18 1.84-.67 1.03.1.07z"/></defs><g clip-path="url(#clip-FF953DFD-A2BE-4A2A-88D7-AA5E86B47F6E)" transform="translate(-687 -323)"><use fill="#a9a9a9" xlink:href="#a"/><use fill="#fff" fill-opacity="0" stroke="#a9a9a9" stroke-miterlimit="50" stroke-width=".5" xlink:href="#a"/></g></svg>