<svg xmlns="http://www.w3.org/2000/svg" xmlns:xlink="http://www.w3.org/1999/xlink" width="19" height="22" viewBox="0 0 19 22"><defs><path id="a" d="M703.2 296.85l-.42 7.22a.04.04 0 000 .04l-1.04 1.81-.02.01-.01.02-2.55 1.63a.13.13 0 00-.04 0l-5.02.12-5.33-.2a.12.12 0 00-.04-.02l-2.24-1.53-.01-.02h-.01l-1.04-1.82a.04.04 0 00-.01-.03l-.42-7.22v-.01l.42-7.22a.04.04 0 00.01-.04l1.04-1.81c0-.02 0-.02.02-.02l2.24-1.54a.07.07 0 00.04-.02l5.33-.2 5.33.2.04.02 2.24 1.53.01.02h.02l1.03 1.82a.05.05 0 00.01.04zm-17.59 7.24l.91 1.6 1.36-3.34-1.35 1.04zm3.12-17.67l-2.02 1.39.84.38 2.2 1.02-.08-.2zm12.76 19.28l-1.45-3.54-3.02-1.11 1.22 2.93 1.41.74zm-8.23-18.85l-3.22 2.51 2.5 1.64 1.56 1.02 4.08-2.66-4.08-3.17zm3.73 13.11l.69-3.1-.69-3.12-.2-.87-2.7-.66-2.7.66-.19.87-.68 3.11.68 3.1.2.88 2.7.67 2.7-.67zm-6.79-3.82l.2.44.36-1.63.47-2.1-.8-.3-2.24-.82zm-.83 3.27l-1.12 2.53 2.97-1.1-.34-1.52-.49-2.2zm10.57 2.53l-2.15-4.82-.16.76-.66 2.97zm-1.87-9.5l-1.1.42.82 3.72 2.15-4.85zm-.43-1.67l.5-1.18-3.83 2.5 2.51.61zm-4.14 1.06l-3.42-2.24.83 2 .46 1.11 2.52-.62zm.37 9.79l-2.5-.62-.1.23-1.19 2.6zm.45 0l3.68 2.22-1.18-2.84-2.5.61zm3.54-4.77l2.25 5.06 2.9-5.06-2.9-5.08zm2.18-5.34l1.46-3.52-3.1 1.44-.62 1.45-.75 1.77 2.26-.86zM686.7 288l1.16 2.94.24.58 3.07 1.14-1.34-3.22zm-1.06 8.04l-.46.82 2.9 5.06 2.27-5.06-2.32-5.08zm1.14 9.48l-.07.18 3.12-1.7 1.33-2.94-3 1.11zm-1.16-15.9l2.22 1.7-.45-1.12-.86-2.17zm12.15 14.68l.26-.23-3.4-2.05-.53-.33-4.06 2.38 4.06 3.46zm-3.44 3.24l4.67-.1-.87-3.23zm8.26-3.44l-2.3-1.74 1.38 3.34zm.03-14.3l-2.41 1.8 2.8 4.9zm-.03-.18l-.92-1.6-.2.5-1.17 2.82zm-1.1-1.8l-2.03-1.39-.98 2.79zm-2.18-1.44l-4.95-.2 3.93 3.06.74-2.1zm-10.41 0l1.03 2.86 3.9-3.05zm-3.7 10.12l2.72-4.89-2.34-1.8zm.38 7.42l.34-.26 2.06-1.58-2.79-4.86zm1.12 1.98l2.04 1.39 1.02-3.06-.85.46zm7.16 1.62l-3.92-3.32-1.05 3.13zm7.62-1.62l-3.17-1.68.85 3.16zm1.53-8.68l-2.8 4.86 1.22.93 1.19.9z"/></defs><g clip-path="url(#clip-B18FA02E-2416-43A7-B393-0B3C5497343E)" transform="translate(-685 -286)"><use fill="#a9a9a9" xlink:href="#a"/><use fill="#fff" fill-opacity="0" stroke="#a9a9a9" stroke-miterlimit="50" stroke-width=".5" xlink:href="#a"/></g></svg>