<svg xmlns="http://www.w3.org/2000/svg" xmlns:xlink="http://www.w3.org/1999/xlink" width="12" height="22" viewBox="0 0 12 22"><defs><path id="a" d="M822.58 333.88c.11 2.27-.8 4.56-1.88 6.5-.56 1-1.2 1.97-1.97 2.82-.43.47-1.24 1.45-1.92 1.55a.06.06 0 01-.03 0c-.68-.11-1.48-1.07-1.92-1.55a15.49 15.49 0 01-1.97-2.81c-1.09-1.95-1.99-4.24-1.88-6.5v-.01c-.1-2.2.74-4.4 1.77-6.3.91-1.68 2.18-3.7 3.97-4.57h.02l.01-.01h.03a.02.02 0 00.01 0c.79.26 1.53 1.12 2.05 1.72.76.87 1.4 1.85 1.94 2.86 1.03 1.9 1.88 4.1 1.77 6.3zm-7.37 8.05l.37-.32-1.8-.81-.63-.28a17.4 17.4 0 001.35 2zm3.12-16.07l-.33.28 1.56.7.89.38a17.28 17.28 0 00-1.36-2zm2.21 13.94l.04-3.5-1.9 1.95-.71 3.2 2.34-1.05.23-.1zm-7.27.6l2.35 1.05-.7-3.2-1.93-1.95.04 3.5.01.5zm-.23-12.45l-.05 3.5 1.92-1.95.71-3.2-2.3 1.03-.28.13zm3.88 12.52l-.02.03-.03-.03v.05l-1.05 1.08 1.05 2.49v.11l.03-.06.02.06v-.11l.87-2.06-.86 2.48a8 8 0 002.07-1.86l-1.08-.91.05-.14-1.05-1.08zm2.87-5.03a7.95 7.95 0 01-.77 2.24l1.47-1.5.1-.09-.69-1.42a8.53 8.53 0 01-.1.77zm-2.59 4.3zm0-.01c.26-.25.1-.1.03-.02a8.07 8.07 0 002.54-5.34 4.75 4.75 0 00-.06-.48.06.06 0 010-.03l.06-.48a8.32 8.32 0 00-2.78-5.56l-.02-.03-.18-.17c-.71.72-1.44 1.42-1.96 2.31a7.8 7.8 0 00-1 3.45c0 .14.08.39.04.52a4.78 4.78 0 00-.05.47 8.3 8.3 0 002.77 5.56l.03.03.17.17.41-.4zm-4.1-3.54l1.47 1.49a8.08 8.08 0 01-.88-3l-.68 1.41zm.7-3.87a7.98 7.98 0 01.77-2.25l-1.47 1.5-.1.1.69 1.42c.02-.26.06-.52.1-.77zm1.46 6.4l-.11-.14.62 2.83.92-1.16a8.53 8.53 0 00-.18-.17l-.02-.03a13.06 13.06 0 01-1.23-1.33zm5.23-7.15l-1.47-1.5c.49.93.78 1.98.88 3.02l.68-1.42zm-2.17-2.54l.12.15-.63-2.83-.9 1.15.17.18.03.02c.43.42.84.86 1.21 1.33zm-1.83-1.33l.2-.2-.92-1.15-.49 2.22-.13.6c.4-.53.86-1 1.34-1.47zm.43 12.82v3.57l-.02.05-.03-.05v-3.57l.03-.02zm.58.5l.31.38.34-1.5.3-1.32c-.46.61-1.01 1.13-1.55 1.67zm2.75-13.7l-2.28-1.02.7 3.2 1.91 1.94-.04-3.49v-.5zm-2.28-1.17l-.05-.13 1.08-.92a8.02 8.02 0 00-2.07-1.86l.18.5.68 1.98-.87-2.05v-.12l-.02.06-.03-.06v.12l-1.05 2.48 1.05 1.08v.05l.03-.02.02.02v-.05zm-1.05 1.08l-.02.03-.03-.03v-3.56l.03-.06.02.06zm-4.03 4.56l-1.7 2.1 1.7 2.08.77-1.61a4.94 4.94 0 01.05-.48 4.76 4.76 0 01-.05-.48zm7.8 4.18l1.72-2.09-1.71-2.09-.77 1.61a4.79 4.79 0 01-.06.48c.03.17.05.33.05.48zm-6.19-10.74a17.24 17.24 0 00-1.35 2l.89-.4 1.54-.69-.33-.28zm4.6 17.3c.47-.6.93-1.3 1.35-2.01l-.63.28-1.82.8.33.29zm3.33-8.88a9.6 9.6 0 00-.45-2.9l-1.19.9 1.02 1.25zm-.5-3.05c-.29-.94-.7-1.92-1.22-2.88l.01 1.04.03 2.73zm-4.14-4.88l.13.3-.02.01zm-1.14-2.48a7.98 7.98 0 00-2.05 1.86l1.1.93.78-2.28zm-3.76 4.48a16.9 16.9 0 00-1.24 2.88l1.2.89.02-2.42zm-1.29 3.04a9.72 9.72 0 00-.44 2.9l1.13-1.37.5-.63zm-.44 3.33c-.02.88.13 1.86.44 2.92l1.2-.91-.51-.63zm.5 3.06c.29.94.71 1.92 1.23 2.87l-.02-1.36-.03-2.4zm2.94 5.5c.66.81 1.42 1.5 2.05 1.86l-.96-2.79zm3.32-.91l-.13.29.1-.3zm2.79-1.72c.51-.95.93-1.94 1.22-2.87l-1.18-.89-.03 2.7zm1.27-3.01a9.7 9.7 0 00.45-2.92l-.62.75-1.02 1.26z"/></defs><g clip-path="url(#clip-A2ED4ED3-82BE-434D-A110-DFB00E04C16C)" transform="translate(-811 -323)"><use fill="#a9a9a9" xlink:href="#a"/><use fill="#fff" fill-opacity="0" stroke="#a9a9a9" stroke-miterlimit="50" stroke-width=".5" xlink:href="#a"/></g></svg>