<svg xmlns="http://www.w3.org/2000/svg" xmlns:xlink="http://www.w3.org/1999/xlink" width="22" height="22" viewBox="0 0 22 22"><defs><path id="a" d="M683 249h21.87v21.87H683z"/><path id="c" d="M683 249.09a.1.1 0 01.09-.09h21.69a.03.03 0 00.02 0 .1.1 0 01.07.09v21.69a.1.1 0 01-.07.09.08.08 0 01-.02 0h-21.71a.1.1 0 01-.07-.1zm17.77 17.74l-6.37.78 6.23.77.13.01zm1.31-3.76l-.35-2.92-.79 6.48h1.57zm-14.59-9.9l-.39.05-.8 6.71.8 6.72 6.83.84 6.83-.84.81-6.72-.8-6.71-6.83-.84zm-.38 13.66v1.56l6.35-.78-4.54-.56zm15.4-13.6h-1.57l.79 6.48zm-3.56-1.53l-4.55.56 6.22.76.14.02v-1.56zm-10.03 0l-1.8-.22v1.56l6.34-.78zm-2 1.53h-1.56l.43 3.56.35 2.92zm-1.56 13.4h1.56l-.36-3-.42-3.48zm3.11 1.77h10.92l-5.46-.67zm12.46.05l3.62 2.1-2-3.73h-1.62zm1.59-13.83l-.64 5.31.64 5.32zm2.03-5.3l-1.18.7-2.44 1.4v1.63h1.62zm-5.16 2.14h-10.92l5.46.67zm-14.65-1.3l-1.43-.84 2 3.73h1.63v-1.62zm.61 15.09l.64-5.32-.64-5.31zm-.3 4.3l1.89-1.1v-1.63h-1.62l-2 3.73zm-1.63 1.14h21.03l-1.48-.86-2.15-1.25h-13.77l-3.19 1.85zm21.27-21.25l-1.2 2.22-.8 1.5v13.55l.8 1.5 1.2 2.22zm-.24-.26h-21.03l3.63 2.1h13.77l3.01-1.74zm-21.27 21.25l1.18-2.23.8-1.5v-13.54l-.8-1.5-1.18-2.22z"/><clipPath id="b"><use xlink:href="#a"/></clipPath></defs><use fill="#fff" xlink:href="#a" transform="translate(-683 -249)"/><g clip-path="url(#b)" transform="translate(-683 -249)"><use fill="#fff" fill-opacity="0" stroke="#a9a9a9" stroke-miterlimit="50" stroke-width=".5" xlink:href="#c"/></g></svg>