<svg xmlns="http://www.w3.org/2000/svg" xmlns:xlink="http://www.w3.org/1999/xlink" width="14" height="14" viewBox="0 0 14 14"><defs><path id="a" d="M1405.43 365.9c-.82 0-1.54.38-2.01.98l-4.37-2.22c.05-.21.1-.43.1-.66 0-.25-.05-.49-.12-.72l4.35-2.2a2.56 2.56 0 002.05 1.02 2.56 2.56 0 002.57-2.55 2.56 2.56 0 00-2.57-2.55 2.56 2.56 0 00-2.58 2.55c0 .23.05.45.1.66l-4.37 2.22a2.57 2.57 0 00-2-.98A2.56 2.56 0 001394 364a2.56 2.56 0 002.57 2.55 2.57 2.57 0 002.05-1.02l4.35 2.2a2.5 2.5 0 00-.12.72 2.56 2.56 0 002.57 2.55 2.56 2.56 0 002.58-2.55 2.56 2.56 0 00-2.57-2.55z"/></defs><use fill="#ef4056" xlink:href="#a" transform="translate(-1394 -357)"/></svg>