<svg xmlns="http://www.w3.org/2000/svg" xmlns:xlink="http://www.w3.org/1999/xlink" width="50" height="50" viewBox="0 0 50 50"><defs><path id="a" d="M1424 969c0 6.68-2.6 12.96-7.32 17.68A24.84 24.84 0 011399 994c-6.68 0-12.96-2.6-17.68-7.32A24.84 24.84 0 011374 969c0-6.68 2.6-12.96 7.32-17.68A24.84 24.84 0 011399 944c6.68 0 12.96 2.6 17.68 7.32 4.72 4.72 7.32 11 7.32 17.68zm-2.93 0a21.93 21.93 0 00-6.46-15.6 21.93 21.93 0 00-15.61-6.47 21.93 21.93 0 00-15.6 6.46 21.93 21.93 0 00-6.47 15.61 21.93 21.93 0 006.46 15.6 21.93 21.93 0 0015.61 6.47 21.93 21.93 0 0015.6-6.46 21.93 21.93 0 006.47-15.61zm-10.94-4.23v.3a8.65 8.65 0 01-8.64 8.64h-6v8.16h-2.94v-25.74h8.94a8.65 8.65 0 018.64 8.64zm-2.93 0a5.71 5.71 0 00-5.7-5.7h-6.02v11.71h6.01a5.71 5.71 0 005.71-5.7z"/></defs><use fill="#ac915f" xlink:href="#a" transform="translate(-1374 -944)"/></svg>