<svg xmlns="http://www.w3.org/2000/svg" xmlns:xlink="http://www.w3.org/1999/xlink" width="50" height="50" viewBox="0 0 50 50"><defs><path id="a" d="M1501.65 968.55c-1.6 2.87-4.33 4.45-7.9 4.58a8.46 8.46 0 01-1.78 1.96h4.44c.54 0 .98.43.98.97a4.88 4.88 0 01-4.88 4.88h-15.6a4.88 4.88 0 01-4.87-4.88c0-.54.44-.97.98-.97h4.44a8.38 8.38 0 01-2.72-3.88 14.66 14.66 0 01-.75-4.63v-6.18c0-.54.44-.97.98-.97h19.5c.53 0 .97.43.97.97v.97h1.88c3.68 0 6.1 4.02 4.33 7.18zm-27.5 8.49a2.93 2.93 0 002.77 1.95h15.6a2.93 2.93 0 002.75-1.95h-21.11zm19.34-10.46v-5.2h-17.55v5.2c0 1.37.22 2.75.65 4a6.7 6.7 0 006.43 4.5h3.4c2.93 0 5.51-1.8 6.42-4.5.42-1.25.65-2.63.65-4zm3.83-3.26h-1.88v3.26c0 1.53-.25 3.09-.71 4.5a6.74 6.74 0 005.21-3.48c1.04-1.86-.43-4.28-2.62-4.28zM1510 969c0 6.68-2.6 12.96-7.32 17.68A24.84 24.84 0 011485 994c-6.68 0-12.96-2.6-17.68-7.32A24.84 24.84 0 011460 969c0-6.68 2.6-12.96 7.32-17.68A24.84 24.84 0 011485 944c6.68 0 12.96 2.6 17.68 7.32A24.84 24.84 0 011510 969zm-2.93 0c0-12.2-9.87-22.07-22.07-22.07a22.06 22.06 0 00-22.07 22.07c0 12.2 9.87 22.07 22.07 22.07 12.2 0 22.07-9.87 22.07-22.07z"/></defs><use fill="#ac915f" xlink:href="#a" transform="translate(-1460 -944)"/></svg>