<svg xmlns="http://www.w3.org/2000/svg" xmlns:xlink="http://www.w3.org/1999/xlink" width="16" height="6" viewBox="0 0 16 6"><defs><path id="a" d="M374 697.04v-.07a.23.23 0 00-.01-.04l-.01-.03-.02-.03a.17.17 0 00-.02-.03l-.02-.01a.13.13 0 00-.04-.02s-1.36-.44-2.82-1.01a5.04 5.04 0 01-2.4-1.74.14.14 0 00-.23 0 .23.23 0 000 .29c.5.58 1.05 1.25 2.53 1.83.6.24 1.19.45 1.67.62h-14.46c-.1 0-.17.09-.17.2 0 .11.07.2.17.2h14.46c-.48.17-1.07.38-1.67.62-1.48.58-2.03 1.25-2.53 1.83a.23.23 0 000 .29c.07.08.17.08.24 0 .35-.45.94-1.18 2.4-1.74 1.45-.57 2.8-1 2.8-1h.01l.04-.03.02-.01a.17.17 0 00.02-.03l.02-.03v-.03a.25.25 0 00.02-.03z"/></defs><use fill="#636363" xlink:href="#a" transform="rotate(-180 187 350)"/></svg>