<svg xmlns="http://www.w3.org/2000/svg" xmlns:xlink="http://www.w3.org/1999/xlink" width="36" height="18" viewBox="0 0 36 18"><defs><path id="c" d="M405.49 737.43c-1.2 0-2.18-.24-2.96-.83a4.1 4.1 0 01-1.46-3.9c.03-.07.08-.08.1-.08.07 0 .09.07.1.11l.12.2c.1.12.82.47 5.5-.56a126.5 126.5 0 0011.66-3.28c9.02-2.95 15.8-5.92 16.16-7.08l-.1-.3.16.07c.06.03 1.64.77 1.96 2.21.19.89-.14 1.83-.98 2.82-2 2.36-7.02 4.01-15.7 6.72-1.5.46-2.9.92-4.24 1.36-4.3 1.4-7.77 2.54-10.32 2.54zm-4.31-4.57c-.1.52-.08 2.5 1.43 3.63 2.4 1.79 6.9.3 13.16-1.74 1.35-.44 2.74-.9 4.24-1.36 8.66-2.7 13.66-4.34 15.65-6.67.8-.95 1.12-1.86.94-2.7-.25-1.11-1.33-1.81-1.73-2.03v.04c-.37 1.4-8.69 4.72-16.27 7.2-7.75 2.54-16.58 4.7-17.32 3.78z"/><path id="a" d="M401.09 721.29h33.73v11.98H401.1z"/><path id="e" d="M402.31 733.27c-1.02 0-1.12-.29-1.18-.48-.11-.34-.32-.97 4.61-3.14 2.43-1.07 5.63-2.1 9.03-3.2l2.63-.86 2.62-.86c3.4-1.13 6.6-2.2 9.19-2.77 5.26-1.16 5.46-.53 5.58-.2.1.34.31.97-4.62 3.15a131.47 131.47 0 01-11.57 4.33 131.53 131.53 0 01-11.9 3.36c-2.27.5-3.6.67-4.39.67m31.3-11.84c-.76 0-2.07.16-4.37.67a99.54 99.54 0 00-9.17 2.76 628.35 628.35 0 01-5.26 1.72c-3.39 1.1-6.6 2.13-9 3.2-4.82 2.12-4.63 2.71-4.54 2.97.08.25.27.84 5.4-.3 3.24-.7 7.46-1.9 11.88-3.35 4.43-1.45 8.54-2.98 11.56-4.32 4.81-2.13 4.62-2.72 4.54-2.97-.05-.14-.13-.38-1.05-.38m-31.36 11.34a1.7 1.7 0 01-.64-.08l-.08-.03.05-.07c.13-.23.86-.95 4.67-2.6a91.53 91.53 0 018.51-3 437.58 437.58 0 005.6-1.84c3.18-1.06 6.18-2.07 8.66-2.63 4.05-.91 5.06-.76 5.3-.66l.08.04-.04.07c-.14.23-.87.95-4.67 2.6-3 1.3-6.98 2.8-11.24 4.19a136.1 136.1 0 01-11.53 3.27c-2.63.6-3.98.74-4.67.74m-.5-.18c.34.08 1.46.13 5.14-.7a133.7 133.7 0 0011.52-3.27c4.25-1.4 8.23-2.88 11.22-4.18 3.45-1.5 4.33-2.21 4.55-2.47-.33-.08-1.46-.13-5.13.7a97.45 97.45 0 00-8.64 2.61l-2.8.93-2.8.91a97.47 97.47 0 00-8.5 3c-3.46 1.5-4.33 2.21-4.55 2.47"/><path id="f" d="M416.72 729.37l-.14-.03c.03-.12.75-2.92 10.8-4.95l.04.14c-9.97 2.01-10.7 4.82-10.7 4.84"/><path id="g" d="M408.44 730.43l-.05-.14c9.52-3.81 11.67-1.86 11.75-1.78l-.1.1.05-.05-.05.06c-.02-.02-2.2-1.96-11.6 1.8"/><path id="h" d="M426.71 730.79c.07 3.85-3.22 7.16-7.35 7.39-4.12.23-7.51-2.7-7.58-6.55-.06-3.85 3.23-7.16 7.35-7.39 4.12-.23 7.52 2.7 7.58 6.55"/><path id="b" d="M411.63 724.09h15.22v14.25h-15.22z"/><path id="j" d="M418.92 738.34c-1.95 0-3.8-.7-5.16-1.97a6.58 6.58 0 01-2.13-4.73c-.07-3.92 3.3-7.3 7.49-7.54 2.1-.12 4.14.6 5.6 1.95a6.58 6.58 0 012.13 4.74c.07 3.92-3.29 7.3-7.48 7.54a7.9 7.9 0 01-.45 0m.65-13.95l-.44.01c-4.04.23-7.27 3.48-7.21 7.24a6.3 6.3 0 002.04 4.53 7.32 7.32 0 005.4 1.88c4.03-.23 7.27-3.48 7.2-7.24a6.29 6.29 0 00-2.03-4.54 7.29 7.29 0 00-4.96-1.88"/><path id="k" d="M413.31 735.78c-2.48-2.83-1.9-7.23 1.24-9.71l.1-.09.12-.08a8.24 8.24 0 017.23-1.23 6.76 6.76 0 014.5 4.43 6.96 6.96 0 01-2.54 7.34l-.11.09-.12.08c-3.24 2.38-7.95 2-10.42-.83zm-1.4-5c-.1.84-.05 1.66.18 2.46l.88-1.45.53-.89-1.24-.09zm13.73 3.56l-.77-2.59-1.78 1.36-.12.93-.16 1.14zm-3.88 2.42l.87-1.45-.9-.07-1.32-.1-1.77 1.36 1.52.74 1.02.5zm-8.6-2.9l1.54.74.2-1.54.08-.53-1.37-1.58-.88 1.45-.58.97zm3.25.9l.54.03-.93-1.07-.94-1.07-.09.68-.18 1.3zm-1.02-5.2l-1.7 1.3 1.31 1.5.2-1.4zm1.12 4.56l.6.7 1.64.1 1.63.12 2.6-1.98.42-3.04-2.01-2.31-1.63-.12-1.64-.12-2.6 1.99-.2 1.52-.22 1.52zm4.76-6.53l-1.31-1.52-1.7 1.3 1.5.11zm1.85 5.35l1.7-1.3-1.32-1.5zm-5.9 1.98l1.32 1.52 1.7-1.3-1.5-.11zm6.2-5.06l.26-1.99-2.12-.15.92 1.07zm-5.45-2.4l-2.15-.15-.28 1.99zm4.63 7.73l.09.01.27-1.99-2.41 1.84zm-9.16.56a6.75 6.75 0 002.03 1.53l-.75-2.5zm2.16 1.58l2.84-.84-1.38-1.58-.6-.04-1.63-.12zm9.3-5.77l1.47-2.43-2.56-1.22-.28 2.07zm.16-4.8a6.7 6.7 0 00-2.01-1.54l.75 2.5zm-2.15-1.59l-2.83.85 1.37 1.58 2.23.16zm-4.57.1l-1.02-.5-1.46 2.43 1.47.1.76.06 1.78-1.35zm-2.65 2.06l-2.83.84.77 2.59 1.78-1.36.06-.43zm-3.53 6.18a6.22 6.22 0 001.22 2.16l1.27-.97-.95-.45zm3.55 3.9a7.48 7.48 0 002.55.66l.2-1.48zm2.67.67a7.97 7.97 0 002.66-.29l-1.53-.74-.93-.45zm5.36-1.6l-.99-1.12-.54.9-.88 1.45a8.09 8.09 0 002.34-1.18zm.14-.12a7.5 7.5 0 001.71-1.9l-2.75.83.98 1.12zm1.85-2.14c.43-.75.71-1.56.83-2.39l-1.57-.11zm.86-2.5c.1-.84.05-1.66-.17-2.46L425 731.6zm-.25-2.72a6.22 6.22 0 00-1.2-2.16l-1.27.97zm-3.54-3.9a7.49 7.49 0 00-2.55-.66l-.2 1.48zm-2.67-.67a8.03 8.03 0 00-2.68.28l1.54.74.94.46zm-5.35 1.6l.98 1.12 1.41-2.35a8.06 8.06 0 00-2.33 1.18zm-.16.12a7.5 7.5 0 00-1.7 1.9l2.74-.83-.98-1.12zm-1.85 2.13a6.75 6.75 0 00-.84 2.4l1.59.11z"/><clipPath id="d"><use xlink:href="#a"/></clipPath><clipPath id="i"><use xlink:href="#b"/></clipPath></defs><use xlink:href="#c" transform="translate(-401 -721)"/><g clip-path="url(#d)" transform="translate(-401 -721)"><use xlink:href="#e"/></g><use xlink:href="#f" transform="translate(-401 -721)"/><use xlink:href="#g" transform="translate(-401 -721)"/><use fill="#fff" xlink:href="#h" transform="translate(-401 -721)"/><g clip-path="url(#i)" transform="translate(-401 -721)"><use xlink:href="#j"/></g><use xlink:href="#k" transform="translate(-401 -721)"/></svg>