<svg xmlns="http://www.w3.org/2000/svg" xmlns:xlink="http://www.w3.org/1999/xlink" width="16" height="12" viewBox="0 0 16 12"><defs><path id="a" d="M1117.54 725.03a2.2 2.2 0 01-2.18 1.97 2.2 2.2 0 01-2.17-1.97h-4.04a2.2 2.2 0 01-2.18 1.97 2.2 2.2 0 01-2.17-1.97h-1.44a.37.37 0 01-.36-.37v-9.29c0-.2.16-.37.36-.37h8.75c.2 0 .36.17.36.37v1.6h3.1c.12 0 .23.06.3.16l2 2.18.78 1.11.28.42a.37.37 0 01.07.2v3.61a.37.37 0 01-.1.27.36.36 0 01-.26.12zm-2.17 1.11c.8 0 1.46-.66 1.46-1.48 0-.81-.65-1.48-1.46-1.48s-1.46.67-1.46 1.48c0 .83.65 1.5 1.46 1.5zm-8.39 0c.8 0 1.46-.66 1.46-1.48 0-.81-.65-1.48-1.46-1.48a1.49 1.49 0 000 2.98zm-3.24-1.85h1.06a2.2 2.2 0 012.18-1.96 2.2 2.2 0 012.17 1.96h2.58v-8.55h-8zm11.63-6.58h-2.91v6.58h.73a2.2 2.2 0 012.17-1.96 2.2 2.2 0 012.17 1.96h.73v-3.12l-.1-.16h-4.46a.37.37 0 01-.36-.37v-2.03c0-.2.16-.37.36-.37h2.05zm.9 1.28h-2.2v1.27h3.6z"/></defs><use fill="#ef4056" xlink:href="#a" transform="translate(-1103 -715)"/></svg>