<svg id="Слой_1" data-name="Слой 1" xmlns="http://www.w3.org/2000/svg" viewBox="0 0 141.73 141.73"><defs><style>.cls-1{fill:#e84155}</style></defs><path class="cls-1" d="M121.45 44.05H95.96v18.74h30.17l-4.68-18.74zm-6.94 55.08a12.43 12.43 0 1012.43 12.43 12.44 12.44 0 00-12.43-12.43zm0 18.36a5.93 5.93 0 115.93-5.93 5.94 5.94 0 01-5.93 5.93zm9.37-79.37a6.32 6.32 0 00-6.31-6.31H96v6.51h27.92zM35.81 99.13a12.43 12.43 0 1012.43 12.43 12.45 12.45 0 00-12.43-12.43zm0 18.36a5.93 5.93 0 115.93-5.93 5.94 5.94 0 01-5.93 5.93z"/><path class="cls-1" d="M126.94 84v-6.1a2.87 2.87 0 012.87-2.9h8.92a9.4 9.4 0 00-8.92-6.5H96v3.25a2.87 2.87 0 11-5.74 0v-52a.18.18 0 00-.19-.19H2.15a.19.19 0 00-.19.19v73.64h12.43a2.87 2.87 0 110 5.74H2v6.31a.19.19 0 00.19.19h16.45a18.16 18.16 0 0134.34 0h37.24V84A2.87 2.87 0 0196 84v21.61h1.38a18.16 18.16 0 0134.34 0h7.5V93h-3.25a9 9 0 01-9.03-9zM80.85 99.13H60.29a2.87 2.87 0 110-5.74h20.56a2.87 2.87 0 110 5.74z"/><path class="cls-1" d="M132.67 84a3.26 3.26 0 003.26 3.25h3.25v-6.5h-6.51z"/></svg>