<svg xmlns="http://www.w3.org/2000/svg" xmlns:xlink="http://www.w3.org/1999/xlink" width="13" height="14" viewBox="0 0 13 14"><defs><path id="a" d="M1424.14 425.1h-3.21v1h3.21zm4.92 1v1.1h-1.16l-.9 10.3a.55.55 0 01-.55.5h-7.84a.55.55 0 01-.55-.5l-.9-10.3H1416v-1.1h3.82v-1.19c0-.5.41-.91.91-.91h3.59c.5 0 .91.41.91.91v1.2zm-2.26 1.1h-8.55l.86 9.7h6.83zm-6.7 8.11l-.23-6.48 1.1-.04.23 6.48zm1.89-6.5h1.1v6.49h-1.1zm2.98 6.5l-1.1-.04.24-6.48 1.1.04z"/></defs><use fill="#636363" xlink:href="#a" transform="translate(-1416 -424)"/></svg>