<svg xmlns="http://www.w3.org/2000/svg" xmlns:xlink="http://www.w3.org/1999/xlink" width="36" height="23" viewBox="0 0 36 23"><defs><path id="c" d="M504.1 434.8c-.93 0-1.67-.14-2.23-.47-1.8-1.03-1.49-3.52-1.36-3.94.02-.05.05-.16.14-.15.05 0 .08.04.1.12 0 0 .03.14.29.2 1.25.28 7.72-1.37 15.72-4.01 10.18-3.36 13.82-5.31 14.45-5.67.97-.55.98-.8.98-.8l-.05-.18.17.11c.05.03 1.31.8 1.53 2.1.12.77-.16 1.57-.85 2.37-1.55 1.8-7.34 4.48-14.77 6.81l-.34.11c-6.05 1.9-10.82 3.4-13.78 3.4m-3.46-4.3a4.46 4.46 0 000 1.76c.13.62.46 1.46 1.3 1.94 2.3 1.33 8-.47 15.9-2.95l.34-.1c7.4-2.33 13.17-4.99 14.7-6.77.65-.76.92-1.52.8-2.25-.17-1.04-1.08-1.74-1.36-1.93-.08.15-.32.4-1.04.81-.62.36-4.27 2.32-14.47 5.68-8.16 2.7-14.5 4.3-15.8 4.02a.63.63 0 01-.37-.21"/><path id="d" d="M501.39 430.76c-.65 0-.7-.18-.75-.31-.1-.28-.25-.73 4.44-2.69 2.3-.96 5.3-1.94 8.5-2.98a622.8 622.8 0 004.95-1.63c3.19-1.07 6.2-2.07 8.62-2.67 4.93-1.21 5.08-.76 5.18-.49.09.27.24.73-4.44 2.69-2.87 1.2-6.75 2.61-10.92 3.99a160.06 160.06 0 01-11.16 3.29c-2.49.61-3.76.8-4.42.8m30.18-10.93c-.6 0-1.84.17-4.38.8-2.42.6-5.43 1.6-8.61 2.66l-2.48.83-2.47.8c-3.2 1.05-6.2 2.03-8.5 2.98-4.54 1.9-4.4 2.33-4.35 2.5.06.16.2.59 5-.6 3.02-.74 6.98-1.9 11.14-3.28a155.8 155.8 0 0010.91-3.99c4.55-1.9 4.4-2.33 4.35-2.49-.03-.07-.07-.2-.6-.2m-30.18 10.55a.92.92 0 01-.3-.03l-.11-.03.07-.09c.14-.18.85-.77 4.45-2.26 2.2-.9 5.03-1.82 8.02-2.8l2.64-.86 2.64-.88c2.99-1 5.81-1.94 8.13-2.52 3.78-.95 4.7-.9 4.93-.84l.1.03-.06.09c-.14.18-.85.77-4.46 2.26-2.83 1.17-6.6 2.54-10.6 3.86-4 1.32-7.85 2.46-10.82 3.2-2.89.73-4.11.87-4.63.87m-.12-.16c.37.03 1.47-.05 4.71-.86 2.97-.74 6.81-1.88 10.81-3.2 4-1.32 7.77-2.69 10.6-3.86 3.07-1.27 4-1.87 4.28-2.1-.36-.03-1.47.05-4.7.86-2.31.57-5.14 1.52-8.12 2.52l-2.64.88-2.64.86c-2.99.97-5.81 1.89-8.01 2.8-3.08 1.27-4.01 1.87-4.3 2.1"/><path id="e" d="M524 428.02a1.59 1.59 0 01-.97-.33 1.41 1.41 0 01-.54-.98c-.09-.83.56-1.6 1.43-1.72.44-.07.88.05 1.22.3.3.25.5.6.54.98.09.83-.56 1.6-1.43 1.73a1.7 1.7 0 01-.24.02m.15-2.74l-.2.01c-.71.1-1.24.73-1.17 1.4.03.3.19.57.43.76.27.2.62.3.98.25.72-.1 1.24-.73 1.17-1.4a1.1 1.1 0 00-.42-.76 1.28 1.28 0 00-.8-.26"/><path id="f" d="M526.97 426.95a1.59 1.59 0 01-.98-.33 1.41 1.41 0 01-.54-.98c-.09-.82.55-1.6 1.43-1.72.44-.07.88.05 1.22.3.3.25.5.6.54.98.08.83-.56 1.6-1.43 1.73a1.7 1.7 0 01-.24.02m.15-2.74l-.2.01c-.71.1-1.23.72-1.17 1.4.03.3.19.57.43.76.27.2.63.3.98.25.72-.1 1.24-.73 1.17-1.4a1.1 1.1 0 00-.42-.76 1.28 1.28 0 00-.8-.26"/><path id="g" d="M521.28 429.04c-.38 0-.75-.13-1.02-.36a1.32 1.32 0 01-.48-.94c-.04-.8.63-1.54 1.51-1.64.45-.05.9.08 1.21.35.29.24.46.58.48.94.04.8-.63 1.54-1.51 1.64h-.2m.21-2.63h-.16c-.71.09-1.27.68-1.23 1.32.02.28.14.54.36.73.26.21.62.31.98.27.71-.08 1.27-.67 1.23-1.3a1.02 1.02 0 00-.36-.74 1.26 1.26 0 00-.82-.28"/><path id="h" d="M518.44 430c-.35 0-.7-.11-.96-.32a1.32 1.32 0 01-.51-.93c-.08-.8.57-1.56 1.44-1.69.45-.07.9.04 1.22.3.3.23.48.56.52.92.07.8-.57 1.56-1.44 1.7l-.27.02m.23-2.65l-.22.01c-.7.11-1.24.72-1.18 1.37a1 1 0 00.4.7c.26.21.63.3.99.24.71-.1 1.24-.72 1.18-1.36a1.02 1.02 0 00-.4-.7 1.25 1.25 0 00-.77-.26"/><path id="i" d="M515.6 430.94c-.4 0-.8-.15-1.08-.41a1.32 1.32 0 01-.43-.97c0-.8.7-1.5 1.59-1.56.45-.03.89.12 1.2.41.27.26.42.6.42.97 0 .8-.7 1.5-1.59 1.56a1.57 1.57 0 01-.1 0m.18-2.63h-.1c-.71.04-1.3.6-1.3 1.25 0 .28.13.55.34.74.24.23.6.35.96.33.72-.05 1.3-.6 1.3-1.25a1.02 1.02 0 00-.33-.74 1.28 1.28 0 00-.87-.33"/><path id="j" d="M512.96 431.75c-.34 0-.67-.11-.93-.33a1.38 1.38 0 01-.51-.95 1.5 1.5 0 011.36-1.6c.4-.06.8.06 1.12.3.3.25.47.59.5.96a1.52 1.52 0 01-1.54 1.62m.1-2.6a1.27 1.27 0 00-.15.02 1.2 1.2 0 00-1.09 1.27c.03.29.17.55.4.73.25.2.56.3.9.25a1.2 1.2 0 001.08-1.27 1.07 1.07 0 00-.4-.73 1.17 1.17 0 00-.74-.26"/><path id="k" d="M529.64 425.48a1.53 1.53 0 01-1.46-1.16 1.49 1.49 0 01.16-1.15c.2-.33.51-.56.89-.65.78-.19 1.58.31 1.8 1.11.1.4.04.81-.17 1.15a1.4 1.4 0 01-1.22.7m-.08-2.7a1.1 1.1 0 00-.95.55c-.17.27-.21.6-.13.91.16.64.8 1.04 1.42.9.3-.07.54-.25.7-.51.16-.28.2-.6.12-.92a1.22 1.22 0 00-1.16-.92"/><path id="l" d="M510.38 432.55a1.56 1.56 0 01-.9-.28 1.45 1.45 0 01-.6-.94 1.56 1.56 0 011.28-1.77c.43-.08.85 0 1.2.25.32.23.54.56.6.95a1.56 1.56 0 01-1.58 1.8m-1.2-1.29c.05.3.22.57.48.75.27.2.62.27.96.2a1.25 1.25 0 001.04-1.41 1.15 1.15 0 00-.48-.75 1.27 1.27 0 00-.96-.2c-.7.13-1.16.76-1.05 1.41"/><path id="m" d="M507.46 433.31a1.56 1.56 0 01-.92-.3 1.45 1.45 0 01-.6-.95c-.12-.82.47-1.6 1.33-1.75a1.58 1.58 0 011.19.27c.32.24.53.58.6.96.12.82-.47 1.6-1.33 1.75a1.67 1.67 0 01-.27.02m-1.21-1.3c.05.3.21.57.47.75.27.2.62.27.96.21.7-.11 1.17-.73 1.07-1.39a1.14 1.14 0 00-.47-.75 1.28 1.28 0 00-.96-.21c-.7.11-1.17.73-1.07 1.39"/><path id="n" d="M504.97 433.7l-.17-.01c-.37-.06-.72-.3-.96-.66-.44-.67-.37-1.57.16-2 .23-.2.53-.28.83-.24.38.06.73.3.97.66.44.67.37 1.57-.16 2.01a1.04 1.04 0 01-.67.24m-.3-2.61a.73.73 0 00-.48.17c-.4.34-.45 1.05-.1 1.6.2.28.47.47.76.51a.73.73 0 00.6-.16c.4-.33.45-1.05.09-1.6-.2-.28-.47-.47-.76-.51a.83.83 0 00-.12-.01"/><path id="a" d="M498 412.52h33.46v14.9H498z"/><path id="p" d="M501.69 427.42a4.4 4.4 0 01-2.23-.47c-1.8-1.03-1.49-3.52-1.35-3.94.01-.05.04-.17.13-.15.05 0 .08.04.1.12 0 0 .03.14.29.2 1.25.28 7.72-1.37 15.72-4.01 10.19-3.36 13.82-5.31 14.45-5.67.97-.55.99-.8.99-.8l-.06-.18.17.11c.05.03 1.31.8 1.53 2.1.12.77-.16 1.57-.84 2.37-1.55 1.8-7.35 4.48-14.78 6.81l-.34.11c-6.05 1.9-10.82 3.4-13.78 3.4m-3.46-4.3a4.46 4.46 0 000 1.76c.13.62.46 1.46 1.3 1.94 2.3 1.33 8-.46 15.89-2.94l.35-.11c7.4-2.33 13.17-4.98 14.7-6.77.65-.76.92-1.52.8-2.25-.16-1.04-1.08-1.74-1.36-1.93-.08.15-.32.4-1.04.81-.62.36-4.27 2.32-14.47 5.68-8.16 2.7-14.5 4.3-15.8 4.02a.63.63 0 01-.37-.21"/><path id="b" d="M498.2 412.31h31.74v11.08H498.2z"/><path id="r" d="M498.98 423.39c-.65 0-.7-.18-.75-.31-.1-.28-.25-.73 4.44-2.69 2.3-.96 5.3-1.94 8.5-2.98l2.48-.8a669.41 669.41 0 002.47-.83c3.19-1.07 6.2-2.07 8.62-2.67 4.93-1.21 5.08-.76 5.18-.49.09.28.24.73-4.44 2.69-2.87 1.2-6.75 2.62-10.92 3.99a159.51 159.51 0 01-11.16 3.29c-2.49.61-3.76.8-4.42.8m30.18-10.93c-.6 0-1.84.17-4.38.8-2.42.6-5.43 1.6-8.61 2.66l-2.48.83-2.48.8c-3.18 1.05-6.2 2.03-8.49 2.98-4.54 1.9-4.4 2.33-4.35 2.5.06.16.2.59 5-.6 3.02-.74 6.97-1.9 11.14-3.28a155.8 155.8 0 0010.91-3.99c4.55-1.9 4.4-2.33 4.35-2.49-.03-.07-.07-.2-.6-.2m-30.18 10.55a1.17 1.17 0 01-.3-.03l-.11-.03.07-.09c.14-.18.85-.77 4.45-2.26 2.2-.9 5.03-1.82 8.02-2.8l2.64-.86 2.64-.88c2.99-1 5.81-1.94 8.13-2.52 3.78-.95 4.7-.9 4.93-.84l.1.03-.06.09c-.14.18-.85.77-4.46 2.26-2.83 1.17-6.6 2.54-10.6 3.86-4 1.32-7.85 2.46-10.82 3.2-2.89.73-4.11.87-4.63.87m-.12-.16c.37.03 1.47-.05 4.71-.86a163.2 163.2 0 0010.81-3.2c4-1.32 7.77-2.69 10.6-3.86 3.07-1.27 4-1.87 4.28-2.1-.36-.03-1.47.05-4.7.86-2.31.57-5.14 1.52-8.12 2.52l-2.64.88-2.64.86c-2.99.97-5.81 1.89-8.01 2.8-3.08 1.27-4.01 1.87-4.3 2.1"/><path id="s" d="M522.85 420.3a1.59 1.59 0 01-.98-.33 1.41 1.41 0 01-.54-.98c-.09-.83.55-1.6 1.43-1.72.44-.06.88.05 1.22.3.3.25.5.6.54.98.08.83-.56 1.6-1.43 1.73a1.7 1.7 0 01-.24.02m.15-2.74a1.42 1.42 0 00-.2.01c-.71.1-1.23.73-1.17 1.4.04.3.19.57.43.76.27.2.62.3.98.25.72-.1 1.24-.73 1.17-1.4a1.1 1.1 0 00-.42-.76 1.28 1.28 0 00-.8-.26"/><path id="t" d="M525.73 419.04c-.36 0-.7-.12-.98-.33a1.41 1.41 0 01-.54-.98c-.09-.83.56-1.6 1.43-1.72a1.61 1.61 0 011.22.3c.3.25.5.6.54.98.09.83-.56 1.6-1.43 1.73a1.69 1.69 0 01-.24.02m.15-2.74l-.2.01c-.7.1-1.23.73-1.17 1.4.04.3.19.57.43.76.27.2.62.3.98.25.72-.1 1.24-.73 1.17-1.4a1.1 1.1 0 00-.42-.76 1.28 1.28 0 00-.8-.26"/><path id="u" d="M519.98 421.37c-.39 0-.75-.13-1.02-.36a1.32 1.32 0 01-.48-.94c-.04-.8.63-1.54 1.51-1.64.45-.05.9.08 1.21.35.29.24.46.58.48.94.04.8-.63 1.54-1.51 1.64h-.2m.21-2.63h-.16c-.71.09-1.27.67-1.23 1.32.01.28.14.54.36.73.26.21.62.31.98.27.71-.08 1.27-.67 1.23-1.3a1.02 1.02 0 00-.36-.74 1.26 1.26 0 00-.82-.28"/><path id="v" d="M517.58 420.93c.07.72-.52 1.4-1.31 1.52-.8.13-1.5-.36-1.56-1.08-.07-.72.51-1.4 1.3-1.53.8-.12 1.5.36 1.57 1.09"/><path id="w" d="M516.03 422.63c-.35 0-.7-.11-.96-.32a1.33 1.33 0 01-.51-.93c-.08-.8.57-1.56 1.44-1.69.45-.07.9.04 1.22.3.3.23.48.56.52.92.07.8-.57 1.56-1.44 1.7l-.27.02m.23-2.65a1.45 1.45 0 00-.22.01c-.7.11-1.24.72-1.18 1.37a1 1 0 00.4.7c.26.21.63.3.99.24.71-.1 1.24-.72 1.18-1.36a1.02 1.02 0 00-.4-.7 1.26 1.26 0 00-.77-.26"/><path id="x" d="M514.73 422c0 .73-.64 1.36-1.44 1.4-.8.06-1.46-.49-1.46-1.21 0-.73.64-1.36 1.45-1.4.8-.06 1.45.5 1.45 1.22"/><path id="y" d="M513.18 423.57c-.4 0-.8-.15-1.08-.41a1.32 1.32 0 01-.43-.97c0-.8.7-1.5 1.59-1.56.45-.03.89.12 1.2.41.27.26.42.6.42.97 0 .8-.7 1.5-1.59 1.56a1.57 1.57 0 01-.1 0m.18-2.63h-.1c-.71.05-1.3.6-1.3 1.25 0 .28.13.55.34.74.24.23.6.35.96.33.72-.04 1.3-.6 1.3-1.25a1.02 1.02 0 00-.33-.74 1.28 1.28 0 00-.87-.33"/><path id="z" d="M508.5 425.08c-.34 0-.67-.11-.93-.33a1.38 1.38 0 01-.51-.95 1.5 1.5 0 011.36-1.6c.4-.06.8.06 1.12.3.3.25.47.59.5.96a1.5 1.5 0 01-1.35 1.61 1.63 1.63 0 01-.19.01m.1-2.6l-.15.02a1.2 1.2 0 00-1.09 1.27c.03.29.17.55.4.73.24.2.56.3.89.25a1.2 1.2 0 001.08-1.27 1.07 1.07 0 00-.4-.73 1.17 1.17 0 00-.74-.26"/><path id="A" d="M528.45 417.63a1.53 1.53 0 01-1.46-1.15 1.5 1.5 0 01.16-1.15c.2-.33.51-.56.89-.65.78-.19 1.58.31 1.8 1.11a1.49 1.49 0 01-.17 1.15 1.4 1.4 0 01-1.22.7m-.08-2.7a1.1 1.1 0 00-.96.55 1.19 1.19 0 00-.12.91c.16.64.8 1.04 1.42.9a1.1 1.1 0 00.69-.51c.16-.28.2-.6.12-.92a1.22 1.22 0 00-1.15-.92"/><path id="B" d="M505.75 425.87a1.56 1.56 0 01-.9-.28 1.45 1.45 0 01-.6-.94 1.56 1.56 0 011.3-1.77c.42-.08.84 0 1.19.25.32.23.54.56.6.95.15.82-.43 1.6-1.28 1.77a1.66 1.66 0 01-.3.02m.08-2.71a1.25 1.25 0 00-1.29 1.44c.06.3.23.56.48.74.28.2.63.27.97.2a1.25 1.25 0 001.04-1.41 1.14 1.14 0 00-.48-.75 1.25 1.25 0 00-.72-.22"/><path id="C" d="M502.86 426.3a1.56 1.56 0 01-.92-.3 1.45 1.45 0 01-.6-.95c-.12-.82.47-1.6 1.33-1.75a1.56 1.56 0 011.79 1.23c.12.82-.47 1.6-1.33 1.75a1.67 1.67 0 01-.27.02m.08-2.71c-.07 0-.15 0-.22.02-.7.11-1.17.73-1.07 1.39.05.3.21.57.47.75.27.2.62.27.96.22.7-.12 1.17-.74 1.07-1.4a1.14 1.14 0 00-.47-.75 1.26 1.26 0 00-.74-.23"/><path id="D" d="M500.52 426.65l-.17-.01c-.37-.06-.72-.3-.96-.66-.44-.67-.37-1.57.16-2 .23-.2.53-.28.83-.24.38.06.73.3.97.66.44.67.37 1.57-.16 2.01a1.04 1.04 0 01-.67.24m-.87-.85c.19.3.46.48.75.53a.74.74 0 00.6-.17c.4-.33.45-1.05.09-1.6-.2-.28-.47-.47-.76-.51a.74.74 0 00-.59.16c-.4.34-.45 1.05-.1 1.6"/><path id="E" d="M518.75 421.57c.08 2.28-1.84 4.27-4.28 4.45-2.44.18-4.48-1.52-4.56-3.8-.08-2.27 1.84-4.27 4.28-4.45 2.44-.18 4.48 1.52 4.56 3.8"/><path id="F" d="M514.13 426.2c-1.14 0-2.23-.4-3.04-1.13a3.96 3.96 0 01-1.33-2.84c-.08-2.35 1.9-4.42 4.42-4.6 1.26-.1 2.5.3 3.4 1.1a3.96 3.96 0 011.33 2.84c.08 2.36-1.9 4.42-4.42 4.61a4.76 4.76 0 01-.36.01m.4-8.27l-.33.01c-2.35.17-4.2 2.1-4.13 4.3a3.66 3.66 0 001.23 2.6 4.27 4.27 0 003.17 1.04c2.35-.17 4.2-2.1 4.13-4.29a3.66 3.66 0 00-1.23-2.61 4.24 4.24 0 00-2.83-1.05"/><path id="G" d="M510.87 424.66c-1.5-1.65-1.2-4.26.63-5.77l.06-.05.07-.05a4.88 4.88 0 014.27-.8 4 4 0 012.7 2.58 4.12 4.12 0 01-1.42 4.37l-.07.05-.06.05c-1.9 1.45-4.7 1.27-6.18-.38zm-.88-2.94a3.61 3.61 0 00.13 1.45l.5-.87.32-.53-.75-.04zm8.17 1.96l-.49-1.52-1.04.82-.06.56-.08.67zm-2.27 1.48l.5-.87-.54-.03-.78-.04-1.04.82.91.41.61.28zm-5.13-1.63l.91.42.11-.91.04-.32-.83-.92-.5.87-.34.58zm1.93.49l.32.01-.56-.62-.57-.62-.04.4-.1.78zm-.66-3.06l-1 .79.8.88zm.72 2.68l.36.41.97.05.97.05 1.52-1.2.21-1.8-1.21-1.35-.97-.06-.97-.05-1.52 1.2-.1.9-.11.91zm2.75-3.92l-.8-.88-1 .78.9.05zm1.15 3.16l1-.79-.8-.88zm-3.48 1.24l.8.88 1-.79-.9-.04zm3.61-3.08l.14-1.17-1.25-.07.56.62zm-3.25-1.35l-1.27-.07-.14 1.17zm2.84 4.52h.05l.14-1.17-1.41 1.1zm-5.42.43c.33.36.74.66 1.2.88l-.46-1.46zm1.29.92l1.67-.53-.83-.92-.35-.02-.98-.05zm5.44-3.53l.84-1.44-1.52-.7-.14 1.23zm.05-2.84a3.97 3.97 0 00-1.2-.89l.46 1.47zm-1.29-.91l-1.67.53.83.91 1.33.07zm-2.7.1l-.61-.28-.84 1.44.87.05.45.03 1.04-.82zm-1.55 1.25l-1.67.53.49 1.52 1.03-.82.03-.25zm-2.03 3.7c.16.47.41.9.74 1.26l.74-.58-.56-.26zm2.14 2.28a4.47 4.47 0 001.52.35l.1-.86zm1.59.36a4.8 4.8 0 001.58-.2l-.91-.41-.56-.26zm3.15-1l-.59-.65-.3.53-.51.87A4.77 4.77 0 00517 425zm.1-.08c.4-.32.73-.7.99-1.13l-1.62.51.59.65zm1.07-1.28c.25-.45.4-.93.47-1.42l-.94-.05zm.48-1.5c.05-.49.01-.98-.13-1.45l-.81 1.4zm-.19-1.6a3.7 3.7 0 00-.73-1.26l-.73.58zm-2.13-2.28a4.46 4.46 0 00-1.51-.36l-.1.87zm-1.57-.36a4.86 4.86 0 00-1.6.2l.93.41.56.25zm-3.16.99l.59.65.82-1.4c-.5.17-.96.41-1.38.72zm-.1.08a4.41 4.41 0 00-.99 1.13l1.62-.5-.6-.66zm-1.07 1.29a3.8 3.8 0 00-.47 1.4l.94.06z"/><clipPath id="o"><use xlink:href="#a"/></clipPath><clipPath id="q"><use xlink:href="#b"/></clipPath></defs><use xlink:href="#c" transform="translate(-498 -412)"/><use xlink:href="#d" transform="translate(-498 -412)"/><use xlink:href="#e" transform="translate(-498 -412)"/><use xlink:href="#f" transform="translate(-498 -412)"/><use xlink:href="#g" transform="translate(-498 -412)"/><use xlink:href="#h" transform="translate(-498 -412)"/><use xlink:href="#i" transform="translate(-498 -412)"/><use xlink:href="#j" transform="translate(-498 -412)"/><use xlink:href="#k" transform="translate(-498 -412)"/><use xlink:href="#l" transform="translate(-498 -412)"/><use xlink:href="#m" transform="translate(-498 -412)"/><use xlink:href="#n" transform="translate(-498 -412)"/><g clip-path="url(#o)" transform="translate(-498 -412)"><use xlink:href="#p"/></g><g clip-path="url(#q)" transform="translate(-498 -412)"><use xlink:href="#r"/></g><use xlink:href="#s" transform="translate(-498 -412)"/><use xlink:href="#t" transform="translate(-498 -412)"/><use xlink:href="#u" transform="translate(-498 -412)"/><use fill="#fff" xlink:href="#v" transform="translate(-498 -412)"/><use xlink:href="#w" transform="translate(-498 -412)"/><use fill="#fff" xlink:href="#x" transform="translate(-498 -412)"/><use xlink:href="#y" transform="translate(-498 -412)"/><use xlink:href="#z" transform="translate(-498 -412)"/><use xlink:href="#A" transform="translate(-498 -412)"/><use xlink:href="#B" transform="translate(-498 -412)"/><use xlink:href="#C" transform="translate(-498 -412)"/><use xlink:href="#D" transform="translate(-498 -412)"/><use fill="#fff" xlink:href="#E" transform="translate(-498 -412)"/><use xlink:href="#F" transform="translate(-498 -412)"/><use xlink:href="#G" transform="translate(-498 -412)"/></svg>