<svg xmlns="http://www.w3.org/2000/svg" xmlns:xlink="http://www.w3.org/1999/xlink" width="36" height="16" viewBox="0 0 36 16"><defs><path id="a" d="M603 362.34h35.9v15.74H603z"/><path id="c" d="M607.82 378.08a5.41 5.41 0 01-3.22-.8c-1.94-1.41-1.65-4.53-1.47-4.98 0-.03.04-.11.11-.1.07.01.09.1.09.13 0 0 .04.2.34.3 1.35.45 8.3-1 16.88-3.52 10.93-3.22 14.81-5.29 15.48-5.67 1.07-.61 1.06-.9 1.06-.9l-.05-.2.16.13a4.57 4.57 0 011.68 2.76 3.6 3.6 0 01-.88 2.73c-1.65 2.08-7.86 4.84-15.82 7.04l-.37.1c-5.97 1.65-10.77 2.98-14 2.98zm-4.6-5.62c-.15.66-.3 3.41 1.47 4.7 2.5 1.83 8.61.14 17.08-2.2l.37-.1c7.94-2.2 14.12-4.94 15.74-6.99.68-.85.97-1.74.85-2.63a4.43 4.43 0 00-1.52-2.58c-.08.16-.32.46-1.1.9-.68.39-4.58 2.46-15.52 5.68-8.75 2.57-15.57 3.99-16.97 3.52a.64.64 0 01-.4-.3z"/><path id="d" d="M604.4 372.88c-1.04 0-1.12-.26-1.17-.44-.1-.31-.27-.9 4.74-2.87 2.46-.97 5.7-1.91 9.12-2.9l2.66-.78 2.65-.78c3.42-1.03 6.65-2 9.25-2.5 5.29-1.06 5.46-.48 5.55-.17.1.31.27.9-4.74 2.87a144.6 144.6 0 01-11.7 3.93 144.8 144.8 0 01-11.98 3.04c-2.27.45-3.6.6-4.38.6m31.63-10.74c-.75 0-2.06.15-4.35.6-2.6.52-5.82 1.48-9.24 2.5l-2.65.8-2.66.77c-3.42 1-6.65 1.93-9.1 2.9-4.9 1.93-4.72 2.49-4.66 2.7.06.2.23.76 5.38-.26 3.25-.65 7.5-1.73 11.96-3.04 4.47-1.32 8.63-2.71 11.7-3.93 4.88-1.93 4.72-2.49 4.66-2.7-.04-.11-.1-.34-1.04-.34m-31.68 10.3c-.38 0-.56-.05-.64-.08l-.09-.04.06-.07c.14-.21.9-.87 4.76-2.37 2.36-.92 5.4-1.8 8.6-2.72a655.32 655.32 0 005.66-1.67c3.21-.96 6.24-1.87 8.73-2.37 4.06-.83 5.06-.7 5.3-.6l.08.04-.05.07c-.15.21-.9.87-4.77 2.37a148.1 148.1 0 01-11.37 3.8c-4.3 1.26-8.42 2.31-11.61 2.96-2.63.54-3.97.67-4.66.67m-.49-.17c.35.07 1.48.11 5.12-.63 3.19-.65 7.31-1.7 11.6-2.97a147.1 147.1 0 0011.36-3.79c3.45-1.35 4.38-2 4.63-2.24-.34-.07-1.48-.11-5.12.63-2.47.5-5.5 1.41-8.7 2.37l-2.83.85-2.83.82c-3.21.93-6.24 1.8-8.6 2.72-3.45 1.35-4.38 2-4.63 2.24"/><path id="e" d="M616.97 369.15l-.14-.04c.02-.07.57-1.7 6.91-2.85l.03.14c-6.22 1.13-6.8 2.73-6.8 2.75"/><path id="f" d="M625.41 372.23c-.42 0-.82-.15-1.11-.42a1.39 1.39 0 01-.47-1c-.02-.84.72-1.6 1.64-1.66.47-.04.93.1 1.26.4.3.26.46.62.47 1 .02.85-.72 1.6-1.64 1.67a1.9 1.9 0 01-.15 0m.2-2.8l-.12.01c-.77.06-1.39.68-1.37 1.37 0 .3.14.6.37.8.27.24.65.37 1.04.33.78-.06 1.4-.67 1.38-1.37a1.1 1.1 0 00-.37-.8 1.37 1.37 0 00-.92-.33"/><path id="g" d="M622.37 373.15c-.4 0-.77-.13-1.06-.37a1.39 1.39 0 01-.5-.99c-.06-.84.64-1.62 1.56-1.73.48-.05.94.07 1.28.36.3.25.48.6.5.98.06.85-.64 1.62-1.56 1.73a1.81 1.81 0 01-.22.02m.22-2.81h-.18c-.77.1-1.36.74-1.32 1.43.02.3.16.59.4.79.28.23.67.33 1.06.29.77-.1 1.36-.74 1.32-1.43a1.1 1.1 0 00-.4-.78 1.36 1.36 0 00-.88-.3"/><path id="h" d="M619.32 374.05c-.46 0-.89-.17-1.19-.47a1.39 1.39 0 01-.4-1.03c.01-.84.79-1.55 1.71-1.58.48-.01.93.16 1.24.47.28.28.43.64.42 1.03-.03.84-.8 1.55-1.73 1.58h-.05m.18-2.8h-.05c-.78.03-1.42.61-1.44 1.3-.01.31.1.6.33.82.26.26.63.4 1.03.39.77-.02 1.42-.6 1.44-1.3a1.1 1.1 0 00-.33-.82 1.39 1.39 0 00-.98-.38"/><path id="i" d="M616.49 374.82c-.38 0-.74-.13-1.03-.38-.3-.26-.47-.62-.5-1.01a1.6 1.6 0 011.48-1.64 1.56 1.56 0 011.17.37c.3.26.48.62.5 1.01a1.6 1.6 0 01-1.48 1.64 1.78 1.78 0 01-.14 0m.09-2.74h-.12a1.3 1.3 0 00-1.21 1.34 1.22 1.22 0 001.35 1.11 1.3 1.3 0 001.21-1.33 1.16 1.16 0 00-.4-.81c-.23-.2-.52-.31-.83-.31"/><clipPath id="b"><use xlink:href="#a"/></clipPath></defs><g clip-path="url(#b)" transform="translate(-603 -362)"><use xlink:href="#c"/></g><use xlink:href="#d" transform="translate(-603 -362)"/><use xlink:href="#e" transform="translate(-603 -362)"/><use xlink:href="#f" transform="translate(-603 -362)"/><use xlink:href="#g" transform="translate(-603 -362)"/><use xlink:href="#h" transform="translate(-603 -362)"/><use xlink:href="#i" transform="translate(-603 -362)"/></svg>