<svg xmlns="http://www.w3.org/2000/svg" xmlns:xlink="http://www.w3.org/1999/xlink" width="36" height="17" viewBox="0 0 36 17"><defs><path id="a" d="M498 362.63h35.9v15.74H498z"/><path id="d" d="M502.82 378.37a5.41 5.41 0 01-3.22-.8c-1.94-1.41-1.65-4.53-1.47-4.98 0-.03.04-.11.11-.1.07.01.09.1.09.13 0 0 .04.2.34.3 1.35.45 8.3-1 16.88-3.52 10.93-3.22 14.82-5.29 15.48-5.67 1.07-.61 1.06-.9 1.06-.9l-.05-.2.17.13a4.57 4.57 0 011.67 2.76 3.6 3.6 0 01-.88 2.73c-1.65 2.08-7.86 4.84-15.82 7.04l-.37.1c-5.97 1.65-10.78 2.98-14 2.98zm-4.6-5.62c-.15.66-.3 3.41 1.47 4.7 2.5 1.83 8.61.14 17.08-2.2l.37-.1c7.94-2.2 14.12-4.94 15.74-6.99.68-.85.97-1.74.85-2.63a4.42 4.42 0 00-1.52-2.58c-.08.16-.32.46-1.1.9-.68.39-4.58 2.46-15.52 5.68-8.75 2.57-15.57 3.99-16.97 3.52a.64.64 0 01-.4-.3z"/><path id="b" d="M498.2 362.29h34.03v10.88H498.2z"/><path id="f" d="M499.4 373.17c-1.04 0-1.12-.26-1.17-.44-.1-.31-.27-.9 4.74-2.87a111 111 0 019.12-2.9 845.66 845.66 0 005.3-1.56c3.43-1.03 6.66-2 9.26-2.5 5.29-1.06 5.46-.48 5.55-.17.1.31.27.9-4.74 2.87a144.56 144.56 0 01-11.7 3.93c-4.48 1.31-8.73 2.4-11.98 3.04-2.27.45-3.6.6-4.38.6m31.63-10.74c-.75 0-2.06.15-4.35.6-2.6.52-5.82 1.48-9.24 2.5l-2.65.8-2.66.77c-3.42 1-6.65 1.93-9.1 2.9-4.9 1.93-4.72 2.49-4.66 2.7.06.2.23.76 5.38-.26 3.25-.65 7.5-1.73 11.96-3.04 4.47-1.32 8.63-2.71 11.7-3.93 4.89-1.93 4.72-2.49 4.66-2.7-.04-.11-.1-.34-1.04-.34m-31.68 10.3c-.38 0-.56-.05-.64-.08l-.09-.04.06-.07c.14-.21.9-.87 4.76-2.37 2.36-.92 5.4-1.8 8.6-2.72l2.84-.82 2.82-.85c3.21-.96 6.24-1.87 8.73-2.37 4.06-.83 5.06-.7 5.3-.6l.08.04-.05.07c-.15.21-.9.87-4.77 2.37a147.95 147.95 0 01-11.37 3.8c-4.3 1.26-8.42 2.31-11.61 2.96-2.63.54-3.97.67-4.66.67m-.49-.17c.35.07 1.48.11 5.12-.63 3.19-.65 7.31-1.7 11.6-2.97a147.1 147.1 0 0011.36-3.79c3.45-1.35 4.38-2 4.63-2.24-.34-.07-1.48-.11-5.12.63-2.47.5-5.5 1.41-8.7 2.37l-2.83.85-2.83.82c-3.21.93-6.24 1.8-8.6 2.72-3.45 1.35-4.38 2-4.63 2.24"/><path id="g" d="M511.97 369.43l-.14-.05c.02-.06.57-1.69 6.92-2.84l.02.14c-6.22 1.13-6.8 2.73-6.8 2.75"/><path id="h" d="M523.34 371.52c-.4 0-.78-.13-1.07-.38a1.48 1.48 0 01-.54-1.04c-.06-.87.64-1.66 1.57-1.76.46-.05.92.08 1.26.37.32.26.5.63.54 1.04.06.87-.64 1.66-1.57 1.76a1.77 1.77 0 01-.19.01m.14-2.9h-.16c-.76.1-1.35.74-1.3 1.46.02.32.18.62.43.83a1.4 1.4 0 001.05.3c.77-.08 1.35-.73 1.3-1.45a1.19 1.19 0 00-.43-.83 1.38 1.38 0 00-.89-.31"/><path id="i" d="M526.52 370.48c-.4 0-.78-.13-1.07-.38a1.48 1.48 0 01-.54-1.04c-.06-.87.64-1.66 1.57-1.76.46-.05.92.08 1.26.37.32.26.5.63.54 1.04.06.87-.64 1.66-1.57 1.76l-.19.01m.14-2.9h-.16c-.76.09-1.35.74-1.3 1.46.02.32.18.62.43.83.28.24.66.35 1.05.3.77-.08 1.35-.73 1.3-1.45a1.2 1.2 0 00-.43-.83 1.38 1.38 0 00-.89-.31"/><path id="j" d="M520.41 372.52c-.42 0-.82-.15-1.11-.41a1.39 1.39 0 01-.47-1.01c-.02-.84.72-1.6 1.64-1.66.47-.04.93.1 1.26.4.3.26.46.62.47 1 .02.85-.72 1.6-1.64 1.67a1.88 1.88 0 01-.15 0m.2-2.8l-.12.01c-.77.06-1.39.68-1.37 1.37 0 .3.14.6.37.8.27.25.65.37 1.04.34.78-.07 1.4-.68 1.38-1.38a1.1 1.1 0 00-.37-.8 1.37 1.37 0 00-.92-.33"/><path id="k" d="M517.37 373.44c-.4 0-.77-.13-1.06-.37a1.39 1.39 0 01-.5-.99c-.06-.84.64-1.62 1.56-1.73a1.68 1.68 0 011.28.36c.3.25.48.6.5.98.06.85-.64 1.62-1.56 1.73a1.81 1.81 0 01-.22.02m.22-2.81h-.18c-.77.1-1.36.74-1.32 1.43.02.3.16.59.4.79a1.39 1.39 0 001.06.29c.77-.1 1.36-.74 1.32-1.43a1.1 1.1 0 00-.4-.78 1.36 1.36 0 00-.88-.3"/><path id="l" d="M514.32 374.34c-.46 0-.89-.17-1.19-.47a1.39 1.39 0 01-.4-1.03c.01-.84.79-1.55 1.71-1.58.48-.01.93.16 1.24.47.28.28.43.64.42 1.03-.03.84-.8 1.55-1.73 1.58h-.05m.18-2.8h-.05c-.78.03-1.42.61-1.44 1.3-.01.31.1.6.33.82.26.26.63.4 1.03.39.77-.02 1.42-.6 1.44-1.3a1.1 1.1 0 00-.33-.82 1.39 1.39 0 00-.98-.38"/><path id="m" d="M511.49 375.11c-.38 0-.74-.13-1.03-.38-.3-.26-.47-.62-.5-1.01a1.6 1.6 0 011.48-1.64c.44-.04.85.1 1.17.37.3.26.48.62.5 1.01a1.6 1.6 0 01-1.48 1.64 1.77 1.77 0 01-.14 0m.09-2.74h-.12a1.3 1.3 0 00-1.21 1.34 1.22 1.22 0 001.35 1.11 1.3 1.3 0 001.21-1.33 1.16 1.16 0 00-.4-.82c-.23-.2-.52-.3-.83-.3"/><path id="n" d="M529.4 369.01a1.6 1.6 0 01-1.54-1.26c-.1-.42-.02-.84.2-1.2.23-.34.57-.57.96-.65.83-.17 1.65.38 1.84 1.23.1.42.02.85-.2 1.2a1.48 1.48 0 01-1.26.68m-.08-2.85a1.2 1.2 0 00-1.01.55 1.28 1.28 0 00-.17.98c.16.7.83 1.15 1.5 1.01.32-.06.59-.25.76-.52a1.28 1.28 0 00.17-.99 1.31 1.31 0 00-1.25-1.03"/><path id="o" d="M531.71 367.51c-.68 0-1.3-.65-1.37-1.45-.04-.44.08-.85.33-1.13.2-.22.47-.34.77-.34.68 0 1.29.66 1.37 1.46.04.43-.08.84-.33 1.12-.2.22-.47.34-.77.34zm-.28-2.63a.73.73 0 00-.55.25c-.2.22-.29.54-.25.9.06.65.55 1.2 1.08 1.2a.74.74 0 00.56-.25c.2-.22.29-.55.25-.9-.06-.66-.55-1.2-1.08-1.2z"/><path id="p" d="M533.14 365.92h-.05c-.4-.04-.82-.56-.97-1.19-.1-.4-.05-.78.12-.98.1-.12.25-.17.4-.16.4.04.82.56.97 1.19.1.4.05.78-.12.98a.45.45 0 01-.35.16m-.55-2.04a.16.16 0 00-.13.06c-.08.1-.15.35-.06.73.13.54.48.94.71.96a.16.16 0 00.15-.06c.08-.1.15-.35.06-.73-.13-.54-.48-.94-.71-.96h-.02"/><path id="q" d="M508.71 375.86c-.35 0-.7-.11-.98-.33a1.52 1.52 0 01-.6-1.01 1.64 1.64 0 011.4-1.81c.46-.07.9.04 1.26.3.33.25.54.61.6 1.02.12.86-.51 1.67-1.41 1.8a1.76 1.76 0 01-.26.03m.08-2.88l-.22.01c-.74.12-1.27.78-1.17 1.49.05.33.22.62.5.82.28.22.65.31 1.02.25a1.35 1.35 0 001.18-1.48 1.24 1.24 0 00-.5-.83 1.35 1.35 0 00-.81-.26"/><path id="r" d="M505.59 376.58c-.37 0-.72-.12-1.01-.34a1.52 1.52 0 01-.59-1.03c-.1-.86.54-1.66 1.45-1.78.45-.06.89.05 1.24.32.33.26.54.62.59 1.03a1.64 1.64 0 01-1.68 1.8m.08-2.88l-.2.01c-.74.1-1.28.76-1.2 1.47.05.33.22.62.48.83.3.22.66.32 1.03.27.75-.1 1.29-.76 1.2-1.47a1.24 1.24 0 00-.48-.83 1.36 1.36 0 00-.83-.28"/><path id="s" d="M502.91 376.9a1.15 1.15 0 01-.2-.02 1.51 1.51 0 01-1-.72c-.44-.72-.33-1.66.23-2.1.25-.2.57-.27.88-.21.4.07.75.33 1 .72.43.72.33 1.67-.24 2.1-.2.15-.43.23-.67.23m-.3-2.78a.79.79 0 00-.49.17c-.45.35-.53 1.12-.16 1.72.2.32.48.53.8.6a.8.8 0 00.64-.16c.46-.36.53-1.13.16-1.73-.2-.31-.48-.53-.79-.59a.9.9 0 00-.16-.01"/><path id="t" d="M500.6 376.75c-.1 0-.2-.02-.3-.05-.36-.1-.67-.4-.86-.79-.34-.71-.16-1.57.4-1.9a.97.97 0 01.79-.1c.36.1.67.39.86.78.34.72.16 1.57-.4 1.91a.96.96 0 01-.5.14m-.26-2.6a.66.66 0 00-.35.1c-.43.27-.55.96-.28 1.55.15.32.4.55.68.63.2.06.4.04.56-.06.43-.27.55-.96.28-1.54-.15-.32-.4-.56-.68-.64a.74.74 0 00-.21-.03"/><path id="u" d="M498.96 376.12a.42.42 0 01-.1-.01c-.25-.06-.5-.35-.67-.79-.2-.53-.26-1.25.05-1.54a.38.38 0 01.35-.09c.26.06.5.35.68.79.2.53.26 1.25-.05 1.54a.38.38 0 01-.26.1m-.46-2.15a.1.1 0 00-.07.03c-.16.14-.18.68.03 1.22.14.38.35.58.47.6a.1.1 0 00.1-.02c.15-.14.18-.68-.03-1.22-.15-.38-.35-.58-.47-.6a.13.13 0 00-.03-.01"/><clipPath id="c"><use xlink:href="#a"/></clipPath><clipPath id="e"><use xlink:href="#b"/></clipPath></defs><g clip-path="url(#c)" transform="translate(-498 -362)"><use xlink:href="#d"/></g><g clip-path="url(#e)" transform="translate(-498 -362)"><use xlink:href="#f"/></g><use xlink:href="#g" transform="translate(-498 -362)"/><use xlink:href="#h" transform="translate(-498 -362)"/><use xlink:href="#i" transform="translate(-498 -362)"/><use xlink:href="#j" transform="translate(-498 -362)"/><use xlink:href="#k" transform="translate(-498 -362)"/><use xlink:href="#l" transform="translate(-498 -362)"/><use xlink:href="#m" transform="translate(-498 -362)"/><use xlink:href="#n" transform="translate(-498 -362)"/><use xlink:href="#o" transform="translate(-498 -362)"/><use xlink:href="#p" transform="translate(-498 -362)"/><use xlink:href="#q" transform="translate(-498 -362)"/><use xlink:href="#r" transform="translate(-498 -362)"/><use xlink:href="#s" transform="translate(-498 -362)"/><use xlink:href="#t" transform="translate(-498 -362)"/><use xlink:href="#u" transform="translate(-498 -362)"/></svg>