<svg xmlns="http://www.w3.org/2000/svg" xmlns:xlink="http://www.w3.org/1999/xlink" width="36" height="17" viewBox="0 0 36 17"><defs><path id="a" d="M401 418.63h35.9v15.74H401z"/><path id="d" d="M405.82 434.37a5.41 5.41 0 01-3.22-.8c-1.94-1.41-1.65-4.53-1.47-4.98 0-.03.04-.11.11-.1.07.01.09.1.09.13 0 0 .04.2.34.3 1.35.45 8.3-1 16.88-3.52 10.92-3.22 14.82-5.29 15.48-5.67 1.07-.61 1.06-.9 1.06-.9l-.05-.2.17.13a4.57 4.57 0 011.67 2.76 3.6 3.6 0 01-.88 2.73c-1.65 2.08-7.86 4.84-15.82 7.04l-.37.1c-5.97 1.65-10.77 2.98-14 2.98zm-4.6-5.62c-.15.66-.3 3.41 1.47 4.7 2.5 1.83 8.62.14 17.08-2.2l.37-.1c7.94-2.2 14.12-4.94 15.74-6.99.68-.85.97-1.74.85-2.63a4.42 4.42 0 00-1.52-2.58c-.08.16-.32.46-1.1.9-.68.39-4.58 2.46-15.52 5.68-8.75 2.57-15.57 3.99-16.97 3.52a.64.64 0 01-.4-.3z"/><path id="b" d="M401.2 418.29h34.03v10.88H401.2z"/><path id="f" d="M402.4 429.17c-1.04 0-1.12-.26-1.17-.44-.1-.31-.27-.9 4.74-2.87 2.46-.97 5.7-1.9 9.12-2.9l2.65-.77 2.66-.8c3.42-1.02 6.65-1.98 9.25-2.5 5.29-1.05 5.46-.47 5.55-.16.1.31.27.9-4.74 2.87a144.46 144.46 0 01-11.7 3.93 144.7 144.7 0 01-11.98 3.04c-2.27.45-3.6.6-4.38.6m31.63-10.74c-.75 0-2.06.15-4.35.6-2.6.52-5.82 1.48-9.24 2.5l-2.65.8-2.66.77c-3.42 1-6.65 1.93-9.1 2.9-4.9 1.93-4.73 2.49-4.66 2.7.06.2.23.76 5.38-.26 3.25-.65 7.5-1.73 11.96-3.04 4.47-1.32 8.63-2.71 11.7-3.93 4.88-1.93 4.72-2.49 4.65-2.7-.03-.11-.1-.34-1.03-.34m-31.68 10.3c-.38 0-.56-.05-.64-.08l-.09-.04.05-.07c.15-.21.91-.87 4.77-2.37 2.36-.92 5.4-1.8 8.6-2.72l2.84-.82 2.82-.85c3.21-.96 6.24-1.87 8.73-2.37 4.06-.83 5.06-.7 5.3-.6l.08.04-.05.07c-.15.21-.9.87-4.77 2.37a147.95 147.95 0 01-11.37 3.8c-4.3 1.26-8.42 2.31-11.61 2.96-2.63.54-3.97.67-4.66.67m-.49-.17c.35.07 1.48.11 5.12-.63 3.19-.65 7.31-1.7 11.6-2.97a147.1 147.1 0 0011.36-3.79c3.45-1.35 4.38-2 4.63-2.24-.34-.07-1.48-.11-5.12.63-2.47.5-5.5 1.41-8.7 2.37l-2.83.85-2.83.82c-3.21.93-6.24 1.8-8.6 2.72-3.45 1.35-4.38 2-4.63 2.24"/><path id="g" d="M414.97 425.43l-.14-.05c.02-.06.57-1.69 6.92-2.84l.02.14c-6.22 1.13-6.8 2.73-6.8 2.75"/><path id="h" d="M428.34 425.73c-.34 0-.67-.11-.93-.32a1.28 1.28 0 01-.46-.9 1.48 1.48 0 011.35-1.52c.4-.04.8.07 1.09.32.27.23.44.54.46.9.05.75-.55 1.43-1.35 1.51l-.16.01m.13-2.46h-.14c-.64.08-1.13.62-1.09 1.21.02.27.15.52.36.7.23.19.55.28.87.25.65-.07 1.14-.61 1.1-1.21a.99.99 0 00-.37-.7 1.15 1.15 0 00-.73-.25"/><path id="i" d="M419.75 430.68c-.4 0-.76-.15-1.02-.4a1.2 1.2 0 01-.36-.9c.02-.72.69-1.34 1.48-1.36.41-.01.8.14 1.07.4.24.24.37.56.36.9-.02.72-.69 1.33-1.48 1.35h-.05m.15-2.36h-.04c-.65.02-1.19.5-1.2 1.08a.92.92 0 00.27.68c.22.21.53.33.86.32.64-.02 1.18-.5 1.2-1.08a.92.92 0 00-.27-.68 1.16 1.16 0 00-.82-.32"/><path id="j" d="M410.62 430.71c-.32 0-.62-.1-.87-.3a1.31 1.31 0 01-.51-.88c-.1-.74.47-1.43 1.24-1.54.4-.05.77.05 1.08.28.28.22.46.54.5.89.1.74-.47 1.43-1.24 1.54a1.53 1.53 0 01-.2.01m-1.1-1.22c.04.27.18.52.4.69.24.18.54.26.85.22a1.12 1.12 0 001-1.21 1.02 1.02 0 00-.4-.69 1.13 1.13 0 00-.85-.22c-.62.08-1.07.63-1 1.21"/><clipPath id="c"><use xlink:href="#a"/></clipPath><clipPath id="e"><use xlink:href="#b"/></clipPath></defs><g clip-path="url(#c)" transform="translate(-401 -418)"><use xlink:href="#d"/></g><g clip-path="url(#e)" transform="translate(-401 -418)"><use xlink:href="#f"/></g><use xlink:href="#g" transform="translate(-401 -418)"/><use xlink:href="#h" transform="translate(-401 -418)"/><use xlink:href="#i" transform="translate(-401 -418)"/><use xlink:href="#j" transform="translate(-401 -418)"/></svg>